G04 #@! TF.GenerationSoftware,KiCad,Pcbnew,8.0.0*
G04 #@! TF.CreationDate,2024-04-02T15:54:02-06:00*
G04 #@! TF.ProjectId,SimonSaysPCBDesign,53696d6f-6e53-4617-9973-504342446573,1.0*
G04 #@! TF.SameCoordinates,Original*
G04 #@! TF.FileFunction,Copper,L2,Bot*
G04 #@! TF.FilePolarity,Positive*
%FSLAX46Y46*%
G04 Gerber Fmt 4.6, Leading zero omitted, Abs format (unit mm)*
G04 Created by KiCad (PCBNEW 8.0.0) date 2024-04-02 15:54:02*
%MOMM*%
%LPD*%
G01*
G04 APERTURE LIST*
G04 #@! TA.AperFunction,ComponentPad*
%ADD10R,1.600000X1.600000*%
G04 #@! TD*
G04 #@! TA.AperFunction,ComponentPad*
%ADD11O,1.600000X1.600000*%
G04 #@! TD*
G04 #@! TA.AperFunction,ComponentPad*
%ADD12R,2.600000X2.600000*%
G04 #@! TD*
G04 #@! TA.AperFunction,ComponentPad*
%ADD13C,2.600000*%
G04 #@! TD*
G04 #@! TA.AperFunction,ComponentPad*
%ADD14C,2.000000*%
G04 #@! TD*
G04 #@! TA.AperFunction,ComponentPad*
%ADD15R,1.800000X1.800000*%
G04 #@! TD*
G04 #@! TA.AperFunction,ComponentPad*
%ADD16C,1.800000*%
G04 #@! TD*
G04 #@! TA.AperFunction,ComponentPad*
%ADD17R,1.700000X1.700000*%
G04 #@! TD*
G04 #@! TA.AperFunction,ComponentPad*
%ADD18O,1.700000X1.700000*%
G04 #@! TD*
G04 #@! TA.AperFunction,ComponentPad*
%ADD19R,1.905000X2.000000*%
G04 #@! TD*
G04 #@! TA.AperFunction,ComponentPad*
%ADD20O,1.905000X2.000000*%
G04 #@! TD*
G04 #@! TA.AperFunction,ViaPad*
%ADD21C,0.600000*%
G04 #@! TD*
G04 #@! TA.AperFunction,Conductor*
%ADD22C,0.200000*%
G04 #@! TD*
G04 APERTURE END LIST*
D10*
X128000000Y-83300000D03*
D11*
X128000000Y-85840000D03*
X128000000Y-88380000D03*
X128000000Y-90920000D03*
X128000000Y-93460000D03*
X128000000Y-96000000D03*
X128000000Y-98540000D03*
X128000000Y-101080000D03*
X128000000Y-103620000D03*
X128000000Y-106160000D03*
X128000000Y-108700000D03*
X128000000Y-111240000D03*
X128000000Y-113780000D03*
X128000000Y-116320000D03*
X135620000Y-116320000D03*
X135620000Y-113780000D03*
X135620000Y-111240000D03*
X135620000Y-108700000D03*
X135620000Y-106160000D03*
X135620000Y-103620000D03*
X135620000Y-101080000D03*
X135620000Y-98540000D03*
X135620000Y-96000000D03*
X135620000Y-93460000D03*
X135620000Y-90920000D03*
X135620000Y-88380000D03*
X135620000Y-85840000D03*
X135620000Y-83300000D03*
D12*
X149000000Y-88500000D03*
D13*
X149000000Y-83500000D03*
D14*
X113750000Y-74250000D03*
X113750000Y-67750000D03*
X118250000Y-74250000D03*
X118250000Y-67750000D03*
D15*
X142500000Y-129040000D03*
D16*
X142500000Y-126500000D03*
D17*
X111000000Y-118080000D03*
D18*
X111000000Y-115540000D03*
X111000000Y-113000000D03*
X111000000Y-110460000D03*
X111000000Y-107920000D03*
X111000000Y-105380000D03*
D15*
X124500000Y-69210000D03*
D16*
X124500000Y-71750000D03*
D17*
X111000000Y-91960000D03*
D18*
X111000000Y-94500000D03*
X111000000Y-97040000D03*
X111000000Y-99580000D03*
D15*
X124500000Y-129000000D03*
D16*
X124500000Y-126460000D03*
D19*
X151540000Y-95840000D03*
D20*
X149000000Y-95840000D03*
X146460000Y-95840000D03*
D14*
X148750000Y-74250000D03*
X148750000Y-67750000D03*
X153250000Y-74250000D03*
X153250000Y-67750000D03*
X110750000Y-86250000D03*
X110750000Y-79750000D03*
X115250000Y-86250000D03*
X115250000Y-79750000D03*
D15*
X142500000Y-71790000D03*
D16*
X142500000Y-69250000D03*
D14*
X148750000Y-130500000D03*
X148750000Y-124000000D03*
X153250000Y-130500000D03*
X153250000Y-124000000D03*
D18*
X121000000Y-98790000D03*
D17*
X121000000Y-96250000D03*
D14*
X118250000Y-123750000D03*
X118250000Y-130250000D03*
X113750000Y-123750000D03*
X113750000Y-130250000D03*
D21*
X128000000Y-122500000D03*
X141000000Y-76000000D03*
X137000000Y-122500000D03*
X126000000Y-103500000D03*
X122000000Y-76500000D03*
X141000000Y-98500000D03*
X139500000Y-90500000D03*
X126000000Y-107500000D03*
X123800000Y-81600000D03*
X139000000Y-78500000D03*
X129000000Y-78000000D03*
X124400000Y-86400000D03*
X138400000Y-84600000D03*
D22*
X112163898Y-97040000D02*
X111000000Y-97040000D01*
X124648529Y-85800000D02*
X123403898Y-85800000D01*
X125000000Y-92000000D02*
X125000000Y-86151471D01*
X125020000Y-92020000D02*
X125000000Y-92000000D01*
X128455635Y-92020000D02*
X125020000Y-92020000D01*
X125000000Y-86151471D02*
X124648529Y-85800000D01*
X135875635Y-84600000D02*
X128455635Y-92020000D01*
X138400000Y-84600000D02*
X135875635Y-84600000D01*
X123403898Y-85800000D02*
X112163898Y-97040000D01*
X123266346Y-86400000D02*
X111236346Y-98430000D01*
X124400000Y-86400000D02*
X123266346Y-86400000D01*
X109850000Y-99050000D02*
X109850000Y-109310000D01*
X109850000Y-109310000D02*
X111000000Y-110460000D01*
X111236346Y-98430000D02*
X110470000Y-98430000D01*
X110470000Y-98430000D02*
X109850000Y-99050000D01*
X123800000Y-81600000D02*
X118250000Y-76050000D01*
X118250000Y-76050000D02*
X118250000Y-74250000D01*
X155500000Y-80500000D02*
X155500000Y-101500000D01*
X155500000Y-101500000D02*
X150840000Y-106160000D01*
X150840000Y-106160000D02*
X135620000Y-106160000D01*
X139000000Y-78500000D02*
X153500000Y-78500000D01*
X153500000Y-78500000D02*
X155500000Y-80500000D01*
X129000000Y-78000000D02*
X129100000Y-78100000D01*
X129100000Y-78100000D02*
X129100000Y-89820000D01*
X129100000Y-89820000D02*
X128000000Y-90920000D01*
G04 #@! TA.AperFunction,Conductor*
G36*
X153002855Y-65000632D02*
G01*
X153363310Y-65017296D01*
X153374700Y-65018352D01*
X153729238Y-65067808D01*
X153740482Y-65069910D01*
X154088944Y-65151867D01*
X154099934Y-65154994D01*
X154439368Y-65268761D01*
X154450022Y-65272889D01*
X154777488Y-65417479D01*
X154787735Y-65422581D01*
X155100452Y-65596765D01*
X155110190Y-65602794D01*
X155396535Y-65798944D01*
X155405512Y-65805093D01*
X155414652Y-65811996D01*
X155690035Y-66040671D01*
X155698499Y-66048387D01*
X155951612Y-66301500D01*
X155959328Y-66309964D01*
X156188003Y-66585347D01*
X156194906Y-66594487D01*
X156397205Y-66889809D01*
X156403234Y-66899547D01*
X156577418Y-67212264D01*
X156582523Y-67222517D01*
X156727105Y-67549964D01*
X156731243Y-67560644D01*
X156845001Y-67900052D01*
X156848135Y-67911068D01*
X156930087Y-68259509D01*
X156932192Y-68270768D01*
X156981646Y-68625292D01*
X156982703Y-68636696D01*
X156999368Y-68997144D01*
X156999500Y-69002871D01*
X156999500Y-130996753D01*
X156999330Y-131003243D01*
X156983407Y-131307046D01*
X156982050Y-131319953D01*
X156934971Y-131617205D01*
X156932273Y-131629902D01*
X156854374Y-131920623D01*
X156850363Y-131932966D01*
X156742510Y-132213935D01*
X156737231Y-132225793D01*
X156600591Y-132493963D01*
X156594101Y-132505203D01*
X156430187Y-132757608D01*
X156422558Y-132768109D01*
X156233149Y-133002010D01*
X156224464Y-133011655D01*
X156011655Y-133224464D01*
X156002010Y-133233149D01*
X155768109Y-133422558D01*
X155757608Y-133430187D01*
X155505203Y-133594101D01*
X155493963Y-133600591D01*
X155225793Y-133737231D01*
X155213935Y-133742510D01*
X154932966Y-133850363D01*
X154920623Y-133854374D01*
X154629902Y-133932273D01*
X154617205Y-133934971D01*
X154319953Y-133982050D01*
X154307046Y-133983407D01*
X154003244Y-133999330D01*
X153996754Y-133999500D01*
X112503051Y-133999500D01*
X112496968Y-133999351D01*
X112476900Y-133998365D01*
X112163071Y-133982947D01*
X112150962Y-133981754D01*
X111823305Y-133933151D01*
X111811369Y-133930777D01*
X111490055Y-133850292D01*
X111478411Y-133846759D01*
X111166540Y-133735170D01*
X111155301Y-133730515D01*
X110855844Y-133588883D01*
X110845121Y-133583150D01*
X110561011Y-133412862D01*
X110550893Y-133406102D01*
X110284829Y-133208775D01*
X110275423Y-133201055D01*
X110066452Y-133011655D01*
X110029986Y-132978604D01*
X110021395Y-132970013D01*
X109798944Y-132724576D01*
X109791224Y-132715170D01*
X109691034Y-132580080D01*
X109593895Y-132449103D01*
X109587137Y-132438988D01*
X109416844Y-132154871D01*
X109411120Y-132144163D01*
X109269479Y-131844688D01*
X109264829Y-131833459D01*
X109153240Y-131521588D01*
X109149707Y-131509944D01*
X109128375Y-131424782D01*
X109069219Y-131188617D01*
X109066848Y-131176694D01*
X109066564Y-131174782D01*
X109018245Y-130849037D01*
X109017052Y-130836927D01*
X109000649Y-130503032D01*
X109000500Y-130496948D01*
X109000500Y-130250005D01*
X112244357Y-130250005D01*
X112264890Y-130497812D01*
X112264892Y-130497824D01*
X112325936Y-130738881D01*
X112425826Y-130966606D01*
X112561833Y-131174782D01*
X112561836Y-131174785D01*
X112730256Y-131357738D01*
X112926491Y-131510474D01*
X112926493Y-131510475D01*
X113123712Y-131617205D01*
X113145190Y-131628828D01*
X113380386Y-131709571D01*
X113625665Y-131750500D01*
X113874335Y-131750500D01*
X114119614Y-131709571D01*
X114354810Y-131628828D01*
X114573509Y-131510474D01*
X114769744Y-131357738D01*
X114938164Y-131174785D01*
X115074173Y-130966607D01*
X115174063Y-130738881D01*
X115235108Y-130497821D01*
X115235109Y-130497812D01*
X115255643Y-130250005D01*
X116744357Y-130250005D01*
X116764890Y-130497812D01*
X116764892Y-130497824D01*
X116825936Y-130738881D01*
X116925826Y-130966606D01*
X117061833Y-131174782D01*
X117061836Y-131174785D01*
X117230256Y-131357738D01*
X117426491Y-131510474D01*
X117426493Y-131510475D01*
X117623712Y-131617205D01*
X117645190Y-131628828D01*
X117880386Y-131709571D01*
X118125665Y-131750500D01*
X118374335Y-131750500D01*
X118619614Y-131709571D01*
X118854810Y-131628828D01*
X119073509Y-131510474D01*
X119269744Y-131357738D01*
X119438164Y-131174785D01*
X119574173Y-130966607D01*
X119674063Y-130738881D01*
X119734555Y-130500005D01*
X147244357Y-130500005D01*
X147264890Y-130747812D01*
X147264892Y-130747824D01*
X147325936Y-130988881D01*
X147425826Y-131216606D01*
X147561833Y-131424782D01*
X147561836Y-131424785D01*
X147730256Y-131607738D01*
X147926491Y-131760474D01*
X148145190Y-131878828D01*
X148380386Y-131959571D01*
X148625665Y-132000500D01*
X148874335Y-132000500D01*
X149119614Y-131959571D01*
X149354810Y-131878828D01*
X149573509Y-131760474D01*
X149769744Y-131607738D01*
X149938164Y-131424785D01*
X150074173Y-131216607D01*
X150174063Y-130988881D01*
X150235108Y-130747821D01*
X150255643Y-130500005D01*
X151744357Y-130500005D01*
X151764890Y-130747812D01*
X151764892Y-130747824D01*
X151825936Y-130988881D01*
X151925826Y-131216606D01*
X152061833Y-131424782D01*
X152061836Y-131424785D01*
X152230256Y-131607738D01*
X152426491Y-131760474D01*
X152645190Y-131878828D01*
X152880386Y-131959571D01*
X153125665Y-132000500D01*
X153374335Y-132000500D01*
X153619614Y-131959571D01*
X153854810Y-131878828D01*
X154073509Y-131760474D01*
X154269744Y-131607738D01*
X154438164Y-131424785D01*
X154574173Y-131216607D01*
X154674063Y-130988881D01*
X154735108Y-130747821D01*
X154755643Y-130500000D01*
X154755462Y-130497821D01*
X154735109Y-130252187D01*
X154735107Y-130252175D01*
X154674063Y-130011118D01*
X154574173Y-129783393D01*
X154438166Y-129575217D01*
X154331487Y-129459333D01*
X154269744Y-129392262D01*
X154073509Y-129239526D01*
X154073507Y-129239525D01*
X154073506Y-129239524D01*
X153854811Y-129121172D01*
X153854802Y-129121169D01*
X153619616Y-129040429D01*
X153374335Y-128999500D01*
X153125665Y-128999500D01*
X152880383Y-129040429D01*
X152645197Y-129121169D01*
X152645188Y-129121172D01*
X152426493Y-129239524D01*
X152230257Y-129392261D01*
X152061833Y-129575217D01*
X151925826Y-129783393D01*
X151825936Y-130011118D01*
X151764892Y-130252175D01*
X151764890Y-130252187D01*
X151744357Y-130499994D01*
X151744357Y-130500005D01*
X150255643Y-130500005D01*
X150255643Y-130500000D01*
X150255462Y-130497821D01*
X150235109Y-130252187D01*
X150235107Y-130252175D01*
X150174063Y-130011118D01*
X150074173Y-129783393D01*
X149938166Y-129575217D01*
X149831487Y-129459333D01*
X149769744Y-129392262D01*
X149573509Y-129239526D01*
X149573507Y-129239525D01*
X149573506Y-129239524D01*
X149354811Y-129121172D01*
X149354802Y-129121169D01*
X149119616Y-129040429D01*
X148874335Y-128999500D01*
X148625665Y-128999500D01*
X148380383Y-129040429D01*
X148145197Y-129121169D01*
X148145188Y-129121172D01*
X147926493Y-129239524D01*
X147730257Y-129392261D01*
X147561833Y-129575217D01*
X147425826Y-129783393D01*
X147325936Y-130011118D01*
X147264892Y-130252175D01*
X147264890Y-130252187D01*
X147244357Y-130499994D01*
X147244357Y-130500005D01*
X119734555Y-130500005D01*
X119735108Y-130497821D01*
X119735109Y-130497812D01*
X119755643Y-130250005D01*
X119755643Y-130249994D01*
X119735109Y-130002187D01*
X119735107Y-130002175D01*
X119674063Y-129761118D01*
X119574173Y-129533393D01*
X119438166Y-129325217D01*
X119393140Y-129276306D01*
X119269744Y-129142262D01*
X119073509Y-128989526D01*
X119073507Y-128989525D01*
X119073506Y-128989524D01*
X118854811Y-128871172D01*
X118854802Y-128871169D01*
X118619616Y-128790429D01*
X118374335Y-128749500D01*
X118125665Y-128749500D01*
X117880383Y-128790429D01*
X117645197Y-128871169D01*
X117645188Y-128871172D01*
X117426493Y-128989524D01*
X117230257Y-129142261D01*
X117061833Y-129325217D01*
X116925826Y-129533393D01*
X116825936Y-129761118D01*
X116764892Y-130002175D01*
X116764890Y-130002187D01*
X116744357Y-130249994D01*
X116744357Y-130250005D01*
X115255643Y-130250005D01*
X115255643Y-130249994D01*
X115235109Y-130002187D01*
X115235107Y-130002175D01*
X115174063Y-129761118D01*
X115074173Y-129533393D01*
X114938166Y-129325217D01*
X114893140Y-129276306D01*
X114769744Y-129142262D01*
X114573509Y-128989526D01*
X114573507Y-128989525D01*
X114573506Y-128989524D01*
X114354811Y-128871172D01*
X114354802Y-128871169D01*
X114119616Y-128790429D01*
X113874335Y-128749500D01*
X113625665Y-128749500D01*
X113380383Y-128790429D01*
X113145197Y-128871169D01*
X113145188Y-128871172D01*
X112926493Y-128989524D01*
X112730257Y-129142261D01*
X112561833Y-129325217D01*
X112425826Y-129533393D01*
X112325936Y-129761118D01*
X112264892Y-130002175D01*
X112264890Y-130002187D01*
X112244357Y-130249994D01*
X112244357Y-130250005D01*
X109000500Y-130250005D01*
X109000500Y-126460006D01*
X123094700Y-126460006D01*
X123113864Y-126691297D01*
X123113866Y-126691308D01*
X123170842Y-126916300D01*
X123264075Y-127128848D01*
X123391018Y-127323150D01*
X123486167Y-127426510D01*
X123517089Y-127489164D01*
X123509228Y-127558590D01*
X123465081Y-127612746D01*
X123438271Y-127626674D01*
X123357911Y-127656646D01*
X123357906Y-127656649D01*
X123242812Y-127742809D01*
X123242809Y-127742812D01*
X123156649Y-127857906D01*
X123156645Y-127857913D01*
X123106403Y-127992620D01*
X123106401Y-127992627D01*
X123100000Y-128052155D01*
X123100000Y-128750000D01*
X124124722Y-128750000D01*
X124080667Y-128826306D01*
X124050000Y-128940756D01*
X124050000Y-129059244D01*
X124080667Y-129173694D01*
X124124722Y-129250000D01*
X123100000Y-129250000D01*
X123100000Y-129947844D01*
X123106401Y-130007372D01*
X123106403Y-130007379D01*
X123156645Y-130142086D01*
X123156649Y-130142093D01*
X123242809Y-130257187D01*
X123242812Y-130257190D01*
X123357906Y-130343350D01*
X123357913Y-130343354D01*
X123492620Y-130393596D01*
X123492627Y-130393598D01*
X123552155Y-130399999D01*
X123552172Y-130400000D01*
X124250000Y-130400000D01*
X124250000Y-129375277D01*
X124326306Y-129419333D01*
X124440756Y-129450000D01*
X124559244Y-129450000D01*
X124673694Y-129419333D01*
X124750000Y-129375277D01*
X124750000Y-130400000D01*
X125447828Y-130400000D01*
X125447844Y-130399999D01*
X125507372Y-130393598D01*
X125507379Y-130393596D01*
X125642086Y-130343354D01*
X125642093Y-130343350D01*
X125757187Y-130257190D01*
X125757190Y-130257187D01*
X125843350Y-130142093D01*
X125843354Y-130142086D01*
X125893596Y-130007379D01*
X125893598Y-130007372D01*
X125899999Y-129947844D01*
X125900000Y-129947827D01*
X125900000Y-129250000D01*
X124875278Y-129250000D01*
X124919333Y-129173694D01*
X124950000Y-129059244D01*
X124950000Y-128940756D01*
X124919333Y-128826306D01*
X124875278Y-128750000D01*
X125900000Y-128750000D01*
X125900000Y-128052172D01*
X125899999Y-128052155D01*
X125893598Y-127992627D01*
X125893596Y-127992620D01*
X125843354Y-127857913D01*
X125843350Y-127857906D01*
X125757190Y-127742812D01*
X125757187Y-127742809D01*
X125642093Y-127656649D01*
X125642086Y-127656645D01*
X125561729Y-127626674D01*
X125505795Y-127584803D01*
X125481378Y-127519338D01*
X125496230Y-127451065D01*
X125513826Y-127426516D01*
X125608979Y-127323153D01*
X125735924Y-127128849D01*
X125829157Y-126916300D01*
X125886134Y-126691305D01*
X125886135Y-126691297D01*
X125901986Y-126500006D01*
X141094700Y-126500006D01*
X141113864Y-126731297D01*
X141113866Y-126731308D01*
X141170842Y-126956300D01*
X141264075Y-127168848D01*
X141391018Y-127363150D01*
X141486167Y-127466510D01*
X141517089Y-127529164D01*
X141509228Y-127598590D01*
X141465081Y-127652746D01*
X141438271Y-127666674D01*
X141357911Y-127696646D01*
X141357906Y-127696649D01*
X141242812Y-127782809D01*
X141242809Y-127782812D01*
X141156649Y-127897906D01*
X141156645Y-127897913D01*
X141106403Y-128032620D01*
X141106401Y-128032627D01*
X141100000Y-128092155D01*
X141100000Y-128790000D01*
X142124722Y-128790000D01*
X142080667Y-128866306D01*
X142050000Y-128980756D01*
X142050000Y-129099244D01*
X142080667Y-129213694D01*
X142124722Y-129290000D01*
X141100000Y-129290000D01*
X141100000Y-129987844D01*
X141106401Y-130047372D01*
X141106403Y-130047379D01*
X141156645Y-130182086D01*
X141156649Y-130182093D01*
X141242809Y-130297187D01*
X141242812Y-130297190D01*
X141357906Y-130383350D01*
X141357913Y-130383354D01*
X141492620Y-130433596D01*
X141492627Y-130433598D01*
X141552155Y-130439999D01*
X141552172Y-130440000D01*
X142250000Y-130440000D01*
X142250000Y-129415277D01*
X142326306Y-129459333D01*
X142440756Y-129490000D01*
X142559244Y-129490000D01*
X142673694Y-129459333D01*
X142750000Y-129415277D01*
X142750000Y-130440000D01*
X143447828Y-130440000D01*
X143447844Y-130439999D01*
X143507372Y-130433598D01*
X143507379Y-130433596D01*
X143642086Y-130383354D01*
X143642093Y-130383350D01*
X143757187Y-130297190D01*
X143757190Y-130297187D01*
X143843350Y-130182093D01*
X143843354Y-130182086D01*
X143893596Y-130047379D01*
X143893598Y-130047372D01*
X143899999Y-129987844D01*
X143900000Y-129987827D01*
X143900000Y-129290000D01*
X142875278Y-129290000D01*
X142919333Y-129213694D01*
X142950000Y-129099244D01*
X142950000Y-128980756D01*
X142919333Y-128866306D01*
X142875278Y-128790000D01*
X143900000Y-128790000D01*
X143900000Y-128092172D01*
X143899999Y-128092155D01*
X143893598Y-128032627D01*
X143893596Y-128032620D01*
X143843354Y-127897913D01*
X143843350Y-127897906D01*
X143757190Y-127782812D01*
X143757187Y-127782809D01*
X143642093Y-127696649D01*
X143642086Y-127696645D01*
X143561729Y-127666674D01*
X143505795Y-127624803D01*
X143481378Y-127559338D01*
X143496230Y-127491065D01*
X143513826Y-127466516D01*
X143608979Y-127363153D01*
X143735924Y-127168849D01*
X143829157Y-126956300D01*
X143886134Y-126731305D01*
X143886135Y-126731297D01*
X143905300Y-126500006D01*
X143905300Y-126499993D01*
X143886135Y-126268702D01*
X143886133Y-126268691D01*
X143829157Y-126043699D01*
X143735924Y-125831151D01*
X143608983Y-125636852D01*
X143608980Y-125636849D01*
X143608979Y-125636847D01*
X143451784Y-125466087D01*
X143451779Y-125466083D01*
X143451777Y-125466081D01*
X143268634Y-125323535D01*
X143268628Y-125323531D01*
X143064504Y-125213064D01*
X143064495Y-125213061D01*
X142844984Y-125137702D01*
X142673282Y-125109050D01*
X142616049Y-125099500D01*
X142383951Y-125099500D01*
X142338164Y-125107140D01*
X142155015Y-125137702D01*
X141935504Y-125213061D01*
X141935495Y-125213064D01*
X141731371Y-125323531D01*
X141731365Y-125323535D01*
X141548222Y-125466081D01*
X141548219Y-125466084D01*
X141391016Y-125636852D01*
X141264075Y-125831151D01*
X141170842Y-126043699D01*
X141113866Y-126268691D01*
X141113864Y-126268702D01*
X141094700Y-126499993D01*
X141094700Y-126500006D01*
X125901986Y-126500006D01*
X125905300Y-126460006D01*
X125905300Y-126459993D01*
X125886135Y-126228702D01*
X125886133Y-126228691D01*
X125829157Y-126003699D01*
X125735924Y-125791151D01*
X125608983Y-125596852D01*
X125608980Y-125596849D01*
X125608979Y-125596847D01*
X125451784Y-125426087D01*
X125451779Y-125426083D01*
X125451777Y-125426081D01*
X125268634Y-125283535D01*
X125268628Y-125283531D01*
X125064504Y-125173064D01*
X125064495Y-125173061D01*
X124844984Y-125097702D01*
X124673282Y-125069050D01*
X124616049Y-125059500D01*
X124383951Y-125059500D01*
X124338164Y-125067140D01*
X124155015Y-125097702D01*
X123935504Y-125173061D01*
X123935495Y-125173064D01*
X123731371Y-125283531D01*
X123731365Y-125283535D01*
X123548222Y-125426081D01*
X123548219Y-125426084D01*
X123391016Y-125596852D01*
X123264075Y-125791151D01*
X123170842Y-126003699D01*
X123113866Y-126228691D01*
X123113864Y-126228702D01*
X123094700Y-126459993D01*
X123094700Y-126460006D01*
X109000500Y-126460006D01*
X109000500Y-123750005D01*
X112244357Y-123750005D01*
X112264890Y-123997812D01*
X112264892Y-123997824D01*
X112325936Y-124238881D01*
X112425826Y-124466606D01*
X112561833Y-124674782D01*
X112561836Y-124674785D01*
X112730256Y-124857738D01*
X112926491Y-125010474D01*
X113145190Y-125128828D01*
X113380386Y-125209571D01*
X113625665Y-125250500D01*
X113874335Y-125250500D01*
X114119614Y-125209571D01*
X114354810Y-125128828D01*
X114573509Y-125010474D01*
X114769744Y-124857738D01*
X114938164Y-124674785D01*
X115074173Y-124466607D01*
X115174063Y-124238881D01*
X115235108Y-123997821D01*
X115255462Y-123752187D01*
X115255643Y-123750005D01*
X116744357Y-123750005D01*
X116764890Y-123997812D01*
X116764892Y-123997824D01*
X116825936Y-124238881D01*
X116925826Y-124466606D01*
X117061833Y-124674782D01*
X117061836Y-124674785D01*
X117230256Y-124857738D01*
X117426491Y-125010474D01*
X117645190Y-125128828D01*
X117880386Y-125209571D01*
X118125665Y-125250500D01*
X118374335Y-125250500D01*
X118619614Y-125209571D01*
X118854810Y-125128828D01*
X119073509Y-125010474D01*
X119269744Y-124857738D01*
X119438164Y-124674785D01*
X119574173Y-124466607D01*
X119674063Y-124238881D01*
X119734555Y-124000005D01*
X147244357Y-124000005D01*
X147264890Y-124247812D01*
X147264892Y-124247824D01*
X147325936Y-124488881D01*
X147425826Y-124716606D01*
X147561833Y-124924782D01*
X147561836Y-124924785D01*
X147730256Y-125107738D01*
X147926491Y-125260474D01*
X147926493Y-125260475D01*
X148043017Y-125323535D01*
X148145190Y-125378828D01*
X148380386Y-125459571D01*
X148625665Y-125500500D01*
X148874335Y-125500500D01*
X149119614Y-125459571D01*
X149354810Y-125378828D01*
X149573509Y-125260474D01*
X149769744Y-125107738D01*
X149938164Y-124924785D01*
X150074173Y-124716607D01*
X150174063Y-124488881D01*
X150235108Y-124247821D01*
X150255643Y-124000005D01*
X151744357Y-124000005D01*
X151764890Y-124247812D01*
X151764892Y-124247824D01*
X151825936Y-124488881D01*
X151925826Y-124716606D01*
X152061833Y-124924782D01*
X152061836Y-124924785D01*
X152230256Y-125107738D01*
X152426491Y-125260474D01*
X152426493Y-125260475D01*
X152543017Y-125323535D01*
X152645190Y-125378828D01*
X152880386Y-125459571D01*
X153125665Y-125500500D01*
X153374335Y-125500500D01*
X153619614Y-125459571D01*
X153854810Y-125378828D01*
X154073509Y-125260474D01*
X154269744Y-125107738D01*
X154438164Y-124924785D01*
X154574173Y-124716607D01*
X154674063Y-124488881D01*
X154735108Y-124247821D01*
X154755643Y-124000000D01*
X154755462Y-123997821D01*
X154735109Y-123752187D01*
X154735107Y-123752175D01*
X154674063Y-123511118D01*
X154574173Y-123283393D01*
X154438166Y-123075217D01*
X154399664Y-123033393D01*
X154269744Y-122892262D01*
X154073509Y-122739526D01*
X154073507Y-122739525D01*
X154073506Y-122739524D01*
X153854811Y-122621172D01*
X153854802Y-122621169D01*
X153619616Y-122540429D01*
X153374335Y-122499500D01*
X153125665Y-122499500D01*
X152880383Y-122540429D01*
X152645197Y-122621169D01*
X152645188Y-122621172D01*
X152426493Y-122739524D01*
X152230257Y-122892261D01*
X152061833Y-123075217D01*
X151925826Y-123283393D01*
X151825936Y-123511118D01*
X151764892Y-123752175D01*
X151764890Y-123752187D01*
X151744357Y-123999994D01*
X151744357Y-124000005D01*
X150255643Y-124000005D01*
X150255643Y-124000000D01*
X150255462Y-123997821D01*
X150235109Y-123752187D01*
X150235107Y-123752175D01*
X150174063Y-123511118D01*
X150074173Y-123283393D01*
X149938166Y-123075217D01*
X149899664Y-123033393D01*
X149769744Y-122892262D01*
X149573509Y-122739526D01*
X149573507Y-122739525D01*
X149573506Y-122739524D01*
X149354811Y-122621172D01*
X149354802Y-122621169D01*
X149119616Y-122540429D01*
X148874335Y-122499500D01*
X148625665Y-122499500D01*
X148380383Y-122540429D01*
X148145197Y-122621169D01*
X148145188Y-122621172D01*
X147926493Y-122739524D01*
X147730257Y-122892261D01*
X147561833Y-123075217D01*
X147425826Y-123283393D01*
X147325936Y-123511118D01*
X147264892Y-123752175D01*
X147264890Y-123752187D01*
X147244357Y-123999994D01*
X147244357Y-124000005D01*
X119734555Y-124000005D01*
X119735108Y-123997821D01*
X119755462Y-123752187D01*
X119755643Y-123750005D01*
X119755643Y-123749994D01*
X119735109Y-123502187D01*
X119735107Y-123502175D01*
X119674063Y-123261118D01*
X119574173Y-123033393D01*
X119438166Y-122825217D01*
X119416557Y-122801744D01*
X119269744Y-122642262D01*
X119073509Y-122489526D01*
X119073507Y-122489525D01*
X119073506Y-122489524D01*
X118854811Y-122371172D01*
X118854802Y-122371169D01*
X118619616Y-122290429D01*
X118374335Y-122249500D01*
X118125665Y-122249500D01*
X117880383Y-122290429D01*
X117645197Y-122371169D01*
X117645188Y-122371172D01*
X117426493Y-122489524D01*
X117230257Y-122642261D01*
X117061833Y-122825217D01*
X116925826Y-123033393D01*
X116825936Y-123261118D01*
X116764892Y-123502175D01*
X116764890Y-123502187D01*
X116744357Y-123749994D01*
X116744357Y-123750005D01*
X115255643Y-123750005D01*
X115255643Y-123749994D01*
X115235109Y-123502187D01*
X115235107Y-123502175D01*
X115174063Y-123261118D01*
X115074173Y-123033393D01*
X114938166Y-122825217D01*
X114916557Y-122801744D01*
X114769744Y-122642262D01*
X114573509Y-122489526D01*
X114573507Y-122489525D01*
X114573506Y-122489524D01*
X114354811Y-122371172D01*
X114354802Y-122371169D01*
X114119616Y-122290429D01*
X113874335Y-122249500D01*
X113625665Y-122249500D01*
X113380383Y-122290429D01*
X113145197Y-122371169D01*
X113145188Y-122371172D01*
X112926493Y-122489524D01*
X112730257Y-122642261D01*
X112561833Y-122825217D01*
X112425826Y-123033393D01*
X112325936Y-123261118D01*
X112264892Y-123502175D01*
X112264890Y-123502187D01*
X112244357Y-123749994D01*
X112244357Y-123750005D01*
X109000500Y-123750005D01*
X109000500Y-109389054D01*
X109249498Y-109389054D01*
X109258194Y-109421506D01*
X109290423Y-109541785D01*
X109308658Y-109573368D01*
X109317452Y-109588599D01*
X109369479Y-109678715D01*
X109488349Y-109797585D01*
X109488355Y-109797590D01*
X109667233Y-109976468D01*
X109700718Y-110037791D01*
X109699327Y-110096241D01*
X109664939Y-110224583D01*
X109664936Y-110224596D01*
X109644341Y-110459999D01*
X109644341Y-110460000D01*
X109664936Y-110695403D01*
X109664938Y-110695413D01*
X109726094Y-110923655D01*
X109726096Y-110923659D01*
X109726097Y-110923663D01*
X109767902Y-111013313D01*
X109825965Y-111137830D01*
X109825967Y-111137834D01*
X109961501Y-111331395D01*
X109961506Y-111331402D01*
X110128597Y-111498493D01*
X110128603Y-111498498D01*
X110314158Y-111628425D01*
X110357783Y-111683002D01*
X110364977Y-111752500D01*
X110333454Y-111814855D01*
X110314158Y-111831575D01*
X110128597Y-111961505D01*
X109961505Y-112128597D01*
X109825965Y-112322169D01*
X109825964Y-112322171D01*
X109726098Y-112536335D01*
X109726094Y-112536344D01*
X109664938Y-112764586D01*
X109664936Y-112764596D01*
X109644341Y-112999999D01*
X109644341Y-113000000D01*
X109664936Y-113235403D01*
X109664938Y-113235413D01*
X109726094Y-113463655D01*
X109726096Y-113463659D01*
X109726097Y-113463663D01*
X109767902Y-113553313D01*
X109825965Y-113677830D01*
X109825967Y-113677834D01*
X109961501Y-113871395D01*
X109961506Y-113871402D01*
X110128597Y-114038493D01*
X110128603Y-114038498D01*
X110314158Y-114168425D01*
X110357783Y-114223002D01*
X110364977Y-114292500D01*
X110333454Y-114354855D01*
X110314158Y-114371575D01*
X110128597Y-114501505D01*
X109961505Y-114668597D01*
X109825965Y-114862169D01*
X109825964Y-114862171D01*
X109726098Y-115076335D01*
X109726094Y-115076344D01*
X109664938Y-115304586D01*
X109664936Y-115304596D01*
X109644341Y-115539999D01*
X109644341Y-115540000D01*
X109664936Y-115775403D01*
X109664938Y-115775413D01*
X109726094Y-116003655D01*
X109726096Y-116003659D01*
X109726097Y-116003663D01*
X109767902Y-116093313D01*
X109825965Y-116217830D01*
X109825967Y-116217834D01*
X109897504Y-116319998D01*
X109961501Y-116411396D01*
X109961506Y-116411402D01*
X110083818Y-116533714D01*
X110117303Y-116595037D01*
X110112319Y-116664729D01*
X110070447Y-116720662D01*
X110039471Y-116737577D01*
X109907912Y-116786646D01*
X109907906Y-116786649D01*
X109792812Y-116872809D01*
X109792809Y-116872812D01*
X109706649Y-116987906D01*
X109706645Y-116987913D01*
X109656403Y-117122620D01*
X109656401Y-117122627D01*
X109650000Y-117182155D01*
X109650000Y-117830000D01*
X110566988Y-117830000D01*
X110534075Y-117887007D01*
X110500000Y-118014174D01*
X110500000Y-118145826D01*
X110534075Y-118272993D01*
X110566988Y-118330000D01*
X109650000Y-118330000D01*
X109650000Y-118977844D01*
X109656401Y-119037372D01*
X109656403Y-119037379D01*
X109706645Y-119172086D01*
X109706649Y-119172093D01*
X109792809Y-119287187D01*
X109792812Y-119287190D01*
X109907906Y-119373350D01*
X109907913Y-119373354D01*
X110042620Y-119423596D01*
X110042627Y-119423598D01*
X110102155Y-119429999D01*
X110102172Y-119430000D01*
X110750000Y-119430000D01*
X110750000Y-118513012D01*
X110807007Y-118545925D01*
X110934174Y-118580000D01*
X111065826Y-118580000D01*
X111192993Y-118545925D01*
X111250000Y-118513012D01*
X111250000Y-119430000D01*
X111897828Y-119430000D01*
X111897844Y-119429999D01*
X111957372Y-119423598D01*
X111957379Y-119423596D01*
X112092086Y-119373354D01*
X112092093Y-119373350D01*
X112207187Y-119287190D01*
X112207190Y-119287187D01*
X112293350Y-119172093D01*
X112293354Y-119172086D01*
X112343596Y-119037379D01*
X112343598Y-119037372D01*
X112349999Y-118977844D01*
X112350000Y-118977827D01*
X112350000Y-118330000D01*
X111433012Y-118330000D01*
X111465925Y-118272993D01*
X111500000Y-118145826D01*
X111500000Y-118014174D01*
X111465925Y-117887007D01*
X111433012Y-117830000D01*
X112350000Y-117830000D01*
X112350000Y-117182172D01*
X112349999Y-117182155D01*
X112343598Y-117122627D01*
X112343596Y-117122620D01*
X112293354Y-116987913D01*
X112293350Y-116987906D01*
X112207190Y-116872812D01*
X112207187Y-116872809D01*
X112092093Y-116786649D01*
X112092088Y-116786646D01*
X111960528Y-116737577D01*
X111904595Y-116695705D01*
X111880178Y-116630241D01*
X111895030Y-116561968D01*
X111916175Y-116533720D01*
X112038495Y-116411401D01*
X112174035Y-116217830D01*
X112273903Y-116003663D01*
X112335063Y-115775408D01*
X112355659Y-115540000D01*
X112335063Y-115304592D01*
X112273903Y-115076337D01*
X112174035Y-114862171D01*
X112116532Y-114780047D01*
X112038494Y-114668597D01*
X111871402Y-114501506D01*
X111871396Y-114501501D01*
X111685842Y-114371575D01*
X111642217Y-114316998D01*
X111635023Y-114247500D01*
X111666546Y-114185145D01*
X111685842Y-114168425D01*
X111791049Y-114094758D01*
X111871401Y-114038495D01*
X112038495Y-113871401D01*
X112174035Y-113677830D01*
X112273903Y-113463663D01*
X112335063Y-113235408D01*
X112355659Y-113000000D01*
X112335063Y-112764592D01*
X112273903Y-112536337D01*
X112174035Y-112322171D01*
X112116532Y-112240047D01*
X112038494Y-112128597D01*
X111871402Y-111961506D01*
X111871396Y-111961501D01*
X111685842Y-111831575D01*
X111642217Y-111776998D01*
X111635023Y-111707500D01*
X111666546Y-111645145D01*
X111685842Y-111628425D01*
X111708026Y-111612891D01*
X111871401Y-111498495D01*
X112038495Y-111331401D01*
X112174035Y-111137830D01*
X112273903Y-110923663D01*
X112335063Y-110695408D01*
X112355659Y-110460000D01*
X112335063Y-110224592D01*
X112273903Y-109996337D01*
X112174035Y-109782171D01*
X112116532Y-109700047D01*
X112038494Y-109588597D01*
X111871402Y-109421506D01*
X111871396Y-109421501D01*
X111685842Y-109291575D01*
X111642217Y-109236998D01*
X111635023Y-109167500D01*
X111666546Y-109105145D01*
X111685842Y-109088425D01*
X111708026Y-109072891D01*
X111871401Y-108958495D01*
X112038495Y-108791401D01*
X112174035Y-108597830D01*
X112273903Y-108383663D01*
X112335063Y-108155408D01*
X112355659Y-107920000D01*
X112335063Y-107684592D01*
X112273903Y-107456337D01*
X112174035Y-107242171D01*
X112116532Y-107160047D01*
X112038494Y-107048597D01*
X111871402Y-106881506D01*
X111871396Y-106881501D01*
X111685842Y-106751575D01*
X111642217Y-106696998D01*
X111635023Y-106627500D01*
X111666546Y-106565145D01*
X111685842Y-106548425D01*
X111728578Y-106518501D01*
X111871401Y-106418495D01*
X112038495Y-106251401D01*
X112174035Y-106057830D01*
X112273903Y-105843663D01*
X112335063Y-105615408D01*
X112355659Y-105380000D01*
X112335063Y-105144592D01*
X112273903Y-104916337D01*
X112174035Y-104702171D01*
X112116532Y-104620047D01*
X112038494Y-104508597D01*
X111871402Y-104341506D01*
X111871395Y-104341501D01*
X111677834Y-104205967D01*
X111677830Y-104205965D01*
X111463663Y-104106097D01*
X111463659Y-104106096D01*
X111463655Y-104106094D01*
X111235413Y-104044938D01*
X111235403Y-104044936D01*
X111000001Y-104024341D01*
X110999999Y-104024341D01*
X110764596Y-104044936D01*
X110764583Y-104044939D01*
X110606592Y-104087271D01*
X110536742Y-104085608D01*
X110478880Y-104046445D01*
X110451377Y-103982216D01*
X110450500Y-103967496D01*
X110450500Y-100992503D01*
X110470185Y-100925464D01*
X110522989Y-100879709D01*
X110592147Y-100869765D01*
X110606593Y-100872728D01*
X110632647Y-100879709D01*
X110764592Y-100915063D01*
X110952918Y-100931539D01*
X110999999Y-100935659D01*
X111000000Y-100935659D01*
X111000001Y-100935659D01*
X111039234Y-100932226D01*
X111235408Y-100915063D01*
X111463663Y-100853903D01*
X111677830Y-100754035D01*
X111871401Y-100618495D01*
X112038495Y-100451401D01*
X112174035Y-100257830D01*
X112273903Y-100043663D01*
X112335063Y-99815408D01*
X112355659Y-99580000D01*
X112335063Y-99344592D01*
X112273903Y-99116337D01*
X112174035Y-98902171D01*
X112115248Y-98818213D01*
X112038494Y-98708597D01*
X112010419Y-98680522D01*
X111976934Y-98619199D01*
X111981918Y-98549507D01*
X112010417Y-98505162D01*
X113367709Y-97147870D01*
X119649500Y-97147870D01*
X119649501Y-97147876D01*
X119655908Y-97207483D01*
X119706202Y-97342328D01*
X119706206Y-97342335D01*
X119792452Y-97457544D01*
X119792455Y-97457547D01*
X119907664Y-97543793D01*
X119907671Y-97543797D01*
X119907674Y-97543798D01*
X120039598Y-97593002D01*
X120095531Y-97634873D01*
X120119949Y-97700337D01*
X120105098Y-97768610D01*
X120083947Y-97796865D01*
X119961886Y-97918926D01*
X119826400Y-98112420D01*
X119826399Y-98112422D01*
X119726570Y-98326507D01*
X119726567Y-98326513D01*
X119669364Y-98539999D01*
X119669364Y-98540000D01*
X120566988Y-98540000D01*
X120534075Y-98597007D01*
X120500000Y-98724174D01*
X120500000Y-98855826D01*
X120534075Y-98982993D01*
X120566988Y-99040000D01*
X119669364Y-99040000D01*
X119726567Y-99253486D01*
X119726570Y-99253492D01*
X119826399Y-99467578D01*
X119961894Y-99661082D01*
X120128917Y-99828105D01*
X120322421Y-99963600D01*
X120536507Y-100063429D01*
X120536516Y-100063433D01*
X120750000Y-100120634D01*
X120750000Y-99223012D01*
X120807007Y-99255925D01*
X120934174Y-99290000D01*
X121065826Y-99290000D01*
X121192993Y-99255925D01*
X121250000Y-99223012D01*
X121250000Y-100120633D01*
X121463483Y-100063433D01*
X121463492Y-100063429D01*
X121677578Y-99963600D01*
X121871082Y-99828105D01*
X122038105Y-99661082D01*
X122173600Y-99467578D01*
X122273429Y-99253492D01*
X122273432Y-99253486D01*
X122330636Y-99040000D01*
X121433012Y-99040000D01*
X121465925Y-98982993D01*
X121500000Y-98855826D01*
X121500000Y-98724174D01*
X121465925Y-98597007D01*
X121433012Y-98540000D01*
X122330636Y-98540000D01*
X122330635Y-98539999D01*
X122273432Y-98326513D01*
X122273429Y-98326507D01*
X122173600Y-98112422D01*
X122173599Y-98112420D01*
X122038113Y-97918926D01*
X122038108Y-97918920D01*
X121916053Y-97796865D01*
X121882568Y-97735542D01*
X121887552Y-97665850D01*
X121929424Y-97609917D01*
X121960400Y-97593002D01*
X122092331Y-97543796D01*
X122207546Y-97457546D01*
X122293796Y-97342331D01*
X122344091Y-97207483D01*
X122350500Y-97147873D01*
X122350499Y-95352128D01*
X122344091Y-95292517D01*
X122343152Y-95290000D01*
X122293797Y-95157671D01*
X122293793Y-95157664D01*
X122207547Y-95042455D01*
X122207544Y-95042452D01*
X122092335Y-94956206D01*
X122092328Y-94956202D01*
X121957482Y-94905908D01*
X121957483Y-94905908D01*
X121897883Y-94899501D01*
X121897881Y-94899500D01*
X121897873Y-94899500D01*
X121897864Y-94899500D01*
X120102129Y-94899500D01*
X120102123Y-94899501D01*
X120042516Y-94905908D01*
X119907671Y-94956202D01*
X119907664Y-94956206D01*
X119792455Y-95042452D01*
X119792452Y-95042455D01*
X119706206Y-95157664D01*
X119706202Y-95157671D01*
X119655908Y-95292517D01*
X119649501Y-95352116D01*
X119649501Y-95352123D01*
X119649500Y-95352135D01*
X119649500Y-97147870D01*
X113367709Y-97147870D01*
X123478762Y-87036819D01*
X123540085Y-87003334D01*
X123566443Y-87000500D01*
X123817588Y-87000500D01*
X123884627Y-87020185D01*
X123894903Y-87027555D01*
X123897736Y-87029814D01*
X123897738Y-87029816D01*
X123956501Y-87066739D01*
X124023785Y-87109017D01*
X124050478Y-87125789D01*
X124220745Y-87185368D01*
X124289384Y-87193101D01*
X124353796Y-87220166D01*
X124393352Y-87277760D01*
X124399500Y-87316321D01*
X124399500Y-91913330D01*
X124399499Y-91913348D01*
X124399499Y-92079054D01*
X124399498Y-92079054D01*
X124417635Y-92146739D01*
X124440423Y-92231785D01*
X124451970Y-92251784D01*
X124496798Y-92329429D01*
X124519479Y-92368714D01*
X124519481Y-92368717D01*
X124651284Y-92500520D01*
X124738095Y-92550639D01*
X124738097Y-92550641D01*
X124788213Y-92579576D01*
X124788215Y-92579577D01*
X124940942Y-92620500D01*
X124940943Y-92620500D01*
X126762488Y-92620500D01*
X126829527Y-92640185D01*
X126875282Y-92692989D01*
X126885226Y-92762147D01*
X126871363Y-92802193D01*
X126871720Y-92802360D01*
X126870112Y-92805806D01*
X126869870Y-92806508D01*
X126869432Y-92807266D01*
X126773261Y-93013502D01*
X126773258Y-93013511D01*
X126714366Y-93233302D01*
X126714364Y-93233313D01*
X126694532Y-93459998D01*
X126694532Y-93460001D01*
X126714364Y-93686686D01*
X126714366Y-93686697D01*
X126773258Y-93906488D01*
X126773261Y-93906497D01*
X126869431Y-94112732D01*
X126869432Y-94112734D01*
X126999954Y-94299141D01*
X127160858Y-94460045D01*
X127160861Y-94460047D01*
X127347266Y-94590568D01*
X127405275Y-94617618D01*
X127457714Y-94663791D01*
X127476866Y-94730984D01*
X127456650Y-94797865D01*
X127405275Y-94842381D01*
X127396965Y-94846257D01*
X127347267Y-94869431D01*
X127347265Y-94869432D01*
X127160858Y-94999954D01*
X126999954Y-95160858D01*
X126869432Y-95347265D01*
X126869431Y-95347267D01*
X126773261Y-95553502D01*
X126773258Y-95553511D01*
X126714366Y-95773302D01*
X126714364Y-95773313D01*
X126694532Y-95999998D01*
X126694532Y-96000001D01*
X126714364Y-96226686D01*
X126714366Y-96226697D01*
X126773258Y-96446488D01*
X126773261Y-96446497D01*
X126869431Y-96652732D01*
X126869432Y-96652734D01*
X126999954Y-96839141D01*
X127160858Y-97000045D01*
X127160861Y-97000047D01*
X127347266Y-97130568D01*
X127405275Y-97157618D01*
X127457714Y-97203791D01*
X127476866Y-97270984D01*
X127456650Y-97337865D01*
X127405275Y-97382382D01*
X127347267Y-97409431D01*
X127347265Y-97409432D01*
X127160858Y-97539954D01*
X126999954Y-97700858D01*
X126869432Y-97887265D01*
X126869431Y-97887267D01*
X126773261Y-98093502D01*
X126773258Y-98093511D01*
X126714366Y-98313302D01*
X126714364Y-98313313D01*
X126694532Y-98539998D01*
X126694532Y-98540000D01*
X126714364Y-98766686D01*
X126714366Y-98766697D01*
X126773258Y-98986488D01*
X126773261Y-98986497D01*
X126869431Y-99192732D01*
X126869432Y-99192734D01*
X126999954Y-99379141D01*
X127160858Y-99540045D01*
X127160861Y-99540047D01*
X127347266Y-99670568D01*
X127405865Y-99697893D01*
X127458305Y-99744065D01*
X127477457Y-99811258D01*
X127457242Y-99878139D01*
X127405867Y-99922657D01*
X127347515Y-99949867D01*
X127161179Y-100080342D01*
X127000342Y-100241179D01*
X126869865Y-100427517D01*
X126773734Y-100633673D01*
X126773730Y-100633682D01*
X126721127Y-100829999D01*
X126721128Y-100830000D01*
X127684314Y-100830000D01*
X127679920Y-100834394D01*
X127627259Y-100925606D01*
X127600000Y-101027339D01*
X127600000Y-101132661D01*
X127627259Y-101234394D01*
X127679920Y-101325606D01*
X127684314Y-101330000D01*
X126721128Y-101330000D01*
X126773730Y-101526317D01*
X126773734Y-101526326D01*
X126869865Y-101732482D01*
X127000342Y-101918820D01*
X127161179Y-102079657D01*
X127347518Y-102210134D01*
X127347520Y-102210135D01*
X127405865Y-102237342D01*
X127458305Y-102283514D01*
X127477457Y-102350707D01*
X127457242Y-102417589D01*
X127405867Y-102462105D01*
X127347268Y-102489431D01*
X127347264Y-102489433D01*
X127160858Y-102619954D01*
X126999954Y-102780858D01*
X126869432Y-102967265D01*
X126869431Y-102967267D01*
X126773261Y-103173502D01*
X126773258Y-103173511D01*
X126714366Y-103393302D01*
X126714364Y-103393313D01*
X126694532Y-103619998D01*
X126694532Y-103620001D01*
X126714364Y-103846686D01*
X126714366Y-103846697D01*
X126773258Y-104066488D01*
X126773261Y-104066497D01*
X126869431Y-104272732D01*
X126869432Y-104272734D01*
X126999954Y-104459141D01*
X127160858Y-104620045D01*
X127160861Y-104620047D01*
X127347266Y-104750568D01*
X127405275Y-104777618D01*
X127457714Y-104823791D01*
X127476866Y-104890984D01*
X127456650Y-104957865D01*
X127405275Y-105002382D01*
X127347267Y-105029431D01*
X127347265Y-105029432D01*
X127160858Y-105159954D01*
X126999954Y-105320858D01*
X126869432Y-105507265D01*
X126869431Y-105507267D01*
X126773261Y-105713502D01*
X126773258Y-105713511D01*
X126714366Y-105933302D01*
X126714364Y-105933313D01*
X126694532Y-106159998D01*
X126694532Y-106160001D01*
X126714364Y-106386686D01*
X126714366Y-106386697D01*
X126773258Y-106606488D01*
X126773261Y-106606497D01*
X126869431Y-106812732D01*
X126869432Y-106812734D01*
X126999954Y-106999141D01*
X127160858Y-107160045D01*
X127160861Y-107160047D01*
X127347266Y-107290568D01*
X127405275Y-107317618D01*
X127457714Y-107363791D01*
X127476866Y-107430984D01*
X127456650Y-107497865D01*
X127405275Y-107542382D01*
X127347267Y-107569431D01*
X127347265Y-107569432D01*
X127160858Y-107699954D01*
X126999954Y-107860858D01*
X126869432Y-108047265D01*
X126869431Y-108047267D01*
X126773261Y-108253502D01*
X126773258Y-108253511D01*
X126714366Y-108473302D01*
X126714364Y-108473313D01*
X126694532Y-108699998D01*
X126694532Y-108700001D01*
X126714364Y-108926686D01*
X126714366Y-108926697D01*
X126773258Y-109146488D01*
X126773261Y-109146497D01*
X126869431Y-109352732D01*
X126869432Y-109352734D01*
X126999954Y-109539141D01*
X127160858Y-109700045D01*
X127160861Y-109700047D01*
X127347266Y-109830568D01*
X127405275Y-109857618D01*
X127457714Y-109903791D01*
X127476866Y-109970984D01*
X127456650Y-110037865D01*
X127405275Y-110082382D01*
X127347267Y-110109431D01*
X127347265Y-110109432D01*
X127160858Y-110239954D01*
X126999954Y-110400858D01*
X126869432Y-110587265D01*
X126869431Y-110587267D01*
X126773261Y-110793502D01*
X126773258Y-110793511D01*
X126714366Y-111013302D01*
X126714364Y-111013313D01*
X126694532Y-111239998D01*
X126694532Y-111240001D01*
X126714364Y-111466686D01*
X126714366Y-111466697D01*
X126773258Y-111686488D01*
X126773261Y-111686497D01*
X126869431Y-111892732D01*
X126869432Y-111892734D01*
X126999954Y-112079141D01*
X127160858Y-112240045D01*
X127160861Y-112240047D01*
X127347266Y-112370568D01*
X127405275Y-112397618D01*
X127457714Y-112443791D01*
X127476866Y-112510984D01*
X127456650Y-112577865D01*
X127405275Y-112622382D01*
X127347267Y-112649431D01*
X127347265Y-112649432D01*
X127160858Y-112779954D01*
X126999954Y-112940858D01*
X126869432Y-113127265D01*
X126869431Y-113127267D01*
X126773261Y-113333502D01*
X126773258Y-113333511D01*
X126714366Y-113553302D01*
X126714364Y-113553313D01*
X126694532Y-113779998D01*
X126694532Y-113780001D01*
X126714364Y-114006686D01*
X126714366Y-114006697D01*
X126773258Y-114226488D01*
X126773261Y-114226497D01*
X126869431Y-114432732D01*
X126869432Y-114432734D01*
X126999954Y-114619141D01*
X127160858Y-114780045D01*
X127160861Y-114780047D01*
X127347266Y-114910568D01*
X127405275Y-114937618D01*
X127457714Y-114983791D01*
X127476866Y-115050984D01*
X127456650Y-115117865D01*
X127405275Y-115162382D01*
X127347267Y-115189431D01*
X127347265Y-115189432D01*
X127160858Y-115319954D01*
X126999954Y-115480858D01*
X126869432Y-115667265D01*
X126869431Y-115667267D01*
X126773261Y-115873502D01*
X126773258Y-115873511D01*
X126714366Y-116093302D01*
X126714364Y-116093313D01*
X126694532Y-116319998D01*
X126694532Y-116320001D01*
X126714364Y-116546686D01*
X126714366Y-116546697D01*
X126773258Y-116766488D01*
X126773261Y-116766497D01*
X126869431Y-116972732D01*
X126869432Y-116972734D01*
X126999954Y-117159141D01*
X127160858Y-117320045D01*
X127160861Y-117320047D01*
X127347266Y-117450568D01*
X127553504Y-117546739D01*
X127773308Y-117605635D01*
X127935230Y-117619801D01*
X127999998Y-117625468D01*
X128000000Y-117625468D01*
X128000002Y-117625468D01*
X128056673Y-117620509D01*
X128226692Y-117605635D01*
X128446496Y-117546739D01*
X128652734Y-117450568D01*
X128839139Y-117320047D01*
X129000047Y-117159139D01*
X129130568Y-116972734D01*
X129226739Y-116766496D01*
X129285635Y-116546692D01*
X129305468Y-116320000D01*
X129285635Y-116093308D01*
X129226739Y-115873504D01*
X129130568Y-115667266D01*
X129000047Y-115480861D01*
X129000045Y-115480858D01*
X128839141Y-115319954D01*
X128652734Y-115189432D01*
X128652728Y-115189429D01*
X128594725Y-115162382D01*
X128542285Y-115116210D01*
X128523133Y-115049017D01*
X128543348Y-114982135D01*
X128594725Y-114937618D01*
X128652734Y-114910568D01*
X128839139Y-114780047D01*
X129000047Y-114619139D01*
X129130568Y-114432734D01*
X129226739Y-114226496D01*
X129285635Y-114006692D01*
X129305468Y-113780000D01*
X129285635Y-113553308D01*
X129226739Y-113333504D01*
X129130568Y-113127266D01*
X129000047Y-112940861D01*
X129000045Y-112940858D01*
X128839141Y-112779954D01*
X128652734Y-112649432D01*
X128652728Y-112649429D01*
X128594725Y-112622382D01*
X128542285Y-112576210D01*
X128523133Y-112509017D01*
X128543348Y-112442135D01*
X128594725Y-112397618D01*
X128652734Y-112370568D01*
X128839139Y-112240047D01*
X129000047Y-112079139D01*
X129130568Y-111892734D01*
X129226739Y-111686496D01*
X129285635Y-111466692D01*
X129305468Y-111240000D01*
X129285635Y-111013308D01*
X129226739Y-110793504D01*
X129130568Y-110587266D01*
X129000047Y-110400861D01*
X129000045Y-110400858D01*
X128839141Y-110239954D01*
X128652734Y-110109432D01*
X128652728Y-110109429D01*
X128594725Y-110082382D01*
X128542285Y-110036210D01*
X128523133Y-109969017D01*
X128543348Y-109902135D01*
X128594725Y-109857618D01*
X128652734Y-109830568D01*
X128839139Y-109700047D01*
X129000047Y-109539139D01*
X129130568Y-109352734D01*
X129226739Y-109146496D01*
X129285635Y-108926692D01*
X129305468Y-108700000D01*
X129285635Y-108473308D01*
X129226739Y-108253504D01*
X129130568Y-108047266D01*
X129000047Y-107860861D01*
X129000045Y-107860858D01*
X128839141Y-107699954D01*
X128652734Y-107569432D01*
X128652728Y-107569429D01*
X128594725Y-107542382D01*
X128542285Y-107496210D01*
X128523133Y-107429017D01*
X128543348Y-107362135D01*
X128594725Y-107317618D01*
X128652734Y-107290568D01*
X128839139Y-107160047D01*
X129000047Y-106999139D01*
X129130568Y-106812734D01*
X129226739Y-106606496D01*
X129285635Y-106386692D01*
X129305468Y-106160000D01*
X129285635Y-105933308D01*
X129226739Y-105713504D01*
X129130568Y-105507266D01*
X129000047Y-105320861D01*
X129000045Y-105320858D01*
X128839141Y-105159954D01*
X128652734Y-105029432D01*
X128652728Y-105029429D01*
X128594725Y-105002382D01*
X128542285Y-104956210D01*
X128523133Y-104889017D01*
X128543348Y-104822135D01*
X128594725Y-104777618D01*
X128652734Y-104750568D01*
X128839139Y-104620047D01*
X129000047Y-104459139D01*
X129130568Y-104272734D01*
X129226739Y-104066496D01*
X129285635Y-103846692D01*
X129305468Y-103620000D01*
X129285635Y-103393308D01*
X129226739Y-103173504D01*
X129130568Y-102967266D01*
X129000047Y-102780861D01*
X129000045Y-102780858D01*
X128839141Y-102619954D01*
X128652734Y-102489432D01*
X128652732Y-102489431D01*
X128594725Y-102462382D01*
X128594132Y-102462105D01*
X128541694Y-102415934D01*
X128522542Y-102348740D01*
X128542758Y-102281859D01*
X128594134Y-102237341D01*
X128652484Y-102210132D01*
X128838820Y-102079657D01*
X128999657Y-101918820D01*
X129130134Y-101732482D01*
X129226265Y-101526326D01*
X129226269Y-101526317D01*
X129278872Y-101330000D01*
X128315686Y-101330000D01*
X128320080Y-101325606D01*
X128372741Y-101234394D01*
X128400000Y-101132661D01*
X128400000Y-101027339D01*
X128372741Y-100925606D01*
X128320080Y-100834394D01*
X128315686Y-100830000D01*
X129278872Y-100830000D01*
X129278872Y-100829999D01*
X129226269Y-100633682D01*
X129226265Y-100633673D01*
X129130134Y-100427517D01*
X128999657Y-100241179D01*
X128838820Y-100080342D01*
X128652482Y-99949865D01*
X128594133Y-99922657D01*
X128541694Y-99876484D01*
X128522542Y-99809291D01*
X128542758Y-99742410D01*
X128594129Y-99697895D01*
X128652734Y-99670568D01*
X128839139Y-99540047D01*
X129000047Y-99379139D01*
X129130568Y-99192734D01*
X129226739Y-98986496D01*
X129285635Y-98766692D01*
X129305468Y-98540000D01*
X129285635Y-98313308D01*
X129226739Y-98093504D01*
X129130568Y-97887266D01*
X129000047Y-97700861D01*
X129000045Y-97700858D01*
X128839141Y-97539954D01*
X128652734Y-97409432D01*
X128652728Y-97409429D01*
X128594725Y-97382382D01*
X128542285Y-97336210D01*
X128523133Y-97269017D01*
X128543348Y-97202135D01*
X128594725Y-97157618D01*
X128652734Y-97130568D01*
X128839139Y-97000047D01*
X129000047Y-96839139D01*
X129130568Y-96652734D01*
X129226739Y-96446496D01*
X129285635Y-96226692D01*
X129305468Y-96000000D01*
X129285635Y-95773308D01*
X129226739Y-95553504D01*
X129130568Y-95347266D01*
X129000047Y-95160861D01*
X129000045Y-95160858D01*
X128839141Y-94999954D01*
X128652734Y-94869432D01*
X128652728Y-94869429D01*
X128603035Y-94846257D01*
X128594724Y-94842381D01*
X128542285Y-94796210D01*
X128523133Y-94729017D01*
X128543348Y-94662135D01*
X128594725Y-94617618D01*
X128652734Y-94590568D01*
X128839139Y-94460047D01*
X129000047Y-94299139D01*
X129130568Y-94112734D01*
X129226739Y-93906496D01*
X129285635Y-93686692D01*
X129305468Y-93460000D01*
X129304152Y-93444963D01*
X129293741Y-93325965D01*
X129285635Y-93233308D01*
X129226739Y-93013504D01*
X129130568Y-92807266D01*
X129000047Y-92620861D01*
X129000045Y-92620858D01*
X128939710Y-92560523D01*
X128906225Y-92499200D01*
X128911209Y-92429508D01*
X128923240Y-92410787D01*
X128923136Y-92410735D01*
X128923140Y-92410727D01*
X128924431Y-92408935D01*
X128939716Y-92385154D01*
X128946360Y-92378510D01*
X128946363Y-92378505D01*
X134545162Y-86779707D01*
X134606483Y-86746224D01*
X134676175Y-86751208D01*
X134720522Y-86779709D01*
X134780858Y-86840045D01*
X134784810Y-86842812D01*
X134967266Y-86970568D01*
X135025275Y-86997618D01*
X135077714Y-87043791D01*
X135096866Y-87110984D01*
X135076650Y-87177865D01*
X135025275Y-87222382D01*
X134967267Y-87249431D01*
X134967265Y-87249432D01*
X134780858Y-87379954D01*
X134619954Y-87540858D01*
X134489432Y-87727265D01*
X134489431Y-87727267D01*
X134393261Y-87933502D01*
X134393258Y-87933511D01*
X134334366Y-88153302D01*
X134334364Y-88153313D01*
X134314532Y-88379998D01*
X134314532Y-88380001D01*
X134334364Y-88606686D01*
X134334366Y-88606697D01*
X134393258Y-88826488D01*
X134393261Y-88826497D01*
X134489431Y-89032732D01*
X134489432Y-89032734D01*
X134619954Y-89219141D01*
X134780858Y-89380045D01*
X134780861Y-89380047D01*
X134967266Y-89510568D01*
X135025275Y-89537618D01*
X135077714Y-89583791D01*
X135096866Y-89650984D01*
X135076650Y-89717865D01*
X135025275Y-89762382D01*
X134967267Y-89789431D01*
X134967265Y-89789432D01*
X134780858Y-89919954D01*
X134619954Y-90080858D01*
X134489432Y-90267265D01*
X134489431Y-90267267D01*
X134393261Y-90473502D01*
X134393258Y-90473511D01*
X134334366Y-90693302D01*
X134334364Y-90693313D01*
X134314532Y-90919998D01*
X134314532Y-90920001D01*
X134334364Y-91146686D01*
X134334366Y-91146697D01*
X134393258Y-91366488D01*
X134393261Y-91366497D01*
X134489431Y-91572732D01*
X134489432Y-91572734D01*
X134619954Y-91759141D01*
X134780858Y-91920045D01*
X134827693Y-91952839D01*
X134967266Y-92050568D01*
X135025275Y-92077618D01*
X135077714Y-92123791D01*
X135096866Y-92190984D01*
X135076650Y-92257865D01*
X135025275Y-92302382D01*
X134967267Y-92329431D01*
X134967265Y-92329432D01*
X134780858Y-92459954D01*
X134619954Y-92620858D01*
X134489432Y-92807265D01*
X134489431Y-92807267D01*
X134393261Y-93013502D01*
X134393258Y-93013511D01*
X134334366Y-93233302D01*
X134334364Y-93233313D01*
X134314532Y-93459998D01*
X134314532Y-93460001D01*
X134334364Y-93686686D01*
X134334366Y-93686697D01*
X134393258Y-93906488D01*
X134393261Y-93906497D01*
X134489431Y-94112732D01*
X134489432Y-94112734D01*
X134619954Y-94299141D01*
X134780858Y-94460045D01*
X134780861Y-94460047D01*
X134967266Y-94590568D01*
X135025275Y-94617618D01*
X135077714Y-94663791D01*
X135096866Y-94730984D01*
X135076650Y-94797865D01*
X135025275Y-94842381D01*
X135016965Y-94846257D01*
X134967267Y-94869431D01*
X134967265Y-94869432D01*
X134780858Y-94999954D01*
X134619954Y-95160858D01*
X134489432Y-95347265D01*
X134489431Y-95347267D01*
X134393261Y-95553502D01*
X134393258Y-95553511D01*
X134334366Y-95773302D01*
X134334364Y-95773313D01*
X134314532Y-95999998D01*
X134314532Y-96000001D01*
X134334364Y-96226686D01*
X134334366Y-96226697D01*
X134393258Y-96446488D01*
X134393261Y-96446497D01*
X134489431Y-96652732D01*
X134489432Y-96652734D01*
X134619954Y-96839141D01*
X134780858Y-97000045D01*
X134780861Y-97000047D01*
X134967266Y-97130568D01*
X135025865Y-97157893D01*
X135078305Y-97204065D01*
X135097457Y-97271258D01*
X135077242Y-97338139D01*
X135025867Y-97382657D01*
X134967515Y-97409867D01*
X134781179Y-97540342D01*
X134620342Y-97701179D01*
X134489865Y-97887517D01*
X134393734Y-98093673D01*
X134393730Y-98093682D01*
X134341127Y-98289999D01*
X134341128Y-98290000D01*
X135304314Y-98290000D01*
X135299920Y-98294394D01*
X135247259Y-98385606D01*
X135220000Y-98487339D01*
X135220000Y-98592661D01*
X135247259Y-98694394D01*
X135299920Y-98785606D01*
X135304314Y-98790000D01*
X134341128Y-98790000D01*
X134393730Y-98986317D01*
X134393734Y-98986326D01*
X134489865Y-99192482D01*
X134620342Y-99378820D01*
X134781179Y-99539657D01*
X134967518Y-99670134D01*
X134967520Y-99670135D01*
X135025865Y-99697342D01*
X135078305Y-99743514D01*
X135097457Y-99810707D01*
X135077242Y-99877589D01*
X135025867Y-99922105D01*
X135024685Y-99922657D01*
X134967264Y-99949433D01*
X134780858Y-100079954D01*
X134619954Y-100240858D01*
X134489432Y-100427265D01*
X134489431Y-100427267D01*
X134393261Y-100633502D01*
X134393258Y-100633511D01*
X134334366Y-100853302D01*
X134334364Y-100853313D01*
X134314532Y-101079998D01*
X134314532Y-101080001D01*
X134334364Y-101306686D01*
X134334366Y-101306697D01*
X134393258Y-101526488D01*
X134393261Y-101526497D01*
X134489431Y-101732732D01*
X134489432Y-101732734D01*
X134619954Y-101919141D01*
X134780858Y-102080045D01*
X134780861Y-102080047D01*
X134967266Y-102210568D01*
X135024681Y-102237341D01*
X135025275Y-102237618D01*
X135077714Y-102283791D01*
X135096866Y-102350984D01*
X135076650Y-102417865D01*
X135025275Y-102462382D01*
X134967267Y-102489431D01*
X134967265Y-102489432D01*
X134780858Y-102619954D01*
X134619954Y-102780858D01*
X134489432Y-102967265D01*
X134489431Y-102967267D01*
X134393261Y-103173502D01*
X134393258Y-103173511D01*
X134334366Y-103393302D01*
X134334364Y-103393313D01*
X134314532Y-103619998D01*
X134314532Y-103620001D01*
X134334364Y-103846686D01*
X134334366Y-103846697D01*
X134393258Y-104066488D01*
X134393261Y-104066497D01*
X134489431Y-104272732D01*
X134489432Y-104272734D01*
X134619954Y-104459141D01*
X134780858Y-104620045D01*
X134780861Y-104620047D01*
X134967266Y-104750568D01*
X135025275Y-104777618D01*
X135077714Y-104823791D01*
X135096866Y-104890984D01*
X135076650Y-104957865D01*
X135025275Y-105002382D01*
X134967267Y-105029431D01*
X134967265Y-105029432D01*
X134780858Y-105159954D01*
X134619954Y-105320858D01*
X134489432Y-105507265D01*
X134489431Y-105507267D01*
X134393261Y-105713502D01*
X134393258Y-105713511D01*
X134334366Y-105933302D01*
X134334364Y-105933313D01*
X134314532Y-106159998D01*
X134314532Y-106160001D01*
X134334364Y-106386686D01*
X134334366Y-106386697D01*
X134393258Y-106606488D01*
X134393261Y-106606497D01*
X134489431Y-106812732D01*
X134489432Y-106812734D01*
X134619954Y-106999141D01*
X134780858Y-107160045D01*
X134780861Y-107160047D01*
X134967266Y-107290568D01*
X135025275Y-107317618D01*
X135077714Y-107363791D01*
X135096866Y-107430984D01*
X135076650Y-107497865D01*
X135025275Y-107542382D01*
X134967267Y-107569431D01*
X134967265Y-107569432D01*
X134780858Y-107699954D01*
X134619954Y-107860858D01*
X134489432Y-108047265D01*
X134489431Y-108047267D01*
X134393261Y-108253502D01*
X134393258Y-108253511D01*
X134334366Y-108473302D01*
X134334364Y-108473313D01*
X134314532Y-108699998D01*
X134314532Y-108700001D01*
X134334364Y-108926686D01*
X134334366Y-108926697D01*
X134393258Y-109146488D01*
X134393261Y-109146497D01*
X134489431Y-109352732D01*
X134489432Y-109352734D01*
X134619954Y-109539141D01*
X134780858Y-109700045D01*
X134780861Y-109700047D01*
X134967266Y-109830568D01*
X135025275Y-109857618D01*
X135077714Y-109903791D01*
X135096866Y-109970984D01*
X135076650Y-110037865D01*
X135025275Y-110082382D01*
X134967267Y-110109431D01*
X134967265Y-110109432D01*
X134780858Y-110239954D01*
X134619954Y-110400858D01*
X134489432Y-110587265D01*
X134489431Y-110587267D01*
X134393261Y-110793502D01*
X134393258Y-110793511D01*
X134334366Y-111013302D01*
X134334364Y-111013313D01*
X134314532Y-111239998D01*
X134314532Y-111240001D01*
X134334364Y-111466686D01*
X134334366Y-111466697D01*
X134393258Y-111686488D01*
X134393261Y-111686497D01*
X134489431Y-111892732D01*
X134489432Y-111892734D01*
X134619954Y-112079141D01*
X134780858Y-112240045D01*
X134780861Y-112240047D01*
X134967266Y-112370568D01*
X135025275Y-112397618D01*
X135077714Y-112443791D01*
X135096866Y-112510984D01*
X135076650Y-112577865D01*
X135025275Y-112622382D01*
X134967267Y-112649431D01*
X134967265Y-112649432D01*
X134780858Y-112779954D01*
X134619954Y-112940858D01*
X134489432Y-113127265D01*
X134489431Y-113127267D01*
X134393261Y-113333502D01*
X134393258Y-113333511D01*
X134334366Y-113553302D01*
X134334364Y-113553313D01*
X134314532Y-113779998D01*
X134314532Y-113780001D01*
X134334364Y-114006686D01*
X134334366Y-114006697D01*
X134393258Y-114226488D01*
X134393261Y-114226497D01*
X134489431Y-114432732D01*
X134489432Y-114432734D01*
X134619954Y-114619141D01*
X134780858Y-114780045D01*
X134780861Y-114780047D01*
X134967266Y-114910568D01*
X135025275Y-114937618D01*
X135077714Y-114983791D01*
X135096866Y-115050984D01*
X135076650Y-115117865D01*
X135025275Y-115162382D01*
X134967267Y-115189431D01*
X134967265Y-115189432D01*
X134780858Y-115319954D01*
X134619954Y-115480858D01*
X134489432Y-115667265D01*
X134489431Y-115667267D01*
X134393261Y-115873502D01*
X134393258Y-115873511D01*
X134334366Y-116093302D01*
X134334364Y-116093313D01*
X134314532Y-116319998D01*
X134314532Y-116320001D01*
X134334364Y-116546686D01*
X134334366Y-116546697D01*
X134393258Y-116766488D01*
X134393261Y-116766497D01*
X134489431Y-116972732D01*
X134489432Y-116972734D01*
X134619954Y-117159141D01*
X134780858Y-117320045D01*
X134780861Y-117320047D01*
X134967266Y-117450568D01*
X135173504Y-117546739D01*
X135393308Y-117605635D01*
X135555230Y-117619801D01*
X135619998Y-117625468D01*
X135620000Y-117625468D01*
X135620002Y-117625468D01*
X135676673Y-117620509D01*
X135846692Y-117605635D01*
X136066496Y-117546739D01*
X136272734Y-117450568D01*
X136459139Y-117320047D01*
X136620047Y-117159139D01*
X136750568Y-116972734D01*
X136846739Y-116766496D01*
X136905635Y-116546692D01*
X136925468Y-116320000D01*
X136905635Y-116093308D01*
X136846739Y-115873504D01*
X136750568Y-115667266D01*
X136620047Y-115480861D01*
X136620045Y-115480858D01*
X136459141Y-115319954D01*
X136272734Y-115189432D01*
X136272728Y-115189429D01*
X136214725Y-115162382D01*
X136162285Y-115116210D01*
X136143133Y-115049017D01*
X136163348Y-114982135D01*
X136214725Y-114937618D01*
X136272734Y-114910568D01*
X136459139Y-114780047D01*
X136620047Y-114619139D01*
X136750568Y-114432734D01*
X136846739Y-114226496D01*
X136905635Y-114006692D01*
X136925468Y-113780000D01*
X136905635Y-113553308D01*
X136846739Y-113333504D01*
X136750568Y-113127266D01*
X136620047Y-112940861D01*
X136620045Y-112940858D01*
X136459141Y-112779954D01*
X136272734Y-112649432D01*
X136272728Y-112649429D01*
X136214725Y-112622382D01*
X136162285Y-112576210D01*
X136143133Y-112509017D01*
X136145856Y-112500007D01*
X146744671Y-112500007D01*
X146763964Y-112794363D01*
X146763965Y-112794373D01*
X146763966Y-112794380D01*
X146763968Y-112794390D01*
X146821518Y-113083716D01*
X146821521Y-113083730D01*
X146916349Y-113363080D01*
X147046825Y-113627660D01*
X147046829Y-113627667D01*
X147210725Y-113872955D01*
X147405241Y-114094758D01*
X147627044Y-114289274D01*
X147841744Y-114432732D01*
X147872335Y-114453172D01*
X148136923Y-114583652D01*
X148416278Y-114678481D01*
X148705620Y-114736034D01*
X148733888Y-114737886D01*
X148999993Y-114755329D01*
X149000000Y-114755329D01*
X149000007Y-114755329D01*
X149235675Y-114739881D01*
X149294380Y-114736034D01*
X149583722Y-114678481D01*
X149863077Y-114583652D01*
X150127665Y-114453172D01*
X150372957Y-114289273D01*
X150594758Y-114094758D01*
X150789273Y-113872957D01*
X150953172Y-113627665D01*
X151083652Y-113363077D01*
X151178481Y-113083722D01*
X151236034Y-112794380D01*
X151247308Y-112622382D01*
X151255329Y-112500007D01*
X151255329Y-112499992D01*
X151236035Y-112205636D01*
X151236034Y-112205620D01*
X151178481Y-111916278D01*
X151083652Y-111636923D01*
X150953172Y-111372336D01*
X150789273Y-111127043D01*
X150689530Y-111013308D01*
X150594758Y-110905241D01*
X150372955Y-110710725D01*
X150127667Y-110546829D01*
X150127660Y-110546825D01*
X149863080Y-110416349D01*
X149583730Y-110321521D01*
X149583724Y-110321519D01*
X149583722Y-110321519D01*
X149294380Y-110263966D01*
X149294373Y-110263965D01*
X149294363Y-110263964D01*
X149000007Y-110244671D01*
X148999993Y-110244671D01*
X148705636Y-110263964D01*
X148705624Y-110263965D01*
X148705620Y-110263966D01*
X148705612Y-110263967D01*
X148705609Y-110263968D01*
X148416283Y-110321518D01*
X148416269Y-110321521D01*
X148136919Y-110416349D01*
X147872334Y-110546828D01*
X147627041Y-110710728D01*
X147405241Y-110905241D01*
X147210728Y-111127041D01*
X147046828Y-111372334D01*
X146916349Y-111636919D01*
X146821521Y-111916269D01*
X146821518Y-111916283D01*
X146763968Y-112205609D01*
X146763964Y-112205636D01*
X146744671Y-112499992D01*
X146744671Y-112500007D01*
X136145856Y-112500007D01*
X136163348Y-112442135D01*
X136214725Y-112397618D01*
X136272734Y-112370568D01*
X136459139Y-112240047D01*
X136620047Y-112079139D01*
X136750568Y-111892734D01*
X136846739Y-111686496D01*
X136905635Y-111466692D01*
X136925468Y-111240000D01*
X136905635Y-111013308D01*
X136846739Y-110793504D01*
X136750568Y-110587266D01*
X136620047Y-110400861D01*
X136620045Y-110400858D01*
X136459141Y-110239954D01*
X136272734Y-110109432D01*
X136272728Y-110109429D01*
X136214725Y-110082382D01*
X136162285Y-110036210D01*
X136143133Y-109969017D01*
X136163348Y-109902135D01*
X136214725Y-109857618D01*
X136272734Y-109830568D01*
X136459139Y-109700047D01*
X136620047Y-109539139D01*
X136750568Y-109352734D01*
X136846739Y-109146496D01*
X136905635Y-108926692D01*
X136925468Y-108700000D01*
X136905635Y-108473308D01*
X136846739Y-108253504D01*
X136750568Y-108047266D01*
X136620047Y-107860861D01*
X136620045Y-107860858D01*
X136459141Y-107699954D01*
X136272734Y-107569432D01*
X136272728Y-107569429D01*
X136214725Y-107542382D01*
X136162285Y-107496210D01*
X136143133Y-107429017D01*
X136163348Y-107362135D01*
X136214725Y-107317618D01*
X136272734Y-107290568D01*
X136459139Y-107160047D01*
X136620047Y-106999139D01*
X136750118Y-106813375D01*
X136804693Y-106769752D01*
X136851692Y-106760500D01*
X150753331Y-106760500D01*
X150753347Y-106760501D01*
X150760943Y-106760501D01*
X150919054Y-106760501D01*
X150919057Y-106760501D01*
X151071785Y-106719577D01*
X151121904Y-106690639D01*
X151208716Y-106640520D01*
X151320520Y-106528716D01*
X151320520Y-106528714D01*
X151330728Y-106518507D01*
X151330730Y-106518504D01*
X155858506Y-101990728D01*
X155858511Y-101990724D01*
X155868714Y-101980520D01*
X155868716Y-101980520D01*
X155980520Y-101868716D01*
X156059029Y-101732734D01*
X156059577Y-101731785D01*
X156100500Y-101579058D01*
X156100500Y-101420943D01*
X156100500Y-80420943D01*
X156059577Y-80268216D01*
X156059577Y-80268215D01*
X156059577Y-80268214D01*
X156030639Y-80218095D01*
X156030637Y-80218092D01*
X156014482Y-80190110D01*
X155980520Y-80131284D01*
X155868716Y-80019480D01*
X155868715Y-80019479D01*
X155864385Y-80015149D01*
X155864374Y-80015139D01*
X153987590Y-78138355D01*
X153987588Y-78138352D01*
X153868717Y-78019481D01*
X153868709Y-78019475D01*
X153766936Y-77960717D01*
X153766934Y-77960716D01*
X153731790Y-77940425D01*
X153731789Y-77940424D01*
X153719263Y-77937067D01*
X153579057Y-77899499D01*
X153420943Y-77899499D01*
X153413347Y-77899499D01*
X153413331Y-77899500D01*
X139582412Y-77899500D01*
X139515373Y-77879815D01*
X139505097Y-77872445D01*
X139502263Y-77870185D01*
X139502262Y-77870184D01*
X139445496Y-77834515D01*
X139349523Y-77774211D01*
X139179254Y-77714631D01*
X139179249Y-77714630D01*
X139000004Y-77694435D01*
X138999996Y-77694435D01*
X138820750Y-77714630D01*
X138820745Y-77714631D01*
X138650476Y-77774211D01*
X138497737Y-77870184D01*
X138370184Y-77997737D01*
X138274211Y-78150476D01*
X138214631Y-78320745D01*
X138214630Y-78320750D01*
X138194435Y-78499996D01*
X138194435Y-78500003D01*
X138214630Y-78679249D01*
X138214631Y-78679254D01*
X138274211Y-78849523D01*
X138370184Y-79002262D01*
X138497738Y-79129816D01*
X138650478Y-79225789D01*
X138820745Y-79285368D01*
X138820750Y-79285369D01*
X138999996Y-79305565D01*
X139000000Y-79305565D01*
X139000004Y-79305565D01*
X139179249Y-79285369D01*
X139179252Y-79285368D01*
X139179255Y-79285368D01*
X139349522Y-79225789D01*
X139502262Y-79129816D01*
X139502267Y-79129810D01*
X139505097Y-79127555D01*
X139507275Y-79126665D01*
X139508158Y-79126111D01*
X139508255Y-79126265D01*
X139569783Y-79101145D01*
X139582412Y-79100500D01*
X153199903Y-79100500D01*
X153266942Y-79120185D01*
X153287584Y-79136819D01*
X154863181Y-80712416D01*
X154896666Y-80773739D01*
X154899500Y-80800097D01*
X154899500Y-101199903D01*
X154879815Y-101266942D01*
X154863181Y-101287584D01*
X150627584Y-105523181D01*
X150566261Y-105556666D01*
X150539903Y-105559500D01*
X136851692Y-105559500D01*
X136784653Y-105539815D01*
X136750119Y-105506625D01*
X136620047Y-105320861D01*
X136620045Y-105320858D01*
X136459141Y-105159954D01*
X136272734Y-105029432D01*
X136272728Y-105029429D01*
X136214725Y-105002382D01*
X136162285Y-104956210D01*
X136143133Y-104889017D01*
X136163348Y-104822135D01*
X136214725Y-104777618D01*
X136272734Y-104750568D01*
X136459139Y-104620047D01*
X136620047Y-104459139D01*
X136750568Y-104272734D01*
X136846739Y-104066496D01*
X136905635Y-103846692D01*
X136925468Y-103620000D01*
X136905635Y-103393308D01*
X136846739Y-103173504D01*
X136750568Y-102967266D01*
X136620047Y-102780861D01*
X136620045Y-102780858D01*
X136459141Y-102619954D01*
X136272734Y-102489432D01*
X136272728Y-102489429D01*
X136214725Y-102462382D01*
X136162285Y-102416210D01*
X136143133Y-102349017D01*
X136163348Y-102282135D01*
X136214725Y-102237618D01*
X136215319Y-102237341D01*
X136272734Y-102210568D01*
X136459139Y-102080047D01*
X136620047Y-101919139D01*
X136750568Y-101732734D01*
X136846739Y-101526496D01*
X136905635Y-101306692D01*
X136925468Y-101080000D01*
X136905635Y-100853308D01*
X136846739Y-100633504D01*
X136750568Y-100427266D01*
X136620047Y-100240861D01*
X136620045Y-100240858D01*
X136459141Y-100079954D01*
X136272734Y-99949432D01*
X136272732Y-99949431D01*
X136215315Y-99922657D01*
X136214132Y-99922105D01*
X136161694Y-99875934D01*
X136142542Y-99808740D01*
X136162758Y-99741859D01*
X136214134Y-99697341D01*
X136272484Y-99670132D01*
X136458820Y-99539657D01*
X136619657Y-99378820D01*
X136750134Y-99192482D01*
X136846265Y-98986326D01*
X136846269Y-98986317D01*
X136898872Y-98790000D01*
X135935686Y-98790000D01*
X135940080Y-98785606D01*
X135992741Y-98694394D01*
X136020000Y-98592661D01*
X136020000Y-98487339D01*
X135992741Y-98385606D01*
X135940080Y-98294394D01*
X135935686Y-98290000D01*
X136898872Y-98290000D01*
X136898872Y-98289999D01*
X136846269Y-98093682D01*
X136846265Y-98093673D01*
X136750134Y-97887517D01*
X136619657Y-97701179D01*
X136458820Y-97540342D01*
X136272482Y-97409865D01*
X136214133Y-97382657D01*
X136161694Y-97336484D01*
X136142542Y-97269291D01*
X136162758Y-97202410D01*
X136214129Y-97157895D01*
X136272734Y-97130568D01*
X136459139Y-97000047D01*
X136620047Y-96839139D01*
X136750568Y-96652734D01*
X136846739Y-96446496D01*
X136905635Y-96226692D01*
X136925306Y-96001853D01*
X145007000Y-96001853D01*
X145042778Y-96227746D01*
X145042778Y-96227749D01*
X145113450Y-96445255D01*
X145217283Y-96649038D01*
X145351714Y-96834066D01*
X145513434Y-96995786D01*
X145698462Y-97130217D01*
X145850105Y-97207483D01*
X145902244Y-97234049D01*
X146119751Y-97304721D01*
X146119752Y-97304721D01*
X146119755Y-97304722D01*
X146345646Y-97340500D01*
X146345647Y-97340500D01*
X146574353Y-97340500D01*
X146574354Y-97340500D01*
X146800245Y-97304722D01*
X146800248Y-97304721D01*
X146800249Y-97304721D01*
X147017755Y-97234049D01*
X147017755Y-97234048D01*
X147017758Y-97234048D01*
X147221538Y-97130217D01*
X147406566Y-96995786D01*
X147568286Y-96834066D01*
X147629992Y-96749134D01*
X147685319Y-96706470D01*
X147754932Y-96700491D01*
X147816727Y-96733096D01*
X147830626Y-96749135D01*
X147892097Y-96833741D01*
X147892097Y-96833742D01*
X148053757Y-96995402D01*
X148238723Y-97129788D01*
X148442429Y-97233582D01*
X148659871Y-97304234D01*
X148750000Y-97318509D01*
X148750000Y-96330747D01*
X148787708Y-96352518D01*
X148927591Y-96390000D01*
X149072409Y-96390000D01*
X149212292Y-96352518D01*
X149250000Y-96330747D01*
X149250000Y-97318508D01*
X149340128Y-97304234D01*
X149557570Y-97233582D01*
X149761276Y-97129788D01*
X149944059Y-96996988D01*
X150009865Y-96973508D01*
X150077919Y-96989333D01*
X150126614Y-97039439D01*
X150133127Y-97053974D01*
X150143701Y-97082326D01*
X150143706Y-97082335D01*
X150229952Y-97197544D01*
X150229955Y-97197547D01*
X150345164Y-97283793D01*
X150345171Y-97283797D01*
X150480017Y-97334091D01*
X150480016Y-97334091D01*
X150486944Y-97334835D01*
X150539627Y-97340500D01*
X152540372Y-97340499D01*
X152599983Y-97334091D01*
X152734831Y-97283796D01*
X152850046Y-97197546D01*
X152936296Y-97082331D01*
X152986591Y-96947483D01*
X152993000Y-96887873D01*
X152992999Y-94792128D01*
X152986591Y-94732517D01*
X152986019Y-94730984D01*
X152936297Y-94597671D01*
X152936293Y-94597664D01*
X152850047Y-94482455D01*
X152850044Y-94482452D01*
X152734835Y-94396206D01*
X152734828Y-94396202D01*
X152599982Y-94345908D01*
X152599983Y-94345908D01*
X152540383Y-94339501D01*
X152540381Y-94339500D01*
X152540373Y-94339500D01*
X152540364Y-94339500D01*
X150539629Y-94339500D01*
X150539623Y-94339501D01*
X150480016Y-94345908D01*
X150345171Y-94396202D01*
X150345164Y-94396206D01*
X150229955Y-94482452D01*
X150229952Y-94482455D01*
X150143706Y-94597664D01*
X150143702Y-94597671D01*
X150133127Y-94626026D01*
X150091256Y-94681960D01*
X150025791Y-94706377D01*
X149957518Y-94691525D01*
X149944060Y-94683011D01*
X149761279Y-94550213D01*
X149557568Y-94446417D01*
X149340124Y-94375765D01*
X149250000Y-94361490D01*
X149250000Y-95349252D01*
X149212292Y-95327482D01*
X149072409Y-95290000D01*
X148927591Y-95290000D01*
X148787708Y-95327482D01*
X148750000Y-95349252D01*
X148750000Y-94361490D01*
X148749999Y-94361490D01*
X148659875Y-94375765D01*
X148442431Y-94446417D01*
X148238723Y-94550211D01*
X148053757Y-94684597D01*
X147892097Y-94846257D01*
X147830627Y-94930864D01*
X147775297Y-94973529D01*
X147705684Y-94979508D01*
X147643889Y-94946902D01*
X147629991Y-94930864D01*
X147611860Y-94905909D01*
X147568286Y-94845934D01*
X147406566Y-94684214D01*
X147221538Y-94549783D01*
X147017755Y-94445950D01*
X146800248Y-94375278D01*
X146614812Y-94345908D01*
X146574354Y-94339500D01*
X146345646Y-94339500D01*
X146305188Y-94345908D01*
X146119753Y-94375278D01*
X146119750Y-94375278D01*
X145902244Y-94445950D01*
X145698461Y-94549783D01*
X145632550Y-94597671D01*
X145513434Y-94684214D01*
X145513432Y-94684216D01*
X145513431Y-94684216D01*
X145351716Y-94845931D01*
X145351716Y-94845932D01*
X145351714Y-94845934D01*
X145334642Y-94869432D01*
X145217283Y-95030961D01*
X145113450Y-95234744D01*
X145042778Y-95452250D01*
X145042778Y-95452253D01*
X145007000Y-95678146D01*
X145007000Y-96001853D01*
X136925306Y-96001853D01*
X136925468Y-96000000D01*
X136905635Y-95773308D01*
X136846739Y-95553504D01*
X136750568Y-95347266D01*
X136620047Y-95160861D01*
X136620045Y-95160858D01*
X136459141Y-94999954D01*
X136272734Y-94869432D01*
X136272728Y-94869429D01*
X136223035Y-94846257D01*
X136214724Y-94842381D01*
X136162285Y-94796210D01*
X136143133Y-94729017D01*
X136163348Y-94662135D01*
X136214725Y-94617618D01*
X136272734Y-94590568D01*
X136459139Y-94460047D01*
X136620047Y-94299139D01*
X136750568Y-94112734D01*
X136846739Y-93906496D01*
X136905635Y-93686692D01*
X136925468Y-93460000D01*
X136924152Y-93444963D01*
X136913741Y-93325965D01*
X136905635Y-93233308D01*
X136846739Y-93013504D01*
X136750568Y-92807266D01*
X136620047Y-92620861D01*
X136620045Y-92620858D01*
X136459141Y-92459954D01*
X136272734Y-92329432D01*
X136272728Y-92329429D01*
X136214725Y-92302382D01*
X136162285Y-92256210D01*
X136143133Y-92189017D01*
X136163348Y-92122135D01*
X136214725Y-92077618D01*
X136272734Y-92050568D01*
X136459139Y-91920047D01*
X136620047Y-91759139D01*
X136750568Y-91572734D01*
X136846739Y-91366496D01*
X136905635Y-91146692D01*
X136925468Y-90920000D01*
X136905635Y-90693308D01*
X136846739Y-90473504D01*
X136750568Y-90267266D01*
X136620047Y-90080861D01*
X136620045Y-90080858D01*
X136459141Y-89919954D01*
X136356156Y-89847844D01*
X147200000Y-89847844D01*
X147206401Y-89907372D01*
X147206403Y-89907379D01*
X147256645Y-90042086D01*
X147256649Y-90042093D01*
X147342809Y-90157187D01*
X147342812Y-90157190D01*
X147457906Y-90243350D01*
X147457913Y-90243354D01*
X147592620Y-90293596D01*
X147592627Y-90293598D01*
X147652155Y-90299999D01*
X147652172Y-90300000D01*
X148750000Y-90300000D01*
X148750000Y-89100001D01*
X148810402Y-89125021D01*
X148935981Y-89150000D01*
X149064019Y-89150000D01*
X149189598Y-89125021D01*
X149250000Y-89100001D01*
X149250000Y-90300000D01*
X150347828Y-90300000D01*
X150347844Y-90299999D01*
X150407372Y-90293598D01*
X150407379Y-90293596D01*
X150542086Y-90243354D01*
X150542093Y-90243350D01*
X150657187Y-90157190D01*
X150657190Y-90157187D01*
X150743350Y-90042093D01*
X150743354Y-90042086D01*
X150793596Y-89907379D01*
X150793598Y-89907372D01*
X150799999Y-89847844D01*
X150800000Y-89847827D01*
X150800000Y-88750000D01*
X149600001Y-88750000D01*
X149625021Y-88689598D01*
X149650000Y-88564019D01*
X149650000Y-88435981D01*
X149625021Y-88310402D01*
X149600001Y-88250000D01*
X150800000Y-88250000D01*
X150800000Y-87152172D01*
X150799999Y-87152155D01*
X150793598Y-87092627D01*
X150793596Y-87092620D01*
X150743354Y-86957913D01*
X150743350Y-86957906D01*
X150657190Y-86842812D01*
X150657187Y-86842809D01*
X150542093Y-86756649D01*
X150542086Y-86756645D01*
X150407379Y-86706403D01*
X150407372Y-86706401D01*
X150347844Y-86700000D01*
X149250000Y-86700000D01*
X149250000Y-87899998D01*
X149189598Y-87874979D01*
X149064019Y-87850000D01*
X148935981Y-87850000D01*
X148810402Y-87874979D01*
X148750000Y-87899998D01*
X148750000Y-86700000D01*
X147652155Y-86700000D01*
X147592627Y-86706401D01*
X147592620Y-86706403D01*
X147457913Y-86756645D01*
X147457906Y-86756649D01*
X147342812Y-86842809D01*
X147342809Y-86842812D01*
X147256649Y-86957906D01*
X147256645Y-86957913D01*
X147206403Y-87092620D01*
X147206401Y-87092627D01*
X147200000Y-87152155D01*
X147200000Y-88250000D01*
X148399999Y-88250000D01*
X148374979Y-88310402D01*
X148350000Y-88435981D01*
X148350000Y-88564019D01*
X148374979Y-88689598D01*
X148399999Y-88750000D01*
X147200000Y-88750000D01*
X147200000Y-89847844D01*
X136356156Y-89847844D01*
X136272734Y-89789432D01*
X136272728Y-89789429D01*
X136214725Y-89762382D01*
X136162285Y-89716210D01*
X136143133Y-89649017D01*
X136163348Y-89582135D01*
X136214725Y-89537618D01*
X136272734Y-89510568D01*
X136459139Y-89380047D01*
X136620047Y-89219139D01*
X136750568Y-89032734D01*
X136846739Y-88826496D01*
X136905635Y-88606692D01*
X136925468Y-88380000D01*
X136905635Y-88153308D01*
X136846739Y-87933504D01*
X136750568Y-87727266D01*
X136620047Y-87540861D01*
X136620045Y-87540858D01*
X136459141Y-87379954D01*
X136272734Y-87249432D01*
X136272728Y-87249429D01*
X136214725Y-87222382D01*
X136162285Y-87176210D01*
X136143133Y-87109017D01*
X136163348Y-87042135D01*
X136214725Y-86997618D01*
X136272734Y-86970568D01*
X136459139Y-86840047D01*
X136620047Y-86679139D01*
X136750568Y-86492734D01*
X136846739Y-86286496D01*
X136905635Y-86066692D01*
X136925468Y-85840000D01*
X136905635Y-85613308D01*
X136846739Y-85393504D01*
X136838998Y-85376903D01*
X136828507Y-85307825D01*
X136857028Y-85244042D01*
X136915505Y-85205803D01*
X136951381Y-85200500D01*
X137817588Y-85200500D01*
X137884627Y-85220185D01*
X137894903Y-85227555D01*
X137897736Y-85229814D01*
X137897738Y-85229816D01*
X137960672Y-85269360D01*
X138049567Y-85325217D01*
X138050478Y-85325789D01*
X138205736Y-85380116D01*
X138220745Y-85385368D01*
X138220750Y-85385369D01*
X138399996Y-85405565D01*
X138400000Y-85405565D01*
X138400004Y-85405565D01*
X138579249Y-85385369D01*
X138579252Y-85385368D01*
X138579255Y-85385368D01*
X138749522Y-85325789D01*
X138902262Y-85229816D01*
X139029816Y-85102262D01*
X139125789Y-84949522D01*
X139185368Y-84779255D01*
X139188460Y-84751816D01*
X139205565Y-84600003D01*
X139205565Y-84599996D01*
X139185369Y-84420750D01*
X139185368Y-84420745D01*
X139137308Y-84283398D01*
X139125789Y-84250478D01*
X139098773Y-84207483D01*
X139029815Y-84097737D01*
X138902262Y-83970184D01*
X138749523Y-83874211D01*
X138579254Y-83814631D01*
X138579249Y-83814630D01*
X138400004Y-83794435D01*
X138399996Y-83794435D01*
X138220750Y-83814630D01*
X138220745Y-83814631D01*
X138050476Y-83874211D01*
X137897736Y-83970185D01*
X137894903Y-83972445D01*
X137892724Y-83973334D01*
X137891842Y-83973889D01*
X137891744Y-83973734D01*
X137830217Y-83998855D01*
X137817588Y-83999500D01*
X136923402Y-83999500D01*
X136856363Y-83979815D01*
X136810608Y-83927011D01*
X136800664Y-83857853D01*
X136811020Y-83823095D01*
X136814967Y-83814630D01*
X136846739Y-83746496D01*
X136905635Y-83526692D01*
X136907970Y-83500004D01*
X147194451Y-83500004D01*
X147214616Y-83769101D01*
X147274664Y-84032188D01*
X147274666Y-84032195D01*
X147320065Y-84147870D01*
X147373257Y-84283398D01*
X147508185Y-84517102D01*
X147597003Y-84628476D01*
X147676442Y-84728089D01*
X147789642Y-84833122D01*
X147874259Y-84911635D01*
X148097226Y-85063651D01*
X148340359Y-85180738D01*
X148598228Y-85260280D01*
X148598229Y-85260280D01*
X148598232Y-85260281D01*
X148865063Y-85300499D01*
X148865068Y-85300499D01*
X148865071Y-85300500D01*
X148865072Y-85300500D01*
X149134928Y-85300500D01*
X149134929Y-85300500D01*
X149134936Y-85300499D01*
X149401767Y-85260281D01*
X149401768Y-85260280D01*
X149401772Y-85260280D01*
X149659641Y-85180738D01*
X149902775Y-85063651D01*
X150125741Y-84911635D01*
X150323561Y-84728085D01*
X150491815Y-84517102D01*
X150626743Y-84283398D01*
X150725334Y-84032195D01*
X150785383Y-83769103D01*
X150792105Y-83679402D01*
X150805549Y-83500004D01*
X150805549Y-83499995D01*
X150785383Y-83230898D01*
X150725335Y-82967811D01*
X150725334Y-82967805D01*
X150626743Y-82716602D01*
X150491815Y-82482898D01*
X150323561Y-82271915D01*
X150323560Y-82271914D01*
X150323557Y-82271910D01*
X150125741Y-82088365D01*
X149902775Y-81936349D01*
X149902769Y-81936346D01*
X149902768Y-81936345D01*
X149902767Y-81936344D01*
X149659643Y-81819263D01*
X149659645Y-81819263D01*
X149401773Y-81739720D01*
X149401767Y-81739718D01*
X149134936Y-81699500D01*
X149134929Y-81699500D01*
X148865071Y-81699500D01*
X148865063Y-81699500D01*
X148598232Y-81739718D01*
X148598226Y-81739720D01*
X148340358Y-81819262D01*
X148097230Y-81936346D01*
X147874258Y-82088365D01*
X147676442Y-82271910D01*
X147508185Y-82482898D01*
X147373258Y-82716599D01*
X147373256Y-82716603D01*
X147274666Y-82967804D01*
X147274664Y-82967811D01*
X147214616Y-83230898D01*
X147194451Y-83499995D01*
X147194451Y-83500004D01*
X136907970Y-83500004D01*
X136925468Y-83300000D01*
X136905635Y-83073308D01*
X136846739Y-82853504D01*
X136750568Y-82647266D01*
X136620047Y-82460861D01*
X136620045Y-82460858D01*
X136459141Y-82299954D01*
X136272734Y-82169432D01*
X136272732Y-82169431D01*
X136066497Y-82073261D01*
X136066488Y-82073258D01*
X135846697Y-82014366D01*
X135846693Y-82014365D01*
X135846692Y-82014365D01*
X135846691Y-82014364D01*
X135846686Y-82014364D01*
X135620002Y-81994532D01*
X135619998Y-81994532D01*
X135393313Y-82014364D01*
X135393302Y-82014366D01*
X135173511Y-82073258D01*
X135173502Y-82073261D01*
X134967267Y-82169431D01*
X134967265Y-82169432D01*
X134780858Y-82299954D01*
X134619954Y-82460858D01*
X134489432Y-82647265D01*
X134489431Y-82647267D01*
X134393261Y-82853502D01*
X134393258Y-82853511D01*
X134334366Y-83073302D01*
X134334364Y-83073313D01*
X134314532Y-83299998D01*
X134314532Y-83300001D01*
X134334364Y-83526686D01*
X134334366Y-83526697D01*
X134393258Y-83746488D01*
X134393261Y-83746497D01*
X134489431Y-83952732D01*
X134489432Y-83952734D01*
X134619954Y-84139141D01*
X134780858Y-84300045D01*
X134780861Y-84300047D01*
X134967266Y-84430568D01*
X134967269Y-84430569D01*
X134971957Y-84433276D01*
X134970683Y-84435481D01*
X135015104Y-84474616D01*
X135034236Y-84541815D01*
X135014000Y-84608691D01*
X134997921Y-84628476D01*
X134807163Y-84819234D01*
X134790613Y-84833122D01*
X134780870Y-84839944D01*
X134780855Y-84839957D01*
X134619957Y-85000855D01*
X134619944Y-85000870D01*
X134613122Y-85010613D01*
X134599234Y-85027163D01*
X129912181Y-89714217D01*
X129850858Y-89747702D01*
X129781166Y-89742718D01*
X129725233Y-89700846D01*
X129700816Y-89635382D01*
X129700500Y-89626536D01*
X129700500Y-78425493D01*
X129719508Y-78359519D01*
X129725787Y-78349525D01*
X129725788Y-78349523D01*
X129725789Y-78349522D01*
X129785368Y-78179255D01*
X129785369Y-78179249D01*
X129805565Y-78000003D01*
X129805565Y-77999996D01*
X129785369Y-77820750D01*
X129785368Y-77820745D01*
X129725788Y-77650476D01*
X129629815Y-77497737D01*
X129502262Y-77370184D01*
X129349523Y-77274211D01*
X129179254Y-77214631D01*
X129179249Y-77214630D01*
X129000004Y-77194435D01*
X128999996Y-77194435D01*
X128820750Y-77214630D01*
X128820745Y-77214631D01*
X128650476Y-77274211D01*
X128497737Y-77370184D01*
X128370184Y-77497737D01*
X128274211Y-77650476D01*
X128214631Y-77820745D01*
X128214630Y-77820750D01*
X128194435Y-77999996D01*
X128194435Y-78000003D01*
X128214630Y-78179249D01*
X128214631Y-78179254D01*
X128274211Y-78349523D01*
X128370184Y-78502262D01*
X128463181Y-78595259D01*
X128496666Y-78656582D01*
X128499500Y-78682940D01*
X128499500Y-81875500D01*
X128479815Y-81942539D01*
X128427011Y-81988294D01*
X128375500Y-81999500D01*
X127152129Y-81999500D01*
X127152123Y-81999501D01*
X127092516Y-82005908D01*
X126957671Y-82056202D01*
X126957664Y-82056206D01*
X126842455Y-82142452D01*
X126842452Y-82142455D01*
X126756206Y-82257664D01*
X126756202Y-82257671D01*
X126705908Y-82392517D01*
X126699501Y-82452116D01*
X126699500Y-82452135D01*
X126699500Y-84147870D01*
X126699501Y-84147876D01*
X126705908Y-84207483D01*
X126756202Y-84342328D01*
X126756206Y-84342335D01*
X126842452Y-84457544D01*
X126842455Y-84457547D01*
X126957664Y-84543793D01*
X126957671Y-84543797D01*
X127002618Y-84560561D01*
X127092517Y-84594091D01*
X127127596Y-84597862D01*
X127192144Y-84624599D01*
X127231993Y-84681991D01*
X127234488Y-84751816D01*
X127198836Y-84811905D01*
X127185464Y-84822725D01*
X127160858Y-84839954D01*
X126999954Y-85000858D01*
X126869432Y-85187265D01*
X126869431Y-85187267D01*
X126773261Y-85393502D01*
X126773258Y-85393511D01*
X126714366Y-85613302D01*
X126714364Y-85613313D01*
X126694532Y-85839998D01*
X126714364Y-86066686D01*
X126714366Y-86066697D01*
X126773258Y-86286488D01*
X126773261Y-86286497D01*
X126869431Y-86492732D01*
X126869432Y-86492734D01*
X126999954Y-86679141D01*
X127160858Y-86840045D01*
X127164810Y-86842812D01*
X127347266Y-86970568D01*
X127405275Y-86997618D01*
X127457714Y-87043791D01*
X127476866Y-87110984D01*
X127456650Y-87177865D01*
X127405275Y-87222382D01*
X127347267Y-87249431D01*
X127347265Y-87249432D01*
X127160858Y-87379954D01*
X126999954Y-87540858D01*
X126869432Y-87727265D01*
X126869431Y-87727267D01*
X126773261Y-87933502D01*
X126773258Y-87933511D01*
X126714366Y-88153302D01*
X126714364Y-88153313D01*
X126694532Y-88379998D01*
X126694532Y-88380001D01*
X126714364Y-88606686D01*
X126714366Y-88606697D01*
X126773258Y-88826488D01*
X126773261Y-88826497D01*
X126869431Y-89032732D01*
X126869432Y-89032734D01*
X126999954Y-89219141D01*
X127160858Y-89380045D01*
X127160861Y-89380047D01*
X127347266Y-89510568D01*
X127405275Y-89537618D01*
X127457714Y-89583791D01*
X127476866Y-89650984D01*
X127456650Y-89717865D01*
X127405275Y-89762382D01*
X127347267Y-89789431D01*
X127347265Y-89789432D01*
X127160858Y-89919954D01*
X126999954Y-90080858D01*
X126869432Y-90267265D01*
X126869431Y-90267267D01*
X126773261Y-90473502D01*
X126773258Y-90473511D01*
X126714366Y-90693302D01*
X126714364Y-90693313D01*
X126694532Y-90919998D01*
X126694532Y-90920001D01*
X126714364Y-91146686D01*
X126714366Y-91146697D01*
X126745638Y-91263407D01*
X126743975Y-91333257D01*
X126704812Y-91391119D01*
X126640583Y-91418623D01*
X126625863Y-91419500D01*
X125724500Y-91419500D01*
X125657461Y-91399815D01*
X125611706Y-91347011D01*
X125600500Y-91295500D01*
X125600500Y-86072416D01*
X125600499Y-86072412D01*
X125598966Y-86066692D01*
X125581681Y-86002179D01*
X125559577Y-85919686D01*
X125513570Y-85840000D01*
X125480520Y-85782755D01*
X125368716Y-85670951D01*
X125368715Y-85670950D01*
X125364385Y-85666620D01*
X125364374Y-85666610D01*
X125136119Y-85438355D01*
X125136117Y-85438352D01*
X125017246Y-85319481D01*
X125017245Y-85319480D01*
X124930433Y-85269360D01*
X124930433Y-85269359D01*
X124930429Y-85269358D01*
X124880314Y-85240423D01*
X124727586Y-85199499D01*
X124569472Y-85199499D01*
X124561876Y-85199499D01*
X124561860Y-85199500D01*
X123324838Y-85199500D01*
X123283917Y-85210464D01*
X123283917Y-85210465D01*
X123247642Y-85220185D01*
X123172112Y-85240423D01*
X123172107Y-85240426D01*
X123035188Y-85319475D01*
X123035180Y-85319481D01*
X112199960Y-96154702D01*
X112138637Y-96188187D01*
X112068945Y-96183203D01*
X112024598Y-96154702D01*
X111871402Y-96001506D01*
X111871396Y-96001501D01*
X111685842Y-95871575D01*
X111642217Y-95816998D01*
X111635023Y-95747500D01*
X111666546Y-95685145D01*
X111685842Y-95668425D01*
X111743992Y-95627708D01*
X111871401Y-95538495D01*
X112038495Y-95371401D01*
X112174035Y-95177830D01*
X112273903Y-94963663D01*
X112335063Y-94735408D01*
X112355659Y-94500000D01*
X112335063Y-94264592D01*
X112273903Y-94036337D01*
X112174035Y-93822171D01*
X112079175Y-93686697D01*
X112038496Y-93628600D01*
X112038495Y-93628599D01*
X111916179Y-93506283D01*
X111882696Y-93444963D01*
X111887680Y-93375271D01*
X111929551Y-93319337D01*
X111960529Y-93302422D01*
X112092086Y-93253354D01*
X112092093Y-93253350D01*
X112207187Y-93167190D01*
X112207190Y-93167187D01*
X112293350Y-93052093D01*
X112293354Y-93052086D01*
X112343596Y-92917379D01*
X112343598Y-92917372D01*
X112349999Y-92857844D01*
X112350000Y-92857827D01*
X112350000Y-92210000D01*
X111433012Y-92210000D01*
X111465925Y-92152993D01*
X111500000Y-92025826D01*
X111500000Y-91894174D01*
X111465925Y-91767007D01*
X111433012Y-91710000D01*
X112350000Y-91710000D01*
X112350000Y-91062172D01*
X112349999Y-91062155D01*
X112343598Y-91002627D01*
X112343596Y-91002620D01*
X112293354Y-90867913D01*
X112293350Y-90867906D01*
X112207190Y-90752812D01*
X112207187Y-90752809D01*
X112092093Y-90666649D01*
X112092086Y-90666645D01*
X111957379Y-90616403D01*
X111957372Y-90616401D01*
X111897844Y-90610000D01*
X111250000Y-90610000D01*
X111250000Y-91526988D01*
X111192993Y-91494075D01*
X111065826Y-91460000D01*
X110934174Y-91460000D01*
X110807007Y-91494075D01*
X110750000Y-91526988D01*
X110750000Y-90610000D01*
X110102155Y-90610000D01*
X110042627Y-90616401D01*
X110042620Y-90616403D01*
X109907913Y-90666645D01*
X109907906Y-90666649D01*
X109792812Y-90752809D01*
X109792809Y-90752812D01*
X109706649Y-90867906D01*
X109706645Y-90867913D01*
X109656403Y-91002620D01*
X109656401Y-91002627D01*
X109650000Y-91062155D01*
X109650000Y-91710000D01*
X110566988Y-91710000D01*
X110534075Y-91767007D01*
X110500000Y-91894174D01*
X110500000Y-92025826D01*
X110534075Y-92152993D01*
X110566988Y-92210000D01*
X109650000Y-92210000D01*
X109650000Y-92857844D01*
X109656401Y-92917372D01*
X109656403Y-92917379D01*
X109706645Y-93052086D01*
X109706649Y-93052093D01*
X109792809Y-93167187D01*
X109792812Y-93167190D01*
X109907906Y-93253350D01*
X109907913Y-93253354D01*
X110039470Y-93302421D01*
X110095403Y-93344292D01*
X110119821Y-93409756D01*
X110104970Y-93478029D01*
X110083819Y-93506284D01*
X109961503Y-93628600D01*
X109825965Y-93822169D01*
X109825964Y-93822171D01*
X109726098Y-94036335D01*
X109726094Y-94036344D01*
X109664938Y-94264586D01*
X109664936Y-94264596D01*
X109644341Y-94499999D01*
X109644341Y-94500000D01*
X109664936Y-94735403D01*
X109664938Y-94735413D01*
X109726094Y-94963655D01*
X109726096Y-94963659D01*
X109726097Y-94963663D01*
X109816561Y-95157664D01*
X109825965Y-95177830D01*
X109825967Y-95177834D01*
X109904507Y-95290000D01*
X109948001Y-95352116D01*
X109961501Y-95371395D01*
X109961506Y-95371402D01*
X110128597Y-95538493D01*
X110128603Y-95538498D01*
X110314158Y-95668425D01*
X110357783Y-95723002D01*
X110364977Y-95792500D01*
X110333454Y-95854855D01*
X110314158Y-95871575D01*
X110128597Y-96001505D01*
X109961505Y-96168597D01*
X109825965Y-96362169D01*
X109825964Y-96362171D01*
X109726098Y-96576335D01*
X109726094Y-96576344D01*
X109664938Y-96804586D01*
X109664936Y-96804596D01*
X109644341Y-97039999D01*
X109644341Y-97040000D01*
X109664936Y-97275403D01*
X109664938Y-97275413D01*
X109726094Y-97503655D01*
X109726096Y-97503659D01*
X109726097Y-97503663D01*
X109825965Y-97717830D01*
X109825967Y-97717834D01*
X109881306Y-97796865D01*
X109944605Y-97887266D01*
X109961501Y-97911395D01*
X109961506Y-97911402D01*
X109962753Y-97912649D01*
X109963126Y-97913332D01*
X109964982Y-97915544D01*
X109964537Y-97915917D01*
X109996238Y-97973972D01*
X109991254Y-98043664D01*
X109962753Y-98088011D01*
X109369481Y-98681282D01*
X109369480Y-98681284D01*
X109320170Y-98766692D01*
X109290423Y-98818215D01*
X109249499Y-98970943D01*
X109249499Y-98970945D01*
X109249499Y-99139046D01*
X109249500Y-99139059D01*
X109249500Y-109223330D01*
X109249499Y-109223348D01*
X109249499Y-109389054D01*
X109249498Y-109389054D01*
X109000500Y-109389054D01*
X109000500Y-86299069D01*
X109015240Y-86248868D01*
X109015169Y-86248735D01*
X109233580Y-86248735D01*
X109243477Y-86264134D01*
X109248076Y-86288829D01*
X109265385Y-86497730D01*
X109265387Y-86497738D01*
X109326412Y-86738717D01*
X109426266Y-86966364D01*
X109526564Y-87119882D01*
X110226212Y-86420234D01*
X110237482Y-86462292D01*
X110309890Y-86587708D01*
X110412292Y-86690110D01*
X110537708Y-86762518D01*
X110579765Y-86773787D01*
X109879942Y-87473609D01*
X109926768Y-87510055D01*
X109926770Y-87510056D01*
X110145385Y-87628364D01*
X110145396Y-87628369D01*
X110380506Y-87709083D01*
X110625707Y-87750000D01*
X110874293Y-87750000D01*
X111119493Y-87709083D01*
X111354603Y-87628369D01*
X111354614Y-87628364D01*
X111573228Y-87510057D01*
X111573231Y-87510055D01*
X111620056Y-87473609D01*
X110920234Y-86773787D01*
X110962292Y-86762518D01*
X111087708Y-86690110D01*
X111190110Y-86587708D01*
X111262518Y-86462292D01*
X111273787Y-86420235D01*
X111973434Y-87119882D01*
X112073731Y-86966369D01*
X112173587Y-86738717D01*
X112234612Y-86497738D01*
X112234614Y-86497729D01*
X112255141Y-86250005D01*
X113744357Y-86250005D01*
X113764890Y-86497812D01*
X113764892Y-86497824D01*
X113825936Y-86738881D01*
X113925826Y-86966606D01*
X114061833Y-87174782D01*
X114061836Y-87174785D01*
X114230256Y-87357738D01*
X114426491Y-87510474D01*
X114426493Y-87510475D01*
X114644332Y-87628364D01*
X114645190Y-87628828D01*
X114864141Y-87703994D01*
X114878964Y-87709083D01*
X114880386Y-87709571D01*
X115125665Y-87750500D01*
X115374335Y-87750500D01*
X115619614Y-87709571D01*
X115854810Y-87628828D01*
X116073509Y-87510474D01*
X116269744Y-87357738D01*
X116438164Y-87174785D01*
X116574173Y-86966607D01*
X116674063Y-86738881D01*
X116735108Y-86497821D01*
X116755643Y-86250000D01*
X116755549Y-86248868D01*
X116735109Y-86002187D01*
X116735107Y-86002175D01*
X116674063Y-85761118D01*
X116574173Y-85533393D01*
X116438166Y-85325217D01*
X116360110Y-85240426D01*
X116269744Y-85142262D01*
X116073509Y-84989526D01*
X116073507Y-84989525D01*
X116073506Y-84989524D01*
X115854811Y-84871172D01*
X115854802Y-84871169D01*
X115619616Y-84790429D01*
X115374335Y-84749500D01*
X115125665Y-84749500D01*
X114880383Y-84790429D01*
X114645197Y-84871169D01*
X114645188Y-84871172D01*
X114426493Y-84989524D01*
X114230257Y-85142261D01*
X114061833Y-85325217D01*
X113925826Y-85533393D01*
X113825936Y-85761118D01*
X113764892Y-86002175D01*
X113764890Y-86002187D01*
X113744357Y-86249994D01*
X113744357Y-86250005D01*
X112255141Y-86250005D01*
X112255141Y-86249994D01*
X112234614Y-86002270D01*
X112234612Y-86002261D01*
X112173587Y-85761282D01*
X112073731Y-85533630D01*
X111973434Y-85380116D01*
X111273787Y-86079764D01*
X111262518Y-86037708D01*
X111190110Y-85912292D01*
X111087708Y-85809890D01*
X110962292Y-85737482D01*
X110920235Y-85726212D01*
X111620057Y-85026390D01*
X111620056Y-85026389D01*
X111573229Y-84989943D01*
X111354614Y-84871635D01*
X111354603Y-84871630D01*
X111119493Y-84790916D01*
X110874293Y-84750000D01*
X110625707Y-84750000D01*
X110380506Y-84790916D01*
X110145396Y-84871630D01*
X110145390Y-84871632D01*
X109926761Y-84989949D01*
X109879942Y-85026388D01*
X109879942Y-85026390D01*
X110579765Y-85726212D01*
X110537708Y-85737482D01*
X110412292Y-85809890D01*
X110309890Y-85912292D01*
X110237482Y-86037708D01*
X110226212Y-86079764D01*
X109526564Y-85380116D01*
X109426267Y-85533632D01*
X109326412Y-85761282D01*
X109265387Y-86002261D01*
X109265385Y-86002270D01*
X109248076Y-86211170D01*
X109233580Y-86248735D01*
X109015169Y-86248735D01*
X109003044Y-86225921D01*
X109000500Y-86200930D01*
X109000500Y-79799069D01*
X109015240Y-79748868D01*
X109015169Y-79748735D01*
X109233580Y-79748735D01*
X109243477Y-79764134D01*
X109248076Y-79788829D01*
X109265385Y-79997730D01*
X109265387Y-79997738D01*
X109326412Y-80238717D01*
X109426266Y-80466364D01*
X109526564Y-80619882D01*
X110226212Y-79920234D01*
X110237482Y-79962292D01*
X110309890Y-80087708D01*
X110412292Y-80190110D01*
X110537708Y-80262518D01*
X110579765Y-80273787D01*
X109879942Y-80973609D01*
X109926768Y-81010055D01*
X109926770Y-81010056D01*
X110145385Y-81128364D01*
X110145396Y-81128369D01*
X110380506Y-81209083D01*
X110625707Y-81250000D01*
X110874293Y-81250000D01*
X111119493Y-81209083D01*
X111354603Y-81128369D01*
X111354614Y-81128364D01*
X111573228Y-81010057D01*
X111573231Y-81010055D01*
X111620056Y-80973609D01*
X110920234Y-80273787D01*
X110962292Y-80262518D01*
X111087708Y-80190110D01*
X111190110Y-80087708D01*
X111262518Y-79962292D01*
X111273787Y-79920235D01*
X111973434Y-80619882D01*
X112073731Y-80466369D01*
X112173587Y-80238717D01*
X112234612Y-79997738D01*
X112234614Y-79997729D01*
X112255141Y-79750005D01*
X113744357Y-79750005D01*
X113764890Y-79997812D01*
X113764892Y-79997824D01*
X113825936Y-80238881D01*
X113925826Y-80466606D01*
X114061833Y-80674782D01*
X114061836Y-80674785D01*
X114230256Y-80857738D01*
X114426491Y-81010474D01*
X114426493Y-81010475D01*
X114644332Y-81128364D01*
X114645190Y-81128828D01*
X114864141Y-81203994D01*
X114878964Y-81209083D01*
X114880386Y-81209571D01*
X115125665Y-81250500D01*
X115374335Y-81250500D01*
X115619614Y-81209571D01*
X115854810Y-81128828D01*
X116073509Y-81010474D01*
X116269744Y-80857738D01*
X116438164Y-80674785D01*
X116574173Y-80466607D01*
X116674063Y-80238881D01*
X116735108Y-79997821D01*
X116755643Y-79750000D01*
X116755549Y-79748868D01*
X116735109Y-79502187D01*
X116735107Y-79502175D01*
X116674063Y-79261118D01*
X116574173Y-79033393D01*
X116438166Y-78825217D01*
X116416557Y-78801744D01*
X116269744Y-78642262D01*
X116073509Y-78489526D01*
X116073507Y-78489525D01*
X116073506Y-78489524D01*
X115854811Y-78371172D01*
X115854802Y-78371169D01*
X115619616Y-78290429D01*
X115374335Y-78249500D01*
X115125665Y-78249500D01*
X114880383Y-78290429D01*
X114645197Y-78371169D01*
X114645188Y-78371172D01*
X114426493Y-78489524D01*
X114230257Y-78642261D01*
X114061833Y-78825217D01*
X113925826Y-79033393D01*
X113825936Y-79261118D01*
X113764892Y-79502175D01*
X113764890Y-79502187D01*
X113744357Y-79749994D01*
X113744357Y-79750005D01*
X112255141Y-79750005D01*
X112255141Y-79749994D01*
X112234614Y-79502270D01*
X112234612Y-79502261D01*
X112173587Y-79261282D01*
X112073731Y-79033630D01*
X111973434Y-78880116D01*
X111273787Y-79579764D01*
X111262518Y-79537708D01*
X111190110Y-79412292D01*
X111087708Y-79309890D01*
X110962292Y-79237482D01*
X110920235Y-79226212D01*
X111620057Y-78526390D01*
X111620056Y-78526389D01*
X111573229Y-78489943D01*
X111354614Y-78371635D01*
X111354603Y-78371630D01*
X111119493Y-78290916D01*
X110874293Y-78250000D01*
X110625707Y-78250000D01*
X110380506Y-78290916D01*
X110145396Y-78371630D01*
X110145390Y-78371632D01*
X109926761Y-78489949D01*
X109879942Y-78526388D01*
X109879942Y-78526390D01*
X110579765Y-79226212D01*
X110537708Y-79237482D01*
X110412292Y-79309890D01*
X110309890Y-79412292D01*
X110237482Y-79537708D01*
X110226212Y-79579764D01*
X109526564Y-78880116D01*
X109426267Y-79033632D01*
X109326412Y-79261282D01*
X109265387Y-79502261D01*
X109265385Y-79502270D01*
X109248076Y-79711170D01*
X109233580Y-79748735D01*
X109015169Y-79748735D01*
X109003044Y-79725921D01*
X109000500Y-79700930D01*
X109000500Y-74250005D01*
X112244357Y-74250005D01*
X112264890Y-74497812D01*
X112264892Y-74497824D01*
X112325936Y-74738881D01*
X112425826Y-74966606D01*
X112561833Y-75174782D01*
X112561836Y-75174785D01*
X112730256Y-75357738D01*
X112926491Y-75510474D01*
X113145190Y-75628828D01*
X113380386Y-75709571D01*
X113625665Y-75750500D01*
X113874335Y-75750500D01*
X114119614Y-75709571D01*
X114354810Y-75628828D01*
X114573509Y-75510474D01*
X114769744Y-75357738D01*
X114938164Y-75174785D01*
X115074173Y-74966607D01*
X115174063Y-74738881D01*
X115235108Y-74497821D01*
X115255643Y-74250005D01*
X116744357Y-74250005D01*
X116764890Y-74497812D01*
X116764892Y-74497824D01*
X116825936Y-74738881D01*
X116925826Y-74966606D01*
X117061833Y-75174782D01*
X117061836Y-75174785D01*
X117230256Y-75357738D01*
X117426491Y-75510474D01*
X117426494Y-75510476D01*
X117426496Y-75510477D01*
X117492609Y-75546255D01*
X117584517Y-75595993D01*
X117634108Y-75645212D01*
X117649500Y-75705048D01*
X117649500Y-75963330D01*
X117649499Y-75963348D01*
X117649499Y-76129054D01*
X117649498Y-76129054D01*
X117690423Y-76281785D01*
X117719358Y-76331900D01*
X117719359Y-76331904D01*
X117719360Y-76331904D01*
X117769479Y-76418714D01*
X117769481Y-76418717D01*
X117888349Y-76537585D01*
X117888355Y-76537590D01*
X122969298Y-81618533D01*
X123002783Y-81679856D01*
X123004837Y-81692330D01*
X123014630Y-81779249D01*
X123074210Y-81949521D01*
X123151961Y-82073261D01*
X123170184Y-82102262D01*
X123297738Y-82229816D01*
X123450478Y-82325789D01*
X123620745Y-82385368D01*
X123620750Y-82385369D01*
X123799996Y-82405565D01*
X123800000Y-82405565D01*
X123800004Y-82405565D01*
X123979249Y-82385369D01*
X123979252Y-82385368D01*
X123979255Y-82385368D01*
X124149522Y-82325789D01*
X124302262Y-82229816D01*
X124429816Y-82102262D01*
X124525789Y-81949522D01*
X124585368Y-81779255D01*
X124585369Y-81779249D01*
X124605565Y-81600003D01*
X124605565Y-81599996D01*
X124585369Y-81420750D01*
X124585368Y-81420745D01*
X124525789Y-81250478D01*
X124429816Y-81097738D01*
X124302262Y-80970184D01*
X124149521Y-80874210D01*
X123979249Y-80814630D01*
X123892330Y-80804837D01*
X123827916Y-80777770D01*
X123818533Y-80769298D01*
X118886819Y-75837584D01*
X118853334Y-75776261D01*
X118850500Y-75749903D01*
X118850500Y-75705048D01*
X118870185Y-75638009D01*
X118915481Y-75595993D01*
X119073509Y-75510474D01*
X119269744Y-75357738D01*
X119438164Y-75174785D01*
X119574173Y-74966607D01*
X119674063Y-74738881D01*
X119735108Y-74497821D01*
X119755643Y-74250005D01*
X147244357Y-74250005D01*
X147264890Y-74497812D01*
X147264892Y-74497824D01*
X147325936Y-74738881D01*
X147425826Y-74966606D01*
X147561833Y-75174782D01*
X147561836Y-75174785D01*
X147730256Y-75357738D01*
X147926491Y-75510474D01*
X148145190Y-75628828D01*
X148380386Y-75709571D01*
X148625665Y-75750500D01*
X148874335Y-75750500D01*
X149119614Y-75709571D01*
X149354810Y-75628828D01*
X149573509Y-75510474D01*
X149769744Y-75357738D01*
X149938164Y-75174785D01*
X150074173Y-74966607D01*
X150174063Y-74738881D01*
X150235108Y-74497821D01*
X150255643Y-74250005D01*
X151744357Y-74250005D01*
X151764890Y-74497812D01*
X151764892Y-74497824D01*
X151825936Y-74738881D01*
X151925826Y-74966606D01*
X152061833Y-75174782D01*
X152061836Y-75174785D01*
X152230256Y-75357738D01*
X152426491Y-75510474D01*
X152645190Y-75628828D01*
X152880386Y-75709571D01*
X153125665Y-75750500D01*
X153374335Y-75750500D01*
X153619614Y-75709571D01*
X153854810Y-75628828D01*
X154073509Y-75510474D01*
X154269744Y-75357738D01*
X154438164Y-75174785D01*
X154574173Y-74966607D01*
X154674063Y-74738881D01*
X154735108Y-74497821D01*
X154755643Y-74250000D01*
X154735108Y-74002179D01*
X154674063Y-73761119D01*
X154574173Y-73533393D01*
X154438166Y-73325217D01*
X154416557Y-73301744D01*
X154269744Y-73142262D01*
X154073509Y-72989526D01*
X154073507Y-72989525D01*
X154073506Y-72989524D01*
X153854811Y-72871172D01*
X153854802Y-72871169D01*
X153619616Y-72790429D01*
X153374335Y-72749500D01*
X153125665Y-72749500D01*
X152880383Y-72790429D01*
X152645197Y-72871169D01*
X152645188Y-72871172D01*
X152426493Y-72989524D01*
X152230257Y-73142261D01*
X152061833Y-73325217D01*
X151925826Y-73533393D01*
X151825936Y-73761118D01*
X151764892Y-74002175D01*
X151764890Y-74002187D01*
X151744357Y-74249994D01*
X151744357Y-74250005D01*
X150255643Y-74250005D01*
X150255643Y-74250000D01*
X150235108Y-74002179D01*
X150174063Y-73761119D01*
X150074173Y-73533393D01*
X149938166Y-73325217D01*
X149916557Y-73301744D01*
X149769744Y-73142262D01*
X149573509Y-72989526D01*
X149573507Y-72989525D01*
X149573506Y-72989524D01*
X149354811Y-72871172D01*
X149354802Y-72871169D01*
X149119616Y-72790429D01*
X148874335Y-72749500D01*
X148625665Y-72749500D01*
X148380383Y-72790429D01*
X148145197Y-72871169D01*
X148145188Y-72871172D01*
X147926493Y-72989524D01*
X147730257Y-73142261D01*
X147561833Y-73325217D01*
X147425826Y-73533393D01*
X147325936Y-73761118D01*
X147264892Y-74002175D01*
X147264890Y-74002187D01*
X147244357Y-74249994D01*
X147244357Y-74250005D01*
X119755643Y-74250005D01*
X119755643Y-74250000D01*
X119735108Y-74002179D01*
X119674063Y-73761119D01*
X119574173Y-73533393D01*
X119438166Y-73325217D01*
X119416557Y-73301744D01*
X119269744Y-73142262D01*
X119073509Y-72989526D01*
X119073507Y-72989525D01*
X119073506Y-72989524D01*
X118854811Y-72871172D01*
X118854802Y-72871169D01*
X118619616Y-72790429D01*
X118374335Y-72749500D01*
X118125665Y-72749500D01*
X117880383Y-72790429D01*
X117645197Y-72871169D01*
X117645188Y-72871172D01*
X117426493Y-72989524D01*
X117230257Y-73142261D01*
X117061833Y-73325217D01*
X116925826Y-73533393D01*
X116825936Y-73761118D01*
X116764892Y-74002175D01*
X116764890Y-74002187D01*
X116744357Y-74249994D01*
X116744357Y-74250005D01*
X115255643Y-74250005D01*
X115255643Y-74250000D01*
X115235108Y-74002179D01*
X115174063Y-73761119D01*
X115074173Y-73533393D01*
X114938166Y-73325217D01*
X114916557Y-73301744D01*
X114769744Y-73142262D01*
X114573509Y-72989526D01*
X114573507Y-72989525D01*
X114573506Y-72989524D01*
X114354811Y-72871172D01*
X114354802Y-72871169D01*
X114119616Y-72790429D01*
X113874335Y-72749500D01*
X113625665Y-72749500D01*
X113380383Y-72790429D01*
X113145197Y-72871169D01*
X113145188Y-72871172D01*
X112926493Y-72989524D01*
X112730257Y-73142261D01*
X112561833Y-73325217D01*
X112425826Y-73533393D01*
X112325936Y-73761118D01*
X112264892Y-74002175D01*
X112264890Y-74002187D01*
X112244357Y-74249994D01*
X112244357Y-74250005D01*
X109000500Y-74250005D01*
X109000500Y-71750006D01*
X123094700Y-71750006D01*
X123113864Y-71981297D01*
X123113866Y-71981308D01*
X123170842Y-72206300D01*
X123264075Y-72418848D01*
X123391016Y-72613147D01*
X123391019Y-72613151D01*
X123391021Y-72613153D01*
X123548216Y-72783913D01*
X123548219Y-72783915D01*
X123548222Y-72783918D01*
X123731365Y-72926464D01*
X123731371Y-72926468D01*
X123731374Y-72926470D01*
X123935497Y-73036936D01*
X124049487Y-73076068D01*
X124155015Y-73112297D01*
X124155017Y-73112297D01*
X124155019Y-73112298D01*
X124383951Y-73150500D01*
X124383952Y-73150500D01*
X124616048Y-73150500D01*
X124616049Y-73150500D01*
X124844981Y-73112298D01*
X125064503Y-73036936D01*
X125268626Y-72926470D01*
X125451784Y-72783913D01*
X125608979Y-72613153D01*
X125735924Y-72418849D01*
X125829157Y-72206300D01*
X125886134Y-71981305D01*
X125886135Y-71981297D01*
X125905300Y-71750006D01*
X125905300Y-71749993D01*
X125886135Y-71518702D01*
X125886133Y-71518691D01*
X125829157Y-71293699D01*
X125735924Y-71081151D01*
X125608981Y-70886849D01*
X125513832Y-70783489D01*
X125482910Y-70720835D01*
X125490770Y-70651409D01*
X125534918Y-70597253D01*
X125561730Y-70583325D01*
X125642084Y-70553355D01*
X125642093Y-70553350D01*
X125757187Y-70467190D01*
X125757190Y-70467187D01*
X125843350Y-70352093D01*
X125843354Y-70352086D01*
X125893596Y-70217379D01*
X125893598Y-70217372D01*
X125899999Y-70157844D01*
X125900000Y-70157827D01*
X125900000Y-69460000D01*
X124875278Y-69460000D01*
X124919333Y-69383694D01*
X124950000Y-69269244D01*
X124950000Y-69250006D01*
X141094700Y-69250006D01*
X141113864Y-69481297D01*
X141113866Y-69481308D01*
X141170842Y-69706300D01*
X141264075Y-69918848D01*
X141391018Y-70113150D01*
X141486167Y-70216510D01*
X141517089Y-70279164D01*
X141509228Y-70348590D01*
X141465081Y-70402746D01*
X141438271Y-70416674D01*
X141357911Y-70446646D01*
X141357906Y-70446649D01*
X141242812Y-70532809D01*
X141242809Y-70532812D01*
X141156649Y-70647906D01*
X141156645Y-70647913D01*
X141106403Y-70782620D01*
X141106401Y-70782627D01*
X141100000Y-70842155D01*
X141100000Y-71540000D01*
X142124722Y-71540000D01*
X142080667Y-71616306D01*
X142050000Y-71730756D01*
X142050000Y-71849244D01*
X142080667Y-71963694D01*
X142124722Y-72040000D01*
X141100000Y-72040000D01*
X141100000Y-72737844D01*
X141106401Y-72797372D01*
X141106403Y-72797379D01*
X141156645Y-72932086D01*
X141156649Y-72932093D01*
X141242809Y-73047187D01*
X141242812Y-73047190D01*
X141357906Y-73133350D01*
X141357913Y-73133354D01*
X141492620Y-73183596D01*
X141492627Y-73183598D01*
X141552155Y-73189999D01*
X141552172Y-73190000D01*
X142250000Y-73190000D01*
X142250000Y-72165277D01*
X142326306Y-72209333D01*
X142440756Y-72240000D01*
X142559244Y-72240000D01*
X142673694Y-72209333D01*
X142750000Y-72165277D01*
X142750000Y-73190000D01*
X143447828Y-73190000D01*
X143447844Y-73189999D01*
X143507372Y-73183598D01*
X143507379Y-73183596D01*
X143642086Y-73133354D01*
X143642093Y-73133350D01*
X143757187Y-73047190D01*
X143757190Y-73047187D01*
X143843350Y-72932093D01*
X143843354Y-72932086D01*
X143893596Y-72797379D01*
X143893598Y-72797372D01*
X143899999Y-72737844D01*
X143900000Y-72737827D01*
X143900000Y-72040000D01*
X142875278Y-72040000D01*
X142919333Y-71963694D01*
X142950000Y-71849244D01*
X142950000Y-71730756D01*
X142919333Y-71616306D01*
X142875278Y-71540000D01*
X143900000Y-71540000D01*
X143900000Y-70842172D01*
X143899999Y-70842155D01*
X143893598Y-70782627D01*
X143893596Y-70782620D01*
X143843354Y-70647913D01*
X143843350Y-70647906D01*
X143757190Y-70532812D01*
X143757187Y-70532809D01*
X143642093Y-70446649D01*
X143642086Y-70446645D01*
X143561729Y-70416674D01*
X143505795Y-70374803D01*
X143481378Y-70309338D01*
X143496230Y-70241065D01*
X143513826Y-70216516D01*
X143608979Y-70113153D01*
X143735924Y-69918849D01*
X143829157Y-69706300D01*
X143886134Y-69481305D01*
X143886135Y-69481297D01*
X143905300Y-69250006D01*
X143905300Y-69249993D01*
X143886135Y-69018702D01*
X143886133Y-69018691D01*
X143829157Y-68793699D01*
X143735924Y-68581151D01*
X143608983Y-68386852D01*
X143608980Y-68386849D01*
X143608979Y-68386847D01*
X143451784Y-68216087D01*
X143451779Y-68216083D01*
X143451777Y-68216081D01*
X143268634Y-68073535D01*
X143268628Y-68073531D01*
X143064504Y-67963064D01*
X143064495Y-67963061D01*
X142844984Y-67887702D01*
X142673282Y-67859050D01*
X142616049Y-67849500D01*
X142383951Y-67849500D01*
X142338164Y-67857140D01*
X142155015Y-67887702D01*
X141935504Y-67963061D01*
X141935495Y-67963064D01*
X141731371Y-68073531D01*
X141731365Y-68073535D01*
X141548222Y-68216081D01*
X141548219Y-68216084D01*
X141391016Y-68386852D01*
X141264075Y-68581151D01*
X141170842Y-68793699D01*
X141113866Y-69018691D01*
X141113864Y-69018702D01*
X141094700Y-69249993D01*
X141094700Y-69250006D01*
X124950000Y-69250006D01*
X124950000Y-69150756D01*
X124919333Y-69036306D01*
X124875278Y-68960000D01*
X125900000Y-68960000D01*
X125900000Y-68262172D01*
X125899999Y-68262155D01*
X125893598Y-68202627D01*
X125893596Y-68202620D01*
X125843354Y-68067913D01*
X125843350Y-68067906D01*
X125757190Y-67952812D01*
X125757187Y-67952809D01*
X125642093Y-67866649D01*
X125642086Y-67866645D01*
X125507379Y-67816403D01*
X125507372Y-67816401D01*
X125447844Y-67810000D01*
X124750000Y-67810000D01*
X124750000Y-68834722D01*
X124673694Y-68790667D01*
X124559244Y-68760000D01*
X124440756Y-68760000D01*
X124326306Y-68790667D01*
X124250000Y-68834722D01*
X124250000Y-67810000D01*
X123552155Y-67810000D01*
X123492627Y-67816401D01*
X123492620Y-67816403D01*
X123357913Y-67866645D01*
X123357906Y-67866649D01*
X123242812Y-67952809D01*
X123242809Y-67952812D01*
X123156649Y-68067906D01*
X123156645Y-68067913D01*
X123106403Y-68202620D01*
X123106401Y-68202627D01*
X123100000Y-68262155D01*
X123100000Y-68960000D01*
X124124722Y-68960000D01*
X124080667Y-69036306D01*
X124050000Y-69150756D01*
X124050000Y-69269244D01*
X124080667Y-69383694D01*
X124124722Y-69460000D01*
X123100000Y-69460000D01*
X123100000Y-70157844D01*
X123106401Y-70217372D01*
X123106403Y-70217379D01*
X123156645Y-70352086D01*
X123156649Y-70352093D01*
X123242809Y-70467187D01*
X123242812Y-70467190D01*
X123357906Y-70553350D01*
X123357913Y-70553354D01*
X123438270Y-70583325D01*
X123494204Y-70625196D01*
X123518621Y-70690660D01*
X123503770Y-70758933D01*
X123486168Y-70783489D01*
X123391021Y-70886847D01*
X123391019Y-70886848D01*
X123391016Y-70886853D01*
X123264075Y-71081151D01*
X123170842Y-71293699D01*
X123113866Y-71518691D01*
X123113864Y-71518702D01*
X123094700Y-71749993D01*
X123094700Y-71750006D01*
X109000500Y-71750006D01*
X109000500Y-68503051D01*
X109000649Y-68496967D01*
X109012184Y-68262172D01*
X109017052Y-68163068D01*
X109018245Y-68150962D01*
X109040963Y-67997812D01*
X109066849Y-67823296D01*
X109069218Y-67811385D01*
X109084593Y-67750005D01*
X112244357Y-67750005D01*
X112264890Y-67997812D01*
X112264892Y-67997824D01*
X112325936Y-68238881D01*
X112425826Y-68466606D01*
X112561833Y-68674782D01*
X112561836Y-68674785D01*
X112730256Y-68857738D01*
X112926491Y-69010474D01*
X113145190Y-69128828D01*
X113380386Y-69209571D01*
X113625665Y-69250500D01*
X113874335Y-69250500D01*
X114119614Y-69209571D01*
X114354810Y-69128828D01*
X114573509Y-69010474D01*
X114769744Y-68857738D01*
X114938164Y-68674785D01*
X115074173Y-68466607D01*
X115174063Y-68238881D01*
X115235108Y-67997821D01*
X115235109Y-67997812D01*
X115255643Y-67750005D01*
X116744357Y-67750005D01*
X116764890Y-67997812D01*
X116764892Y-67997824D01*
X116825936Y-68238881D01*
X116925826Y-68466606D01*
X117061833Y-68674782D01*
X117061836Y-68674785D01*
X117230256Y-68857738D01*
X117426491Y-69010474D01*
X117645190Y-69128828D01*
X117880386Y-69209571D01*
X118125665Y-69250500D01*
X118374335Y-69250500D01*
X118619614Y-69209571D01*
X118854810Y-69128828D01*
X119073509Y-69010474D01*
X119269744Y-68857738D01*
X119438164Y-68674785D01*
X119574173Y-68466607D01*
X119674063Y-68238881D01*
X119735108Y-67997821D01*
X119735109Y-67997812D01*
X119755643Y-67750005D01*
X147244357Y-67750005D01*
X147264890Y-67997812D01*
X147264892Y-67997824D01*
X147325936Y-68238881D01*
X147425826Y-68466606D01*
X147561833Y-68674782D01*
X147561836Y-68674785D01*
X147730256Y-68857738D01*
X147926491Y-69010474D01*
X148145190Y-69128828D01*
X148380386Y-69209571D01*
X148625665Y-69250500D01*
X148874335Y-69250500D01*
X149119614Y-69209571D01*
X149354810Y-69128828D01*
X149573509Y-69010474D01*
X149769744Y-68857738D01*
X149938164Y-68674785D01*
X150074173Y-68466607D01*
X150174063Y-68238881D01*
X150235108Y-67997821D01*
X150235109Y-67997812D01*
X150255643Y-67750005D01*
X151744357Y-67750005D01*
X151764890Y-67997812D01*
X151764892Y-67997824D01*
X151825936Y-68238881D01*
X151925826Y-68466606D01*
X152061833Y-68674782D01*
X152061836Y-68674785D01*
X152230256Y-68857738D01*
X152426491Y-69010474D01*
X152645190Y-69128828D01*
X152880386Y-69209571D01*
X153125665Y-69250500D01*
X153374335Y-69250500D01*
X153619614Y-69209571D01*
X153854810Y-69128828D01*
X154073509Y-69010474D01*
X154269744Y-68857738D01*
X154438164Y-68674785D01*
X154574173Y-68466607D01*
X154674063Y-68238881D01*
X154735108Y-67997821D01*
X154735109Y-67997812D01*
X154755643Y-67750005D01*
X154755643Y-67749994D01*
X154735109Y-67502187D01*
X154735107Y-67502175D01*
X154674063Y-67261118D01*
X154574173Y-67033393D01*
X154438166Y-66825217D01*
X154392943Y-66776092D01*
X154269744Y-66642262D01*
X154073509Y-66489526D01*
X154073507Y-66489525D01*
X154073506Y-66489524D01*
X153854811Y-66371172D01*
X153854802Y-66371169D01*
X153619616Y-66290429D01*
X153374335Y-66249500D01*
X153125665Y-66249500D01*
X152880383Y-66290429D01*
X152645197Y-66371169D01*
X152645188Y-66371172D01*
X152426493Y-66489524D01*
X152230257Y-66642261D01*
X152061833Y-66825217D01*
X151925826Y-67033393D01*
X151825936Y-67261118D01*
X151764892Y-67502175D01*
X151764890Y-67502187D01*
X151744357Y-67749994D01*
X151744357Y-67750005D01*
X150255643Y-67750005D01*
X150255643Y-67749994D01*
X150235109Y-67502187D01*
X150235107Y-67502175D01*
X150174063Y-67261118D01*
X150074173Y-67033393D01*
X149938166Y-66825217D01*
X149892943Y-66776092D01*
X149769744Y-66642262D01*
X149573509Y-66489526D01*
X149573507Y-66489525D01*
X149573506Y-66489524D01*
X149354811Y-66371172D01*
X149354802Y-66371169D01*
X149119616Y-66290429D01*
X148874335Y-66249500D01*
X148625665Y-66249500D01*
X148380383Y-66290429D01*
X148145197Y-66371169D01*
X148145188Y-66371172D01*
X147926493Y-66489524D01*
X147730257Y-66642261D01*
X147561833Y-66825217D01*
X147425826Y-67033393D01*
X147325936Y-67261118D01*
X147264892Y-67502175D01*
X147264890Y-67502187D01*
X147244357Y-67749994D01*
X147244357Y-67750005D01*
X119755643Y-67750005D01*
X119755643Y-67749994D01*
X119735109Y-67502187D01*
X119735107Y-67502175D01*
X119674063Y-67261118D01*
X119574173Y-67033393D01*
X119438166Y-66825217D01*
X119392943Y-66776092D01*
X119269744Y-66642262D01*
X119073509Y-66489526D01*
X119073507Y-66489525D01*
X119073506Y-66489524D01*
X118854811Y-66371172D01*
X118854802Y-66371169D01*
X118619616Y-66290429D01*
X118374335Y-66249500D01*
X118125665Y-66249500D01*
X117880383Y-66290429D01*
X117645197Y-66371169D01*
X117645188Y-66371172D01*
X117426493Y-66489524D01*
X117230257Y-66642261D01*
X117061833Y-66825217D01*
X116925826Y-67033393D01*
X116825936Y-67261118D01*
X116764892Y-67502175D01*
X116764890Y-67502187D01*
X116744357Y-67749994D01*
X116744357Y-67750005D01*
X115255643Y-67750005D01*
X115255643Y-67749994D01*
X115235109Y-67502187D01*
X115235107Y-67502175D01*
X115174063Y-67261118D01*
X115074173Y-67033393D01*
X114938166Y-66825217D01*
X114892943Y-66776092D01*
X114769744Y-66642262D01*
X114573509Y-66489526D01*
X114573507Y-66489525D01*
X114573506Y-66489524D01*
X114354811Y-66371172D01*
X114354802Y-66371169D01*
X114119616Y-66290429D01*
X113874335Y-66249500D01*
X113625665Y-66249500D01*
X113380383Y-66290429D01*
X113145197Y-66371169D01*
X113145188Y-66371172D01*
X112926493Y-66489524D01*
X112730257Y-66642261D01*
X112561833Y-66825217D01*
X112425826Y-67033393D01*
X112325936Y-67261118D01*
X112264892Y-67502175D01*
X112264890Y-67502187D01*
X112244357Y-67749994D01*
X112244357Y-67750005D01*
X109084593Y-67750005D01*
X109149710Y-67490043D01*
X109153240Y-67478411D01*
X109264835Y-67166525D01*
X109269476Y-67155318D01*
X109411124Y-66855828D01*
X109416840Y-66845136D01*
X109587145Y-66560998D01*
X109593888Y-66550905D01*
X109791232Y-66284818D01*
X109798935Y-66275433D01*
X110021405Y-66029975D01*
X110029975Y-66021405D01*
X110275433Y-65798935D01*
X110284818Y-65791232D01*
X110550905Y-65593888D01*
X110560998Y-65587145D01*
X110845136Y-65416840D01*
X110855828Y-65411124D01*
X111155318Y-65269476D01*
X111166525Y-65264835D01*
X111478412Y-65153239D01*
X111490043Y-65149710D01*
X111811385Y-65069218D01*
X111823296Y-65066849D01*
X112150962Y-65018244D01*
X112163068Y-65017052D01*
X112496967Y-65000648D01*
X112503051Y-65000500D01*
X112565892Y-65000500D01*
X112934108Y-65000500D01*
X152434108Y-65000500D01*
X152934108Y-65000500D01*
X152997128Y-65000500D01*
X153002855Y-65000632D01*
G37*
G04 #@! TD.AperFunction*
M02*
