M48
; DRILL file {KiCad 8.0.0} date 2024-04-02T15:54:05-0600
; FORMAT={-:-/ absolute / metric / decimal}
; #@! TF.CreationDate,2024-04-02T15:54:05-06:00
; #@! TF.GenerationSoftware,Kicad,Pcbnew,8.0.0
; #@! TF.FileFunction,Plated,1,2,PTH
FMAT,2
METRIC
; #@! TA.AperFunction,Plated,PTH,ViaDrill
T1C0.300
; #@! TA.AperFunction,Plated,PTH,ComponentDrill
T2C0.800
; #@! TA.AperFunction,Plated,PTH,ComponentDrill
T3C0.900
; #@! TA.AperFunction,Plated,PTH,ComponentDrill
T4C1.000
; #@! TA.AperFunction,Plated,PTH,ComponentDrill
T5C1.100
; #@! TA.AperFunction,Plated,PTH,ComponentDrill
T6C1.300
%
G90
G05
T1
X122.0Y-76.5
X123.8Y-81.6
X124.4Y-86.4
X126.0Y-103.5
X126.0Y-107.5
X128.0Y-122.5
X129.0Y-78.0
X137.0Y-122.5
X138.4Y-84.6
X139.0Y-78.5
X139.5Y-90.5
X141.0Y-76.0
X141.0Y-98.5
T2
X128.0Y-83.3
X128.0Y-85.84
X128.0Y-88.38
X128.0Y-90.92
X128.0Y-93.46
X128.0Y-96.0
X128.0Y-98.54
X128.0Y-101.08
X128.0Y-103.62
X128.0Y-106.16
X128.0Y-108.7
X128.0Y-111.24
X128.0Y-113.78
X128.0Y-116.32
X135.62Y-83.3
X135.62Y-85.84
X135.62Y-88.38
X135.62Y-90.92
X135.62Y-93.46
X135.62Y-96.0
X135.62Y-98.54
X135.62Y-101.08
X135.62Y-103.62
X135.62Y-106.16
X135.62Y-108.7
X135.62Y-111.24
X135.62Y-113.78
X135.62Y-116.32
T3
X124.5Y-69.21
X124.5Y-71.75
X124.5Y-126.46
X124.5Y-129.0
X142.5Y-69.25
X142.5Y-71.79
X142.5Y-126.5
X142.5Y-129.04
T4
X111.0Y-91.96
X111.0Y-94.5
X111.0Y-97.04
X111.0Y-99.58
X111.0Y-105.38
X111.0Y-107.92
X111.0Y-110.46
X111.0Y-113.0
X111.0Y-115.54
X111.0Y-118.08
X121.0Y-96.25
X121.0Y-98.79
T5
X110.75Y-79.75
X110.75Y-86.25
X113.75Y-67.75
X113.75Y-74.25
X113.75Y-123.75
X113.75Y-130.25
X115.25Y-79.75
X115.25Y-86.25
X118.25Y-67.75
X118.25Y-74.25
X118.25Y-123.75
X118.25Y-130.25
X146.46Y-95.84
X148.75Y-67.75
X148.75Y-74.25
X148.75Y-124.0
X148.75Y-130.5
X149.0Y-95.84
X151.54Y-95.84
X153.25Y-67.75
X153.25Y-74.25
X153.25Y-124.0
X153.25Y-130.5
T6
X149.0Y-83.5
X149.0Y-88.5
M30
