G04 #@! TF.GenerationSoftware,KiCad,Pcbnew,8.0.0*
G04 #@! TF.CreationDate,2024-04-02T15:54:02-06:00*
G04 #@! TF.ProjectId,SimonSaysPCBDesign,53696d6f-6e53-4617-9973-504342446573,1.0*
G04 #@! TF.SameCoordinates,Original*
G04 #@! TF.FileFunction,Legend,Top*
G04 #@! TF.FilePolarity,Positive*
%FSLAX46Y46*%
G04 Gerber Fmt 4.6, Leading zero omitted, Abs format (unit mm)*
G04 Created by KiCad (PCBNEW 8.0.0) date 2024-04-02 15:54:02*
%MOMM*%
%LPD*%
G01*
G04 APERTURE LIST*
G04 Aperture macros list*
%AMRoundRect*
0 Rectangle with rounded corners*
0 $1 Rounding radius*
0 $2 $3 $4 $5 $6 $7 $8 $9 X,Y pos of 4 corners*
0 Add a 4 corners polygon primitive as box body*
4,1,4,$2,$3,$4,$5,$6,$7,$8,$9,$2,$3,0*
0 Add four circle primitives for the rounded corners*
1,1,$1+$1,$2,$3*
1,1,$1+$1,$4,$5*
1,1,$1+$1,$6,$7*
1,1,$1+$1,$8,$9*
0 Add four rect primitives between the rounded corners*
20,1,$1+$1,$2,$3,$4,$5,0*
20,1,$1+$1,$4,$5,$6,$7,0*
20,1,$1+$1,$6,$7,$8,$9,0*
20,1,$1+$1,$8,$9,$2,$3,0*%
G04 Aperture macros list end*
%ADD10C,0.150000*%
%ADD11C,0.125000*%
%ADD12C,0.120000*%
%ADD13C,0.000000*%
%ADD14RoundRect,0.140000X-0.140000X-0.170000X0.140000X-0.170000X0.140000X0.170000X-0.140000X0.170000X0*%
%ADD15RoundRect,0.200000X-0.275000X0.200000X-0.275000X-0.200000X0.275000X-0.200000X0.275000X0.200000X0*%
%ADD16RoundRect,0.250000X0.650000X-0.325000X0.650000X0.325000X-0.650000X0.325000X-0.650000X-0.325000X0*%
%ADD17R,1.600000X1.600000*%
%ADD18O,1.600000X1.600000*%
%ADD19RoundRect,0.135000X-0.135000X-0.185000X0.135000X-0.185000X0.135000X0.185000X-0.135000X0.185000X0*%
%ADD20R,2.600000X2.600000*%
%ADD21C,2.600000*%
%ADD22C,2.000000*%
%ADD23R,1.800000X1.800000*%
%ADD24C,1.800000*%
%ADD25R,1.700000X1.700000*%
%ADD26O,1.700000X1.700000*%
%ADD27O,3.500000X3.500000*%
%ADD28R,1.905000X2.000000*%
%ADD29O,1.905000X2.000000*%
%ADD30R,0.800000X0.900000*%
%ADD31RoundRect,0.200000X0.275000X-0.200000X0.275000X0.200000X-0.275000X0.200000X-0.275000X-0.200000X0*%
G04 APERTURE END LIST*
D10*
X118119819Y-84591792D02*
X117643628Y-84925125D01*
X118119819Y-85163220D02*
X117119819Y-85163220D01*
X117119819Y-85163220D02*
X117119819Y-84782268D01*
X117119819Y-84782268D02*
X117167438Y-84687030D01*
X117167438Y-84687030D02*
X117215057Y-84639411D01*
X117215057Y-84639411D02*
X117310295Y-84591792D01*
X117310295Y-84591792D02*
X117453152Y-84591792D01*
X117453152Y-84591792D02*
X117548390Y-84639411D01*
X117548390Y-84639411D02*
X117596009Y-84687030D01*
X117596009Y-84687030D02*
X117643628Y-84782268D01*
X117643628Y-84782268D02*
X117643628Y-85163220D01*
X117596009Y-84163220D02*
X117596009Y-83829887D01*
X118119819Y-83687030D02*
X118119819Y-84163220D01*
X118119819Y-84163220D02*
X117119819Y-84163220D01*
X117119819Y-84163220D02*
X117119819Y-83687030D01*
X118072200Y-83306077D02*
X118119819Y-83163220D01*
X118119819Y-83163220D02*
X118119819Y-82925125D01*
X118119819Y-82925125D02*
X118072200Y-82829887D01*
X118072200Y-82829887D02*
X118024580Y-82782268D01*
X118024580Y-82782268D02*
X117929342Y-82734649D01*
X117929342Y-82734649D02*
X117834104Y-82734649D01*
X117834104Y-82734649D02*
X117738866Y-82782268D01*
X117738866Y-82782268D02*
X117691247Y-82829887D01*
X117691247Y-82829887D02*
X117643628Y-82925125D01*
X117643628Y-82925125D02*
X117596009Y-83115601D01*
X117596009Y-83115601D02*
X117548390Y-83210839D01*
X117548390Y-83210839D02*
X117500771Y-83258458D01*
X117500771Y-83258458D02*
X117405533Y-83306077D01*
X117405533Y-83306077D02*
X117310295Y-83306077D01*
X117310295Y-83306077D02*
X117215057Y-83258458D01*
X117215057Y-83258458D02*
X117167438Y-83210839D01*
X117167438Y-83210839D02*
X117119819Y-83115601D01*
X117119819Y-83115601D02*
X117119819Y-82877506D01*
X117119819Y-82877506D02*
X117167438Y-82734649D01*
X117596009Y-82306077D02*
X117596009Y-81972744D01*
X118119819Y-81829887D02*
X118119819Y-82306077D01*
X118119819Y-82306077D02*
X117119819Y-82306077D01*
X117119819Y-82306077D02*
X117119819Y-81829887D01*
X117119819Y-81544172D02*
X117119819Y-80972744D01*
X118119819Y-81258458D02*
X117119819Y-81258458D01*
D11*
G36*
X124130272Y-132034947D02*
G01*
X124241842Y-132162930D01*
X123343810Y-132162930D01*
X123343810Y-131362595D01*
X124243991Y-131362595D01*
X124133593Y-131490383D01*
X123591570Y-131490383D01*
X123591570Y-131697306D01*
X124184005Y-131697306D01*
X124184005Y-131829197D01*
X123591570Y-131829197D01*
X123591570Y-132034947D01*
X124130272Y-132034947D01*
G37*
G36*
X125193607Y-132032212D02*
G01*
X125082037Y-132160000D01*
X124291081Y-132160000D01*
X124291081Y-131363572D01*
X125192435Y-131363572D01*
X125082037Y-131491360D01*
X124543335Y-131491360D01*
X124543335Y-132032212D01*
X125193607Y-132032212D01*
G37*
G36*
X126027159Y-132034947D02*
G01*
X126138730Y-132162930D01*
X125240697Y-132162930D01*
X125240697Y-131362595D01*
X126140879Y-131362595D01*
X126030481Y-131490383D01*
X125488457Y-131490383D01*
X125488457Y-131697306D01*
X126080893Y-131697306D01*
X126080893Y-131829197D01*
X125488457Y-131829197D01*
X125488457Y-132034947D01*
X126027159Y-132034947D01*
G37*
G36*
X127131137Y-132160000D02*
G01*
X127376552Y-132160000D01*
X127376552Y-131363572D01*
X127131137Y-131363572D01*
X127131137Y-131807117D01*
X126767313Y-131807117D01*
X126767313Y-131363572D01*
X126524047Y-131363572D01*
X126524047Y-131934905D01*
X127131137Y-131934905D01*
X127131137Y-132160000D01*
G37*
G36*
X127612784Y-132160000D02*
G01*
X127898646Y-132160000D01*
X128322065Y-131359665D01*
X127412114Y-131359665D01*
X127522512Y-131487648D01*
X127944368Y-131487648D01*
X127612784Y-132160000D01*
G37*
G36*
X128452979Y-132032212D02*
G01*
X128342582Y-132160000D01*
X129183559Y-132160000D01*
X129183559Y-131359665D01*
X128342582Y-131359665D01*
X128452979Y-131487648D01*
X128938143Y-131487648D01*
X128938143Y-131682065D01*
X128449658Y-131682065D01*
X128449658Y-131809853D01*
X128938143Y-131809853D01*
X128938143Y-132032212D01*
X128452979Y-132032212D01*
G37*
G36*
X130153105Y-131488039D02*
G01*
X130153105Y-132029476D01*
X130044661Y-132160000D01*
X129369965Y-132160000D01*
X129260349Y-132029476D01*
X129260349Y-131968513D01*
X129502442Y-131968513D01*
X129556175Y-132032212D01*
X129858450Y-132032212D01*
X129911011Y-131968513D01*
X129911011Y-131546852D01*
X129858450Y-131485303D01*
X129556175Y-131485303D01*
X129502442Y-131546852D01*
X129502442Y-131968513D01*
X129260349Y-131968513D01*
X129260349Y-131488039D01*
X129369965Y-131359665D01*
X130044661Y-131359665D01*
X130153105Y-131488039D01*
G37*
G36*
X131472603Y-132034752D02*
G01*
X131367480Y-132157264D01*
X130654682Y-132157264D01*
X130543307Y-132029476D01*
X131184591Y-132029476D01*
X131222693Y-131985317D01*
X131222693Y-131822358D01*
X130580823Y-131822358D01*
X130580823Y-131491946D01*
X130690635Y-131363572D01*
X131506797Y-131363572D01*
X131397571Y-131491556D01*
X130874305Y-131491556D01*
X130827411Y-131544703D01*
X130827411Y-131697306D01*
X131472603Y-131697306D01*
X131472603Y-132034752D01*
G37*
G36*
X131582805Y-131363572D02*
G01*
X131830565Y-131363572D01*
X131830565Y-132160000D01*
X131582805Y-132160000D01*
X131582805Y-131363572D01*
G37*
G36*
X131930216Y-132160000D02*
G01*
X131930216Y-131358297D01*
X132419092Y-131676008D01*
X132908164Y-131358297D01*
X132908164Y-132160000D01*
X132663921Y-132160000D01*
X132663921Y-131716064D01*
X132419092Y-131871207D01*
X132176804Y-131716064D01*
X132176804Y-132160000D01*
X131930216Y-132160000D01*
G37*
G36*
X133887090Y-132160000D02*
G01*
X133179176Y-132160000D01*
X132985345Y-131939399D01*
X132985345Y-131487648D01*
X133231933Y-131487648D01*
X133231933Y-131883907D01*
X133361870Y-132032212D01*
X133640502Y-132032212D01*
X133640502Y-131487648D01*
X133231933Y-131487648D01*
X132985345Y-131487648D01*
X132985345Y-131359665D01*
X133887090Y-131359665D01*
X133887090Y-132160000D01*
G37*
G36*
X134852337Y-132165471D02*
G01*
X134210467Y-131738729D01*
X134210467Y-132160000D01*
X133963880Y-132160000D01*
X133963880Y-131358297D01*
X134609071Y-131781716D01*
X134609071Y-131363572D01*
X134852337Y-131363572D01*
X134852337Y-132165471D01*
G37*
G36*
X136171444Y-132034752D02*
G01*
X136066322Y-132157264D01*
X135353524Y-132157264D01*
X135242149Y-132029476D01*
X135883433Y-132029476D01*
X135921535Y-131985317D01*
X135921535Y-131822358D01*
X135279665Y-131822358D01*
X135279665Y-131491946D01*
X135389476Y-131363572D01*
X136205638Y-131363572D01*
X136096413Y-131491556D01*
X135573147Y-131491556D01*
X135526252Y-131544703D01*
X135526252Y-131697306D01*
X136171444Y-131697306D01*
X136171444Y-132034752D01*
G37*
G36*
X137166587Y-132160195D02*
G01*
X136919023Y-132160195D01*
X136919023Y-131826461D01*
X136517097Y-131826461D01*
X136517097Y-132160195D01*
X136264843Y-132160195D01*
X136264843Y-131491556D01*
X136520418Y-131491556D01*
X136520418Y-131697306D01*
X136913356Y-131697306D01*
X136913356Y-131491556D01*
X136520418Y-131491556D01*
X136264843Y-131491556D01*
X136264843Y-131363572D01*
X137166587Y-131363572D01*
X137166587Y-132160195D01*
G37*
G36*
X137565973Y-132160000D02*
G01*
X137813733Y-132160000D01*
X137813733Y-131786601D01*
X138188695Y-131363572D01*
X137901074Y-131363572D01*
X137689853Y-131602344D01*
X137478632Y-131363572D01*
X137191011Y-131363572D01*
X137565973Y-131786601D01*
X137565973Y-132160000D01*
G37*
G36*
X139119553Y-132034752D02*
G01*
X139014431Y-132157264D01*
X138301633Y-132157264D01*
X138190258Y-132029476D01*
X138831542Y-132029476D01*
X138869644Y-131985317D01*
X138869644Y-131822358D01*
X138227774Y-131822358D01*
X138227774Y-131491946D01*
X138337585Y-131363572D01*
X139153747Y-131363572D01*
X139044522Y-131491556D01*
X138521256Y-131491556D01*
X138474361Y-131544703D01*
X138474361Y-131697306D01*
X139119553Y-131697306D01*
X139119553Y-132034752D01*
G37*
G36*
X140424005Y-131887815D02*
G01*
X139791319Y-131887815D01*
X139791319Y-132165666D01*
X139543559Y-132165666D01*
X139543559Y-131496831D01*
X139788974Y-131496831D01*
X139788974Y-131759832D01*
X140176441Y-131759832D01*
X140176441Y-131496831D01*
X139788974Y-131496831D01*
X139543559Y-131496831D01*
X139543559Y-131369043D01*
X140424005Y-131369043D01*
X140424005Y-131887815D01*
G37*
G36*
X141414459Y-132032212D02*
G01*
X141302889Y-132160000D01*
X140511933Y-132160000D01*
X140511933Y-131363572D01*
X141413286Y-131363572D01*
X141302889Y-131491360D01*
X140764187Y-131491360D01*
X140764187Y-132032212D01*
X141414459Y-132032212D01*
G37*
G36*
X142264815Y-131659790D02*
G01*
X142333203Y-131659790D01*
X142333203Y-132162930D01*
X141461549Y-132162930D01*
X141461549Y-131793244D01*
X141708136Y-131793244D01*
X141708136Y-132034947D01*
X142086420Y-132034947D01*
X142086420Y-131793244D01*
X141708136Y-131793244D01*
X141461549Y-131793244D01*
X141461549Y-131488625D01*
X141708136Y-131488625D01*
X141708136Y-131659790D01*
X142086420Y-131659790D01*
X142086420Y-131488625D01*
X141708136Y-131488625D01*
X141461549Y-131488625D01*
X141461549Y-131360837D01*
X142264815Y-131360837D01*
X142264815Y-131659790D01*
G37*
G36*
X112264760Y-133003790D02*
G01*
X112333148Y-133003790D01*
X112333148Y-133506930D01*
X111461494Y-133506930D01*
X111461494Y-133137244D01*
X111708081Y-133137244D01*
X111708081Y-133378947D01*
X112086365Y-133378947D01*
X112086365Y-133137244D01*
X111708081Y-133137244D01*
X111461494Y-133137244D01*
X111461494Y-132832625D01*
X111708081Y-132832625D01*
X111708081Y-133003790D01*
X112086365Y-133003790D01*
X112086365Y-132832625D01*
X111708081Y-132832625D01*
X111461494Y-132832625D01*
X111461494Y-132704837D01*
X112264760Y-132704837D01*
X112264760Y-133003790D01*
G37*
G36*
X112732143Y-133504000D02*
G01*
X112979903Y-133504000D01*
X112979903Y-133130601D01*
X113354864Y-132707572D01*
X113067244Y-132707572D01*
X112856023Y-132946344D01*
X112644802Y-132707572D01*
X112357181Y-132707572D01*
X112732143Y-133130601D01*
X112732143Y-133504000D01*
G37*
G36*
X113619233Y-133016295D02*
G01*
X113619233Y-132844739D01*
X113446700Y-132844739D01*
X113446700Y-133016295D01*
X113619233Y-133016295D01*
G37*
G36*
X113619233Y-133366442D02*
G01*
X113619233Y-133194886D01*
X113446700Y-133194886D01*
X113446700Y-133366442D01*
X113619233Y-133366442D01*
G37*
G36*
X114902582Y-133003790D02*
G01*
X114970970Y-133003790D01*
X114970970Y-133506930D01*
X114099317Y-133506930D01*
X114099317Y-133137244D01*
X114345904Y-133137244D01*
X114345904Y-133378947D01*
X114724187Y-133378947D01*
X114724187Y-133137244D01*
X114345904Y-133137244D01*
X114099317Y-133137244D01*
X114099317Y-132832625D01*
X114345904Y-132832625D01*
X114345904Y-133003790D01*
X114724187Y-133003790D01*
X114724187Y-132832625D01*
X114345904Y-132832625D01*
X114099317Y-132832625D01*
X114099317Y-132704837D01*
X114902582Y-132704837D01*
X114902582Y-133003790D01*
G37*
G36*
X115833832Y-133378947D02*
G01*
X115945402Y-133506930D01*
X115047370Y-133506930D01*
X115047370Y-132706595D01*
X115947551Y-132706595D01*
X115837153Y-132834383D01*
X115295130Y-132834383D01*
X115295130Y-133041306D01*
X115887565Y-133041306D01*
X115887565Y-133173197D01*
X115295130Y-133173197D01*
X115295130Y-133378947D01*
X115833832Y-133378947D01*
G37*
G36*
X116883099Y-133509471D02*
G01*
X116241229Y-133082729D01*
X116241229Y-133504000D01*
X115994641Y-133504000D01*
X115994641Y-132702297D01*
X116639833Y-133125716D01*
X116639833Y-132707572D01*
X116883099Y-132707572D01*
X116883099Y-133509471D01*
G37*
G36*
X118198493Y-133376212D02*
G01*
X118086923Y-133504000D01*
X117295967Y-133504000D01*
X117295967Y-132707572D01*
X118197321Y-132707572D01*
X118086923Y-132835360D01*
X117548221Y-132835360D01*
X117548221Y-133376212D01*
X118198493Y-133376212D01*
G37*
G36*
X119147328Y-133504000D02*
G01*
X118439414Y-133504000D01*
X118245583Y-133283399D01*
X118245583Y-132831648D01*
X118492171Y-132831648D01*
X118492171Y-133227907D01*
X118622108Y-133376212D01*
X118900740Y-133376212D01*
X118900740Y-132831648D01*
X118492171Y-132831648D01*
X118245583Y-132831648D01*
X118245583Y-132703665D01*
X119147328Y-132703665D01*
X119147328Y-133504000D01*
G37*
G36*
X120017809Y-133376212D02*
G01*
X119906239Y-133504000D01*
X119235060Y-133504000D01*
X119235060Y-132707572D01*
X119481647Y-132707572D01*
X119481647Y-133376212D01*
X120017809Y-133376212D01*
G37*
G36*
X120847063Y-133376212D02*
G01*
X120735492Y-133504000D01*
X120064313Y-133504000D01*
X120064313Y-132707572D01*
X120310901Y-132707572D01*
X120310901Y-133376212D01*
X120847063Y-133376212D01*
G37*
G36*
X120915841Y-132707572D02*
G01*
X121163601Y-132707572D01*
X121163601Y-133504000D01*
X120915841Y-133504000D01*
X120915841Y-132707572D01*
G37*
G36*
X122049714Y-133378947D02*
G01*
X122161284Y-133506930D01*
X121263252Y-133506930D01*
X121263252Y-132706595D01*
X122163434Y-132706595D01*
X122053036Y-132834383D01*
X121511012Y-132834383D01*
X121511012Y-133041306D01*
X122103448Y-133041306D01*
X122103448Y-133173197D01*
X121511012Y-133173197D01*
X121511012Y-133378947D01*
X122049714Y-133378947D01*
G37*
G36*
X123213873Y-133510057D02*
G01*
X122920391Y-133510057D01*
X122487202Y-133015905D01*
X122891277Y-133015905D01*
X122891277Y-132841222D01*
X122471375Y-132841222D01*
X122471375Y-133510057D01*
X122221466Y-133510057D01*
X122221466Y-132713434D01*
X123134543Y-132713434D01*
X123134543Y-133143692D01*
X122893427Y-133143692D01*
X123213873Y-133510057D01*
G37*
G36*
X124476902Y-133376212D02*
G01*
X124365332Y-133504000D01*
X123574376Y-133504000D01*
X123574376Y-132707572D01*
X124475730Y-132707572D01*
X124365332Y-132835360D01*
X123826630Y-132835360D01*
X123826630Y-133376212D01*
X124476902Y-133376212D01*
G37*
G36*
X125411277Y-132707572D02*
G01*
X125411277Y-133504000D01*
X125162345Y-133504000D01*
X125162345Y-133169289D01*
X124769407Y-133169289D01*
X124769407Y-133504000D01*
X124523992Y-133504000D01*
X124523992Y-132707572D01*
X124769407Y-132707572D01*
X124769407Y-133041306D01*
X125162345Y-133041306D01*
X125162345Y-132707572D01*
X125411277Y-132707572D01*
G37*
G36*
X126480084Y-133510057D02*
G01*
X126186602Y-133510057D01*
X125753413Y-133015905D01*
X126157488Y-133015905D01*
X126157488Y-132841222D01*
X125737586Y-132841222D01*
X125737586Y-133510057D01*
X125487677Y-133510057D01*
X125487677Y-132713434D01*
X126400754Y-132713434D01*
X126400754Y-133143692D01*
X126159638Y-133143692D01*
X126480084Y-133510057D01*
G37*
G36*
X126526783Y-132707572D02*
G01*
X126774543Y-132707572D01*
X126774543Y-133504000D01*
X126526783Y-133504000D01*
X126526783Y-132707572D01*
G37*
G36*
X127780433Y-133378752D02*
G01*
X127675311Y-133501264D01*
X126962513Y-133501264D01*
X126851138Y-133373476D01*
X127492422Y-133373476D01*
X127530524Y-133329317D01*
X127530524Y-133166358D01*
X126888654Y-133166358D01*
X126888654Y-132835946D01*
X126998465Y-132707572D01*
X127814627Y-132707572D01*
X127705402Y-132835556D01*
X127182136Y-132835556D01*
X127135241Y-132888703D01*
X127135241Y-133041306D01*
X127780433Y-133041306D01*
X127780433Y-133378752D01*
G37*
G36*
X128749979Y-132835360D02*
G01*
X128463336Y-132835360D01*
X128463336Y-133504000D01*
X128216749Y-133504000D01*
X128216749Y-132835360D01*
X127926588Y-132835360D01*
X127816190Y-132707572D01*
X128860573Y-132707572D01*
X128749979Y-132835360D01*
G37*
G36*
X129786937Y-133504000D02*
G01*
X129079023Y-133504000D01*
X128885192Y-133283399D01*
X128885192Y-132831648D01*
X129131780Y-132831648D01*
X129131780Y-133227907D01*
X129261717Y-133376212D01*
X129540349Y-133376212D01*
X129540349Y-132831648D01*
X129131780Y-132831648D01*
X128885192Y-132831648D01*
X128885192Y-132703665D01*
X129786937Y-132703665D01*
X129786937Y-133504000D01*
G37*
G36*
X130744173Y-133231815D02*
G01*
X130111487Y-133231815D01*
X130111487Y-133509666D01*
X129863727Y-133509666D01*
X129863727Y-132840831D01*
X130109142Y-132840831D01*
X130109142Y-133103832D01*
X130496609Y-133103832D01*
X130496609Y-132840831D01*
X130109142Y-132840831D01*
X129863727Y-132840831D01*
X129863727Y-132713043D01*
X130744173Y-132713043D01*
X130744173Y-133231815D01*
G37*
G36*
X131708444Y-132707572D02*
G01*
X131708444Y-133504000D01*
X131459512Y-133504000D01*
X131459512Y-133169289D01*
X131066574Y-133169289D01*
X131066574Y-133504000D01*
X130821159Y-133504000D01*
X130821159Y-132707572D01*
X131066574Y-132707572D01*
X131066574Y-133041306D01*
X131459512Y-133041306D01*
X131459512Y-132707572D01*
X131708444Y-132707572D01*
G37*
G36*
X132583029Y-133378947D02*
G01*
X132694599Y-133506930D01*
X131796567Y-133506930D01*
X131796567Y-132706595D01*
X132696749Y-132706595D01*
X132586351Y-132834383D01*
X132044327Y-132834383D01*
X132044327Y-133041306D01*
X132636762Y-133041306D01*
X132636762Y-133173197D01*
X132044327Y-133173197D01*
X132044327Y-133378947D01*
X132583029Y-133378947D01*
G37*
G36*
X133747188Y-133510057D02*
G01*
X133453706Y-133510057D01*
X133020517Y-133015905D01*
X133424592Y-133015905D01*
X133424592Y-132841222D01*
X133004690Y-132841222D01*
X133004690Y-133510057D01*
X132754781Y-133510057D01*
X132754781Y-132713434D01*
X133667858Y-132713434D01*
X133667858Y-133143692D01*
X133426742Y-133143692D01*
X133747188Y-133510057D01*
G37*
G36*
X134994976Y-132707572D02*
G01*
X134994976Y-133504000D01*
X134746044Y-133504000D01*
X134746044Y-133169289D01*
X134353106Y-133169289D01*
X134353106Y-133504000D01*
X134107691Y-133504000D01*
X134107691Y-132707572D01*
X134353106Y-132707572D01*
X134353106Y-133041306D01*
X134746044Y-133041306D01*
X134746044Y-132707572D01*
X134994976Y-132707572D01*
G37*
G36*
X135975855Y-132707572D02*
G01*
X135975855Y-133504000D01*
X135083099Y-133504000D01*
X135083099Y-132707572D01*
X135328514Y-132707572D01*
X135328514Y-133376212D01*
X135733762Y-133376212D01*
X135733762Y-132707572D01*
X135975855Y-132707572D01*
G37*
G36*
X136941494Y-133509471D02*
G01*
X136299624Y-133082729D01*
X136299624Y-133504000D01*
X136053036Y-133504000D01*
X136053036Y-132702297D01*
X136698228Y-133125716D01*
X136698228Y-132707572D01*
X136941494Y-132707572D01*
X136941494Y-133509471D01*
G37*
G36*
X137899903Y-132835360D02*
G01*
X137613259Y-132835360D01*
X137613259Y-133504000D01*
X137366672Y-133504000D01*
X137366672Y-132835360D01*
X137076511Y-132835360D01*
X136966113Y-132707572D01*
X138010496Y-132707572D01*
X137899903Y-132835360D01*
G37*
G36*
X138057391Y-132707572D02*
G01*
X138305150Y-132707572D01*
X138305150Y-133504000D01*
X138057391Y-133504000D01*
X138057391Y-132707572D01*
G37*
G36*
X139293259Y-133509471D02*
G01*
X138651389Y-133082729D01*
X138651389Y-133504000D01*
X138404802Y-133504000D01*
X138404802Y-132702297D01*
X139049993Y-133125716D01*
X139049993Y-132707572D01*
X139293259Y-132707572D01*
X139293259Y-133509471D01*
G37*
G36*
X140297977Y-133066316D02*
G01*
X140297977Y-133505758D01*
X139392715Y-133505758D01*
X139392715Y-132709136D01*
X140339986Y-132709136D01*
X140229589Y-132836923D01*
X139643797Y-132836923D01*
X139643797Y-133377775D01*
X140051194Y-133377775D01*
X140051194Y-133066316D01*
X140297977Y-133066316D01*
G37*
G36*
X141270845Y-132835360D02*
G01*
X140984201Y-132835360D01*
X140984201Y-133504000D01*
X140737614Y-133504000D01*
X140737614Y-132835360D01*
X140447453Y-132835360D01*
X140337056Y-132707572D01*
X141381438Y-132707572D01*
X141270845Y-132835360D01*
G37*
G36*
X142307802Y-133504000D02*
G01*
X141599889Y-133504000D01*
X141406058Y-133283399D01*
X141406058Y-132831648D01*
X141652645Y-132831648D01*
X141652645Y-133227907D01*
X141782582Y-133376212D01*
X142061215Y-133376212D01*
X142061215Y-132831648D01*
X141652645Y-132831648D01*
X141406058Y-132831648D01*
X141406058Y-132703665D01*
X142307802Y-132703665D01*
X142307802Y-133504000D01*
G37*
G36*
X143273050Y-133509471D02*
G01*
X142631180Y-133082729D01*
X142631180Y-133504000D01*
X142384592Y-133504000D01*
X142384592Y-132702297D01*
X143029784Y-133125716D01*
X143029784Y-132707572D01*
X143273050Y-132707572D01*
X143273050Y-133509471D01*
G37*
G36*
X144259205Y-133097970D02*
G01*
X144605053Y-133504000D01*
X144330915Y-133504000D01*
X144035283Y-133164795D01*
X143931333Y-133164795D01*
X143931333Y-133504000D01*
X143685918Y-133504000D01*
X143685918Y-132707572D01*
X143931333Y-132707572D01*
X143931333Y-133036812D01*
X144035283Y-133036812D01*
X144323099Y-132707572D01*
X144605444Y-132707572D01*
X144259205Y-133097970D01*
G37*
G36*
X144974543Y-133504000D02*
G01*
X145222303Y-133504000D01*
X145222303Y-133130601D01*
X145597265Y-132707572D01*
X145309645Y-132707572D01*
X145098423Y-132946344D01*
X144887202Y-132707572D01*
X144599582Y-132707572D01*
X144974543Y-133130601D01*
X144974543Y-133504000D01*
G37*
G36*
X146404634Y-133376212D02*
G01*
X146293064Y-133504000D01*
X145621885Y-133504000D01*
X145621885Y-132707572D01*
X145868472Y-132707572D01*
X145868472Y-133376212D01*
X146404634Y-133376212D01*
G37*
G36*
X147237600Y-133378947D02*
G01*
X147349170Y-133506930D01*
X146451138Y-133506930D01*
X146451138Y-132706595D01*
X147351319Y-132706595D01*
X147240922Y-132834383D01*
X146698898Y-132834383D01*
X146698898Y-133041306D01*
X147291333Y-133041306D01*
X147291333Y-133173197D01*
X146698898Y-133173197D01*
X146698898Y-133378947D01*
X147237600Y-133378947D01*
G37*
G36*
X148401759Y-133510057D02*
G01*
X148108277Y-133510057D01*
X147675088Y-133015905D01*
X148079163Y-133015905D01*
X148079163Y-132841222D01*
X147659261Y-132841222D01*
X147659261Y-133510057D01*
X147409351Y-133510057D01*
X147409351Y-132713434D01*
X148322429Y-132713434D01*
X148322429Y-133143692D01*
X148081312Y-133143692D01*
X148401759Y-133510057D01*
G37*
G36*
X149658535Y-133105004D02*
G01*
X149405890Y-133504000D01*
X148762261Y-133504000D01*
X148762261Y-132831648D01*
X149008849Y-132831648D01*
X149008849Y-133376212D01*
X149236679Y-133376212D01*
X149411752Y-133105004D01*
X149236483Y-132831648D01*
X149008849Y-132831648D01*
X148762261Y-132831648D01*
X148762261Y-132703665D01*
X149405890Y-132703665D01*
X149658535Y-133105004D01*
G37*
G36*
X150681619Y-133510057D02*
G01*
X150388137Y-133510057D01*
X149954948Y-133015905D01*
X150359023Y-133015905D01*
X150359023Y-132841222D01*
X149939121Y-132841222D01*
X149939121Y-133510057D01*
X149689212Y-133510057D01*
X149689212Y-132713434D01*
X150602289Y-132713434D01*
X150602289Y-133143692D01*
X150361173Y-133143692D01*
X150681619Y-133510057D01*
G37*
G36*
X151607788Y-133504195D02*
G01*
X151360224Y-133504195D01*
X151360224Y-133170461D01*
X150958298Y-133170461D01*
X150958298Y-133504195D01*
X150706044Y-133504195D01*
X150706044Y-132835556D01*
X150961619Y-132835556D01*
X150961619Y-133041306D01*
X151354557Y-133041306D01*
X151354557Y-132835556D01*
X150961619Y-132835556D01*
X150706044Y-132835556D01*
X150706044Y-132707572D01*
X151607788Y-132707572D01*
X151607788Y-133504195D01*
G37*
G36*
X152565025Y-133231815D02*
G01*
X151932338Y-133231815D01*
X151932338Y-133509666D01*
X151684578Y-133509666D01*
X151684578Y-132840831D01*
X151929993Y-132840831D01*
X151929993Y-133103832D01*
X152317460Y-133103832D01*
X152317460Y-132840831D01*
X151929993Y-132840831D01*
X151684578Y-132840831D01*
X151684578Y-132713043D01*
X152565025Y-132713043D01*
X152565025Y-133231815D01*
G37*
G36*
X153439414Y-133378947D02*
G01*
X153550984Y-133506930D01*
X152652952Y-133506930D01*
X152652952Y-132706595D01*
X153553134Y-132706595D01*
X153442736Y-132834383D01*
X152900712Y-132834383D01*
X152900712Y-133041306D01*
X153493148Y-133041306D01*
X153493148Y-133173197D01*
X152900712Y-133173197D01*
X152900712Y-133378947D01*
X153439414Y-133378947D01*
G37*
G36*
X154603573Y-133510057D02*
G01*
X154310091Y-133510057D01*
X153876902Y-133015905D01*
X154280977Y-133015905D01*
X154280977Y-132841222D01*
X153861075Y-132841222D01*
X153861075Y-133510057D01*
X153611166Y-133510057D01*
X153611166Y-132713434D01*
X154524243Y-132713434D01*
X154524243Y-133143692D01*
X154283127Y-133143692D01*
X154603573Y-133510057D01*
G37*
D10*
X124353333Y-110359580D02*
X124305714Y-110407200D01*
X124305714Y-110407200D02*
X124162857Y-110454819D01*
X124162857Y-110454819D02*
X124067619Y-110454819D01*
X124067619Y-110454819D02*
X123924762Y-110407200D01*
X123924762Y-110407200D02*
X123829524Y-110311961D01*
X123829524Y-110311961D02*
X123781905Y-110216723D01*
X123781905Y-110216723D02*
X123734286Y-110026247D01*
X123734286Y-110026247D02*
X123734286Y-109883390D01*
X123734286Y-109883390D02*
X123781905Y-109692914D01*
X123781905Y-109692914D02*
X123829524Y-109597676D01*
X123829524Y-109597676D02*
X123924762Y-109502438D01*
X123924762Y-109502438D02*
X124067619Y-109454819D01*
X124067619Y-109454819D02*
X124162857Y-109454819D01*
X124162857Y-109454819D02*
X124305714Y-109502438D01*
X124305714Y-109502438D02*
X124353333Y-109550057D01*
X124734286Y-109550057D02*
X124781905Y-109502438D01*
X124781905Y-109502438D02*
X124877143Y-109454819D01*
X124877143Y-109454819D02*
X125115238Y-109454819D01*
X125115238Y-109454819D02*
X125210476Y-109502438D01*
X125210476Y-109502438D02*
X125258095Y-109550057D01*
X125258095Y-109550057D02*
X125305714Y-109645295D01*
X125305714Y-109645295D02*
X125305714Y-109740533D01*
X125305714Y-109740533D02*
X125258095Y-109883390D01*
X125258095Y-109883390D02*
X124686667Y-110454819D01*
X124686667Y-110454819D02*
X125305714Y-110454819D01*
X134454819Y-72107142D02*
X134454819Y-71488095D01*
X134454819Y-71488095D02*
X134835771Y-71821428D01*
X134835771Y-71821428D02*
X134835771Y-71678571D01*
X134835771Y-71678571D02*
X134883390Y-71583333D01*
X134883390Y-71583333D02*
X134931009Y-71535714D01*
X134931009Y-71535714D02*
X135026247Y-71488095D01*
X135026247Y-71488095D02*
X135264342Y-71488095D01*
X135264342Y-71488095D02*
X135359580Y-71535714D01*
X135359580Y-71535714D02*
X135407200Y-71583333D01*
X135407200Y-71583333D02*
X135454819Y-71678571D01*
X135454819Y-71678571D02*
X135454819Y-71964285D01*
X135454819Y-71964285D02*
X135407200Y-72059523D01*
X135407200Y-72059523D02*
X135359580Y-72107142D01*
X134454819Y-71154761D02*
X134454819Y-70535714D01*
X134454819Y-70535714D02*
X134835771Y-70869047D01*
X134835771Y-70869047D02*
X134835771Y-70726190D01*
X134835771Y-70726190D02*
X134883390Y-70630952D01*
X134883390Y-70630952D02*
X134931009Y-70583333D01*
X134931009Y-70583333D02*
X135026247Y-70535714D01*
X135026247Y-70535714D02*
X135264342Y-70535714D01*
X135264342Y-70535714D02*
X135359580Y-70583333D01*
X135359580Y-70583333D02*
X135407200Y-70630952D01*
X135407200Y-70630952D02*
X135454819Y-70726190D01*
X135454819Y-70726190D02*
X135454819Y-71011904D01*
X135454819Y-71011904D02*
X135407200Y-71107142D01*
X135407200Y-71107142D02*
X135359580Y-71154761D01*
X134454819Y-69916666D02*
X134454819Y-69821428D01*
X134454819Y-69821428D02*
X134502438Y-69726190D01*
X134502438Y-69726190D02*
X134550057Y-69678571D01*
X134550057Y-69678571D02*
X134645295Y-69630952D01*
X134645295Y-69630952D02*
X134835771Y-69583333D01*
X134835771Y-69583333D02*
X135073866Y-69583333D01*
X135073866Y-69583333D02*
X135264342Y-69630952D01*
X135264342Y-69630952D02*
X135359580Y-69678571D01*
X135359580Y-69678571D02*
X135407200Y-69726190D01*
X135407200Y-69726190D02*
X135454819Y-69821428D01*
X135454819Y-69821428D02*
X135454819Y-69916666D01*
X135454819Y-69916666D02*
X135407200Y-70011904D01*
X135407200Y-70011904D02*
X135359580Y-70059523D01*
X135359580Y-70059523D02*
X135264342Y-70107142D01*
X135264342Y-70107142D02*
X135073866Y-70154761D01*
X135073866Y-70154761D02*
X134835771Y-70154761D01*
X134835771Y-70154761D02*
X134645295Y-70107142D01*
X134645295Y-70107142D02*
X134550057Y-70059523D01*
X134550057Y-70059523D02*
X134502438Y-70011904D01*
X134502438Y-70011904D02*
X134454819Y-69916666D01*
X135454819Y-69202380D02*
X135454819Y-68964285D01*
X135454819Y-68964285D02*
X135264342Y-68964285D01*
X135264342Y-68964285D02*
X135216723Y-69059523D01*
X135216723Y-69059523D02*
X135121485Y-69154761D01*
X135121485Y-69154761D02*
X134978628Y-69202380D01*
X134978628Y-69202380D02*
X134740533Y-69202380D01*
X134740533Y-69202380D02*
X134597676Y-69154761D01*
X134597676Y-69154761D02*
X134502438Y-69059523D01*
X134502438Y-69059523D02*
X134454819Y-68916666D01*
X134454819Y-68916666D02*
X134454819Y-68726190D01*
X134454819Y-68726190D02*
X134502438Y-68583333D01*
X134502438Y-68583333D02*
X134597676Y-68488095D01*
X134597676Y-68488095D02*
X134740533Y-68440476D01*
X134740533Y-68440476D02*
X134978628Y-68440476D01*
X134978628Y-68440476D02*
X135121485Y-68488095D01*
X135121485Y-68488095D02*
X135216723Y-68583333D01*
X135216723Y-68583333D02*
X135264342Y-68678571D01*
X135264342Y-68678571D02*
X135454819Y-68678571D01*
X135454819Y-68678571D02*
X135454819Y-68440476D01*
X138859580Y-87666666D02*
X138907200Y-87714285D01*
X138907200Y-87714285D02*
X138954819Y-87857142D01*
X138954819Y-87857142D02*
X138954819Y-87952380D01*
X138954819Y-87952380D02*
X138907200Y-88095237D01*
X138907200Y-88095237D02*
X138811961Y-88190475D01*
X138811961Y-88190475D02*
X138716723Y-88238094D01*
X138716723Y-88238094D02*
X138526247Y-88285713D01*
X138526247Y-88285713D02*
X138383390Y-88285713D01*
X138383390Y-88285713D02*
X138192914Y-88238094D01*
X138192914Y-88238094D02*
X138097676Y-88190475D01*
X138097676Y-88190475D02*
X138002438Y-88095237D01*
X138002438Y-88095237D02*
X137954819Y-87952380D01*
X137954819Y-87952380D02*
X137954819Y-87857142D01*
X137954819Y-87857142D02*
X138002438Y-87714285D01*
X138002438Y-87714285D02*
X138050057Y-87666666D01*
X137954819Y-86761904D02*
X137954819Y-87238094D01*
X137954819Y-87238094D02*
X138431009Y-87285713D01*
X138431009Y-87285713D02*
X138383390Y-87238094D01*
X138383390Y-87238094D02*
X138335771Y-87142856D01*
X138335771Y-87142856D02*
X138335771Y-86904761D01*
X138335771Y-86904761D02*
X138383390Y-86809523D01*
X138383390Y-86809523D02*
X138431009Y-86761904D01*
X138431009Y-86761904D02*
X138526247Y-86714285D01*
X138526247Y-86714285D02*
X138764342Y-86714285D01*
X138764342Y-86714285D02*
X138859580Y-86761904D01*
X138859580Y-86761904D02*
X138907200Y-86809523D01*
X138907200Y-86809523D02*
X138954819Y-86904761D01*
X138954819Y-86904761D02*
X138954819Y-87142856D01*
X138954819Y-87142856D02*
X138907200Y-87238094D01*
X138907200Y-87238094D02*
X138859580Y-87285713D01*
X131048095Y-80424819D02*
X131048095Y-81234342D01*
X131048095Y-81234342D02*
X131095714Y-81329580D01*
X131095714Y-81329580D02*
X131143333Y-81377200D01*
X131143333Y-81377200D02*
X131238571Y-81424819D01*
X131238571Y-81424819D02*
X131429047Y-81424819D01*
X131429047Y-81424819D02*
X131524285Y-81377200D01*
X131524285Y-81377200D02*
X131571904Y-81329580D01*
X131571904Y-81329580D02*
X131619523Y-81234342D01*
X131619523Y-81234342D02*
X131619523Y-80424819D01*
X132619523Y-81424819D02*
X132048095Y-81424819D01*
X132333809Y-81424819D02*
X132333809Y-80424819D01*
X132333809Y-80424819D02*
X132238571Y-80567676D01*
X132238571Y-80567676D02*
X132143333Y-80662914D01*
X132143333Y-80662914D02*
X132048095Y-80710533D01*
X131969104Y-105466666D02*
X131969104Y-104990476D01*
X132254819Y-105561904D02*
X131254819Y-105228571D01*
X131254819Y-105228571D02*
X132254819Y-104895238D01*
X131254819Y-104704761D02*
X131254819Y-104133333D01*
X132254819Y-104419047D02*
X131254819Y-104419047D01*
X132254819Y-103799999D02*
X131588152Y-103799999D01*
X131683390Y-103799999D02*
X131635771Y-103752380D01*
X131635771Y-103752380D02*
X131588152Y-103657142D01*
X131588152Y-103657142D02*
X131588152Y-103514285D01*
X131588152Y-103514285D02*
X131635771Y-103419047D01*
X131635771Y-103419047D02*
X131731009Y-103371428D01*
X131731009Y-103371428D02*
X132254819Y-103371428D01*
X131731009Y-103371428D02*
X131635771Y-103323809D01*
X131635771Y-103323809D02*
X131588152Y-103228571D01*
X131588152Y-103228571D02*
X131588152Y-103085714D01*
X131588152Y-103085714D02*
X131635771Y-102990475D01*
X131635771Y-102990475D02*
X131731009Y-102942856D01*
X131731009Y-102942856D02*
X132254819Y-102942856D01*
X132207200Y-102085714D02*
X132254819Y-102180952D01*
X132254819Y-102180952D02*
X132254819Y-102371428D01*
X132254819Y-102371428D02*
X132207200Y-102466666D01*
X132207200Y-102466666D02*
X132111961Y-102514285D01*
X132111961Y-102514285D02*
X131731009Y-102514285D01*
X131731009Y-102514285D02*
X131635771Y-102466666D01*
X131635771Y-102466666D02*
X131588152Y-102371428D01*
X131588152Y-102371428D02*
X131588152Y-102180952D01*
X131588152Y-102180952D02*
X131635771Y-102085714D01*
X131635771Y-102085714D02*
X131731009Y-102038095D01*
X131731009Y-102038095D02*
X131826247Y-102038095D01*
X131826247Y-102038095D02*
X131921485Y-102514285D01*
X131588152Y-101180952D02*
X132397676Y-101180952D01*
X132397676Y-101180952D02*
X132492914Y-101228571D01*
X132492914Y-101228571D02*
X132540533Y-101276190D01*
X132540533Y-101276190D02*
X132588152Y-101371428D01*
X132588152Y-101371428D02*
X132588152Y-101514285D01*
X132588152Y-101514285D02*
X132540533Y-101609523D01*
X132207200Y-101180952D02*
X132254819Y-101276190D01*
X132254819Y-101276190D02*
X132254819Y-101466666D01*
X132254819Y-101466666D02*
X132207200Y-101561904D01*
X132207200Y-101561904D02*
X132159580Y-101609523D01*
X132159580Y-101609523D02*
X132064342Y-101657142D01*
X132064342Y-101657142D02*
X131778628Y-101657142D01*
X131778628Y-101657142D02*
X131683390Y-101609523D01*
X131683390Y-101609523D02*
X131635771Y-101561904D01*
X131635771Y-101561904D02*
X131588152Y-101466666D01*
X131588152Y-101466666D02*
X131588152Y-101276190D01*
X131588152Y-101276190D02*
X131635771Y-101180952D01*
X132254819Y-100276190D02*
X131731009Y-100276190D01*
X131731009Y-100276190D02*
X131635771Y-100323809D01*
X131635771Y-100323809D02*
X131588152Y-100419047D01*
X131588152Y-100419047D02*
X131588152Y-100609523D01*
X131588152Y-100609523D02*
X131635771Y-100704761D01*
X132207200Y-100276190D02*
X132254819Y-100371428D01*
X132254819Y-100371428D02*
X132254819Y-100609523D01*
X132254819Y-100609523D02*
X132207200Y-100704761D01*
X132207200Y-100704761D02*
X132111961Y-100752380D01*
X132111961Y-100752380D02*
X132016723Y-100752380D01*
X132016723Y-100752380D02*
X131921485Y-100704761D01*
X131921485Y-100704761D02*
X131873866Y-100609523D01*
X131873866Y-100609523D02*
X131873866Y-100371428D01*
X131873866Y-100371428D02*
X131826247Y-100276190D01*
X131254819Y-99895237D02*
X131254819Y-99276190D01*
X131254819Y-99276190D02*
X131635771Y-99609523D01*
X131635771Y-99609523D02*
X131635771Y-99466666D01*
X131635771Y-99466666D02*
X131683390Y-99371428D01*
X131683390Y-99371428D02*
X131731009Y-99323809D01*
X131731009Y-99323809D02*
X131826247Y-99276190D01*
X131826247Y-99276190D02*
X132064342Y-99276190D01*
X132064342Y-99276190D02*
X132159580Y-99323809D01*
X132159580Y-99323809D02*
X132207200Y-99371428D01*
X132207200Y-99371428D02*
X132254819Y-99466666D01*
X132254819Y-99466666D02*
X132254819Y-99752380D01*
X132254819Y-99752380D02*
X132207200Y-99847618D01*
X132207200Y-99847618D02*
X132159580Y-99895237D01*
X131350057Y-98895237D02*
X131302438Y-98847618D01*
X131302438Y-98847618D02*
X131254819Y-98752380D01*
X131254819Y-98752380D02*
X131254819Y-98514285D01*
X131254819Y-98514285D02*
X131302438Y-98419047D01*
X131302438Y-98419047D02*
X131350057Y-98371428D01*
X131350057Y-98371428D02*
X131445295Y-98323809D01*
X131445295Y-98323809D02*
X131540533Y-98323809D01*
X131540533Y-98323809D02*
X131683390Y-98371428D01*
X131683390Y-98371428D02*
X132254819Y-98942856D01*
X132254819Y-98942856D02*
X132254819Y-98323809D01*
X131683390Y-97752380D02*
X131635771Y-97847618D01*
X131635771Y-97847618D02*
X131588152Y-97895237D01*
X131588152Y-97895237D02*
X131492914Y-97942856D01*
X131492914Y-97942856D02*
X131445295Y-97942856D01*
X131445295Y-97942856D02*
X131350057Y-97895237D01*
X131350057Y-97895237D02*
X131302438Y-97847618D01*
X131302438Y-97847618D02*
X131254819Y-97752380D01*
X131254819Y-97752380D02*
X131254819Y-97561904D01*
X131254819Y-97561904D02*
X131302438Y-97466666D01*
X131302438Y-97466666D02*
X131350057Y-97419047D01*
X131350057Y-97419047D02*
X131445295Y-97371428D01*
X131445295Y-97371428D02*
X131492914Y-97371428D01*
X131492914Y-97371428D02*
X131588152Y-97419047D01*
X131588152Y-97419047D02*
X131635771Y-97466666D01*
X131635771Y-97466666D02*
X131683390Y-97561904D01*
X131683390Y-97561904D02*
X131683390Y-97752380D01*
X131683390Y-97752380D02*
X131731009Y-97847618D01*
X131731009Y-97847618D02*
X131778628Y-97895237D01*
X131778628Y-97895237D02*
X131873866Y-97942856D01*
X131873866Y-97942856D02*
X132064342Y-97942856D01*
X132064342Y-97942856D02*
X132159580Y-97895237D01*
X132159580Y-97895237D02*
X132207200Y-97847618D01*
X132207200Y-97847618D02*
X132254819Y-97752380D01*
X132254819Y-97752380D02*
X132254819Y-97561904D01*
X132254819Y-97561904D02*
X132207200Y-97466666D01*
X132207200Y-97466666D02*
X132159580Y-97419047D01*
X132159580Y-97419047D02*
X132064342Y-97371428D01*
X132064342Y-97371428D02*
X131873866Y-97371428D01*
X131873866Y-97371428D02*
X131778628Y-97419047D01*
X131778628Y-97419047D02*
X131731009Y-97466666D01*
X131731009Y-97466666D02*
X131683390Y-97561904D01*
X132254819Y-96942856D02*
X131254819Y-96942856D01*
X131254819Y-96942856D02*
X131254819Y-96561904D01*
X131254819Y-96561904D02*
X131302438Y-96466666D01*
X131302438Y-96466666D02*
X131350057Y-96419047D01*
X131350057Y-96419047D02*
X131445295Y-96371428D01*
X131445295Y-96371428D02*
X131588152Y-96371428D01*
X131588152Y-96371428D02*
X131683390Y-96419047D01*
X131683390Y-96419047D02*
X131731009Y-96466666D01*
X131731009Y-96466666D02*
X131778628Y-96561904D01*
X131778628Y-96561904D02*
X131778628Y-96942856D01*
X131873866Y-95942856D02*
X131873866Y-95180952D01*
X132254819Y-94704761D02*
X131254819Y-94704761D01*
X131254819Y-94704761D02*
X131254819Y-94323809D01*
X131254819Y-94323809D02*
X131302438Y-94228571D01*
X131302438Y-94228571D02*
X131350057Y-94180952D01*
X131350057Y-94180952D02*
X131445295Y-94133333D01*
X131445295Y-94133333D02*
X131588152Y-94133333D01*
X131588152Y-94133333D02*
X131683390Y-94180952D01*
X131683390Y-94180952D02*
X131731009Y-94228571D01*
X131731009Y-94228571D02*
X131778628Y-94323809D01*
X131778628Y-94323809D02*
X131778628Y-94704761D01*
X131833333Y-123054819D02*
X131500000Y-122578628D01*
X131261905Y-123054819D02*
X131261905Y-122054819D01*
X131261905Y-122054819D02*
X131642857Y-122054819D01*
X131642857Y-122054819D02*
X131738095Y-122102438D01*
X131738095Y-122102438D02*
X131785714Y-122150057D01*
X131785714Y-122150057D02*
X131833333Y-122245295D01*
X131833333Y-122245295D02*
X131833333Y-122388152D01*
X131833333Y-122388152D02*
X131785714Y-122483390D01*
X131785714Y-122483390D02*
X131738095Y-122531009D01*
X131738095Y-122531009D02*
X131642857Y-122578628D01*
X131642857Y-122578628D02*
X131261905Y-122578628D01*
X132738095Y-122054819D02*
X132261905Y-122054819D01*
X132261905Y-122054819D02*
X132214286Y-122531009D01*
X132214286Y-122531009D02*
X132261905Y-122483390D01*
X132261905Y-122483390D02*
X132357143Y-122435771D01*
X132357143Y-122435771D02*
X132595238Y-122435771D01*
X132595238Y-122435771D02*
X132690476Y-122483390D01*
X132690476Y-122483390D02*
X132738095Y-122531009D01*
X132738095Y-122531009D02*
X132785714Y-122626247D01*
X132785714Y-122626247D02*
X132785714Y-122864342D01*
X132785714Y-122864342D02*
X132738095Y-122959580D01*
X132738095Y-122959580D02*
X132690476Y-123007200D01*
X132690476Y-123007200D02*
X132595238Y-123054819D01*
X132595238Y-123054819D02*
X132357143Y-123054819D01*
X132357143Y-123054819D02*
X132261905Y-123007200D01*
X132261905Y-123007200D02*
X132214286Y-122959580D01*
X121333333Y-85204819D02*
X121000000Y-84728628D01*
X120761905Y-85204819D02*
X120761905Y-84204819D01*
X120761905Y-84204819D02*
X121142857Y-84204819D01*
X121142857Y-84204819D02*
X121238095Y-84252438D01*
X121238095Y-84252438D02*
X121285714Y-84300057D01*
X121285714Y-84300057D02*
X121333333Y-84395295D01*
X121333333Y-84395295D02*
X121333333Y-84538152D01*
X121333333Y-84538152D02*
X121285714Y-84633390D01*
X121285714Y-84633390D02*
X121238095Y-84681009D01*
X121238095Y-84681009D02*
X121142857Y-84728628D01*
X121142857Y-84728628D02*
X120761905Y-84728628D01*
X121714286Y-84300057D02*
X121761905Y-84252438D01*
X121761905Y-84252438D02*
X121857143Y-84204819D01*
X121857143Y-84204819D02*
X122095238Y-84204819D01*
X122095238Y-84204819D02*
X122190476Y-84252438D01*
X122190476Y-84252438D02*
X122238095Y-84300057D01*
X122238095Y-84300057D02*
X122285714Y-84395295D01*
X122285714Y-84395295D02*
X122285714Y-84490533D01*
X122285714Y-84490533D02*
X122238095Y-84633390D01*
X122238095Y-84633390D02*
X121666667Y-85204819D01*
X121666667Y-85204819D02*
X122285714Y-85204819D01*
X142833333Y-77954819D02*
X142500000Y-77478628D01*
X142261905Y-77954819D02*
X142261905Y-76954819D01*
X142261905Y-76954819D02*
X142642857Y-76954819D01*
X142642857Y-76954819D02*
X142738095Y-77002438D01*
X142738095Y-77002438D02*
X142785714Y-77050057D01*
X142785714Y-77050057D02*
X142833333Y-77145295D01*
X142833333Y-77145295D02*
X142833333Y-77288152D01*
X142833333Y-77288152D02*
X142785714Y-77383390D01*
X142785714Y-77383390D02*
X142738095Y-77431009D01*
X142738095Y-77431009D02*
X142642857Y-77478628D01*
X142642857Y-77478628D02*
X142261905Y-77478628D01*
X143690476Y-77288152D02*
X143690476Y-77954819D01*
X143452381Y-76907200D02*
X143214286Y-77621485D01*
X143214286Y-77621485D02*
X143833333Y-77621485D01*
X135033333Y-122854819D02*
X134700000Y-122378628D01*
X134461905Y-122854819D02*
X134461905Y-121854819D01*
X134461905Y-121854819D02*
X134842857Y-121854819D01*
X134842857Y-121854819D02*
X134938095Y-121902438D01*
X134938095Y-121902438D02*
X134985714Y-121950057D01*
X134985714Y-121950057D02*
X135033333Y-122045295D01*
X135033333Y-122045295D02*
X135033333Y-122188152D01*
X135033333Y-122188152D02*
X134985714Y-122283390D01*
X134985714Y-122283390D02*
X134938095Y-122331009D01*
X134938095Y-122331009D02*
X134842857Y-122378628D01*
X134842857Y-122378628D02*
X134461905Y-122378628D01*
X135366667Y-121854819D02*
X136033333Y-121854819D01*
X136033333Y-121854819D02*
X135604762Y-122854819D01*
X116407200Y-72333332D02*
X116454819Y-72190475D01*
X116454819Y-72190475D02*
X116454819Y-71952380D01*
X116454819Y-71952380D02*
X116407200Y-71857142D01*
X116407200Y-71857142D02*
X116359580Y-71809523D01*
X116359580Y-71809523D02*
X116264342Y-71761904D01*
X116264342Y-71761904D02*
X116169104Y-71761904D01*
X116169104Y-71761904D02*
X116073866Y-71809523D01*
X116073866Y-71809523D02*
X116026247Y-71857142D01*
X116026247Y-71857142D02*
X115978628Y-71952380D01*
X115978628Y-71952380D02*
X115931009Y-72142856D01*
X115931009Y-72142856D02*
X115883390Y-72238094D01*
X115883390Y-72238094D02*
X115835771Y-72285713D01*
X115835771Y-72285713D02*
X115740533Y-72333332D01*
X115740533Y-72333332D02*
X115645295Y-72333332D01*
X115645295Y-72333332D02*
X115550057Y-72285713D01*
X115550057Y-72285713D02*
X115502438Y-72238094D01*
X115502438Y-72238094D02*
X115454819Y-72142856D01*
X115454819Y-72142856D02*
X115454819Y-71904761D01*
X115454819Y-71904761D02*
X115502438Y-71761904D01*
X115454819Y-71428570D02*
X116454819Y-71190475D01*
X116454819Y-71190475D02*
X115740533Y-70999999D01*
X115740533Y-70999999D02*
X116454819Y-70809523D01*
X116454819Y-70809523D02*
X115454819Y-70571428D01*
X115454819Y-69714285D02*
X115454819Y-70190475D01*
X115454819Y-70190475D02*
X115931009Y-70238094D01*
X115931009Y-70238094D02*
X115883390Y-70190475D01*
X115883390Y-70190475D02*
X115835771Y-70095237D01*
X115835771Y-70095237D02*
X115835771Y-69857142D01*
X115835771Y-69857142D02*
X115883390Y-69761904D01*
X115883390Y-69761904D02*
X115931009Y-69714285D01*
X115931009Y-69714285D02*
X116026247Y-69666666D01*
X116026247Y-69666666D02*
X116264342Y-69666666D01*
X116264342Y-69666666D02*
X116359580Y-69714285D01*
X116359580Y-69714285D02*
X116407200Y-69761904D01*
X116407200Y-69761904D02*
X116454819Y-69857142D01*
X116454819Y-69857142D02*
X116454819Y-70095237D01*
X116454819Y-70095237D02*
X116407200Y-70190475D01*
X116407200Y-70190475D02*
X116359580Y-70238094D01*
X124333333Y-101359580D02*
X124285714Y-101407200D01*
X124285714Y-101407200D02*
X124142857Y-101454819D01*
X124142857Y-101454819D02*
X124047619Y-101454819D01*
X124047619Y-101454819D02*
X123904762Y-101407200D01*
X123904762Y-101407200D02*
X123809524Y-101311961D01*
X123809524Y-101311961D02*
X123761905Y-101216723D01*
X123761905Y-101216723D02*
X123714286Y-101026247D01*
X123714286Y-101026247D02*
X123714286Y-100883390D01*
X123714286Y-100883390D02*
X123761905Y-100692914D01*
X123761905Y-100692914D02*
X123809524Y-100597676D01*
X123809524Y-100597676D02*
X123904762Y-100502438D01*
X123904762Y-100502438D02*
X124047619Y-100454819D01*
X124047619Y-100454819D02*
X124142857Y-100454819D01*
X124142857Y-100454819D02*
X124285714Y-100502438D01*
X124285714Y-100502438D02*
X124333333Y-100550057D01*
X125285714Y-101454819D02*
X124714286Y-101454819D01*
X125000000Y-101454819D02*
X125000000Y-100454819D01*
X125000000Y-100454819D02*
X124904762Y-100597676D01*
X124904762Y-100597676D02*
X124809524Y-100692914D01*
X124809524Y-100692914D02*
X124714286Y-100740533D01*
X136333333Y-76859580D02*
X136285714Y-76907200D01*
X136285714Y-76907200D02*
X136142857Y-76954819D01*
X136142857Y-76954819D02*
X136047619Y-76954819D01*
X136047619Y-76954819D02*
X135904762Y-76907200D01*
X135904762Y-76907200D02*
X135809524Y-76811961D01*
X135809524Y-76811961D02*
X135761905Y-76716723D01*
X135761905Y-76716723D02*
X135714286Y-76526247D01*
X135714286Y-76526247D02*
X135714286Y-76383390D01*
X135714286Y-76383390D02*
X135761905Y-76192914D01*
X135761905Y-76192914D02*
X135809524Y-76097676D01*
X135809524Y-76097676D02*
X135904762Y-76002438D01*
X135904762Y-76002438D02*
X136047619Y-75954819D01*
X136047619Y-75954819D02*
X136142857Y-75954819D01*
X136142857Y-75954819D02*
X136285714Y-76002438D01*
X136285714Y-76002438D02*
X136333333Y-76050057D01*
X136666667Y-75954819D02*
X137333333Y-75954819D01*
X137333333Y-75954819D02*
X136904762Y-76954819D01*
X126583333Y-79359580D02*
X126535714Y-79407200D01*
X126535714Y-79407200D02*
X126392857Y-79454819D01*
X126392857Y-79454819D02*
X126297619Y-79454819D01*
X126297619Y-79454819D02*
X126154762Y-79407200D01*
X126154762Y-79407200D02*
X126059524Y-79311961D01*
X126059524Y-79311961D02*
X126011905Y-79216723D01*
X126011905Y-79216723D02*
X125964286Y-79026247D01*
X125964286Y-79026247D02*
X125964286Y-78883390D01*
X125964286Y-78883390D02*
X126011905Y-78692914D01*
X126011905Y-78692914D02*
X126059524Y-78597676D01*
X126059524Y-78597676D02*
X126154762Y-78502438D01*
X126154762Y-78502438D02*
X126297619Y-78454819D01*
X126297619Y-78454819D02*
X126392857Y-78454819D01*
X126392857Y-78454819D02*
X126535714Y-78502438D01*
X126535714Y-78502438D02*
X126583333Y-78550057D01*
X126916667Y-78454819D02*
X127535714Y-78454819D01*
X127535714Y-78454819D02*
X127202381Y-78835771D01*
X127202381Y-78835771D02*
X127345238Y-78835771D01*
X127345238Y-78835771D02*
X127440476Y-78883390D01*
X127440476Y-78883390D02*
X127488095Y-78931009D01*
X127488095Y-78931009D02*
X127535714Y-79026247D01*
X127535714Y-79026247D02*
X127535714Y-79264342D01*
X127535714Y-79264342D02*
X127488095Y-79359580D01*
X127488095Y-79359580D02*
X127440476Y-79407200D01*
X127440476Y-79407200D02*
X127345238Y-79454819D01*
X127345238Y-79454819D02*
X127059524Y-79454819D01*
X127059524Y-79454819D02*
X126964286Y-79407200D01*
X126964286Y-79407200D02*
X126916667Y-79359580D01*
X139359580Y-94141666D02*
X139407200Y-94189285D01*
X139407200Y-94189285D02*
X139454819Y-94332142D01*
X139454819Y-94332142D02*
X139454819Y-94427380D01*
X139454819Y-94427380D02*
X139407200Y-94570237D01*
X139407200Y-94570237D02*
X139311961Y-94665475D01*
X139311961Y-94665475D02*
X139216723Y-94713094D01*
X139216723Y-94713094D02*
X139026247Y-94760713D01*
X139026247Y-94760713D02*
X138883390Y-94760713D01*
X138883390Y-94760713D02*
X138692914Y-94713094D01*
X138692914Y-94713094D02*
X138597676Y-94665475D01*
X138597676Y-94665475D02*
X138502438Y-94570237D01*
X138502438Y-94570237D02*
X138454819Y-94427380D01*
X138454819Y-94427380D02*
X138454819Y-94332142D01*
X138454819Y-94332142D02*
X138502438Y-94189285D01*
X138502438Y-94189285D02*
X138550057Y-94141666D01*
X138788152Y-93284523D02*
X139454819Y-93284523D01*
X138407200Y-93522618D02*
X139121485Y-93760713D01*
X139121485Y-93760713D02*
X139121485Y-93141666D01*
X130583333Y-77109580D02*
X130535714Y-77157200D01*
X130535714Y-77157200D02*
X130392857Y-77204819D01*
X130392857Y-77204819D02*
X130297619Y-77204819D01*
X130297619Y-77204819D02*
X130154762Y-77157200D01*
X130154762Y-77157200D02*
X130059524Y-77061961D01*
X130059524Y-77061961D02*
X130011905Y-76966723D01*
X130011905Y-76966723D02*
X129964286Y-76776247D01*
X129964286Y-76776247D02*
X129964286Y-76633390D01*
X129964286Y-76633390D02*
X130011905Y-76442914D01*
X130011905Y-76442914D02*
X130059524Y-76347676D01*
X130059524Y-76347676D02*
X130154762Y-76252438D01*
X130154762Y-76252438D02*
X130297619Y-76204819D01*
X130297619Y-76204819D02*
X130392857Y-76204819D01*
X130392857Y-76204819D02*
X130535714Y-76252438D01*
X130535714Y-76252438D02*
X130583333Y-76300057D01*
X131059524Y-77204819D02*
X131250000Y-77204819D01*
X131250000Y-77204819D02*
X131345238Y-77157200D01*
X131345238Y-77157200D02*
X131392857Y-77109580D01*
X131392857Y-77109580D02*
X131488095Y-76966723D01*
X131488095Y-76966723D02*
X131535714Y-76776247D01*
X131535714Y-76776247D02*
X131535714Y-76395295D01*
X131535714Y-76395295D02*
X131488095Y-76300057D01*
X131488095Y-76300057D02*
X131440476Y-76252438D01*
X131440476Y-76252438D02*
X131345238Y-76204819D01*
X131345238Y-76204819D02*
X131154762Y-76204819D01*
X131154762Y-76204819D02*
X131059524Y-76252438D01*
X131059524Y-76252438D02*
X131011905Y-76300057D01*
X131011905Y-76300057D02*
X130964286Y-76395295D01*
X130964286Y-76395295D02*
X130964286Y-76633390D01*
X130964286Y-76633390D02*
X131011905Y-76728628D01*
X131011905Y-76728628D02*
X131059524Y-76776247D01*
X131059524Y-76776247D02*
X131154762Y-76823866D01*
X131154762Y-76823866D02*
X131345238Y-76823866D01*
X131345238Y-76823866D02*
X131440476Y-76776247D01*
X131440476Y-76776247D02*
X131488095Y-76728628D01*
X131488095Y-76728628D02*
X131535714Y-76633390D01*
X145914819Y-129793808D02*
X146914819Y-129555713D01*
X146914819Y-129555713D02*
X146200533Y-129365237D01*
X146200533Y-129365237D02*
X146914819Y-129174761D01*
X146914819Y-129174761D02*
X145914819Y-128936666D01*
X146914819Y-128555713D02*
X145914819Y-128555713D01*
X146391009Y-128555713D02*
X146391009Y-127984285D01*
X146914819Y-127984285D02*
X145914819Y-127984285D01*
X146914819Y-127508094D02*
X145914819Y-127508094D01*
X145914819Y-127174761D02*
X145914819Y-126603333D01*
X146914819Y-126889047D02*
X145914819Y-126889047D01*
X146391009Y-126269999D02*
X146391009Y-125936666D01*
X146914819Y-125793809D02*
X146914819Y-126269999D01*
X146914819Y-126269999D02*
X145914819Y-126269999D01*
X145914819Y-126269999D02*
X145914819Y-125793809D01*
X113254819Y-118619047D02*
X113254819Y-118047619D01*
X114254819Y-118333333D02*
X113254819Y-118333333D01*
X113254819Y-117857142D02*
X113254819Y-117285714D01*
X114254819Y-117571428D02*
X113254819Y-117571428D01*
X114254819Y-116476190D02*
X114254819Y-116952380D01*
X114254819Y-116952380D02*
X113254819Y-116952380D01*
X113873866Y-116142856D02*
X113873866Y-115380952D01*
X113350057Y-114952380D02*
X113302438Y-114904761D01*
X113302438Y-114904761D02*
X113254819Y-114809523D01*
X113254819Y-114809523D02*
X113254819Y-114571428D01*
X113254819Y-114571428D02*
X113302438Y-114476190D01*
X113302438Y-114476190D02*
X113350057Y-114428571D01*
X113350057Y-114428571D02*
X113445295Y-114380952D01*
X113445295Y-114380952D02*
X113540533Y-114380952D01*
X113540533Y-114380952D02*
X113683390Y-114428571D01*
X113683390Y-114428571D02*
X114254819Y-114999999D01*
X114254819Y-114999999D02*
X114254819Y-114380952D01*
X113254819Y-114047618D02*
X113254819Y-113428571D01*
X113254819Y-113428571D02*
X113635771Y-113761904D01*
X113635771Y-113761904D02*
X113635771Y-113619047D01*
X113635771Y-113619047D02*
X113683390Y-113523809D01*
X113683390Y-113523809D02*
X113731009Y-113476190D01*
X113731009Y-113476190D02*
X113826247Y-113428571D01*
X113826247Y-113428571D02*
X114064342Y-113428571D01*
X114064342Y-113428571D02*
X114159580Y-113476190D01*
X114159580Y-113476190D02*
X114207200Y-113523809D01*
X114207200Y-113523809D02*
X114254819Y-113619047D01*
X114254819Y-113619047D02*
X114254819Y-113904761D01*
X114254819Y-113904761D02*
X114207200Y-113999999D01*
X114207200Y-113999999D02*
X114159580Y-114047618D01*
X113350057Y-113047618D02*
X113302438Y-112999999D01*
X113302438Y-112999999D02*
X113254819Y-112904761D01*
X113254819Y-112904761D02*
X113254819Y-112666666D01*
X113254819Y-112666666D02*
X113302438Y-112571428D01*
X113302438Y-112571428D02*
X113350057Y-112523809D01*
X113350057Y-112523809D02*
X113445295Y-112476190D01*
X113445295Y-112476190D02*
X113540533Y-112476190D01*
X113540533Y-112476190D02*
X113683390Y-112523809D01*
X113683390Y-112523809D02*
X114254819Y-113095237D01*
X114254819Y-113095237D02*
X114254819Y-112476190D01*
X114254819Y-111476190D02*
X113778628Y-111809523D01*
X114254819Y-112047618D02*
X113254819Y-112047618D01*
X113254819Y-112047618D02*
X113254819Y-111666666D01*
X113254819Y-111666666D02*
X113302438Y-111571428D01*
X113302438Y-111571428D02*
X113350057Y-111523809D01*
X113350057Y-111523809D02*
X113445295Y-111476190D01*
X113445295Y-111476190D02*
X113588152Y-111476190D01*
X113588152Y-111476190D02*
X113683390Y-111523809D01*
X113683390Y-111523809D02*
X113731009Y-111571428D01*
X113731009Y-111571428D02*
X113778628Y-111666666D01*
X113778628Y-111666666D02*
X113778628Y-112047618D01*
X113873866Y-111047618D02*
X113873866Y-110285714D01*
X113254819Y-109333333D02*
X113254819Y-109809523D01*
X113254819Y-109809523D02*
X113731009Y-109857142D01*
X113731009Y-109857142D02*
X113683390Y-109809523D01*
X113683390Y-109809523D02*
X113635771Y-109714285D01*
X113635771Y-109714285D02*
X113635771Y-109476190D01*
X113635771Y-109476190D02*
X113683390Y-109380952D01*
X113683390Y-109380952D02*
X113731009Y-109333333D01*
X113731009Y-109333333D02*
X113826247Y-109285714D01*
X113826247Y-109285714D02*
X114064342Y-109285714D01*
X114064342Y-109285714D02*
X114159580Y-109333333D01*
X114159580Y-109333333D02*
X114207200Y-109380952D01*
X114207200Y-109380952D02*
X114254819Y-109476190D01*
X114254819Y-109476190D02*
X114254819Y-109714285D01*
X114254819Y-109714285D02*
X114207200Y-109809523D01*
X114207200Y-109809523D02*
X114159580Y-109857142D01*
X113254819Y-108999999D02*
X114254819Y-108666666D01*
X114254819Y-108666666D02*
X113254819Y-108333333D01*
X114254819Y-107476190D02*
X114254819Y-108047618D01*
X114254819Y-107761904D02*
X113254819Y-107761904D01*
X113254819Y-107761904D02*
X113397676Y-107857142D01*
X113397676Y-107857142D02*
X113492914Y-107952380D01*
X113492914Y-107952380D02*
X113540533Y-108047618D01*
X120471009Y-71789523D02*
X120518628Y-71646666D01*
X120518628Y-71646666D02*
X120566247Y-71599047D01*
X120566247Y-71599047D02*
X120661485Y-71551428D01*
X120661485Y-71551428D02*
X120804342Y-71551428D01*
X120804342Y-71551428D02*
X120899580Y-71599047D01*
X120899580Y-71599047D02*
X120947200Y-71646666D01*
X120947200Y-71646666D02*
X120994819Y-71741904D01*
X120994819Y-71741904D02*
X120994819Y-72122856D01*
X120994819Y-72122856D02*
X119994819Y-72122856D01*
X119994819Y-72122856D02*
X119994819Y-71789523D01*
X119994819Y-71789523D02*
X120042438Y-71694285D01*
X120042438Y-71694285D02*
X120090057Y-71646666D01*
X120090057Y-71646666D02*
X120185295Y-71599047D01*
X120185295Y-71599047D02*
X120280533Y-71599047D01*
X120280533Y-71599047D02*
X120375771Y-71646666D01*
X120375771Y-71646666D02*
X120423390Y-71694285D01*
X120423390Y-71694285D02*
X120471009Y-71789523D01*
X120471009Y-71789523D02*
X120471009Y-72122856D01*
X120994819Y-70646666D02*
X120994819Y-71122856D01*
X120994819Y-71122856D02*
X119994819Y-71122856D01*
X119994819Y-70313332D02*
X120804342Y-70313332D01*
X120804342Y-70313332D02*
X120899580Y-70265713D01*
X120899580Y-70265713D02*
X120947200Y-70218094D01*
X120947200Y-70218094D02*
X120994819Y-70122856D01*
X120994819Y-70122856D02*
X120994819Y-69932380D01*
X120994819Y-69932380D02*
X120947200Y-69837142D01*
X120947200Y-69837142D02*
X120899580Y-69789523D01*
X120899580Y-69789523D02*
X120804342Y-69741904D01*
X120804342Y-69741904D02*
X119994819Y-69741904D01*
X120471009Y-69265713D02*
X120471009Y-68932380D01*
X120994819Y-68789523D02*
X120994819Y-69265713D01*
X120994819Y-69265713D02*
X119994819Y-69265713D01*
X119994819Y-69265713D02*
X119994819Y-68789523D01*
X113854819Y-91976189D02*
X112854819Y-91976189D01*
X112950057Y-91547618D02*
X112902438Y-91499999D01*
X112902438Y-91499999D02*
X112854819Y-91404761D01*
X112854819Y-91404761D02*
X112854819Y-91166666D01*
X112854819Y-91166666D02*
X112902438Y-91071428D01*
X112902438Y-91071428D02*
X112950057Y-91023809D01*
X112950057Y-91023809D02*
X113045295Y-90976190D01*
X113045295Y-90976190D02*
X113140533Y-90976190D01*
X113140533Y-90976190D02*
X113283390Y-91023809D01*
X113283390Y-91023809D02*
X113854819Y-91595237D01*
X113854819Y-91595237D02*
X113854819Y-90976190D01*
X113759580Y-89976190D02*
X113807200Y-90023809D01*
X113807200Y-90023809D02*
X113854819Y-90166666D01*
X113854819Y-90166666D02*
X113854819Y-90261904D01*
X113854819Y-90261904D02*
X113807200Y-90404761D01*
X113807200Y-90404761D02*
X113711961Y-90499999D01*
X113711961Y-90499999D02*
X113616723Y-90547618D01*
X113616723Y-90547618D02*
X113426247Y-90595237D01*
X113426247Y-90595237D02*
X113283390Y-90595237D01*
X113283390Y-90595237D02*
X113092914Y-90547618D01*
X113092914Y-90547618D02*
X112997676Y-90499999D01*
X112997676Y-90499999D02*
X112902438Y-90404761D01*
X112902438Y-90404761D02*
X112854819Y-90261904D01*
X112854819Y-90261904D02*
X112854819Y-90166666D01*
X112854819Y-90166666D02*
X112902438Y-90023809D01*
X112902438Y-90023809D02*
X112950057Y-89976190D01*
X119954819Y-130229999D02*
X119954819Y-130039523D01*
X119954819Y-130039523D02*
X120002438Y-129944285D01*
X120002438Y-129944285D02*
X120097676Y-129849047D01*
X120097676Y-129849047D02*
X120288152Y-129801428D01*
X120288152Y-129801428D02*
X120621485Y-129801428D01*
X120621485Y-129801428D02*
X120811961Y-129849047D01*
X120811961Y-129849047D02*
X120907200Y-129944285D01*
X120907200Y-129944285D02*
X120954819Y-130039523D01*
X120954819Y-130039523D02*
X120954819Y-130229999D01*
X120954819Y-130229999D02*
X120907200Y-130325237D01*
X120907200Y-130325237D02*
X120811961Y-130420475D01*
X120811961Y-130420475D02*
X120621485Y-130468094D01*
X120621485Y-130468094D02*
X120288152Y-130468094D01*
X120288152Y-130468094D02*
X120097676Y-130420475D01*
X120097676Y-130420475D02*
X120002438Y-130325237D01*
X120002438Y-130325237D02*
X119954819Y-130229999D01*
X120954819Y-128801428D02*
X120478628Y-129134761D01*
X120954819Y-129372856D02*
X119954819Y-129372856D01*
X119954819Y-129372856D02*
X119954819Y-128991904D01*
X119954819Y-128991904D02*
X120002438Y-128896666D01*
X120002438Y-128896666D02*
X120050057Y-128849047D01*
X120050057Y-128849047D02*
X120145295Y-128801428D01*
X120145295Y-128801428D02*
X120288152Y-128801428D01*
X120288152Y-128801428D02*
X120383390Y-128849047D01*
X120383390Y-128849047D02*
X120431009Y-128896666D01*
X120431009Y-128896666D02*
X120478628Y-128991904D01*
X120478628Y-128991904D02*
X120478628Y-129372856D01*
X120669104Y-128420475D02*
X120669104Y-127944285D01*
X120954819Y-128515713D02*
X119954819Y-128182380D01*
X119954819Y-128182380D02*
X120954819Y-127849047D01*
X120954819Y-127515713D02*
X119954819Y-127515713D01*
X119954819Y-127515713D02*
X120954819Y-126944285D01*
X120954819Y-126944285D02*
X119954819Y-126944285D01*
X120002438Y-125944285D02*
X119954819Y-126039523D01*
X119954819Y-126039523D02*
X119954819Y-126182380D01*
X119954819Y-126182380D02*
X120002438Y-126325237D01*
X120002438Y-126325237D02*
X120097676Y-126420475D01*
X120097676Y-126420475D02*
X120192914Y-126468094D01*
X120192914Y-126468094D02*
X120383390Y-126515713D01*
X120383390Y-126515713D02*
X120526247Y-126515713D01*
X120526247Y-126515713D02*
X120716723Y-126468094D01*
X120716723Y-126468094D02*
X120811961Y-126420475D01*
X120811961Y-126420475D02*
X120907200Y-126325237D01*
X120907200Y-126325237D02*
X120954819Y-126182380D01*
X120954819Y-126182380D02*
X120954819Y-126087142D01*
X120954819Y-126087142D02*
X120907200Y-125944285D01*
X120907200Y-125944285D02*
X120859580Y-125896666D01*
X120859580Y-125896666D02*
X120526247Y-125896666D01*
X120526247Y-125896666D02*
X120526247Y-126087142D01*
X120431009Y-125468094D02*
X120431009Y-125134761D01*
X120954819Y-124991904D02*
X120954819Y-125468094D01*
X120954819Y-125468094D02*
X119954819Y-125468094D01*
X119954819Y-125468094D02*
X119954819Y-124991904D01*
X121633333Y-121159580D02*
X121585714Y-121207200D01*
X121585714Y-121207200D02*
X121442857Y-121254819D01*
X121442857Y-121254819D02*
X121347619Y-121254819D01*
X121347619Y-121254819D02*
X121204762Y-121207200D01*
X121204762Y-121207200D02*
X121109524Y-121111961D01*
X121109524Y-121111961D02*
X121061905Y-121016723D01*
X121061905Y-121016723D02*
X121014286Y-120826247D01*
X121014286Y-120826247D02*
X121014286Y-120683390D01*
X121014286Y-120683390D02*
X121061905Y-120492914D01*
X121061905Y-120492914D02*
X121109524Y-120397676D01*
X121109524Y-120397676D02*
X121204762Y-120302438D01*
X121204762Y-120302438D02*
X121347619Y-120254819D01*
X121347619Y-120254819D02*
X121442857Y-120254819D01*
X121442857Y-120254819D02*
X121585714Y-120302438D01*
X121585714Y-120302438D02*
X121633333Y-120350057D01*
X122204762Y-120683390D02*
X122109524Y-120635771D01*
X122109524Y-120635771D02*
X122061905Y-120588152D01*
X122061905Y-120588152D02*
X122014286Y-120492914D01*
X122014286Y-120492914D02*
X122014286Y-120445295D01*
X122014286Y-120445295D02*
X122061905Y-120350057D01*
X122061905Y-120350057D02*
X122109524Y-120302438D01*
X122109524Y-120302438D02*
X122204762Y-120254819D01*
X122204762Y-120254819D02*
X122395238Y-120254819D01*
X122395238Y-120254819D02*
X122490476Y-120302438D01*
X122490476Y-120302438D02*
X122538095Y-120350057D01*
X122538095Y-120350057D02*
X122585714Y-120445295D01*
X122585714Y-120445295D02*
X122585714Y-120492914D01*
X122585714Y-120492914D02*
X122538095Y-120588152D01*
X122538095Y-120588152D02*
X122490476Y-120635771D01*
X122490476Y-120635771D02*
X122395238Y-120683390D01*
X122395238Y-120683390D02*
X122204762Y-120683390D01*
X122204762Y-120683390D02*
X122109524Y-120731009D01*
X122109524Y-120731009D02*
X122061905Y-120778628D01*
X122061905Y-120778628D02*
X122014286Y-120873866D01*
X122014286Y-120873866D02*
X122014286Y-121064342D01*
X122014286Y-121064342D02*
X122061905Y-121159580D01*
X122061905Y-121159580D02*
X122109524Y-121207200D01*
X122109524Y-121207200D02*
X122204762Y-121254819D01*
X122204762Y-121254819D02*
X122395238Y-121254819D01*
X122395238Y-121254819D02*
X122490476Y-121207200D01*
X122490476Y-121207200D02*
X122538095Y-121159580D01*
X122538095Y-121159580D02*
X122585714Y-121064342D01*
X122585714Y-121064342D02*
X122585714Y-120873866D01*
X122585714Y-120873866D02*
X122538095Y-120778628D01*
X122538095Y-120778628D02*
X122490476Y-120731009D01*
X122490476Y-120731009D02*
X122395238Y-120683390D01*
X118359580Y-106345238D02*
X118407200Y-106392857D01*
X118407200Y-106392857D02*
X118454819Y-106535714D01*
X118454819Y-106535714D02*
X118454819Y-106630952D01*
X118454819Y-106630952D02*
X118407200Y-106773809D01*
X118407200Y-106773809D02*
X118311961Y-106869047D01*
X118311961Y-106869047D02*
X118216723Y-106916666D01*
X118216723Y-106916666D02*
X118026247Y-106964285D01*
X118026247Y-106964285D02*
X117883390Y-106964285D01*
X117883390Y-106964285D02*
X117692914Y-106916666D01*
X117692914Y-106916666D02*
X117597676Y-106869047D01*
X117597676Y-106869047D02*
X117502438Y-106773809D01*
X117502438Y-106773809D02*
X117454819Y-106630952D01*
X117454819Y-106630952D02*
X117454819Y-106535714D01*
X117454819Y-106535714D02*
X117502438Y-106392857D01*
X117502438Y-106392857D02*
X117550057Y-106345238D01*
X118454819Y-105440476D02*
X118454819Y-105916666D01*
X118454819Y-105916666D02*
X117454819Y-105916666D01*
X118454819Y-105107142D02*
X117454819Y-105107142D01*
X118454819Y-104535714D02*
X117883390Y-104964285D01*
X117454819Y-104535714D02*
X118026247Y-105107142D01*
X133954819Y-129857142D02*
X133954819Y-129238095D01*
X133954819Y-129238095D02*
X134335771Y-129571428D01*
X134335771Y-129571428D02*
X134335771Y-129428571D01*
X134335771Y-129428571D02*
X134383390Y-129333333D01*
X134383390Y-129333333D02*
X134431009Y-129285714D01*
X134431009Y-129285714D02*
X134526247Y-129238095D01*
X134526247Y-129238095D02*
X134764342Y-129238095D01*
X134764342Y-129238095D02*
X134859580Y-129285714D01*
X134859580Y-129285714D02*
X134907200Y-129333333D01*
X134907200Y-129333333D02*
X134954819Y-129428571D01*
X134954819Y-129428571D02*
X134954819Y-129714285D01*
X134954819Y-129714285D02*
X134907200Y-129809523D01*
X134907200Y-129809523D02*
X134859580Y-129857142D01*
X133954819Y-128904761D02*
X133954819Y-128285714D01*
X133954819Y-128285714D02*
X134335771Y-128619047D01*
X134335771Y-128619047D02*
X134335771Y-128476190D01*
X134335771Y-128476190D02*
X134383390Y-128380952D01*
X134383390Y-128380952D02*
X134431009Y-128333333D01*
X134431009Y-128333333D02*
X134526247Y-128285714D01*
X134526247Y-128285714D02*
X134764342Y-128285714D01*
X134764342Y-128285714D02*
X134859580Y-128333333D01*
X134859580Y-128333333D02*
X134907200Y-128380952D01*
X134907200Y-128380952D02*
X134954819Y-128476190D01*
X134954819Y-128476190D02*
X134954819Y-128761904D01*
X134954819Y-128761904D02*
X134907200Y-128857142D01*
X134907200Y-128857142D02*
X134859580Y-128904761D01*
X133954819Y-127666666D02*
X133954819Y-127571428D01*
X133954819Y-127571428D02*
X134002438Y-127476190D01*
X134002438Y-127476190D02*
X134050057Y-127428571D01*
X134050057Y-127428571D02*
X134145295Y-127380952D01*
X134145295Y-127380952D02*
X134335771Y-127333333D01*
X134335771Y-127333333D02*
X134573866Y-127333333D01*
X134573866Y-127333333D02*
X134764342Y-127380952D01*
X134764342Y-127380952D02*
X134859580Y-127428571D01*
X134859580Y-127428571D02*
X134907200Y-127476190D01*
X134907200Y-127476190D02*
X134954819Y-127571428D01*
X134954819Y-127571428D02*
X134954819Y-127666666D01*
X134954819Y-127666666D02*
X134907200Y-127761904D01*
X134907200Y-127761904D02*
X134859580Y-127809523D01*
X134859580Y-127809523D02*
X134764342Y-127857142D01*
X134764342Y-127857142D02*
X134573866Y-127904761D01*
X134573866Y-127904761D02*
X134335771Y-127904761D01*
X134335771Y-127904761D02*
X134145295Y-127857142D01*
X134145295Y-127857142D02*
X134050057Y-127809523D01*
X134050057Y-127809523D02*
X134002438Y-127761904D01*
X134002438Y-127761904D02*
X133954819Y-127666666D01*
X134954819Y-126952380D02*
X134954819Y-126714285D01*
X134954819Y-126714285D02*
X134764342Y-126714285D01*
X134764342Y-126714285D02*
X134716723Y-126809523D01*
X134716723Y-126809523D02*
X134621485Y-126904761D01*
X134621485Y-126904761D02*
X134478628Y-126952380D01*
X134478628Y-126952380D02*
X134240533Y-126952380D01*
X134240533Y-126952380D02*
X134097676Y-126904761D01*
X134097676Y-126904761D02*
X134002438Y-126809523D01*
X134002438Y-126809523D02*
X133954819Y-126666666D01*
X133954819Y-126666666D02*
X133954819Y-126476190D01*
X133954819Y-126476190D02*
X134002438Y-126333333D01*
X134002438Y-126333333D02*
X134097676Y-126238095D01*
X134097676Y-126238095D02*
X134240533Y-126190476D01*
X134240533Y-126190476D02*
X134478628Y-126190476D01*
X134478628Y-126190476D02*
X134621485Y-126238095D01*
X134621485Y-126238095D02*
X134716723Y-126333333D01*
X134716723Y-126333333D02*
X134764342Y-126428571D01*
X134764342Y-126428571D02*
X134954819Y-126428571D01*
X134954819Y-126428571D02*
X134954819Y-126190476D01*
X123583333Y-78954819D02*
X123250000Y-78478628D01*
X123011905Y-78954819D02*
X123011905Y-77954819D01*
X123011905Y-77954819D02*
X123392857Y-77954819D01*
X123392857Y-77954819D02*
X123488095Y-78002438D01*
X123488095Y-78002438D02*
X123535714Y-78050057D01*
X123535714Y-78050057D02*
X123583333Y-78145295D01*
X123583333Y-78145295D02*
X123583333Y-78288152D01*
X123583333Y-78288152D02*
X123535714Y-78383390D01*
X123535714Y-78383390D02*
X123488095Y-78431009D01*
X123488095Y-78431009D02*
X123392857Y-78478628D01*
X123392857Y-78478628D02*
X123011905Y-78478628D01*
X124059524Y-78954819D02*
X124250000Y-78954819D01*
X124250000Y-78954819D02*
X124345238Y-78907200D01*
X124345238Y-78907200D02*
X124392857Y-78859580D01*
X124392857Y-78859580D02*
X124488095Y-78716723D01*
X124488095Y-78716723D02*
X124535714Y-78526247D01*
X124535714Y-78526247D02*
X124535714Y-78145295D01*
X124535714Y-78145295D02*
X124488095Y-78050057D01*
X124488095Y-78050057D02*
X124440476Y-78002438D01*
X124440476Y-78002438D02*
X124345238Y-77954819D01*
X124345238Y-77954819D02*
X124154762Y-77954819D01*
X124154762Y-77954819D02*
X124059524Y-78002438D01*
X124059524Y-78002438D02*
X124011905Y-78050057D01*
X124011905Y-78050057D02*
X123964286Y-78145295D01*
X123964286Y-78145295D02*
X123964286Y-78383390D01*
X123964286Y-78383390D02*
X124011905Y-78478628D01*
X124011905Y-78478628D02*
X124059524Y-78526247D01*
X124059524Y-78526247D02*
X124154762Y-78573866D01*
X124154762Y-78573866D02*
X124345238Y-78573866D01*
X124345238Y-78573866D02*
X124440476Y-78526247D01*
X124440476Y-78526247D02*
X124488095Y-78478628D01*
X124488095Y-78478628D02*
X124535714Y-78383390D01*
X151407200Y-72333332D02*
X151454819Y-72190475D01*
X151454819Y-72190475D02*
X151454819Y-71952380D01*
X151454819Y-71952380D02*
X151407200Y-71857142D01*
X151407200Y-71857142D02*
X151359580Y-71809523D01*
X151359580Y-71809523D02*
X151264342Y-71761904D01*
X151264342Y-71761904D02*
X151169104Y-71761904D01*
X151169104Y-71761904D02*
X151073866Y-71809523D01*
X151073866Y-71809523D02*
X151026247Y-71857142D01*
X151026247Y-71857142D02*
X150978628Y-71952380D01*
X150978628Y-71952380D02*
X150931009Y-72142856D01*
X150931009Y-72142856D02*
X150883390Y-72238094D01*
X150883390Y-72238094D02*
X150835771Y-72285713D01*
X150835771Y-72285713D02*
X150740533Y-72333332D01*
X150740533Y-72333332D02*
X150645295Y-72333332D01*
X150645295Y-72333332D02*
X150550057Y-72285713D01*
X150550057Y-72285713D02*
X150502438Y-72238094D01*
X150502438Y-72238094D02*
X150454819Y-72142856D01*
X150454819Y-72142856D02*
X150454819Y-71904761D01*
X150454819Y-71904761D02*
X150502438Y-71761904D01*
X150454819Y-71428570D02*
X151454819Y-71190475D01*
X151454819Y-71190475D02*
X150740533Y-70999999D01*
X150740533Y-70999999D02*
X151454819Y-70809523D01*
X151454819Y-70809523D02*
X150454819Y-70571428D01*
X150550057Y-70238094D02*
X150502438Y-70190475D01*
X150502438Y-70190475D02*
X150454819Y-70095237D01*
X150454819Y-70095237D02*
X150454819Y-69857142D01*
X150454819Y-69857142D02*
X150502438Y-69761904D01*
X150502438Y-69761904D02*
X150550057Y-69714285D01*
X150550057Y-69714285D02*
X150645295Y-69666666D01*
X150645295Y-69666666D02*
X150740533Y-69666666D01*
X150740533Y-69666666D02*
X150883390Y-69714285D01*
X150883390Y-69714285D02*
X151454819Y-70285713D01*
X151454819Y-70285713D02*
X151454819Y-69666666D01*
X113407200Y-84333332D02*
X113454819Y-84190475D01*
X113454819Y-84190475D02*
X113454819Y-83952380D01*
X113454819Y-83952380D02*
X113407200Y-83857142D01*
X113407200Y-83857142D02*
X113359580Y-83809523D01*
X113359580Y-83809523D02*
X113264342Y-83761904D01*
X113264342Y-83761904D02*
X113169104Y-83761904D01*
X113169104Y-83761904D02*
X113073866Y-83809523D01*
X113073866Y-83809523D02*
X113026247Y-83857142D01*
X113026247Y-83857142D02*
X112978628Y-83952380D01*
X112978628Y-83952380D02*
X112931009Y-84142856D01*
X112931009Y-84142856D02*
X112883390Y-84238094D01*
X112883390Y-84238094D02*
X112835771Y-84285713D01*
X112835771Y-84285713D02*
X112740533Y-84333332D01*
X112740533Y-84333332D02*
X112645295Y-84333332D01*
X112645295Y-84333332D02*
X112550057Y-84285713D01*
X112550057Y-84285713D02*
X112502438Y-84238094D01*
X112502438Y-84238094D02*
X112454819Y-84142856D01*
X112454819Y-84142856D02*
X112454819Y-83904761D01*
X112454819Y-83904761D02*
X112502438Y-83761904D01*
X112454819Y-83428570D02*
X113454819Y-83190475D01*
X113454819Y-83190475D02*
X112740533Y-82999999D01*
X112740533Y-82999999D02*
X113454819Y-82809523D01*
X113454819Y-82809523D02*
X112454819Y-82571428D01*
X113454819Y-81666666D02*
X113454819Y-82238094D01*
X113454819Y-81952380D02*
X112454819Y-81952380D01*
X112454819Y-81952380D02*
X112597676Y-82047618D01*
X112597676Y-82047618D02*
X112692914Y-82142856D01*
X112692914Y-82142856D02*
X112740533Y-82238094D01*
X146914819Y-71162857D02*
X146438628Y-71496190D01*
X146914819Y-71734285D02*
X145914819Y-71734285D01*
X145914819Y-71734285D02*
X145914819Y-71353333D01*
X145914819Y-71353333D02*
X145962438Y-71258095D01*
X145962438Y-71258095D02*
X146010057Y-71210476D01*
X146010057Y-71210476D02*
X146105295Y-71162857D01*
X146105295Y-71162857D02*
X146248152Y-71162857D01*
X146248152Y-71162857D02*
X146343390Y-71210476D01*
X146343390Y-71210476D02*
X146391009Y-71258095D01*
X146391009Y-71258095D02*
X146438628Y-71353333D01*
X146438628Y-71353333D02*
X146438628Y-71734285D01*
X146391009Y-70734285D02*
X146391009Y-70400952D01*
X146914819Y-70258095D02*
X146914819Y-70734285D01*
X146914819Y-70734285D02*
X145914819Y-70734285D01*
X145914819Y-70734285D02*
X145914819Y-70258095D01*
X146914819Y-69829523D02*
X145914819Y-69829523D01*
X145914819Y-69829523D02*
X145914819Y-69591428D01*
X145914819Y-69591428D02*
X145962438Y-69448571D01*
X145962438Y-69448571D02*
X146057676Y-69353333D01*
X146057676Y-69353333D02*
X146152914Y-69305714D01*
X146152914Y-69305714D02*
X146343390Y-69258095D01*
X146343390Y-69258095D02*
X146486247Y-69258095D01*
X146486247Y-69258095D02*
X146676723Y-69305714D01*
X146676723Y-69305714D02*
X146771961Y-69353333D01*
X146771961Y-69353333D02*
X146867200Y-69448571D01*
X146867200Y-69448571D02*
X146914819Y-69591428D01*
X146914819Y-69591428D02*
X146914819Y-69829523D01*
X131704819Y-72182142D02*
X131704819Y-71563095D01*
X131704819Y-71563095D02*
X132085771Y-71896428D01*
X132085771Y-71896428D02*
X132085771Y-71753571D01*
X132085771Y-71753571D02*
X132133390Y-71658333D01*
X132133390Y-71658333D02*
X132181009Y-71610714D01*
X132181009Y-71610714D02*
X132276247Y-71563095D01*
X132276247Y-71563095D02*
X132514342Y-71563095D01*
X132514342Y-71563095D02*
X132609580Y-71610714D01*
X132609580Y-71610714D02*
X132657200Y-71658333D01*
X132657200Y-71658333D02*
X132704819Y-71753571D01*
X132704819Y-71753571D02*
X132704819Y-72039285D01*
X132704819Y-72039285D02*
X132657200Y-72134523D01*
X132657200Y-72134523D02*
X132609580Y-72182142D01*
X131704819Y-71229761D02*
X131704819Y-70610714D01*
X131704819Y-70610714D02*
X132085771Y-70944047D01*
X132085771Y-70944047D02*
X132085771Y-70801190D01*
X132085771Y-70801190D02*
X132133390Y-70705952D01*
X132133390Y-70705952D02*
X132181009Y-70658333D01*
X132181009Y-70658333D02*
X132276247Y-70610714D01*
X132276247Y-70610714D02*
X132514342Y-70610714D01*
X132514342Y-70610714D02*
X132609580Y-70658333D01*
X132609580Y-70658333D02*
X132657200Y-70705952D01*
X132657200Y-70705952D02*
X132704819Y-70801190D01*
X132704819Y-70801190D02*
X132704819Y-71086904D01*
X132704819Y-71086904D02*
X132657200Y-71182142D01*
X132657200Y-71182142D02*
X132609580Y-71229761D01*
X131704819Y-69991666D02*
X131704819Y-69896428D01*
X131704819Y-69896428D02*
X131752438Y-69801190D01*
X131752438Y-69801190D02*
X131800057Y-69753571D01*
X131800057Y-69753571D02*
X131895295Y-69705952D01*
X131895295Y-69705952D02*
X132085771Y-69658333D01*
X132085771Y-69658333D02*
X132323866Y-69658333D01*
X132323866Y-69658333D02*
X132514342Y-69705952D01*
X132514342Y-69705952D02*
X132609580Y-69753571D01*
X132609580Y-69753571D02*
X132657200Y-69801190D01*
X132657200Y-69801190D02*
X132704819Y-69896428D01*
X132704819Y-69896428D02*
X132704819Y-69991666D01*
X132704819Y-69991666D02*
X132657200Y-70086904D01*
X132657200Y-70086904D02*
X132609580Y-70134523D01*
X132609580Y-70134523D02*
X132514342Y-70182142D01*
X132514342Y-70182142D02*
X132323866Y-70229761D01*
X132323866Y-70229761D02*
X132085771Y-70229761D01*
X132085771Y-70229761D02*
X131895295Y-70182142D01*
X131895295Y-70182142D02*
X131800057Y-70134523D01*
X131800057Y-70134523D02*
X131752438Y-70086904D01*
X131752438Y-70086904D02*
X131704819Y-69991666D01*
X132704819Y-69277380D02*
X132704819Y-69039285D01*
X132704819Y-69039285D02*
X132514342Y-69039285D01*
X132514342Y-69039285D02*
X132466723Y-69134523D01*
X132466723Y-69134523D02*
X132371485Y-69229761D01*
X132371485Y-69229761D02*
X132228628Y-69277380D01*
X132228628Y-69277380D02*
X131990533Y-69277380D01*
X131990533Y-69277380D02*
X131847676Y-69229761D01*
X131847676Y-69229761D02*
X131752438Y-69134523D01*
X131752438Y-69134523D02*
X131704819Y-68991666D01*
X131704819Y-68991666D02*
X131704819Y-68801190D01*
X131704819Y-68801190D02*
X131752438Y-68658333D01*
X131752438Y-68658333D02*
X131847676Y-68563095D01*
X131847676Y-68563095D02*
X131990533Y-68515476D01*
X131990533Y-68515476D02*
X132228628Y-68515476D01*
X132228628Y-68515476D02*
X132371485Y-68563095D01*
X132371485Y-68563095D02*
X132466723Y-68658333D01*
X132466723Y-68658333D02*
X132514342Y-68753571D01*
X132514342Y-68753571D02*
X132704819Y-68753571D01*
X132704819Y-68753571D02*
X132704819Y-68515476D01*
X151407200Y-128583332D02*
X151454819Y-128440475D01*
X151454819Y-128440475D02*
X151454819Y-128202380D01*
X151454819Y-128202380D02*
X151407200Y-128107142D01*
X151407200Y-128107142D02*
X151359580Y-128059523D01*
X151359580Y-128059523D02*
X151264342Y-128011904D01*
X151264342Y-128011904D02*
X151169104Y-128011904D01*
X151169104Y-128011904D02*
X151073866Y-128059523D01*
X151073866Y-128059523D02*
X151026247Y-128107142D01*
X151026247Y-128107142D02*
X150978628Y-128202380D01*
X150978628Y-128202380D02*
X150931009Y-128392856D01*
X150931009Y-128392856D02*
X150883390Y-128488094D01*
X150883390Y-128488094D02*
X150835771Y-128535713D01*
X150835771Y-128535713D02*
X150740533Y-128583332D01*
X150740533Y-128583332D02*
X150645295Y-128583332D01*
X150645295Y-128583332D02*
X150550057Y-128535713D01*
X150550057Y-128535713D02*
X150502438Y-128488094D01*
X150502438Y-128488094D02*
X150454819Y-128392856D01*
X150454819Y-128392856D02*
X150454819Y-128154761D01*
X150454819Y-128154761D02*
X150502438Y-128011904D01*
X150454819Y-127678570D02*
X151454819Y-127440475D01*
X151454819Y-127440475D02*
X150740533Y-127249999D01*
X150740533Y-127249999D02*
X151454819Y-127059523D01*
X151454819Y-127059523D02*
X150454819Y-126821428D01*
X150454819Y-126535713D02*
X150454819Y-125916666D01*
X150454819Y-125916666D02*
X150835771Y-126249999D01*
X150835771Y-126249999D02*
X150835771Y-126107142D01*
X150835771Y-126107142D02*
X150883390Y-126011904D01*
X150883390Y-126011904D02*
X150931009Y-125964285D01*
X150931009Y-125964285D02*
X151026247Y-125916666D01*
X151026247Y-125916666D02*
X151264342Y-125916666D01*
X151264342Y-125916666D02*
X151359580Y-125964285D01*
X151359580Y-125964285D02*
X151407200Y-126011904D01*
X151407200Y-126011904D02*
X151454819Y-126107142D01*
X151454819Y-126107142D02*
X151454819Y-126392856D01*
X151454819Y-126392856D02*
X151407200Y-126488094D01*
X151407200Y-126488094D02*
X151359580Y-126535713D01*
X118407200Y-100011904D02*
X118454819Y-99869047D01*
X118454819Y-99869047D02*
X118454819Y-99630952D01*
X118454819Y-99630952D02*
X118407200Y-99535714D01*
X118407200Y-99535714D02*
X118359580Y-99488095D01*
X118359580Y-99488095D02*
X118264342Y-99440476D01*
X118264342Y-99440476D02*
X118169104Y-99440476D01*
X118169104Y-99440476D02*
X118073866Y-99488095D01*
X118073866Y-99488095D02*
X118026247Y-99535714D01*
X118026247Y-99535714D02*
X117978628Y-99630952D01*
X117978628Y-99630952D02*
X117931009Y-99821428D01*
X117931009Y-99821428D02*
X117883390Y-99916666D01*
X117883390Y-99916666D02*
X117835771Y-99964285D01*
X117835771Y-99964285D02*
X117740533Y-100011904D01*
X117740533Y-100011904D02*
X117645295Y-100011904D01*
X117645295Y-100011904D02*
X117550057Y-99964285D01*
X117550057Y-99964285D02*
X117502438Y-99916666D01*
X117502438Y-99916666D02*
X117454819Y-99821428D01*
X117454819Y-99821428D02*
X117454819Y-99583333D01*
X117454819Y-99583333D02*
X117502438Y-99440476D01*
X117788152Y-99011904D02*
X118788152Y-99011904D01*
X117835771Y-99011904D02*
X117788152Y-98916666D01*
X117788152Y-98916666D02*
X117788152Y-98726190D01*
X117788152Y-98726190D02*
X117835771Y-98630952D01*
X117835771Y-98630952D02*
X117883390Y-98583333D01*
X117883390Y-98583333D02*
X117978628Y-98535714D01*
X117978628Y-98535714D02*
X118264342Y-98535714D01*
X118264342Y-98535714D02*
X118359580Y-98583333D01*
X118359580Y-98583333D02*
X118407200Y-98630952D01*
X118407200Y-98630952D02*
X118454819Y-98726190D01*
X118454819Y-98726190D02*
X118454819Y-98916666D01*
X118454819Y-98916666D02*
X118407200Y-99011904D01*
X118407200Y-97726190D02*
X118454819Y-97821428D01*
X118454819Y-97821428D02*
X118454819Y-98011904D01*
X118454819Y-98011904D02*
X118407200Y-98107142D01*
X118407200Y-98107142D02*
X118311961Y-98154761D01*
X118311961Y-98154761D02*
X117931009Y-98154761D01*
X117931009Y-98154761D02*
X117835771Y-98107142D01*
X117835771Y-98107142D02*
X117788152Y-98011904D01*
X117788152Y-98011904D02*
X117788152Y-97821428D01*
X117788152Y-97821428D02*
X117835771Y-97726190D01*
X117835771Y-97726190D02*
X117931009Y-97678571D01*
X117931009Y-97678571D02*
X118026247Y-97678571D01*
X118026247Y-97678571D02*
X118121485Y-98154761D01*
X118454819Y-96821428D02*
X117931009Y-96821428D01*
X117931009Y-96821428D02*
X117835771Y-96869047D01*
X117835771Y-96869047D02*
X117788152Y-96964285D01*
X117788152Y-96964285D02*
X117788152Y-97154761D01*
X117788152Y-97154761D02*
X117835771Y-97249999D01*
X118407200Y-96821428D02*
X118454819Y-96916666D01*
X118454819Y-96916666D02*
X118454819Y-97154761D01*
X118454819Y-97154761D02*
X118407200Y-97249999D01*
X118407200Y-97249999D02*
X118311961Y-97297618D01*
X118311961Y-97297618D02*
X118216723Y-97297618D01*
X118216723Y-97297618D02*
X118121485Y-97249999D01*
X118121485Y-97249999D02*
X118073866Y-97154761D01*
X118073866Y-97154761D02*
X118073866Y-96916666D01*
X118073866Y-96916666D02*
X118026247Y-96821428D01*
X118454819Y-96345237D02*
X117454819Y-96345237D01*
X118073866Y-96249999D02*
X118454819Y-95964285D01*
X117788152Y-95964285D02*
X118169104Y-96345237D01*
X118407200Y-95154761D02*
X118454819Y-95249999D01*
X118454819Y-95249999D02*
X118454819Y-95440475D01*
X118454819Y-95440475D02*
X118407200Y-95535713D01*
X118407200Y-95535713D02*
X118311961Y-95583332D01*
X118311961Y-95583332D02*
X117931009Y-95583332D01*
X117931009Y-95583332D02*
X117835771Y-95535713D01*
X117835771Y-95535713D02*
X117788152Y-95440475D01*
X117788152Y-95440475D02*
X117788152Y-95249999D01*
X117788152Y-95249999D02*
X117835771Y-95154761D01*
X117835771Y-95154761D02*
X117931009Y-95107142D01*
X117931009Y-95107142D02*
X118026247Y-95107142D01*
X118026247Y-95107142D02*
X118121485Y-95583332D01*
X118454819Y-94678570D02*
X117788152Y-94678570D01*
X117978628Y-94678570D02*
X117883390Y-94630951D01*
X117883390Y-94630951D02*
X117835771Y-94583332D01*
X117835771Y-94583332D02*
X117788152Y-94488094D01*
X117788152Y-94488094D02*
X117788152Y-94392856D01*
X116407200Y-128333332D02*
X116454819Y-128190475D01*
X116454819Y-128190475D02*
X116454819Y-127952380D01*
X116454819Y-127952380D02*
X116407200Y-127857142D01*
X116407200Y-127857142D02*
X116359580Y-127809523D01*
X116359580Y-127809523D02*
X116264342Y-127761904D01*
X116264342Y-127761904D02*
X116169104Y-127761904D01*
X116169104Y-127761904D02*
X116073866Y-127809523D01*
X116073866Y-127809523D02*
X116026247Y-127857142D01*
X116026247Y-127857142D02*
X115978628Y-127952380D01*
X115978628Y-127952380D02*
X115931009Y-128142856D01*
X115931009Y-128142856D02*
X115883390Y-128238094D01*
X115883390Y-128238094D02*
X115835771Y-128285713D01*
X115835771Y-128285713D02*
X115740533Y-128333332D01*
X115740533Y-128333332D02*
X115645295Y-128333332D01*
X115645295Y-128333332D02*
X115550057Y-128285713D01*
X115550057Y-128285713D02*
X115502438Y-128238094D01*
X115502438Y-128238094D02*
X115454819Y-128142856D01*
X115454819Y-128142856D02*
X115454819Y-127904761D01*
X115454819Y-127904761D02*
X115502438Y-127761904D01*
X115454819Y-127428570D02*
X116454819Y-127190475D01*
X116454819Y-127190475D02*
X115740533Y-126999999D01*
X115740533Y-126999999D02*
X116454819Y-126809523D01*
X116454819Y-126809523D02*
X115454819Y-126571428D01*
X115788152Y-125761904D02*
X116454819Y-125761904D01*
X115407200Y-125999999D02*
X116121485Y-126238094D01*
X116121485Y-126238094D02*
X116121485Y-125619047D01*
X131884819Y-129857142D02*
X131884819Y-129238095D01*
X131884819Y-129238095D02*
X132265771Y-129571428D01*
X132265771Y-129571428D02*
X132265771Y-129428571D01*
X132265771Y-129428571D02*
X132313390Y-129333333D01*
X132313390Y-129333333D02*
X132361009Y-129285714D01*
X132361009Y-129285714D02*
X132456247Y-129238095D01*
X132456247Y-129238095D02*
X132694342Y-129238095D01*
X132694342Y-129238095D02*
X132789580Y-129285714D01*
X132789580Y-129285714D02*
X132837200Y-129333333D01*
X132837200Y-129333333D02*
X132884819Y-129428571D01*
X132884819Y-129428571D02*
X132884819Y-129714285D01*
X132884819Y-129714285D02*
X132837200Y-129809523D01*
X132837200Y-129809523D02*
X132789580Y-129857142D01*
X131884819Y-128904761D02*
X131884819Y-128285714D01*
X131884819Y-128285714D02*
X132265771Y-128619047D01*
X132265771Y-128619047D02*
X132265771Y-128476190D01*
X132265771Y-128476190D02*
X132313390Y-128380952D01*
X132313390Y-128380952D02*
X132361009Y-128333333D01*
X132361009Y-128333333D02*
X132456247Y-128285714D01*
X132456247Y-128285714D02*
X132694342Y-128285714D01*
X132694342Y-128285714D02*
X132789580Y-128333333D01*
X132789580Y-128333333D02*
X132837200Y-128380952D01*
X132837200Y-128380952D02*
X132884819Y-128476190D01*
X132884819Y-128476190D02*
X132884819Y-128761904D01*
X132884819Y-128761904D02*
X132837200Y-128857142D01*
X132837200Y-128857142D02*
X132789580Y-128904761D01*
X131884819Y-127666666D02*
X131884819Y-127571428D01*
X131884819Y-127571428D02*
X131932438Y-127476190D01*
X131932438Y-127476190D02*
X131980057Y-127428571D01*
X131980057Y-127428571D02*
X132075295Y-127380952D01*
X132075295Y-127380952D02*
X132265771Y-127333333D01*
X132265771Y-127333333D02*
X132503866Y-127333333D01*
X132503866Y-127333333D02*
X132694342Y-127380952D01*
X132694342Y-127380952D02*
X132789580Y-127428571D01*
X132789580Y-127428571D02*
X132837200Y-127476190D01*
X132837200Y-127476190D02*
X132884819Y-127571428D01*
X132884819Y-127571428D02*
X132884819Y-127666666D01*
X132884819Y-127666666D02*
X132837200Y-127761904D01*
X132837200Y-127761904D02*
X132789580Y-127809523D01*
X132789580Y-127809523D02*
X132694342Y-127857142D01*
X132694342Y-127857142D02*
X132503866Y-127904761D01*
X132503866Y-127904761D02*
X132265771Y-127904761D01*
X132265771Y-127904761D02*
X132075295Y-127857142D01*
X132075295Y-127857142D02*
X131980057Y-127809523D01*
X131980057Y-127809523D02*
X131932438Y-127761904D01*
X131932438Y-127761904D02*
X131884819Y-127666666D01*
X132884819Y-126952380D02*
X132884819Y-126714285D01*
X132884819Y-126714285D02*
X132694342Y-126714285D01*
X132694342Y-126714285D02*
X132646723Y-126809523D01*
X132646723Y-126809523D02*
X132551485Y-126904761D01*
X132551485Y-126904761D02*
X132408628Y-126952380D01*
X132408628Y-126952380D02*
X132170533Y-126952380D01*
X132170533Y-126952380D02*
X132027676Y-126904761D01*
X132027676Y-126904761D02*
X131932438Y-126809523D01*
X131932438Y-126809523D02*
X131884819Y-126666666D01*
X131884819Y-126666666D02*
X131884819Y-126476190D01*
X131884819Y-126476190D02*
X131932438Y-126333333D01*
X131932438Y-126333333D02*
X132027676Y-126238095D01*
X132027676Y-126238095D02*
X132170533Y-126190476D01*
X132170533Y-126190476D02*
X132408628Y-126190476D01*
X132408628Y-126190476D02*
X132551485Y-126238095D01*
X132551485Y-126238095D02*
X132646723Y-126333333D01*
X132646723Y-126333333D02*
X132694342Y-126428571D01*
X132694342Y-126428571D02*
X132884819Y-126428571D01*
X132884819Y-126428571D02*
X132884819Y-126190476D01*
X144833333Y-120759580D02*
X144785714Y-120807200D01*
X144785714Y-120807200D02*
X144642857Y-120854819D01*
X144642857Y-120854819D02*
X144547619Y-120854819D01*
X144547619Y-120854819D02*
X144404762Y-120807200D01*
X144404762Y-120807200D02*
X144309524Y-120711961D01*
X144309524Y-120711961D02*
X144261905Y-120616723D01*
X144261905Y-120616723D02*
X144214286Y-120426247D01*
X144214286Y-120426247D02*
X144214286Y-120283390D01*
X144214286Y-120283390D02*
X144261905Y-120092914D01*
X144261905Y-120092914D02*
X144309524Y-119997676D01*
X144309524Y-119997676D02*
X144404762Y-119902438D01*
X144404762Y-119902438D02*
X144547619Y-119854819D01*
X144547619Y-119854819D02*
X144642857Y-119854819D01*
X144642857Y-119854819D02*
X144785714Y-119902438D01*
X144785714Y-119902438D02*
X144833333Y-119950057D01*
X145690476Y-119854819D02*
X145500000Y-119854819D01*
X145500000Y-119854819D02*
X145404762Y-119902438D01*
X145404762Y-119902438D02*
X145357143Y-119950057D01*
X145357143Y-119950057D02*
X145261905Y-120092914D01*
X145261905Y-120092914D02*
X145214286Y-120283390D01*
X145214286Y-120283390D02*
X145214286Y-120664342D01*
X145214286Y-120664342D02*
X145261905Y-120759580D01*
X145261905Y-120759580D02*
X145309524Y-120807200D01*
X145309524Y-120807200D02*
X145404762Y-120854819D01*
X145404762Y-120854819D02*
X145595238Y-120854819D01*
X145595238Y-120854819D02*
X145690476Y-120807200D01*
X145690476Y-120807200D02*
X145738095Y-120759580D01*
X145738095Y-120759580D02*
X145785714Y-120664342D01*
X145785714Y-120664342D02*
X145785714Y-120426247D01*
X145785714Y-120426247D02*
X145738095Y-120331009D01*
X145738095Y-120331009D02*
X145690476Y-120283390D01*
X145690476Y-120283390D02*
X145595238Y-120235771D01*
X145595238Y-120235771D02*
X145404762Y-120235771D01*
X145404762Y-120235771D02*
X145309524Y-120283390D01*
X145309524Y-120283390D02*
X145261905Y-120331009D01*
X145261905Y-120331009D02*
X145214286Y-120426247D01*
X124412164Y-107140000D02*
X124627836Y-107140000D01*
X124412164Y-107860000D02*
X124627836Y-107860000D01*
D12*
X137022500Y-70087742D02*
X137022500Y-70562258D01*
X135977500Y-70087742D02*
X135977500Y-70562258D01*
X140115000Y-88186252D02*
X140115000Y-86763748D01*
X141935000Y-88186252D02*
X141935000Y-86763748D01*
X129160000Y-81970000D02*
X129160000Y-117650000D01*
X129160000Y-117650000D02*
X134460000Y-117650000D01*
X130810000Y-81970000D02*
X129160000Y-81970000D01*
X134460000Y-81970000D02*
X132810000Y-81970000D01*
X134460000Y-117650000D02*
X134460000Y-81970000D01*
X132810000Y-81970000D02*
G75*
G02*
X130810000Y-81970000I-1000000J0D01*
G01*
X129336359Y-122120000D02*
X129643641Y-122120000D01*
X129336359Y-122880000D02*
X129643641Y-122880000D01*
X144940000Y-80940000D02*
X154060000Y-80940000D01*
X144940000Y-91060000D02*
X144940000Y-80940000D01*
X144940000Y-91060000D02*
X154060000Y-91060000D01*
X147346000Y-82112000D02*
X147726000Y-82492000D01*
X147346000Y-87112000D02*
X147453000Y-87219000D01*
X147612000Y-81846000D02*
X148008000Y-82241000D01*
X147612000Y-86846000D02*
X147719000Y-86953000D01*
X149992000Y-84758000D02*
X150388000Y-85153000D01*
X150274000Y-84507000D02*
X150654000Y-84887000D01*
X150281000Y-90048000D02*
X150388000Y-90154000D01*
X150547000Y-89782000D02*
X150654000Y-89888000D01*
X152500000Y-91060000D02*
X152500000Y-80940000D01*
X153600000Y-91060000D02*
X153600000Y-80940000D01*
X153660000Y-91300000D02*
X154300000Y-91300000D01*
X154060000Y-91060000D02*
X154060000Y-80940000D01*
X154300000Y-91300000D02*
X154300000Y-90900000D01*
X151180000Y-83500000D02*
G75*
G02*
X146820000Y-83500000I-2180000J0D01*
G01*
X146820000Y-83500000D02*
G75*
G02*
X151180000Y-83500000I2180000J0D01*
G01*
X151180000Y-88500000D02*
G75*
G02*
X146820000Y-88500000I-2180000J0D01*
G01*
X146820000Y-88500000D02*
G75*
G02*
X151180000Y-88500000I2180000J0D01*
G01*
X122356359Y-82620000D02*
X122663641Y-82620000D01*
X122356359Y-83380000D02*
X122663641Y-83380000D01*
X142836359Y-75620000D02*
X143143641Y-75620000D01*
X142836359Y-76380000D02*
X143143641Y-76380000D01*
X138356359Y-122120000D02*
X138663641Y-122120000D01*
X138356359Y-122880000D02*
X138663641Y-122880000D01*
X112750000Y-68750000D02*
X112750000Y-73250000D01*
X115250000Y-74500000D02*
X116750000Y-74500000D01*
X116750000Y-67500000D02*
X115250000Y-67500000D01*
X119250000Y-73250000D02*
X119250000Y-68750000D01*
X124392164Y-103140000D02*
X124607836Y-103140000D01*
X124392164Y-103860000D02*
X124607836Y-103860000D01*
X138912164Y-75640000D02*
X139127836Y-75640000D01*
X138912164Y-76360000D02*
X139127836Y-76360000D01*
X126392164Y-80640000D02*
X126607836Y-80640000D01*
X126392164Y-81360000D02*
X126607836Y-81360000D01*
X140115000Y-94686252D02*
X140115000Y-93263748D01*
X141935000Y-94686252D02*
X141935000Y-93263748D01*
X128372164Y-76860000D02*
X128587836Y-76860000D01*
X128372164Y-76140000D02*
X128587836Y-76140000D01*
X140955000Y-130330000D02*
X144045000Y-130330000D01*
X140955170Y-130329999D02*
G75*
G02*
X142500462Y-124780001I1544830J2559999D01*
G01*
X142499538Y-124780000D02*
G75*
G02*
X144044830Y-130330000I462J-2990000D01*
G01*
X145000000Y-127770000D02*
G75*
G02*
X140000000Y-127770000I-2500000J0D01*
G01*
X140000000Y-127770000D02*
G75*
G02*
X145000000Y-127770000I2500000J0D01*
G01*
X109670000Y-116810000D02*
X109670000Y-104050000D01*
X112330000Y-104050000D02*
X109670000Y-104050000D01*
X112330000Y-116810000D02*
X109670000Y-116810000D01*
X112330000Y-116810000D02*
X112330000Y-104050000D01*
X112330000Y-118080000D02*
X112330000Y-119410000D01*
X112330000Y-119410000D02*
X111000000Y-119410000D01*
X126045000Y-67920000D02*
X122955000Y-67920000D01*
X124500462Y-73470000D02*
G75*
G02*
X122955170Y-67920000I-462J2990000D01*
G01*
X126044830Y-67920001D02*
G75*
G02*
X124499538Y-73469999I-1544830J-2559999D01*
G01*
X127000000Y-70480000D02*
G75*
G02*
X122000000Y-70480000I-2500000J0D01*
G01*
X122000000Y-70480000D02*
G75*
G02*
X127000000Y-70480000I2500000J0D01*
G01*
X109670000Y-90630000D02*
X111000000Y-90630000D01*
X109670000Y-91960000D02*
X109670000Y-90630000D01*
X109670000Y-93230000D02*
X109670000Y-100910000D01*
X109670000Y-93230000D02*
X112330000Y-93230000D01*
X109670000Y-100910000D02*
X112330000Y-100910000D01*
X112330000Y-93230000D02*
X112330000Y-100910000D01*
X122955000Y-130290000D02*
X126045000Y-130290000D01*
X122955170Y-130289999D02*
G75*
G02*
X124500462Y-124740001I1544830J2559999D01*
G01*
X124499538Y-124740000D02*
G75*
G02*
X126044830Y-130290000I462J-2990000D01*
G01*
X127000000Y-127730000D02*
G75*
G02*
X122000000Y-127730000I-2500000J0D01*
G01*
X122000000Y-127730000D02*
G75*
G02*
X127000000Y-127730000I2500000J0D01*
G01*
X143880000Y-115420000D02*
X143880000Y-99530000D01*
X146460000Y-99530000D02*
X146460000Y-96990000D01*
X149000000Y-99530000D02*
X149000000Y-96990000D01*
X151540000Y-99530000D02*
X151540000Y-96990000D01*
X154120000Y-99530000D02*
X143880000Y-99530000D01*
X154120000Y-115420000D02*
X143880000Y-115420000D01*
X154120000Y-115420000D02*
X154120000Y-99530000D01*
X121892164Y-122140000D02*
X122107836Y-122140000D01*
X121892164Y-122860000D02*
X122107836Y-122860000D01*
X119350000Y-104150000D02*
X119350000Y-106850000D01*
X121650000Y-104150000D02*
X119350000Y-104150000D01*
X135477500Y-128237258D02*
X135477500Y-127762742D01*
X136522500Y-128237258D02*
X136522500Y-127762742D01*
X123856359Y-76120000D02*
X124163641Y-76120000D01*
X123856359Y-76880000D02*
X124163641Y-76880000D01*
X147750000Y-68750000D02*
X147750000Y-73250000D01*
X150250000Y-74500000D02*
X151750000Y-74500000D01*
X151750000Y-67500000D02*
X150250000Y-67500000D01*
X154250000Y-73250000D02*
X154250000Y-68750000D01*
X109750000Y-80750000D02*
X109750000Y-85250000D01*
X112250000Y-86500000D02*
X113750000Y-86500000D01*
X113750000Y-79500000D02*
X112250000Y-79500000D01*
X116250000Y-85250000D02*
X116250000Y-80750000D01*
X140955000Y-73080000D02*
X144045000Y-73080000D01*
X140955170Y-73079999D02*
G75*
G02*
X142500462Y-67530001I1544830J2559999D01*
G01*
X142499538Y-67530000D02*
G75*
G02*
X144044830Y-73080000I462J-2990000D01*
G01*
X145000000Y-70520000D02*
G75*
G02*
X140000000Y-70520000I-2500000J0D01*
G01*
X140000000Y-70520000D02*
G75*
G02*
X145000000Y-70520000I2500000J0D01*
G01*
X129977500Y-70087742D02*
X129977500Y-70562258D01*
X131022500Y-70087742D02*
X131022500Y-70562258D01*
X147750000Y-125000000D02*
X147750000Y-129500000D01*
X150250000Y-130750000D02*
X151750000Y-130750000D01*
X151750000Y-123750000D02*
X150250000Y-123750000D01*
X154250000Y-129500000D02*
X154250000Y-125000000D01*
D13*
G36*
X120517898Y-111367655D02*
G01*
X120669314Y-111393999D01*
X120819473Y-111438324D01*
X120957291Y-111496379D01*
X121071681Y-111563913D01*
X121111487Y-111595318D01*
X121157016Y-111631540D01*
X121192439Y-111653157D01*
X121201750Y-111655832D01*
X121255894Y-111666764D01*
X121329527Y-111695586D01*
X121410642Y-111736342D01*
X121487238Y-111783074D01*
X121541319Y-111824364D01*
X121595124Y-111870226D01*
X121631289Y-111893197D01*
X121660616Y-111897804D01*
X121693904Y-111888573D01*
X121694224Y-111888452D01*
X121752260Y-111876671D01*
X121799847Y-111879353D01*
X121829482Y-111897158D01*
X121880606Y-111938696D01*
X121947603Y-111998964D01*
X122024857Y-112072958D01*
X122085900Y-112134195D01*
X122298305Y-112370057D01*
X122474535Y-112607241D01*
X122617741Y-112850774D01*
X122731077Y-113105686D01*
X122776552Y-113235926D01*
X122802517Y-113315216D01*
X122825613Y-113382587D01*
X122842106Y-113427263D01*
X122845960Y-113436246D01*
X122853558Y-113469373D01*
X122849589Y-113480686D01*
X122825314Y-113486511D01*
X122772368Y-113490778D01*
X122701573Y-113492664D01*
X122691703Y-113492691D01*
X122499912Y-113506735D01*
X122316434Y-113547032D01*
X122146548Y-113610827D01*
X121995536Y-113695364D01*
X121868676Y-113797889D01*
X121771249Y-113915647D01*
X121727686Y-113995673D01*
X121667074Y-114178461D01*
X121644892Y-114362037D01*
X121660385Y-114542447D01*
X121712796Y-114715735D01*
X121801371Y-114877946D01*
X121924232Y-115024026D01*
X122041108Y-115126347D01*
X122154586Y-115196681D01*
X122275620Y-115239844D01*
X122415163Y-115260650D01*
X122468896Y-115263492D01*
X122550306Y-115266258D01*
X122615159Y-115268466D01*
X122654536Y-115269813D01*
X122662164Y-115270078D01*
X122659847Y-115284940D01*
X122638378Y-115323855D01*
X122602387Y-115379336D01*
X122556506Y-115443895D01*
X122545593Y-115458511D01*
X122487343Y-115526632D01*
X122419544Y-115593108D01*
X122380933Y-115625129D01*
X122331788Y-115666170D01*
X122299171Y-115701489D01*
X122291135Y-115718103D01*
X122309029Y-115741989D01*
X122356676Y-115770058D01*
X122425017Y-115799119D01*
X122504999Y-115825978D01*
X122587565Y-115847443D01*
X122663660Y-115860321D01*
X122700972Y-115862596D01*
X122744678Y-115867252D01*
X122764983Y-115878275D01*
X122765163Y-115879528D01*
X122751974Y-115898969D01*
X122715845Y-115940520D01*
X122661932Y-115998520D01*
X122595391Y-116067312D01*
X122578243Y-116084671D01*
X122388538Y-116262250D01*
X122206239Y-116404526D01*
X122053090Y-116500536D01*
X121959418Y-116546071D01*
X121840906Y-116594387D01*
X121711467Y-116640600D01*
X121585011Y-116679824D01*
X121475452Y-116707176D01*
X121451710Y-116711695D01*
X121343652Y-116730786D01*
X121268752Y-116745047D01*
X121221180Y-116755993D01*
X121195102Y-116765135D01*
X121184689Y-116773989D01*
X121183641Y-116781260D01*
X121203381Y-116798477D01*
X121259608Y-116818826D01*
X121353033Y-116842488D01*
X121484369Y-116869644D01*
X121648762Y-116899512D01*
X121727307Y-116913113D01*
X121648762Y-116961839D01*
X121528401Y-117030831D01*
X121384679Y-117104379D01*
X121232053Y-117175640D01*
X121084985Y-117237770D01*
X120993224Y-117272116D01*
X120901995Y-117303053D01*
X120817618Y-117329471D01*
X120729866Y-117354180D01*
X120628514Y-117379989D01*
X120503334Y-117409708D01*
X120436041Y-117425212D01*
X120380235Y-117434354D01*
X120297207Y-117443527D01*
X120199218Y-117451530D01*
X120120023Y-117456198D01*
X119929427Y-117465352D01*
X119891368Y-117467180D01*
X119698303Y-117285016D01*
X119505238Y-117102852D01*
X119348922Y-117252195D01*
X119225655Y-117360607D01*
X119113806Y-117437677D01*
X119006718Y-117487183D01*
X118897734Y-117512906D01*
X118887434Y-117514203D01*
X118823904Y-117519952D01*
X118786681Y-117516089D01*
X118764350Y-117500356D01*
X118763106Y-117499480D01*
X118748778Y-117479866D01*
X118709383Y-117392962D01*
X118681842Y-117273973D01*
X118666580Y-117128629D01*
X118664021Y-116962659D01*
X118669427Y-116870140D01*
X118836387Y-116870140D01*
X118843008Y-116978024D01*
X118858952Y-117072552D01*
X118882192Y-117145481D01*
X118910702Y-117188566D01*
X118915570Y-117192110D01*
X118960913Y-117197880D01*
X119026517Y-117174193D01*
X119108931Y-117123191D01*
X119204704Y-117047013D01*
X119310386Y-116947797D01*
X119311677Y-116946498D01*
X119482530Y-116774546D01*
X119600000Y-116926094D01*
X119666998Y-117010121D01*
X119740745Y-117098870D01*
X119807887Y-117176356D01*
X119823449Y-117193598D01*
X119929427Y-117309555D01*
X120068407Y-117296818D01*
X120240149Y-117269936D01*
X120429447Y-117221253D01*
X120624169Y-117155028D01*
X120812182Y-117075518D01*
X120981354Y-116986980D01*
X121022123Y-116962145D01*
X121079772Y-116921506D01*
X121102437Y-116892643D01*
X121091512Y-116871933D01*
X121061625Y-116859423D01*
X121013158Y-116842230D01*
X120946951Y-116815386D01*
X120871668Y-116782840D01*
X120795971Y-116748540D01*
X120728522Y-116716436D01*
X120677984Y-116690476D01*
X120653021Y-116674609D01*
X120651788Y-116672609D01*
X120670320Y-116666608D01*
X120721076Y-116660094D01*
X120796798Y-116653771D01*
X120890225Y-116648341D01*
X120913491Y-116647291D01*
X121150176Y-116626804D01*
X121359873Y-116585116D01*
X121550533Y-116519455D01*
X121730109Y-116427048D01*
X121906552Y-116305124D01*
X121915863Y-116297867D01*
X121959457Y-116260769D01*
X122016148Y-116208479D01*
X122079419Y-116147535D01*
X122142753Y-116084471D01*
X122199633Y-116025825D01*
X122243541Y-115978134D01*
X122267961Y-115947932D01*
X122270853Y-115941835D01*
X122254846Y-115928669D01*
X122212256Y-115903065D01*
X122151835Y-115870242D01*
X122143252Y-115865781D01*
X122015266Y-115799602D01*
X121829798Y-115831216D01*
X121732007Y-115845160D01*
X121629375Y-115855239D01*
X121530325Y-115861158D01*
X121443282Y-115862625D01*
X121376670Y-115859344D01*
X121338914Y-115851021D01*
X121335318Y-115848486D01*
X121345734Y-115838243D01*
X121386598Y-115824707D01*
X121449325Y-115810664D01*
X121455471Y-115809521D01*
X121541250Y-115787528D01*
X121641839Y-115752435D01*
X121737941Y-115711061D01*
X121747978Y-115706137D01*
X121822420Y-115664313D01*
X121902789Y-115611502D01*
X121982146Y-115553261D01*
X122053553Y-115495146D01*
X122110072Y-115442715D01*
X122144764Y-115401522D01*
X122152346Y-115382287D01*
X122135326Y-115363289D01*
X122091129Y-115335361D01*
X122029178Y-115304428D01*
X122026718Y-115303325D01*
X121946340Y-115261219D01*
X121856418Y-115204772D01*
X121777352Y-115146923D01*
X121653082Y-115046372D01*
X121532645Y-115074391D01*
X121455338Y-115086948D01*
X121350455Y-115096307D01*
X121229856Y-115101578D01*
X121203737Y-115101889D01*
X121159868Y-115102411D01*
X121054646Y-115103036D01*
X120983125Y-115105377D01*
X120939518Y-115110127D01*
X120918037Y-115117983D01*
X120912893Y-115129639D01*
X120913225Y-115132038D01*
X120936131Y-115162652D01*
X120989203Y-115198772D01*
X121064270Y-115236378D01*
X121153164Y-115271447D01*
X121247712Y-115299957D01*
X121260938Y-115303197D01*
X121405935Y-115337621D01*
X121330067Y-115364988D01*
X121274556Y-115379011D01*
X121194506Y-115391949D01*
X121104864Y-115401511D01*
X121080791Y-115403227D01*
X120904852Y-115401238D01*
X120745667Y-115369605D01*
X120590782Y-115305281D01*
X120521858Y-115266484D01*
X120458858Y-115230651D01*
X120409419Y-115206566D01*
X120382480Y-115198480D01*
X120380493Y-115199238D01*
X120378192Y-115225506D01*
X120388496Y-115279593D01*
X120408762Y-115352878D01*
X120436349Y-115436738D01*
X120468612Y-115522553D01*
X120502911Y-115601700D01*
X120505555Y-115607260D01*
X120589818Y-115749521D01*
X120694783Y-115872983D01*
X120812992Y-115969783D01*
X120891087Y-116013623D01*
X120956474Y-116047686D01*
X120985864Y-116073564D01*
X120978554Y-116091953D01*
X120933837Y-116103547D01*
X120851008Y-116109042D01*
X120793581Y-116109720D01*
X120703770Y-116108121D01*
X120637908Y-116101121D01*
X120580498Y-116085416D01*
X120516044Y-116057700D01*
X120489718Y-116044928D01*
X120377812Y-115974471D01*
X120261326Y-115873501D01*
X120147390Y-115749232D01*
X120043133Y-115608879D01*
X120014081Y-115563537D01*
X119973279Y-115500597D01*
X119938847Y-115453287D01*
X119916806Y-115429717D01*
X119913756Y-115428474D01*
X119905299Y-115446420D01*
X119904952Y-115495868D01*
X119911836Y-115569854D01*
X119925071Y-115661415D01*
X119943779Y-115763586D01*
X119967080Y-115869404D01*
X119971933Y-115889263D01*
X120035640Y-116097155D01*
X120119499Y-116281413D01*
X120229761Y-116455380D01*
X120250225Y-116483090D01*
X120295787Y-116545609D01*
X120329270Y-116595342D01*
X120345697Y-116624716D01*
X120346259Y-116629220D01*
X120320855Y-116629958D01*
X120270237Y-116615348D01*
X120203717Y-116589238D01*
X120130609Y-116555472D01*
X120060224Y-116517896D01*
X120025936Y-116496928D01*
X119888460Y-116394319D01*
X119809922Y-116316852D01*
X119764766Y-116272311D01*
X119649882Y-116125002D01*
X119538837Y-115946493D01*
X119495828Y-115867769D01*
X119454609Y-115795228D01*
X119421221Y-115746502D01*
X119398448Y-115724331D01*
X119389075Y-115731453D01*
X119395439Y-115769013D01*
X119405521Y-115809875D01*
X119420494Y-115875760D01*
X119437258Y-115953004D01*
X119438607Y-115959372D01*
X119504056Y-116185053D01*
X119604234Y-116412603D01*
X119717466Y-116606616D01*
X119750849Y-116657565D01*
X119670646Y-116616648D01*
X119614533Y-116581848D01*
X119545642Y-116530549D01*
X119481371Y-116476046D01*
X119412687Y-116415675D01*
X119367547Y-116384508D01*
X119342067Y-116383320D01*
X119332894Y-116411275D01*
X119332365Y-116412887D01*
X119334557Y-116473983D01*
X119337607Y-116504744D01*
X119342611Y-116581697D01*
X119334863Y-116624270D01*
X119310900Y-116636477D01*
X119267259Y-116622331D01*
X119245645Y-116611336D01*
X119213408Y-116601213D01*
X119190589Y-116614687D01*
X119174271Y-116656641D01*
X119161538Y-116731960D01*
X119158492Y-116757285D01*
X119140604Y-116842941D01*
X119110556Y-116891288D01*
X119067978Y-116902720D01*
X119033043Y-116890346D01*
X118999949Y-116850607D01*
X118980716Y-116774928D01*
X118975376Y-116664370D01*
X118983959Y-116519996D01*
X119006496Y-116342867D01*
X119015464Y-116286625D01*
X119025710Y-116201623D01*
X119027370Y-116129473D01*
X119021179Y-116076865D01*
X119007878Y-116050488D01*
X118989941Y-116055191D01*
X118968977Y-116092921D01*
X118945693Y-116162404D01*
X118921517Y-116256068D01*
X118897875Y-116366343D01*
X118876194Y-116485658D01*
X118857900Y-116606440D01*
X118844420Y-116721119D01*
X118837181Y-116822124D01*
X118836387Y-116870140D01*
X118669427Y-116870140D01*
X118674590Y-116781792D01*
X118688183Y-116662753D01*
X118698757Y-116580898D01*
X118704179Y-116516753D01*
X118703215Y-116460547D01*
X118694631Y-116402509D01*
X118677195Y-116332870D01*
X118649672Y-116241860D01*
X118625376Y-116165319D01*
X118605735Y-116097382D01*
X118580839Y-116001973D01*
X118553434Y-115890304D01*
X118526267Y-115773586D01*
X118502083Y-115663032D01*
X118500496Y-115655443D01*
X118481984Y-115540428D01*
X118466960Y-115394234D01*
X118455731Y-115225057D01*
X118448603Y-115041095D01*
X118445884Y-114850541D01*
X118447881Y-114661593D01*
X118448797Y-114638208D01*
X118566382Y-114638208D01*
X118581524Y-114923135D01*
X118613361Y-115202734D01*
X118660620Y-115463213D01*
X118677518Y-115535183D01*
X118706991Y-115652504D01*
X118728874Y-115736292D01*
X118744704Y-115791446D01*
X118756017Y-115822865D01*
X118764350Y-115835451D01*
X118771234Y-115834105D01*
X118775345Y-115811267D01*
X118779290Y-115755068D01*
X118782821Y-115671651D01*
X118785688Y-115567158D01*
X118787644Y-115447729D01*
X118787907Y-115422275D01*
X118793922Y-115180882D01*
X118807819Y-114969384D01*
X118830611Y-114778771D01*
X118863314Y-114600037D01*
X118895632Y-114465799D01*
X118916438Y-114386792D01*
X118927935Y-114338498D01*
X118930663Y-114313373D01*
X118925163Y-114303875D01*
X118911974Y-114302462D01*
X118907332Y-114302489D01*
X118886325Y-114318584D01*
X118852727Y-114361536D01*
X118812530Y-114423338D01*
X118796472Y-114450622D01*
X118757306Y-114517261D01*
X118725301Y-114568353D01*
X118705480Y-114596016D01*
X118702065Y-114598756D01*
X118698026Y-114580784D01*
X118699576Y-114532867D01*
X118705697Y-114464009D01*
X118715370Y-114383212D01*
X118727577Y-114299477D01*
X118741301Y-114221807D01*
X118748628Y-114187108D01*
X118753558Y-114169076D01*
X119320149Y-114169076D01*
X119332894Y-114191719D01*
X119367228Y-114187712D01*
X119423636Y-114158962D01*
X119461087Y-114135371D01*
X119546806Y-114077810D01*
X119604341Y-114033591D01*
X119639265Y-113995537D01*
X119657149Y-113956473D01*
X119663566Y-113909224D01*
X119664230Y-113873776D01*
X119659471Y-113800683D01*
X119644713Y-113762957D01*
X119636518Y-113757333D01*
X119618990Y-113758367D01*
X119603220Y-113759297D01*
X119551830Y-113776718D01*
X119528851Y-113787489D01*
X119465922Y-113830864D01*
X119420707Y-113893191D01*
X119406559Y-113922188D01*
X119357469Y-114036218D01*
X119328503Y-114117878D01*
X119320149Y-114169076D01*
X118753558Y-114169076D01*
X118787440Y-114045140D01*
X118837314Y-113905343D01*
X118892945Y-113781423D01*
X118933224Y-113710285D01*
X118993161Y-113635644D01*
X118996360Y-113632574D01*
X119546885Y-113632574D01*
X119559116Y-113650604D01*
X119574290Y-113662243D01*
X119618990Y-113688178D01*
X119646617Y-113684405D01*
X119660563Y-113647819D01*
X119664230Y-113579925D01*
X119660790Y-113513570D01*
X119651050Y-113479782D01*
X119643175Y-113476666D01*
X119621142Y-113496920D01*
X119590819Y-113539452D01*
X119579086Y-113558984D01*
X119553341Y-113606357D01*
X119546885Y-113632574D01*
X118996360Y-113632574D01*
X119087488Y-113545121D01*
X119188982Y-113461205D01*
X119863444Y-113461205D01*
X119865096Y-113596570D01*
X119877209Y-113718664D01*
X119892412Y-113790311D01*
X119968331Y-113994161D01*
X120075313Y-114191372D01*
X120208304Y-114376400D01*
X120362247Y-114543699D01*
X120532089Y-114687726D01*
X120712773Y-114802936D01*
X120885041Y-114878991D01*
X120985027Y-114905547D01*
X121093540Y-114921055D01*
X121203737Y-114926136D01*
X121308777Y-114921411D01*
X121401816Y-114907500D01*
X121476012Y-114885023D01*
X121524523Y-114854602D01*
X121540591Y-114819537D01*
X121532828Y-114780232D01*
X121513003Y-114721740D01*
X121497911Y-114685209D01*
X121429931Y-114494061D01*
X121382049Y-114276866D01*
X121355394Y-114042230D01*
X121351100Y-113798756D01*
X121360660Y-113641716D01*
X121373986Y-113519181D01*
X121390194Y-113403014D01*
X121408082Y-113299101D01*
X121426448Y-113213326D01*
X121444088Y-113151575D01*
X121459802Y-113119733D01*
X121467781Y-113117419D01*
X121474974Y-113140071D01*
X121481797Y-113193537D01*
X121487356Y-113269131D01*
X121490145Y-113334681D01*
X121495358Y-113451183D01*
X121503328Y-113532583D01*
X121514886Y-113583237D01*
X121530865Y-113607498D01*
X121543008Y-113611198D01*
X121567726Y-113600984D01*
X121614304Y-113574366D01*
X121665613Y-113541705D01*
X121801854Y-113465518D01*
X121951512Y-113411280D01*
X122125647Y-113375119D01*
X122152200Y-113371334D01*
X122228888Y-113360494D01*
X122288857Y-113351217D01*
X122322732Y-113344986D01*
X122326862Y-113343691D01*
X122323609Y-113323631D01*
X122305734Y-113278328D01*
X122277776Y-113217086D01*
X122244273Y-113149205D01*
X122209762Y-113083989D01*
X122178783Y-113030739D01*
X122162371Y-113006531D01*
X122124256Y-112950913D01*
X122114129Y-112922064D01*
X122130651Y-112920288D01*
X122172484Y-112945887D01*
X122229271Y-112991383D01*
X122276860Y-113028345D01*
X122312438Y-113049057D01*
X122325246Y-113050389D01*
X122325136Y-113024933D01*
X122306141Y-112975392D01*
X122272739Y-112909535D01*
X122229405Y-112835133D01*
X122180614Y-112759956D01*
X122130843Y-112691773D01*
X122092896Y-112647023D01*
X122066619Y-112612411D01*
X122060956Y-112590599D01*
X122061509Y-112589917D01*
X122082470Y-112594411D01*
X122122564Y-112620819D01*
X122173795Y-112662343D01*
X122228166Y-112712182D01*
X122277684Y-112763538D01*
X122305958Y-112797792D01*
X122364282Y-112870637D01*
X122404240Y-112909284D01*
X122425479Y-112914690D01*
X122427648Y-112887812D01*
X122410397Y-112829607D01*
X122373373Y-112741033D01*
X122347209Y-112685393D01*
X122278435Y-112572269D01*
X122187025Y-112462916D01*
X122083498Y-112368087D01*
X121978371Y-112298534D01*
X121959879Y-112289431D01*
X121895839Y-112255258D01*
X121863690Y-112225082D01*
X121856609Y-112200008D01*
X121845410Y-112151965D01*
X121825863Y-112114504D01*
X121781042Y-112077486D01*
X121726004Y-112075364D01*
X121663820Y-112105835D01*
X121597562Y-112166595D01*
X121530304Y-112255341D01*
X121465117Y-112369769D01*
X121453474Y-112393687D01*
X121410883Y-112491864D01*
X121391548Y-112536433D01*
X121329690Y-112700670D01*
X121274055Y-112868861D01*
X121230801Y-113023466D01*
X121227176Y-113038414D01*
X121195338Y-113177371D01*
X121186443Y-113222244D01*
X121171891Y-113295656D01*
X121155582Y-113404483D01*
X121145159Y-113515064D01*
X121139368Y-113638610D01*
X121136956Y-113786336D01*
X121136671Y-113848212D01*
X121137890Y-114020569D01*
X121143399Y-114161348D01*
X121154519Y-114278363D01*
X121172573Y-114379427D01*
X121198883Y-114472353D01*
X121234772Y-114564953D01*
X121271403Y-114644327D01*
X121335595Y-114776517D01*
X121285021Y-114776303D01*
X121191270Y-114763082D01*
X121173322Y-114757435D01*
X121076164Y-114726864D01*
X120947053Y-114671790D01*
X120811285Y-114602003D01*
X120676208Y-114521646D01*
X120634381Y-114493071D01*
X120549172Y-114434860D01*
X120437524Y-114345789D01*
X120348613Y-114258574D01*
X120332089Y-114239134D01*
X120197130Y-114050473D01*
X120092949Y-113855271D01*
X120069205Y-113789572D01*
X120309640Y-113789572D01*
X120315907Y-113846966D01*
X120333045Y-113899897D01*
X120365126Y-113964511D01*
X120381465Y-113994371D01*
X120441330Y-114099356D01*
X120489159Y-114173557D01*
X120529656Y-114221967D01*
X120567523Y-114249584D01*
X120607464Y-114261401D01*
X120634381Y-114262986D01*
X120683002Y-114260266D01*
X120709439Y-114253496D01*
X120711042Y-114251075D01*
X120698834Y-114231309D01*
X120666991Y-114191532D01*
X120627099Y-114145651D01*
X120544262Y-114037830D01*
X120480473Y-113923488D01*
X120460089Y-113864984D01*
X120584500Y-113864984D01*
X120589844Y-113891237D01*
X120619991Y-113939445D01*
X120670907Y-114004562D01*
X120738561Y-114081546D01*
X120818920Y-114165350D01*
X120846179Y-114192315D01*
X120899397Y-114247162D01*
X120937906Y-114292432D01*
X120955711Y-114320833D01*
X120955832Y-114325636D01*
X120932292Y-114334099D01*
X120880875Y-114340008D01*
X120819673Y-114341991D01*
X120752752Y-114344645D01*
X120702922Y-114351569D01*
X120682349Y-114360230D01*
X120689611Y-114383707D01*
X120725920Y-114421525D01*
X120785563Y-114469257D01*
X120862828Y-114522481D01*
X120952001Y-114576771D01*
X120987558Y-114596617D01*
X121077992Y-114643694D01*
X121138823Y-114669969D01*
X121173322Y-114676544D01*
X121184762Y-114664519D01*
X121184782Y-114662947D01*
X121178571Y-114636917D01*
X121163147Y-114587777D01*
X121153421Y-114559254D01*
X121111815Y-114432685D01*
X121081357Y-114318866D01*
X121067148Y-114243426D01*
X121060184Y-114206452D01*
X121046433Y-114084101D01*
X121038241Y-113940469D01*
X121035224Y-113839539D01*
X121031824Y-113728314D01*
X121027282Y-113631090D01*
X121022040Y-113554649D01*
X121016541Y-113505770D01*
X121012462Y-113491226D01*
X120986002Y-113482873D01*
X120933291Y-113475553D01*
X120885176Y-113471509D01*
X120865930Y-113469891D01*
X120795522Y-113466516D01*
X120733667Y-113466056D01*
X120691968Y-113469139D01*
X120681194Y-113473297D01*
X120687004Y-113495221D01*
X120709824Y-113542493D01*
X120745567Y-113607067D01*
X120770716Y-113649458D01*
X120813115Y-113720905D01*
X120846333Y-113780006D01*
X120865825Y-113818504D01*
X120869051Y-113828049D01*
X120851451Y-113842726D01*
X120807232Y-113854666D01*
X120749269Y-113862041D01*
X120690434Y-113863020D01*
X120654098Y-113858595D01*
X120609549Y-113855259D01*
X120584500Y-113864984D01*
X120460089Y-113864984D01*
X120442889Y-113815616D01*
X120441453Y-113808781D01*
X120435044Y-113765370D01*
X120444335Y-113750624D01*
X120475524Y-113754868D01*
X120475915Y-113754961D01*
X120536244Y-113766705D01*
X120604683Y-113776206D01*
X120670261Y-113782485D01*
X120722005Y-113784564D01*
X120748940Y-113781464D01*
X120750544Y-113779449D01*
X120740391Y-113757933D01*
X120713037Y-113711270D01*
X120673142Y-113647216D01*
X120642743Y-113600007D01*
X120534942Y-113434625D01*
X120453174Y-113471233D01*
X120386609Y-113504362D01*
X120345243Y-113538042D01*
X120322773Y-113582870D01*
X120312892Y-113649444D01*
X120310174Y-113711566D01*
X120309640Y-113789572D01*
X120069205Y-113789572D01*
X120022050Y-113659092D01*
X119987402Y-113472684D01*
X119976395Y-113354258D01*
X120704433Y-113354258D01*
X120732134Y-113365069D01*
X120785135Y-113376412D01*
X120824611Y-113382286D01*
X120885176Y-113388325D01*
X120916177Y-113385413D01*
X120926939Y-113371540D01*
X120927647Y-113360051D01*
X120915017Y-113319461D01*
X120889917Y-113280366D01*
X120858742Y-113248410D01*
X120838123Y-113235926D01*
X120810204Y-113247113D01*
X120772030Y-113274239D01*
X120734507Y-113307652D01*
X120708541Y-113337697D01*
X120704433Y-113354258D01*
X119976395Y-113354258D01*
X119974576Y-113334681D01*
X120118479Y-113334681D01*
X120241957Y-113326180D01*
X120364658Y-113303503D01*
X120392894Y-113295763D01*
X120468808Y-113268781D01*
X120549934Y-113233010D01*
X120627164Y-113193351D01*
X120691389Y-113154703D01*
X120733500Y-113121968D01*
X120744585Y-113106559D01*
X120735089Y-113083399D01*
X120703999Y-113040248D01*
X120657399Y-112985300D01*
X120642448Y-112968970D01*
X120605397Y-112926893D01*
X120796227Y-112926893D01*
X120804608Y-112944079D01*
X120833725Y-112982217D01*
X120876910Y-113033807D01*
X120927495Y-113091349D01*
X120978814Y-113147346D01*
X121024199Y-113194296D01*
X121056982Y-113224701D01*
X121067148Y-113231621D01*
X121082178Y-113219764D01*
X121098239Y-113181212D01*
X121111745Y-113128503D01*
X121119114Y-113074173D01*
X121119314Y-113049156D01*
X121115412Y-113019600D01*
X121102495Y-112999306D01*
X121072542Y-112983368D01*
X121017530Y-112966876D01*
X120962003Y-112952911D01*
X120888852Y-112936634D01*
X120831281Y-112927025D01*
X120799229Y-112925642D01*
X120796227Y-112926893D01*
X120605397Y-112926893D01*
X120588416Y-112907608D01*
X120561224Y-112864917D01*
X120563332Y-112838193D01*
X120597199Y-112824735D01*
X120665283Y-112821840D01*
X120770045Y-112826805D01*
X120771703Y-112826912D01*
X120944650Y-112838116D01*
X120993036Y-112765001D01*
X121080917Y-112612675D01*
X121140971Y-112459821D01*
X121153662Y-112415400D01*
X121184874Y-112297745D01*
X121039329Y-112154549D01*
X120972391Y-112089769D01*
X120924704Y-112048159D01*
X120887925Y-112024624D01*
X120853711Y-112014066D01*
X120813719Y-112011391D01*
X120804896Y-112011353D01*
X120726350Y-112018522D01*
X120646563Y-112036197D01*
X120633414Y-112040494D01*
X120569976Y-112067988D01*
X120506014Y-112103865D01*
X120450657Y-112141867D01*
X120413034Y-112175738D01*
X120402196Y-112198989D01*
X120424075Y-112208792D01*
X120475440Y-112213029D01*
X120529776Y-112211834D01*
X120651094Y-112204928D01*
X120422836Y-112434035D01*
X120345514Y-112510808D01*
X120277622Y-112576641D01*
X120224112Y-112626857D01*
X120189937Y-112656776D01*
X120180243Y-112663142D01*
X120155215Y-112650888D01*
X120143536Y-112640768D01*
X120108084Y-112626464D01*
X120074213Y-112644825D01*
X120053925Y-112686208D01*
X120042815Y-112724981D01*
X120022044Y-112789651D01*
X119995286Y-112868931D01*
X119982415Y-112905952D01*
X119950348Y-113002445D01*
X119919657Y-113103494D01*
X119895876Y-113190664D01*
X119891601Y-113208383D01*
X119872272Y-113326999D01*
X119863444Y-113461205D01*
X119188982Y-113461205D01*
X119216609Y-113438363D01*
X119380928Y-113315016D01*
X119407465Y-113295902D01*
X119502843Y-113223838D01*
X119576801Y-113160376D01*
X119625306Y-113109321D01*
X119644327Y-113074475D01*
X119644455Y-113072359D01*
X119627403Y-113054094D01*
X119581729Y-113048814D01*
X119515771Y-113055566D01*
X119437868Y-113073396D01*
X119356359Y-113101349D01*
X119343273Y-113106811D01*
X119314149Y-113110162D01*
X119308709Y-113098956D01*
X119325401Y-113080600D01*
X119369756Y-113051892D01*
X119433195Y-113018196D01*
X119453612Y-113008409D01*
X119558284Y-112956842D01*
X119630023Y-112914468D01*
X119673218Y-112877533D01*
X119692258Y-112842282D01*
X119691529Y-112804962D01*
X119691513Y-112804893D01*
X119672665Y-112749024D01*
X119646099Y-112692769D01*
X119599794Y-112641163D01*
X119537541Y-112624067D01*
X119458772Y-112641610D01*
X119362920Y-112693924D01*
X119249416Y-112781140D01*
X119244518Y-112785342D01*
X119190922Y-112829359D01*
X119150954Y-112858138D01*
X119131701Y-112866688D01*
X119130948Y-112865284D01*
X119142195Y-112839629D01*
X119172112Y-112791119D01*
X119214966Y-112727963D01*
X119265024Y-112658368D01*
X119316552Y-112590543D01*
X119360859Y-112536142D01*
X119403642Y-112479149D01*
X119783638Y-112479149D01*
X119791176Y-112518386D01*
X119809922Y-112535883D01*
X119833757Y-112524625D01*
X119853932Y-112492856D01*
X119861742Y-112451888D01*
X119854899Y-112420707D01*
X119853804Y-112415718D01*
X119827404Y-112410093D01*
X119795187Y-112433682D01*
X119783638Y-112479149D01*
X119403642Y-112479149D01*
X119405589Y-112476555D01*
X119426059Y-112432612D01*
X119420505Y-112409059D01*
X119409065Y-112406377D01*
X119384755Y-112421149D01*
X119342067Y-112461360D01*
X119286332Y-112520853D01*
X119222880Y-112593469D01*
X119157040Y-112673051D01*
X119094143Y-112753442D01*
X119039520Y-112828483D01*
X119024381Y-112850778D01*
X118871795Y-113112703D01*
X118750691Y-113392438D01*
X118660360Y-113692328D01*
X118600098Y-114014719D01*
X118569206Y-114361742D01*
X118566382Y-114638208D01*
X118448797Y-114638208D01*
X118454900Y-114482445D01*
X118455906Y-114465122D01*
X118488843Y-114108840D01*
X118544153Y-113781724D01*
X118623597Y-113479242D01*
X118728936Y-113196860D01*
X118861931Y-112930047D01*
X119024342Y-112674269D01*
X119217931Y-112424996D01*
X119273376Y-112360932D01*
X119350285Y-112281366D01*
X119359125Y-112273603D01*
X119767154Y-112273603D01*
X119801203Y-112312257D01*
X119806883Y-112316376D01*
X119854899Y-112343176D01*
X119886503Y-112340528D01*
X119906150Y-112305121D01*
X119918296Y-112233643D01*
X119918305Y-112233554D01*
X119903697Y-112214785D01*
X119873233Y-112208865D01*
X119805875Y-112217520D01*
X119769613Y-112240562D01*
X119767154Y-112273603D01*
X119359125Y-112273603D01*
X119431285Y-112210238D01*
X119509573Y-112152367D01*
X119578350Y-112112573D01*
X119630811Y-112095677D01*
X119646405Y-112096585D01*
X119686178Y-112095158D01*
X119750254Y-112080797D01*
X119827020Y-112057016D01*
X119904863Y-112027325D01*
X119960001Y-112001734D01*
X119993374Y-111971808D01*
X120035839Y-111910774D01*
X120088946Y-111816231D01*
X120124408Y-111746755D01*
X120163732Y-111672329D01*
X120775011Y-111672329D01*
X120778264Y-111698451D01*
X120802013Y-111753334D01*
X120834437Y-111817122D01*
X120890129Y-111906209D01*
X120962782Y-111987912D01*
X121036443Y-112053257D01*
X121110894Y-112111474D01*
X121160220Y-112142189D01*
X121186443Y-112146594D01*
X121189773Y-112143506D01*
X121197573Y-112104415D01*
X121192639Y-112037732D01*
X121176217Y-111952810D01*
X121153419Y-111870937D01*
X121124590Y-111805722D01*
X121284768Y-111805722D01*
X121300744Y-111863352D01*
X121333026Y-111943233D01*
X121364566Y-112013860D01*
X121391178Y-112069954D01*
X121408299Y-112102006D01*
X121410883Y-112105492D01*
X121429274Y-112100111D01*
X121459268Y-112073029D01*
X121490888Y-112035634D01*
X121514157Y-111999312D01*
X121520129Y-111980797D01*
X121507160Y-111956472D01*
X121473234Y-111917018D01*
X121446773Y-111890851D01*
X121370544Y-111823070D01*
X121318747Y-111786005D01*
X121290462Y-111780081D01*
X121284768Y-111805722D01*
X121124590Y-111805722D01*
X121122165Y-111800236D01*
X121076477Y-111726395D01*
X121054365Y-111697975D01*
X121003391Y-111646754D01*
X120942101Y-111596981D01*
X120880035Y-111555062D01*
X120826737Y-111527405D01*
X120791749Y-111520417D01*
X120790478Y-111520782D01*
X120789351Y-111539152D01*
X120807316Y-111579489D01*
X120829644Y-111616330D01*
X120869909Y-111680542D01*
X120885393Y-111715530D01*
X120876094Y-111722835D01*
X120842011Y-111703997D01*
X120829549Y-111695335D01*
X120792142Y-111672210D01*
X120775011Y-111672329D01*
X120163732Y-111672329D01*
X120175729Y-111649624D01*
X120229326Y-111558301D01*
X120278867Y-111483044D01*
X120316080Y-111436122D01*
X120393883Y-111354333D01*
X120517898Y-111367655D01*
G37*
G36*
X117224940Y-115675457D02*
G01*
X117261667Y-115709537D01*
X117285739Y-115743085D01*
X117300930Y-115766616D01*
X117314625Y-115785862D01*
X117330937Y-115802267D01*
X117353975Y-115817275D01*
X117387851Y-115832330D01*
X117436676Y-115848876D01*
X117504560Y-115868356D01*
X117595615Y-115892215D01*
X117713951Y-115921897D01*
X117863678Y-115958844D01*
X117985381Y-115988821D01*
X118489036Y-116113020D01*
X118494689Y-116303944D01*
X118497416Y-116386947D01*
X118495992Y-116443805D01*
X118484629Y-116477543D01*
X118457541Y-116491188D01*
X118408940Y-116487764D01*
X118333039Y-116470297D01*
X118228679Y-116443012D01*
X118142164Y-116422432D01*
X118067743Y-116408148D01*
X118014971Y-116401802D01*
X117995848Y-116403028D01*
X117979212Y-116416938D01*
X117970055Y-116448119D01*
X117966935Y-116504758D01*
X117967558Y-116563475D01*
X117971986Y-116637502D01*
X117980506Y-116696207D01*
X117991391Y-116728289D01*
X117993002Y-116730010D01*
X118021247Y-116742882D01*
X118077649Y-116761494D01*
X118151906Y-116782559D01*
X118182892Y-116790582D01*
X118269913Y-116812596D01*
X118351659Y-116833420D01*
X118413553Y-116849336D01*
X118424844Y-116852277D01*
X118498911Y-116871663D01*
X118498911Y-117055246D01*
X118497802Y-117136515D01*
X118494828Y-117201905D01*
X118490519Y-117242039D01*
X118487931Y-117249808D01*
X118463368Y-117252482D01*
X118418360Y-117244216D01*
X118413864Y-117242982D01*
X118378978Y-117233838D01*
X118311132Y-117216674D01*
X118215746Y-117192837D01*
X118098236Y-117163676D01*
X117964019Y-117130538D01*
X117818514Y-117094769D01*
X117777994Y-117084835D01*
X117632059Y-117048765D01*
X117497517Y-117014910D01*
X117379461Y-116984601D01*
X117282984Y-116959166D01*
X117213177Y-116939934D01*
X117175134Y-116928233D01*
X117170645Y-116926373D01*
X117153596Y-116911309D01*
X117143134Y-116882534D01*
X117137793Y-116831918D01*
X117136109Y-116751329D01*
X117136081Y-116734479D01*
X117137179Y-116655596D01*
X117140114Y-116592865D01*
X117144346Y-116555918D01*
X117146398Y-116550388D01*
X117168464Y-116550809D01*
X117220982Y-116559550D01*
X117296139Y-116575121D01*
X117386122Y-116596031D01*
X117387938Y-116596474D01*
X117480070Y-116618447D01*
X117559338Y-116636418D01*
X117617217Y-116648519D01*
X117645030Y-116652877D01*
X117657793Y-116643185D01*
X117664778Y-116610207D01*
X117666669Y-116548094D01*
X117665193Y-116480055D01*
X117659487Y-116307232D01*
X117414822Y-116244278D01*
X117320981Y-116219151D01*
X117240887Y-116195862D01*
X117182441Y-116176841D01*
X117153542Y-116164516D01*
X117152463Y-116163630D01*
X117146006Y-116137965D01*
X117141576Y-116081266D01*
X117139577Y-116001971D01*
X117140363Y-115910566D01*
X117143103Y-115810907D01*
X117146616Y-115743976D01*
X117152274Y-115703004D01*
X117161448Y-115681221D01*
X117175509Y-115671859D01*
X117189302Y-115669027D01*
X117224940Y-115675457D01*
G37*
G36*
X117173143Y-119276109D02*
G01*
X117228743Y-119287115D01*
X117312753Y-119305577D01*
X117420233Y-119330373D01*
X117546239Y-119360380D01*
X117685832Y-119394478D01*
X117718740Y-119402631D01*
X117885738Y-119444273D01*
X118019200Y-119478517D01*
X118123928Y-119507483D01*
X118204722Y-119533292D01*
X118266385Y-119558065D01*
X118313718Y-119583924D01*
X118351523Y-119612989D01*
X118384601Y-119647382D01*
X118417755Y-119689224D01*
X118442201Y-119722209D01*
X118498911Y-119799240D01*
X118498911Y-120141299D01*
X118498911Y-120483358D01*
X118394519Y-120558048D01*
X118319353Y-120611228D01*
X118266542Y-120644390D01*
X118226214Y-120660355D01*
X118188496Y-120661948D01*
X118143514Y-120651991D01*
X118105651Y-120640645D01*
X118048096Y-120624329D01*
X117961637Y-120601378D01*
X117855810Y-120574253D01*
X117740152Y-120545414D01*
X117674351Y-120529362D01*
X117555781Y-120501003D01*
X117469602Y-120481559D01*
X117409901Y-120470275D01*
X117370770Y-120466395D01*
X117346298Y-120469164D01*
X117330574Y-120477827D01*
X117323768Y-120484547D01*
X117299928Y-120518205D01*
X117293992Y-120535537D01*
X117282557Y-120561589D01*
X117254430Y-120602825D01*
X117246949Y-120612405D01*
X117213666Y-120649160D01*
X117190207Y-120657439D01*
X117168043Y-120644551D01*
X117155332Y-120628268D01*
X117146410Y-120599884D01*
X117140658Y-120553218D01*
X117137456Y-120482092D01*
X117136187Y-120380326D01*
X117136081Y-120325342D01*
X117137138Y-120221881D01*
X117140048Y-120133070D01*
X117144418Y-120066101D01*
X117149858Y-120028164D01*
X117152585Y-120022458D01*
X117175518Y-120024269D01*
X117231370Y-120034714D01*
X117314796Y-120052611D01*
X117420451Y-120076780D01*
X117542991Y-120106038D01*
X117650073Y-120132436D01*
X118131058Y-120252613D01*
X118168909Y-120205869D01*
X118193676Y-120148889D01*
X118199518Y-120074440D01*
X118187515Y-119999116D01*
X118158741Y-119939514D01*
X118151069Y-119930940D01*
X118115834Y-119911743D01*
X118042121Y-119885563D01*
X117930310Y-119852518D01*
X117780782Y-119812721D01*
X117659487Y-119782288D01*
X117529551Y-119749906D01*
X117411157Y-119719640D01*
X117310140Y-119693044D01*
X117232334Y-119671672D01*
X117183571Y-119657074D01*
X117170645Y-119652194D01*
X117153686Y-119637152D01*
X117143239Y-119608524D01*
X117137863Y-119558223D01*
X117136120Y-119478159D01*
X117136081Y-119458014D01*
X117137635Y-119378919D01*
X117141794Y-119316214D01*
X117147798Y-119279335D01*
X117150894Y-119273681D01*
X117173143Y-119276109D01*
G37*
G36*
X118477642Y-112725344D02*
G01*
X118488094Y-112738519D01*
X118494437Y-112768410D01*
X118497674Y-112821508D01*
X118498814Y-112904304D01*
X118498911Y-112960029D01*
X118497562Y-113070582D01*
X118493244Y-113145791D01*
X118485547Y-113189728D01*
X118474222Y-113206415D01*
X118442160Y-113211990D01*
X118384610Y-113217398D01*
X118331026Y-113220609D01*
X118212519Y-113226050D01*
X118208294Y-113472940D01*
X118206915Y-113593506D01*
X118208094Y-113678461D01*
X118212640Y-113731656D01*
X118221358Y-113756944D01*
X118235057Y-113758176D01*
X118254544Y-113739204D01*
X118262072Y-113729576D01*
X118299299Y-113680327D01*
X118369772Y-113718160D01*
X118419543Y-113753738D01*
X118431706Y-113786242D01*
X118431436Y-113787289D01*
X118423180Y-113822839D01*
X118410870Y-113882672D01*
X118400349Y-113937092D01*
X118387233Y-114004139D01*
X118376008Y-114056782D01*
X118370294Y-114079474D01*
X118352537Y-114075159D01*
X118306237Y-114052501D01*
X118236162Y-114014385D01*
X118147085Y-113963695D01*
X118043774Y-113903317D01*
X117934200Y-113838042D01*
X117930999Y-113836135D01*
X117813532Y-113765034D01*
X117696141Y-113692899D01*
X117583598Y-113622615D01*
X117480671Y-113557067D01*
X117392132Y-113499140D01*
X117322750Y-113451718D01*
X117280919Y-113420639D01*
X117204033Y-113339428D01*
X117169688Y-113266891D01*
X117616190Y-113266891D01*
X117629748Y-113282497D01*
X117669223Y-113310765D01*
X117725401Y-113346299D01*
X117789066Y-113383700D01*
X117851003Y-113417569D01*
X117901999Y-113442508D01*
X117932839Y-113453120D01*
X117934200Y-113453188D01*
X117940577Y-113435314D01*
X117944819Y-113389179D01*
X117945878Y-113343758D01*
X117945878Y-113234328D01*
X117784521Y-113240065D01*
X117706164Y-113245256D01*
X117647735Y-113253825D01*
X117618025Y-113264370D01*
X117616190Y-113266891D01*
X117169688Y-113266891D01*
X117157594Y-113241348D01*
X117139456Y-113120865D01*
X117139965Y-113057610D01*
X117145956Y-112930011D01*
X117244712Y-112916359D01*
X117294165Y-112910750D01*
X117375436Y-112902943D01*
X117480942Y-112893604D01*
X117603102Y-112883399D01*
X117734335Y-112872992D01*
X117768118Y-112870403D01*
X117927447Y-112857900D01*
X118052563Y-112846884D01*
X118148680Y-112836434D01*
X118221016Y-112825628D01*
X118274784Y-112813546D01*
X118315202Y-112799266D01*
X118347483Y-112781867D01*
X118372882Y-112763575D01*
X118419922Y-112734842D01*
X118461113Y-112722409D01*
X118462072Y-112722395D01*
X118477642Y-112725344D01*
G37*
G36*
X118498911Y-117498329D02*
G01*
X118498911Y-117697959D01*
X118355715Y-117703762D01*
X118212519Y-117709565D01*
X118207024Y-117981143D01*
X118205709Y-118099812D01*
X118207940Y-118182108D01*
X118214615Y-118231073D01*
X118226628Y-118249748D01*
X118244878Y-118241174D01*
X118270259Y-118208392D01*
X118272851Y-118204470D01*
X118304467Y-118156219D01*
X118401689Y-118216040D01*
X118498911Y-118275861D01*
X118498911Y-118461803D01*
X118497182Y-118542030D01*
X118492538Y-118604865D01*
X118485791Y-118641692D01*
X118481354Y-118647745D01*
X118460685Y-118637780D01*
X118411324Y-118609847D01*
X118338093Y-118566886D01*
X118245815Y-118511838D01*
X118139312Y-118447645D01*
X118023405Y-118377248D01*
X117910234Y-118308061D01*
X117902917Y-118303588D01*
X117782671Y-118229606D01*
X117667488Y-118158243D01*
X117562191Y-118092441D01*
X117471602Y-118035141D01*
X117400543Y-117989284D01*
X117385583Y-117979413D01*
X117282816Y-117903492D01*
X117212230Y-117830118D01*
X117168416Y-117750714D01*
X117611615Y-117750714D01*
X117621665Y-117772291D01*
X117666723Y-117802922D01*
X117733553Y-117838417D01*
X117798064Y-117872115D01*
X117849066Y-117900888D01*
X117875635Y-117918568D01*
X117875762Y-117918689D01*
X117910234Y-117939459D01*
X117932940Y-117923631D01*
X117944305Y-117870642D01*
X117945878Y-117826299D01*
X117945878Y-117715895D01*
X117802682Y-117721425D01*
X117701008Y-117727170D01*
X117637691Y-117736304D01*
X117611615Y-117750714D01*
X117168416Y-117750714D01*
X117168212Y-117750344D01*
X117145152Y-117655221D01*
X117138998Y-117586196D01*
X117137707Y-117512680D01*
X117141156Y-117454455D01*
X117148603Y-117422843D01*
X117149801Y-117421303D01*
X117175528Y-117412898D01*
X117232452Y-117403226D01*
X117312339Y-117393444D01*
X117406958Y-117384711D01*
X117413749Y-117384182D01*
X117538613Y-117374259D01*
X117678002Y-117362688D01*
X117811630Y-117351172D01*
X117886625Y-117344448D01*
X118003847Y-117334215D01*
X118131807Y-117323863D01*
X118250939Y-117314943D01*
X118306337Y-117311162D01*
X118498911Y-117298699D01*
X118498911Y-117498329D01*
G37*
G36*
X117173420Y-113551790D02*
G01*
X117221757Y-113571906D01*
X117288060Y-113605855D01*
X117344135Y-113637793D01*
X117413721Y-113679014D01*
X117509584Y-113735773D01*
X117623999Y-113803496D01*
X117749244Y-113877613D01*
X117877593Y-113953552D01*
X117931065Y-113985184D01*
X118340902Y-114227616D01*
X118337096Y-114378621D01*
X118334119Y-114474317D01*
X118330110Y-114574819D01*
X118326331Y-114651041D01*
X118324550Y-114693904D01*
X118321551Y-114726488D01*
X118312484Y-114750729D01*
X118292498Y-114768564D01*
X118256745Y-114781927D01*
X118200372Y-114792757D01*
X118118531Y-114802988D01*
X118006371Y-114814558D01*
X117886625Y-114826580D01*
X117727348Y-114842614D01*
X117602620Y-114855288D01*
X117507758Y-114865868D01*
X117438080Y-114875618D01*
X117388903Y-114885803D01*
X117355546Y-114897687D01*
X117333326Y-114912536D01*
X117317560Y-114931614D01*
X117303567Y-114956186D01*
X117286664Y-114987516D01*
X117285910Y-114988842D01*
X117240401Y-115055217D01*
X117199700Y-115088758D01*
X117166799Y-115087895D01*
X117148069Y-115061293D01*
X117140863Y-115022257D01*
X117136487Y-114956494D01*
X117134735Y-114873081D01*
X117135399Y-114781096D01*
X117138271Y-114689614D01*
X117143145Y-114607712D01*
X117149814Y-114544467D01*
X117158069Y-114508956D01*
X117160770Y-114505110D01*
X117188514Y-114497325D01*
X117247983Y-114489170D01*
X117331417Y-114481448D01*
X117431057Y-114474959D01*
X117471850Y-114472971D01*
X117641352Y-114464375D01*
X117776635Y-114455136D01*
X117876430Y-114445382D01*
X117939466Y-114435242D01*
X117964472Y-114424844D01*
X117964860Y-114423182D01*
X117948118Y-114410618D01*
X117901528Y-114381836D01*
X117829873Y-114339626D01*
X117737931Y-114286778D01*
X117630486Y-114226083D01*
X117555023Y-114183982D01*
X117145956Y-113956843D01*
X117140265Y-113761073D01*
X117139394Y-113676350D01*
X117141652Y-113606564D01*
X117146575Y-113561049D01*
X117150808Y-113549068D01*
X117173420Y-113551790D01*
G37*
G36*
X118489741Y-111713943D02*
G01*
X118493199Y-111765217D01*
X118495764Y-111842330D01*
X118497449Y-111938457D01*
X118498265Y-112046772D01*
X118498224Y-112160448D01*
X118497340Y-112272660D01*
X118495624Y-112376582D01*
X118493089Y-112465387D01*
X118489747Y-112532250D01*
X118485610Y-112570344D01*
X118483795Y-112575912D01*
X118453807Y-112604976D01*
X118401809Y-112642862D01*
X118339437Y-112682443D01*
X118278328Y-112716592D01*
X118230119Y-112738184D01*
X118212364Y-112742146D01*
X118181588Y-112737486D01*
X118118981Y-112724480D01*
X118030982Y-112704591D01*
X117924026Y-112679284D01*
X117804548Y-112650021D01*
X117777994Y-112643391D01*
X117658095Y-112613610D01*
X117550724Y-112587430D01*
X117461958Y-112566292D01*
X117397873Y-112551638D01*
X117364547Y-112544910D01*
X117361805Y-112544635D01*
X117340907Y-112560785D01*
X117311722Y-112602050D01*
X117293948Y-112633792D01*
X117252453Y-112706846D01*
X117219000Y-112745921D01*
X117189363Y-112754587D01*
X117165707Y-112742146D01*
X117152731Y-112712451D01*
X117142992Y-112653211D01*
X117136475Y-112572847D01*
X117133164Y-112479777D01*
X117133044Y-112382421D01*
X117136101Y-112289200D01*
X117142318Y-112208532D01*
X117151680Y-112148837D01*
X117164172Y-112118535D01*
X117166842Y-112116816D01*
X117193989Y-112118096D01*
X117253702Y-112128027D01*
X117340290Y-112145425D01*
X117448060Y-112169106D01*
X117571321Y-112197885D01*
X117658494Y-112219121D01*
X117788933Y-112250610D01*
X117907708Y-112277753D01*
X118009113Y-112299370D01*
X118087441Y-112314280D01*
X118136984Y-112321303D01*
X118151138Y-112321046D01*
X118165541Y-112309388D01*
X118174960Y-112283044D01*
X118180374Y-112235139D01*
X118182761Y-112158795D01*
X118183148Y-112095916D01*
X118183403Y-111882971D01*
X118327623Y-111789153D01*
X118393971Y-111746940D01*
X118447607Y-111714579D01*
X118480132Y-111697065D01*
X118485377Y-111695335D01*
X118489741Y-111713943D01*
G37*
G36*
X117452099Y-109858070D02*
G01*
X117452099Y-110175473D01*
X117506415Y-110196392D01*
X117565258Y-110213486D01*
X117610109Y-110220592D01*
X117659487Y-110223873D01*
X117665093Y-110011548D01*
X117667876Y-109912926D01*
X117673641Y-109848467D01*
X117687814Y-109812910D01*
X117715820Y-109800991D01*
X117763085Y-109807448D01*
X117835035Y-109827017D01*
X117850765Y-109831452D01*
X117965630Y-109863682D01*
X117965630Y-110075923D01*
X117967152Y-110182395D01*
X117973753Y-110255261D01*
X117988481Y-110300366D01*
X118014386Y-110323557D01*
X118054517Y-110330677D01*
X118097572Y-110328841D01*
X118173017Y-110322629D01*
X118182892Y-109957232D01*
X118186812Y-109827100D01*
X118190870Y-109731602D01*
X118195603Y-109665872D01*
X118201549Y-109625045D01*
X118209243Y-109604253D01*
X118219223Y-109598633D01*
X118222395Y-109599089D01*
X118256335Y-109607456D01*
X118315000Y-109621969D01*
X118375466Y-109636952D01*
X118498911Y-109667563D01*
X118498911Y-110128292D01*
X118498911Y-110589022D01*
X118414969Y-110650166D01*
X118352202Y-110695562D01*
X118302751Y-110727143D01*
X118258350Y-110745725D01*
X118210728Y-110752124D01*
X118151618Y-110747158D01*
X118072752Y-110731644D01*
X117965862Y-110706398D01*
X117930981Y-110697985D01*
X117818473Y-110670706D01*
X117709833Y-110644042D01*
X117615437Y-110620560D01*
X117545663Y-110602830D01*
X117529808Y-110598679D01*
X117443371Y-110577563D01*
X117385150Y-110571045D01*
X117345690Y-110581846D01*
X117315534Y-110612688D01*
X117285223Y-110666291D01*
X117283582Y-110669521D01*
X117250341Y-110728446D01*
X117223069Y-110757470D01*
X117194443Y-110763895D01*
X117189432Y-110763339D01*
X117145956Y-110757154D01*
X117145956Y-110185239D01*
X117145956Y-109613324D01*
X117224961Y-109590675D01*
X117297926Y-109571755D01*
X117371050Y-109555669D01*
X117378032Y-109554347D01*
X117452099Y-109540668D01*
X117452099Y-109858070D01*
G37*
G36*
X118486146Y-110727257D02*
G01*
X118491825Y-110784673D01*
X118495889Y-110878485D01*
X118498267Y-111007152D01*
X118498911Y-111142178D01*
X118498911Y-111576580D01*
X118414969Y-111638077D01*
X118359978Y-111678305D01*
X118314948Y-111708160D01*
X118273550Y-111727836D01*
X118229453Y-111737529D01*
X118176328Y-111737436D01*
X118107845Y-111727752D01*
X118017674Y-111708673D01*
X117899486Y-111680395D01*
X117803865Y-111656985D01*
X117681238Y-111627311D01*
X117570696Y-111601143D01*
X117478312Y-111579869D01*
X117410156Y-111564881D01*
X117372299Y-111557568D01*
X117367540Y-111557076D01*
X117343748Y-111573189D01*
X117311037Y-111614827D01*
X117285505Y-111656964D01*
X117249614Y-111716136D01*
X117220485Y-111745215D01*
X117190998Y-111751088D01*
X117188548Y-111750782D01*
X117172346Y-111746841D01*
X117160732Y-111736433D01*
X117152788Y-111713637D01*
X117147601Y-111672537D01*
X117144253Y-111607214D01*
X117141830Y-111511749D01*
X117140486Y-111440090D01*
X117139576Y-111333920D01*
X117140671Y-111241752D01*
X117143537Y-111170790D01*
X117147940Y-111128237D01*
X117150862Y-111119620D01*
X117178609Y-111114112D01*
X117226285Y-111121106D01*
X117235337Y-111123541D01*
X117274855Y-111134009D01*
X117345944Y-111151929D01*
X117441749Y-111175610D01*
X117555410Y-111203361D01*
X117680073Y-111233490D01*
X117716035Y-111242126D01*
X117860725Y-111276189D01*
X117971421Y-111300648D01*
X118052260Y-111316217D01*
X118107379Y-111323613D01*
X118140914Y-111323554D01*
X118155499Y-111318209D01*
X118169191Y-111294014D01*
X118177846Y-111245054D01*
X118182133Y-111165855D01*
X118182892Y-111093403D01*
X118182892Y-110891332D01*
X118320914Y-110799554D01*
X118386536Y-110757412D01*
X118440554Y-110725469D01*
X118473969Y-110708951D01*
X118478923Y-110707776D01*
X118486146Y-110727257D01*
G37*
G36*
X117189232Y-117947476D02*
G01*
X117238974Y-117976011D01*
X117301080Y-118016632D01*
X117314922Y-118026265D01*
X117442224Y-118115826D01*
X117452099Y-118336662D01*
X117461975Y-118557499D01*
X117531104Y-118574401D01*
X117602235Y-118592015D01*
X117669362Y-118608925D01*
X117724682Y-118622376D01*
X117801321Y-118640215D01*
X117876749Y-118657250D01*
X117957719Y-118675707D01*
X118033468Y-118693772D01*
X118084137Y-118706628D01*
X118139420Y-118720734D01*
X118216008Y-118739263D01*
X118291524Y-118756867D01*
X118365330Y-118774002D01*
X118427153Y-118788860D01*
X118463873Y-118798289D01*
X118464347Y-118798425D01*
X118480308Y-118807833D01*
X118490517Y-118829821D01*
X118496196Y-118871721D01*
X118498566Y-118940868D01*
X118498911Y-119005928D01*
X118498305Y-119095732D01*
X118495670Y-119152690D01*
X118489779Y-119183452D01*
X118479405Y-119194667D01*
X118464347Y-119193291D01*
X118429694Y-119184226D01*
X118356938Y-119166181D01*
X118246423Y-119139238D01*
X118098493Y-119103483D01*
X117913493Y-119058997D01*
X117691768Y-119005865D01*
X117686414Y-119004584D01*
X117587877Y-118981040D01*
X117521657Y-118968275D01*
X117481358Y-118969219D01*
X117460583Y-118986802D01*
X117452934Y-119023952D01*
X117452015Y-119083601D01*
X117452099Y-119111898D01*
X117451780Y-119186859D01*
X117445954Y-119232253D01*
X117427322Y-119252695D01*
X117388585Y-119252796D01*
X117322443Y-119237172D01*
X117274339Y-119224242D01*
X117145956Y-119189905D01*
X117140741Y-118563304D01*
X117139526Y-118384335D01*
X117139256Y-118241286D01*
X117140053Y-118130585D01*
X117142032Y-118048659D01*
X117145315Y-117991935D01*
X117150019Y-117956840D01*
X117156264Y-117939801D01*
X117161573Y-117936703D01*
X117189232Y-117947476D01*
G37*
G36*
X117199972Y-108204216D02*
G01*
X117218486Y-108223498D01*
X117248649Y-108267780D01*
X117280950Y-108322274D01*
X117309129Y-108367454D01*
X117344669Y-108412607D01*
X117392534Y-108462581D01*
X117457685Y-108522225D01*
X117545085Y-108596386D01*
X117645470Y-108678420D01*
X117947473Y-108922661D01*
X118223192Y-108989618D01*
X118498911Y-109056576D01*
X118498911Y-109250139D01*
X118497239Y-109332140D01*
X118492737Y-109396921D01*
X118486175Y-109436036D01*
X118481267Y-109443702D01*
X118456262Y-109439100D01*
X118401071Y-109426560D01*
X118323768Y-109407979D01*
X118232425Y-109385256D01*
X118229440Y-109384501D01*
X118134510Y-109361408D01*
X118050056Y-109342520D01*
X117985378Y-109329809D01*
X117950127Y-109325248D01*
X117917319Y-109330368D01*
X117853400Y-109344635D01*
X117765246Y-109366356D01*
X117659733Y-109393838D01*
X117546446Y-109424636D01*
X117432250Y-109455408D01*
X117330196Y-109481208D01*
X117246726Y-109500545D01*
X117188277Y-109511929D01*
X117161290Y-109513868D01*
X117161214Y-109513840D01*
X117147826Y-109498080D01*
X117140619Y-109459468D01*
X117138874Y-109391753D01*
X117140245Y-109331661D01*
X117145956Y-109159721D01*
X117215085Y-109142597D01*
X117360610Y-109105459D01*
X117468798Y-109075324D01*
X117541106Y-109051729D01*
X117578988Y-109034212D01*
X117585648Y-109024673D01*
X117568226Y-109006406D01*
X117524929Y-108969720D01*
X117461783Y-108919494D01*
X117384811Y-108860609D01*
X117362599Y-108843977D01*
X117145956Y-108682501D01*
X117140329Y-108468483D01*
X117140008Y-108350728D01*
X117146673Y-108269058D01*
X117160982Y-108220563D01*
X117183590Y-108202336D01*
X117199972Y-108204216D01*
G37*
G36*
X118429086Y-108700569D02*
G01*
X118451148Y-108721652D01*
X118475646Y-108762778D01*
X118471084Y-108786725D01*
X118446706Y-108800141D01*
X118411999Y-108805111D01*
X118401484Y-108791970D01*
X118420478Y-108771088D01*
X118439635Y-108752947D01*
X118423010Y-108735378D01*
X118420478Y-108733734D01*
X118403353Y-108710774D01*
X118407280Y-108699200D01*
X118429086Y-108700569D01*
G37*
G36*
X122721135Y-112401237D02*
G01*
X122724253Y-112432825D01*
X122710917Y-112463050D01*
X122698214Y-112471936D01*
X122677421Y-112467656D01*
X122673525Y-112434561D01*
X122684331Y-112398112D01*
X122700972Y-112386639D01*
X122721135Y-112401237D01*
G37*
G36*
X122664982Y-112534179D02*
G01*
X122666407Y-112544635D01*
X122659181Y-112560892D01*
X122653240Y-112557802D01*
X122650876Y-112534362D01*
X122653240Y-112531467D01*
X122664982Y-112534179D01*
G37*
D12*
X122330000Y-97520000D02*
X122330000Y-100120000D01*
X119670000Y-100120000D02*
X122330000Y-100120000D01*
X119670000Y-97520000D02*
X122330000Y-97520000D01*
X119670000Y-97520000D02*
X119670000Y-100120000D01*
X119670000Y-96250000D02*
X119670000Y-94920000D01*
X119670000Y-94920000D02*
X121000000Y-94920000D01*
X112750000Y-124750000D02*
X112750000Y-129250000D01*
X115250000Y-130500000D02*
X116750000Y-130500000D01*
X116750000Y-123500000D02*
X115250000Y-123500000D01*
X119250000Y-129250000D02*
X119250000Y-124750000D01*
X130477500Y-128237258D02*
X130477500Y-127762742D01*
X131522500Y-128237258D02*
X131522500Y-127762742D01*
X144912164Y-122140000D02*
X145127836Y-122140000D01*
X144912164Y-122860000D02*
X145127836Y-122860000D01*
%LPC*%
D14*
X124040000Y-107500000D03*
X125000000Y-107500000D03*
D15*
X136500000Y-69500000D03*
X136500000Y-71150000D03*
D16*
X141025000Y-88950000D03*
X141025000Y-86000000D03*
D17*
X128000000Y-83300000D03*
D18*
X128000000Y-85840000D03*
X128000000Y-88380000D03*
X128000000Y-90920000D03*
X128000000Y-93460000D03*
X128000000Y-96000000D03*
X128000000Y-98540000D03*
X128000000Y-101080000D03*
X128000000Y-103620000D03*
X128000000Y-106160000D03*
X128000000Y-108700000D03*
X128000000Y-111240000D03*
X128000000Y-113780000D03*
X128000000Y-116320000D03*
X135620000Y-116320000D03*
X135620000Y-113780000D03*
X135620000Y-111240000D03*
X135620000Y-108700000D03*
X135620000Y-106160000D03*
X135620000Y-103620000D03*
X135620000Y-101080000D03*
X135620000Y-98540000D03*
X135620000Y-96000000D03*
X135620000Y-93460000D03*
X135620000Y-90920000D03*
X135620000Y-88380000D03*
X135620000Y-85840000D03*
X135620000Y-83300000D03*
D19*
X128980000Y-122500000D03*
X130000000Y-122500000D03*
D20*
X149000000Y-88500000D03*
D21*
X149000000Y-83500000D03*
D19*
X122000000Y-83000000D03*
X123020000Y-83000000D03*
X142480000Y-76000000D03*
X143500000Y-76000000D03*
X138000000Y-122500000D03*
X139020000Y-122500000D03*
D22*
X113750000Y-74250000D03*
X113750000Y-67750000D03*
X118250000Y-74250000D03*
X118250000Y-67750000D03*
D14*
X124020000Y-103500000D03*
X124980000Y-103500000D03*
X138540000Y-76000000D03*
X139500000Y-76000000D03*
X126020000Y-81000000D03*
X126980000Y-81000000D03*
D16*
X141025000Y-95450000D03*
X141025000Y-92500000D03*
D14*
X128960000Y-76500000D03*
X128000000Y-76500000D03*
D23*
X142500000Y-129040000D03*
D24*
X142500000Y-126500000D03*
D25*
X111000000Y-118080000D03*
D26*
X111000000Y-115540000D03*
X111000000Y-113000000D03*
X111000000Y-110460000D03*
X111000000Y-107920000D03*
X111000000Y-105380000D03*
D23*
X124500000Y-69210000D03*
D24*
X124500000Y-71750000D03*
D25*
X111000000Y-91960000D03*
D26*
X111000000Y-94500000D03*
X111000000Y-97040000D03*
X111000000Y-99580000D03*
D23*
X124500000Y-129000000D03*
D24*
X124500000Y-126460000D03*
D27*
X149000000Y-112500000D03*
D28*
X151540000Y-95840000D03*
D29*
X149000000Y-95840000D03*
X146460000Y-95840000D03*
D14*
X121520000Y-122500000D03*
X122480000Y-122500000D03*
D30*
X119950000Y-104800000D03*
X119950000Y-106200000D03*
X121050000Y-106200000D03*
X121050000Y-104800000D03*
D31*
X136000000Y-128825000D03*
X136000000Y-127175000D03*
D19*
X123500000Y-76500000D03*
X124520000Y-76500000D03*
D22*
X148750000Y-74250000D03*
X148750000Y-67750000D03*
X153250000Y-74250000D03*
X153250000Y-67750000D03*
X110750000Y-86250000D03*
X110750000Y-79750000D03*
X115250000Y-86250000D03*
X115250000Y-79750000D03*
D23*
X142500000Y-71790000D03*
D24*
X142500000Y-69250000D03*
D15*
X130500000Y-69500000D03*
X130500000Y-71150000D03*
D22*
X148750000Y-130500000D03*
X148750000Y-124000000D03*
X153250000Y-130500000D03*
X153250000Y-124000000D03*
D26*
X121000000Y-98790000D03*
D25*
X121000000Y-96250000D03*
D22*
X118250000Y-123750000D03*
X118250000Y-130250000D03*
X113750000Y-123750000D03*
X113750000Y-130250000D03*
D31*
X131000000Y-128825000D03*
X131000000Y-127175000D03*
D14*
X144540000Y-122500000D03*
X145500000Y-122500000D03*
%LPD*%
M02*
