G04 #@! TF.GenerationSoftware,KiCad,Pcbnew,8.0.0*
G04 #@! TF.CreationDate,2024-04-02T15:54:02-06:00*
G04 #@! TF.ProjectId,SimonSaysPCBDesign,53696d6f-6e53-4617-9973-504342446573,1.0*
G04 #@! TF.SameCoordinates,Original*
G04 #@! TF.FileFunction,Copper,L1,Top*
G04 #@! TF.FilePolarity,Positive*
%FSLAX46Y46*%
G04 Gerber Fmt 4.6, Leading zero omitted, Abs format (unit mm)*
G04 Created by KiCad (PCBNEW 8.0.0) date 2024-04-02 15:54:02*
%MOMM*%
%LPD*%
G01*
G04 APERTURE LIST*
G04 Aperture macros list*
%AMRoundRect*
0 Rectangle with rounded corners*
0 $1 Rounding radius*
0 $2 $3 $4 $5 $6 $7 $8 $9 X,Y pos of 4 corners*
0 Add a 4 corners polygon primitive as box body*
4,1,4,$2,$3,$4,$5,$6,$7,$8,$9,$2,$3,0*
0 Add four circle primitives for the rounded corners*
1,1,$1+$1,$2,$3*
1,1,$1+$1,$4,$5*
1,1,$1+$1,$6,$7*
1,1,$1+$1,$8,$9*
0 Add four rect primitives between the rounded corners*
20,1,$1+$1,$2,$3,$4,$5,0*
20,1,$1+$1,$4,$5,$6,$7,0*
20,1,$1+$1,$6,$7,$8,$9,0*
20,1,$1+$1,$8,$9,$2,$3,0*%
G04 Aperture macros list end*
G04 #@! TA.AperFunction,SMDPad,CuDef*
%ADD10RoundRect,0.140000X-0.140000X-0.170000X0.140000X-0.170000X0.140000X0.170000X-0.140000X0.170000X0*%
G04 #@! TD*
G04 #@! TA.AperFunction,SMDPad,CuDef*
%ADD11RoundRect,0.200000X-0.275000X0.200000X-0.275000X-0.200000X0.275000X-0.200000X0.275000X0.200000X0*%
G04 #@! TD*
G04 #@! TA.AperFunction,SMDPad,CuDef*
%ADD12RoundRect,0.250000X0.650000X-0.325000X0.650000X0.325000X-0.650000X0.325000X-0.650000X-0.325000X0*%
G04 #@! TD*
G04 #@! TA.AperFunction,ComponentPad*
%ADD13R,1.600000X1.600000*%
G04 #@! TD*
G04 #@! TA.AperFunction,ComponentPad*
%ADD14O,1.600000X1.600000*%
G04 #@! TD*
G04 #@! TA.AperFunction,SMDPad,CuDef*
%ADD15RoundRect,0.135000X-0.135000X-0.185000X0.135000X-0.185000X0.135000X0.185000X-0.135000X0.185000X0*%
G04 #@! TD*
G04 #@! TA.AperFunction,ComponentPad*
%ADD16R,2.600000X2.600000*%
G04 #@! TD*
G04 #@! TA.AperFunction,ComponentPad*
%ADD17C,2.600000*%
G04 #@! TD*
G04 #@! TA.AperFunction,ComponentPad*
%ADD18C,2.000000*%
G04 #@! TD*
G04 #@! TA.AperFunction,ComponentPad*
%ADD19R,1.800000X1.800000*%
G04 #@! TD*
G04 #@! TA.AperFunction,ComponentPad*
%ADD20C,1.800000*%
G04 #@! TD*
G04 #@! TA.AperFunction,ComponentPad*
%ADD21R,1.700000X1.700000*%
G04 #@! TD*
G04 #@! TA.AperFunction,ComponentPad*
%ADD22O,1.700000X1.700000*%
G04 #@! TD*
G04 #@! TA.AperFunction,ComponentPad*
%ADD23R,1.905000X2.000000*%
G04 #@! TD*
G04 #@! TA.AperFunction,ComponentPad*
%ADD24O,1.905000X2.000000*%
G04 #@! TD*
G04 #@! TA.AperFunction,SMDPad,CuDef*
%ADD25R,0.800000X0.900000*%
G04 #@! TD*
G04 #@! TA.AperFunction,SMDPad,CuDef*
%ADD26RoundRect,0.200000X0.275000X-0.200000X0.275000X0.200000X-0.275000X0.200000X-0.275000X-0.200000X0*%
G04 #@! TD*
G04 #@! TA.AperFunction,ViaPad*
%ADD27C,0.600000*%
G04 #@! TD*
G04 #@! TA.AperFunction,Conductor*
%ADD28C,0.200000*%
G04 #@! TD*
G04 #@! TA.AperFunction,Conductor*
%ADD29C,1.000000*%
G04 #@! TD*
G04 #@! TA.AperFunction,Conductor*
%ADD30C,0.800000*%
G04 #@! TD*
G04 APERTURE END LIST*
D10*
X124040000Y-107500000D03*
X125000000Y-107500000D03*
D11*
X136500000Y-69500000D03*
X136500000Y-71150000D03*
D12*
X141025000Y-88950000D03*
X141025000Y-86000000D03*
D13*
X128000000Y-83300000D03*
D14*
X128000000Y-85840000D03*
X128000000Y-88380000D03*
X128000000Y-90920000D03*
X128000000Y-93460000D03*
X128000000Y-96000000D03*
X128000000Y-98540000D03*
X128000000Y-101080000D03*
X128000000Y-103620000D03*
X128000000Y-106160000D03*
X128000000Y-108700000D03*
X128000000Y-111240000D03*
X128000000Y-113780000D03*
X128000000Y-116320000D03*
X135620000Y-116320000D03*
X135620000Y-113780000D03*
X135620000Y-111240000D03*
X135620000Y-108700000D03*
X135620000Y-106160000D03*
X135620000Y-103620000D03*
X135620000Y-101080000D03*
X135620000Y-98540000D03*
X135620000Y-96000000D03*
X135620000Y-93460000D03*
X135620000Y-90920000D03*
X135620000Y-88380000D03*
X135620000Y-85840000D03*
X135620000Y-83300000D03*
D15*
X128980000Y-122500000D03*
X130000000Y-122500000D03*
D16*
X149000000Y-88500000D03*
D17*
X149000000Y-83500000D03*
D15*
X122000000Y-83000000D03*
X123020000Y-83000000D03*
X142480000Y-76000000D03*
X143500000Y-76000000D03*
X138000000Y-122500000D03*
X139020000Y-122500000D03*
D18*
X113750000Y-74250000D03*
X113750000Y-67750000D03*
X118250000Y-74250000D03*
X118250000Y-67750000D03*
D10*
X124020000Y-103500000D03*
X124980000Y-103500000D03*
X138540000Y-76000000D03*
X139500000Y-76000000D03*
X126020000Y-81000000D03*
X126980000Y-81000000D03*
D12*
X141025000Y-95450000D03*
X141025000Y-92500000D03*
D10*
X128960000Y-76500000D03*
X128000000Y-76500000D03*
D19*
X142500000Y-129040000D03*
D20*
X142500000Y-126500000D03*
D21*
X111000000Y-118080000D03*
D22*
X111000000Y-115540000D03*
X111000000Y-113000000D03*
X111000000Y-110460000D03*
X111000000Y-107920000D03*
X111000000Y-105380000D03*
D19*
X124500000Y-69210000D03*
D20*
X124500000Y-71750000D03*
D21*
X111000000Y-91960000D03*
D22*
X111000000Y-94500000D03*
X111000000Y-97040000D03*
X111000000Y-99580000D03*
D19*
X124500000Y-129000000D03*
D20*
X124500000Y-126460000D03*
D23*
X151540000Y-95840000D03*
D24*
X149000000Y-95840000D03*
X146460000Y-95840000D03*
D10*
X121520000Y-122500000D03*
X122480000Y-122500000D03*
D25*
X119950000Y-104800000D03*
X119950000Y-106200000D03*
X121050000Y-106200000D03*
X121050000Y-104800000D03*
D26*
X136000000Y-128825000D03*
X136000000Y-127175000D03*
D15*
X123500000Y-76500000D03*
X124520000Y-76500000D03*
D18*
X148750000Y-74250000D03*
X148750000Y-67750000D03*
X153250000Y-74250000D03*
X153250000Y-67750000D03*
X110750000Y-86250000D03*
X110750000Y-79750000D03*
X115250000Y-86250000D03*
X115250000Y-79750000D03*
D19*
X142500000Y-71790000D03*
D20*
X142500000Y-69250000D03*
D11*
X130500000Y-69500000D03*
X130500000Y-71150000D03*
D18*
X148750000Y-130500000D03*
X148750000Y-124000000D03*
X153250000Y-130500000D03*
X153250000Y-124000000D03*
D22*
X121000000Y-98790000D03*
D21*
X121000000Y-96250000D03*
D18*
X118250000Y-123750000D03*
X118250000Y-130250000D03*
X113750000Y-123750000D03*
X113750000Y-130250000D03*
D26*
X131000000Y-128825000D03*
X131000000Y-127175000D03*
D10*
X144540000Y-122500000D03*
X145500000Y-122500000D03*
D27*
X128000000Y-122500000D03*
X141000000Y-76000000D03*
X137000000Y-122500000D03*
X126000000Y-103500000D03*
X122000000Y-76500000D03*
X141000000Y-98500000D03*
X139500000Y-90500000D03*
X126000000Y-107500000D03*
X123800000Y-81600000D03*
X139000000Y-78500000D03*
X129000000Y-78000000D03*
X124400000Y-86400000D03*
X138400000Y-84600000D03*
D28*
X127544365Y-102520000D02*
X121274365Y-96250000D01*
X128455635Y-102520000D02*
X127544365Y-102520000D01*
X121274365Y-96250000D02*
X121000000Y-96250000D01*
X129100000Y-103164365D02*
X128455635Y-102520000D01*
X128000000Y-108700000D02*
X129100000Y-107600000D01*
X129100000Y-107600000D02*
X129100000Y-103164365D01*
X138150000Y-69500000D02*
X138400000Y-69250000D01*
X136500000Y-69500000D02*
X138150000Y-69500000D01*
X136500000Y-73960000D02*
X138540000Y-76000000D01*
X136500000Y-71150000D02*
X136500000Y-73960000D01*
X125250000Y-87250000D02*
X124400000Y-86400000D01*
X126590000Y-87250000D02*
X125250000Y-87250000D01*
X128000000Y-85840000D02*
X126590000Y-87250000D01*
X114200000Y-96380000D02*
X111000000Y-99580000D01*
X124600000Y-84400000D02*
X122800000Y-86200000D01*
X114200000Y-95497552D02*
X114200000Y-96380000D01*
X134520000Y-84400000D02*
X124600000Y-84400000D01*
X122800000Y-86897552D02*
X114200000Y-95497552D01*
X135620000Y-83300000D02*
X134520000Y-84400000D01*
X122800000Y-86200000D02*
X122800000Y-86897552D01*
X114150000Y-86250000D02*
X115250000Y-86250000D01*
X109850000Y-104230000D02*
X109850000Y-90550000D01*
X111000000Y-105380000D02*
X109850000Y-104230000D01*
X109850000Y-90550000D02*
X114150000Y-86250000D01*
X128000000Y-88380000D02*
X121780000Y-88380000D01*
X114527000Y-104393000D02*
X111000000Y-107920000D01*
X121780000Y-88380000D02*
X114527000Y-95633000D01*
X114527000Y-95633000D02*
X114527000Y-104393000D01*
X124020000Y-103500000D02*
X120600000Y-103500000D01*
X119950000Y-104150000D02*
X119950000Y-104800000D01*
X120600000Y-103500000D02*
X119950000Y-104150000D01*
X126880000Y-102500000D02*
X125000000Y-102500000D01*
X125000000Y-102520000D02*
X124020000Y-103500000D01*
X125000000Y-102500000D02*
X125000000Y-102520000D01*
X128000000Y-103620000D02*
X126880000Y-102500000D01*
X138000000Y-122500000D02*
X137000000Y-122500000D01*
X128980000Y-122500000D02*
X128000000Y-122500000D01*
X141025000Y-88950000D02*
X139500000Y-90475000D01*
X141025000Y-95450000D02*
X141025000Y-98475000D01*
X139500000Y-90475000D02*
X139500000Y-90500000D01*
X142480000Y-76000000D02*
X141000000Y-76000000D01*
X123500000Y-76500000D02*
X122000000Y-76500000D01*
X124980000Y-103500000D02*
X126000000Y-103500000D01*
X125000000Y-107500000D02*
X126000000Y-107500000D01*
X141025000Y-98475000D02*
X141000000Y-98500000D01*
X119950000Y-106850000D02*
X119950000Y-106200000D01*
X124020000Y-107500000D02*
X120600000Y-107500000D01*
X120600000Y-107500000D02*
X119950000Y-106850000D01*
X124020000Y-107500000D02*
X125360000Y-106160000D01*
X125360000Y-106160000D02*
X128000000Y-106160000D01*
X126370000Y-80390000D02*
X126980000Y-81000000D01*
X120230000Y-79750000D02*
X121990000Y-81510000D01*
X115250000Y-79750000D02*
X115250000Y-86250000D01*
X121990000Y-81510000D02*
X123110000Y-80390000D01*
X123110000Y-80390000D02*
X126370000Y-80390000D01*
X115250000Y-79750000D02*
X120230000Y-79750000D01*
X121990000Y-83000000D02*
X121990000Y-81510000D01*
X126020000Y-81320000D02*
X126020000Y-81000000D01*
X128000000Y-83300000D02*
X126020000Y-81320000D01*
X151540000Y-95840000D02*
X150818802Y-95840000D01*
D29*
X151540000Y-86040000D02*
X151540000Y-95840000D01*
X149000000Y-83500000D02*
X151540000Y-86040000D01*
D30*
X141025000Y-91475000D02*
X141025000Y-92500000D01*
X149000000Y-83500000D02*
X141025000Y-91475000D01*
D28*
X123010000Y-83000000D02*
X123010000Y-82390000D01*
X123010000Y-82390000D02*
X123800000Y-81600000D01*
X139010000Y-122500000D02*
X139010000Y-115614365D01*
X130180000Y-116320000D02*
X128000000Y-116320000D01*
X145500000Y-122000000D02*
X145000000Y-121500000D01*
X145500000Y-122500000D02*
X145500000Y-122000000D01*
X139010000Y-115614365D02*
X135895635Y-112500000D01*
X140010000Y-121500000D02*
X139010000Y-122500000D01*
X135895635Y-112500000D02*
X134000000Y-112500000D01*
X145000000Y-121500000D02*
X140010000Y-121500000D01*
X134000000Y-112500000D02*
X130180000Y-116320000D01*
X142300000Y-74800000D02*
X143500000Y-76000000D01*
X139500000Y-76000000D02*
X139000000Y-76500000D01*
X139000000Y-76500000D02*
X139000000Y-78500000D01*
X140700000Y-74800000D02*
X142300000Y-74800000D01*
X138960000Y-78460000D02*
X139000000Y-78500000D01*
X139500000Y-76000000D02*
X140700000Y-74800000D01*
X129500000Y-119900000D02*
X130000000Y-119900000D01*
X135620000Y-113780000D02*
X129500000Y-119900000D01*
X129000000Y-121500000D02*
X130000000Y-122500000D01*
X130000000Y-119900000D02*
X130000000Y-122500000D01*
X122480000Y-122500000D02*
X123480000Y-121500000D01*
X123480000Y-121500000D02*
X129000000Y-121500000D01*
X125130000Y-75890000D02*
X128350000Y-75890000D01*
X124520000Y-76500000D02*
X125130000Y-75890000D01*
X128350000Y-75890000D02*
X128960000Y-76500000D01*
X128960000Y-77960000D02*
X129000000Y-78000000D01*
X128960000Y-76500000D02*
X128960000Y-77960000D01*
X142500000Y-69250000D02*
X138400000Y-69250000D01*
X131000000Y-128825000D02*
X130825000Y-128825000D01*
X126500000Y-128460000D02*
X124500000Y-126460000D01*
X130500000Y-128500000D02*
X126500000Y-128500000D01*
X130825000Y-128825000D02*
X130500000Y-128500000D01*
X126500000Y-128500000D02*
X126500000Y-128460000D01*
X136000000Y-128825000D02*
X136175000Y-128825000D01*
X140500000Y-128500000D02*
X142500000Y-126500000D01*
X136175000Y-128825000D02*
X136500000Y-128500000D01*
X136500000Y-128500000D02*
X140500000Y-128500000D01*
X126750000Y-69500000D02*
X124500000Y-71750000D01*
X130500000Y-69500000D02*
X126750000Y-69500000D01*
X137160000Y-85840000D02*
X138400000Y-84600000D01*
X135620000Y-85840000D02*
X137160000Y-85840000D01*
X111000000Y-99580000D02*
X111000000Y-99200000D01*
X138000000Y-124000000D02*
X143500000Y-124000000D01*
X135825000Y-127000000D02*
X136000000Y-127175000D01*
X148750000Y-130500000D02*
X148750000Y-124000000D01*
X136000000Y-127175000D02*
X136000000Y-126000000D01*
X136000000Y-126000000D02*
X138000000Y-124000000D01*
X146040000Y-124000000D02*
X148750000Y-124000000D01*
X144540000Y-122960000D02*
X144540000Y-122500000D01*
X143500000Y-124000000D02*
X144540000Y-122960000D01*
X144540000Y-122500000D02*
X146040000Y-124000000D01*
X148750000Y-74250000D02*
X140290000Y-74250000D01*
X140290000Y-74250000D02*
X138540000Y-76000000D01*
X148750000Y-67750000D02*
X148750000Y-74250000D01*
X131000000Y-127175000D02*
X131000000Y-126000000D01*
X122500000Y-123480000D02*
X121520000Y-122500000D01*
X129000000Y-124000000D02*
X123000000Y-124000000D01*
X123000000Y-124000000D02*
X122500000Y-123500000D01*
X119500000Y-122500000D02*
X118250000Y-123750000D01*
X118250000Y-123750000D02*
X118250000Y-130250000D01*
X131000000Y-126000000D02*
X129000000Y-124000000D01*
X121520000Y-122500000D02*
X119500000Y-122500000D01*
X122500000Y-123500000D02*
X122500000Y-123480000D01*
X120000000Y-77120000D02*
X121557000Y-75563000D01*
X126087000Y-75563000D02*
X130500000Y-71150000D01*
X120000000Y-77120000D02*
X116620000Y-77120000D01*
X128000000Y-76500000D02*
X127380000Y-77120000D01*
X116620000Y-77120000D02*
X113750000Y-74250000D01*
X127380000Y-77120000D02*
X120000000Y-77120000D01*
X113750000Y-74250000D02*
X113750000Y-67750000D01*
X121557000Y-75563000D02*
X126087000Y-75563000D01*
G04 #@! TA.AperFunction,Conductor*
G36*
X134449527Y-85020185D02*
G01*
X134495282Y-85072989D01*
X134505226Y-85142147D01*
X134491363Y-85182193D01*
X134491720Y-85182360D01*
X134490112Y-85185806D01*
X134489870Y-85186508D01*
X134489432Y-85187266D01*
X134393261Y-85393502D01*
X134393258Y-85393511D01*
X134334366Y-85613302D01*
X134334364Y-85613313D01*
X134314532Y-85839998D01*
X134314532Y-85840001D01*
X134334364Y-86066686D01*
X134334366Y-86066697D01*
X134393258Y-86286488D01*
X134393261Y-86286497D01*
X134489431Y-86492732D01*
X134489432Y-86492734D01*
X134619954Y-86679141D01*
X134780858Y-86840045D01*
X134784300Y-86842455D01*
X134967266Y-86970568D01*
X135025275Y-86997618D01*
X135077714Y-87043791D01*
X135096866Y-87110984D01*
X135076650Y-87177865D01*
X135025275Y-87222382D01*
X134967267Y-87249431D01*
X134967265Y-87249432D01*
X134780858Y-87379954D01*
X134619954Y-87540858D01*
X134489432Y-87727265D01*
X134489431Y-87727267D01*
X134393261Y-87933502D01*
X134393258Y-87933511D01*
X134334366Y-88153302D01*
X134334364Y-88153313D01*
X134314532Y-88379998D01*
X134314532Y-88380001D01*
X134334364Y-88606686D01*
X134334366Y-88606697D01*
X134393258Y-88826488D01*
X134393261Y-88826497D01*
X134489431Y-89032732D01*
X134489432Y-89032734D01*
X134619954Y-89219141D01*
X134780858Y-89380045D01*
X134780861Y-89380047D01*
X134967266Y-89510568D01*
X135025275Y-89537618D01*
X135077714Y-89583791D01*
X135096866Y-89650984D01*
X135076650Y-89717865D01*
X135025275Y-89762382D01*
X134967267Y-89789431D01*
X134967265Y-89789432D01*
X134780858Y-89919954D01*
X134619954Y-90080858D01*
X134489432Y-90267265D01*
X134489431Y-90267267D01*
X134393261Y-90473502D01*
X134393258Y-90473511D01*
X134334366Y-90693302D01*
X134334364Y-90693313D01*
X134314532Y-90919998D01*
X134314532Y-90920001D01*
X134334364Y-91146686D01*
X134334366Y-91146697D01*
X134393258Y-91366488D01*
X134393261Y-91366497D01*
X134489431Y-91572732D01*
X134489432Y-91572734D01*
X134619954Y-91759141D01*
X134780858Y-91920045D01*
X134780861Y-91920047D01*
X134967266Y-92050568D01*
X135025275Y-92077618D01*
X135077714Y-92123791D01*
X135096866Y-92190984D01*
X135076650Y-92257865D01*
X135025275Y-92302382D01*
X134967267Y-92329431D01*
X134967265Y-92329432D01*
X134780858Y-92459954D01*
X134619954Y-92620858D01*
X134489432Y-92807265D01*
X134489431Y-92807267D01*
X134393261Y-93013502D01*
X134393258Y-93013511D01*
X134334366Y-93233302D01*
X134334364Y-93233313D01*
X134314532Y-93459998D01*
X134314532Y-93460001D01*
X134334364Y-93686686D01*
X134334366Y-93686697D01*
X134393258Y-93906488D01*
X134393261Y-93906497D01*
X134489431Y-94112732D01*
X134489432Y-94112734D01*
X134619954Y-94299141D01*
X134780858Y-94460045D01*
X134780861Y-94460047D01*
X134967266Y-94590568D01*
X135025275Y-94617618D01*
X135077714Y-94663791D01*
X135096866Y-94730984D01*
X135076650Y-94797865D01*
X135025275Y-94842381D01*
X135016965Y-94846257D01*
X134967267Y-94869431D01*
X134967265Y-94869432D01*
X134780858Y-94999954D01*
X134619954Y-95160858D01*
X134489432Y-95347265D01*
X134489431Y-95347267D01*
X134393261Y-95553502D01*
X134393258Y-95553511D01*
X134334366Y-95773302D01*
X134334364Y-95773313D01*
X134314532Y-95999998D01*
X134314532Y-96000001D01*
X134334364Y-96226686D01*
X134334366Y-96226697D01*
X134393258Y-96446488D01*
X134393261Y-96446497D01*
X134489431Y-96652732D01*
X134489432Y-96652734D01*
X134619954Y-96839141D01*
X134780858Y-97000045D01*
X134780861Y-97000047D01*
X134967266Y-97130568D01*
X135015288Y-97152961D01*
X135025275Y-97157618D01*
X135077714Y-97203791D01*
X135096866Y-97270984D01*
X135076650Y-97337865D01*
X135025275Y-97382382D01*
X134967267Y-97409431D01*
X134967265Y-97409432D01*
X134780858Y-97539954D01*
X134619954Y-97700858D01*
X134489432Y-97887265D01*
X134489431Y-97887267D01*
X134393261Y-98093502D01*
X134393258Y-98093511D01*
X134334366Y-98313302D01*
X134334364Y-98313313D01*
X134314532Y-98539998D01*
X134314532Y-98540001D01*
X134334364Y-98766686D01*
X134334366Y-98766697D01*
X134393258Y-98986488D01*
X134393261Y-98986497D01*
X134489431Y-99192732D01*
X134489432Y-99192734D01*
X134619954Y-99379141D01*
X134780858Y-99540045D01*
X134780861Y-99540047D01*
X134967266Y-99670568D01*
X135024681Y-99697341D01*
X135025275Y-99697618D01*
X135077714Y-99743791D01*
X135096866Y-99810984D01*
X135076650Y-99877865D01*
X135025275Y-99922382D01*
X134967267Y-99949431D01*
X134967265Y-99949432D01*
X134780858Y-100079954D01*
X134619954Y-100240858D01*
X134489432Y-100427265D01*
X134489431Y-100427267D01*
X134393261Y-100633502D01*
X134393258Y-100633511D01*
X134334366Y-100853302D01*
X134334364Y-100853313D01*
X134314532Y-101079998D01*
X134314532Y-101080001D01*
X134334364Y-101306686D01*
X134334366Y-101306697D01*
X134393258Y-101526488D01*
X134393261Y-101526497D01*
X134489431Y-101732732D01*
X134489432Y-101732734D01*
X134619954Y-101919141D01*
X134780858Y-102080045D01*
X134780861Y-102080047D01*
X134967266Y-102210568D01*
X135025275Y-102237618D01*
X135077714Y-102283791D01*
X135096866Y-102350984D01*
X135076650Y-102417865D01*
X135025275Y-102462382D01*
X134967267Y-102489431D01*
X134967265Y-102489432D01*
X134780858Y-102619954D01*
X134619954Y-102780858D01*
X134489432Y-102967265D01*
X134489431Y-102967267D01*
X134393261Y-103173502D01*
X134393258Y-103173511D01*
X134334366Y-103393302D01*
X134334364Y-103393313D01*
X134314532Y-103619998D01*
X134314532Y-103620001D01*
X134334364Y-103846686D01*
X134334366Y-103846697D01*
X134393258Y-104066488D01*
X134393261Y-104066497D01*
X134489431Y-104272732D01*
X134489432Y-104272734D01*
X134619954Y-104459141D01*
X134780858Y-104620045D01*
X134780861Y-104620047D01*
X134967266Y-104750568D01*
X135025275Y-104777618D01*
X135077714Y-104823791D01*
X135096866Y-104890984D01*
X135076650Y-104957865D01*
X135025275Y-105002382D01*
X134967267Y-105029431D01*
X134967265Y-105029432D01*
X134780858Y-105159954D01*
X134619954Y-105320858D01*
X134489432Y-105507265D01*
X134489431Y-105507267D01*
X134393261Y-105713502D01*
X134393258Y-105713511D01*
X134334366Y-105933302D01*
X134334364Y-105933313D01*
X134314532Y-106159998D01*
X134314532Y-106160001D01*
X134334364Y-106386686D01*
X134334366Y-106386697D01*
X134393258Y-106606488D01*
X134393261Y-106606497D01*
X134489431Y-106812732D01*
X134489432Y-106812734D01*
X134619954Y-106999141D01*
X134780858Y-107160045D01*
X134780861Y-107160047D01*
X134967266Y-107290568D01*
X135025275Y-107317618D01*
X135077714Y-107363791D01*
X135096866Y-107430984D01*
X135076650Y-107497865D01*
X135025275Y-107542382D01*
X134967267Y-107569431D01*
X134967265Y-107569432D01*
X134780858Y-107699954D01*
X134619954Y-107860858D01*
X134489432Y-108047265D01*
X134489431Y-108047267D01*
X134393261Y-108253502D01*
X134393258Y-108253511D01*
X134334366Y-108473302D01*
X134334364Y-108473313D01*
X134314532Y-108699998D01*
X134314532Y-108700001D01*
X134334364Y-108926686D01*
X134334366Y-108926697D01*
X134393258Y-109146488D01*
X134393261Y-109146497D01*
X134489431Y-109352732D01*
X134489432Y-109352734D01*
X134619954Y-109539141D01*
X134780858Y-109700045D01*
X134780861Y-109700047D01*
X134967266Y-109830568D01*
X135025275Y-109857618D01*
X135077714Y-109903791D01*
X135096866Y-109970984D01*
X135076650Y-110037865D01*
X135025275Y-110082382D01*
X134967267Y-110109431D01*
X134967265Y-110109432D01*
X134780858Y-110239954D01*
X134619954Y-110400858D01*
X134489432Y-110587265D01*
X134489431Y-110587267D01*
X134393261Y-110793502D01*
X134393258Y-110793511D01*
X134334366Y-111013302D01*
X134334364Y-111013313D01*
X134314532Y-111239998D01*
X134314532Y-111240001D01*
X134334364Y-111466686D01*
X134334366Y-111466697D01*
X134393258Y-111686488D01*
X134393259Y-111686491D01*
X134393261Y-111686496D01*
X134410328Y-111723097D01*
X134420820Y-111792172D01*
X134392301Y-111855956D01*
X134333825Y-111894196D01*
X134297946Y-111899500D01*
X134086670Y-111899500D01*
X134086654Y-111899499D01*
X134079058Y-111899499D01*
X133920943Y-111899499D01*
X133813587Y-111928265D01*
X133768210Y-111940424D01*
X133768209Y-111940425D01*
X133718096Y-111969359D01*
X133718095Y-111969360D01*
X133674689Y-111994420D01*
X133631285Y-112019479D01*
X133631282Y-112019481D01*
X133519478Y-112131286D01*
X129967584Y-115683181D01*
X129906261Y-115716666D01*
X129879903Y-115719500D01*
X129231692Y-115719500D01*
X129164653Y-115699815D01*
X129130119Y-115666625D01*
X129000047Y-115480861D01*
X129000045Y-115480858D01*
X128839141Y-115319954D01*
X128652734Y-115189432D01*
X128652728Y-115189429D01*
X128594725Y-115162382D01*
X128542285Y-115116210D01*
X128523133Y-115049017D01*
X128543348Y-114982135D01*
X128594725Y-114937618D01*
X128652734Y-114910568D01*
X128839139Y-114780047D01*
X129000047Y-114619139D01*
X129130568Y-114432734D01*
X129226739Y-114226496D01*
X129285635Y-114006692D01*
X129305468Y-113780000D01*
X129285635Y-113553308D01*
X129226739Y-113333504D01*
X129130568Y-113127266D01*
X129000047Y-112940861D01*
X129000045Y-112940858D01*
X128839141Y-112779954D01*
X128652734Y-112649432D01*
X128652728Y-112649429D01*
X128594725Y-112622382D01*
X128542285Y-112576210D01*
X128523133Y-112509017D01*
X128543348Y-112442135D01*
X128594725Y-112397618D01*
X128652734Y-112370568D01*
X128839139Y-112240047D01*
X129000047Y-112079139D01*
X129130568Y-111892734D01*
X129226739Y-111686496D01*
X129285635Y-111466692D01*
X129305468Y-111240000D01*
X129285635Y-111013308D01*
X129226739Y-110793504D01*
X129130568Y-110587266D01*
X129000047Y-110400861D01*
X129000045Y-110400858D01*
X128839141Y-110239954D01*
X128652734Y-110109432D01*
X128652728Y-110109429D01*
X128594725Y-110082382D01*
X128542285Y-110036210D01*
X128523133Y-109969017D01*
X128543348Y-109902135D01*
X128594725Y-109857618D01*
X128652734Y-109830568D01*
X128839139Y-109700047D01*
X129000047Y-109539139D01*
X129130568Y-109352734D01*
X129226739Y-109146496D01*
X129285635Y-108926692D01*
X129305468Y-108700000D01*
X129285635Y-108473308D01*
X129259847Y-108377066D01*
X129261510Y-108307217D01*
X129291939Y-108257294D01*
X129468713Y-108080521D01*
X129468716Y-108080520D01*
X129580520Y-107968716D01*
X129630639Y-107881904D01*
X129659577Y-107831785D01*
X129700501Y-107679057D01*
X129700501Y-107520943D01*
X129700501Y-107513348D01*
X129700500Y-107513330D01*
X129700500Y-103253425D01*
X129700501Y-103253412D01*
X129700501Y-103085309D01*
X129682862Y-103019480D01*
X129659577Y-102932581D01*
X129594514Y-102819887D01*
X129580524Y-102795655D01*
X129580518Y-102795647D01*
X128943225Y-102158355D01*
X128943223Y-102158352D01*
X128939709Y-102154838D01*
X128938447Y-102152527D01*
X128927732Y-102139457D01*
X128927730Y-102139454D01*
X128930353Y-102137704D01*
X128906224Y-102093515D01*
X128911208Y-102023823D01*
X128939706Y-101979479D01*
X129000047Y-101919139D01*
X129130568Y-101732734D01*
X129226739Y-101526496D01*
X129285635Y-101306692D01*
X129305468Y-101080000D01*
X129285635Y-100853308D01*
X129226739Y-100633504D01*
X129130568Y-100427266D01*
X129000047Y-100240861D01*
X129000045Y-100240858D01*
X128839141Y-100079954D01*
X128652734Y-99949432D01*
X128652732Y-99949431D01*
X128594725Y-99922382D01*
X128594132Y-99922105D01*
X128541694Y-99875934D01*
X128522542Y-99808740D01*
X128542758Y-99741859D01*
X128594134Y-99697341D01*
X128652484Y-99670132D01*
X128838820Y-99539657D01*
X128999657Y-99378820D01*
X129130134Y-99192482D01*
X129226265Y-98986326D01*
X129226269Y-98986317D01*
X129278872Y-98790000D01*
X128315686Y-98790000D01*
X128320080Y-98785606D01*
X128372741Y-98694394D01*
X128400000Y-98592661D01*
X128400000Y-98487339D01*
X128372741Y-98385606D01*
X128320080Y-98294394D01*
X128315686Y-98290000D01*
X129278872Y-98290000D01*
X129278872Y-98289999D01*
X129226269Y-98093682D01*
X129226265Y-98093673D01*
X129130134Y-97887517D01*
X128999657Y-97701179D01*
X128838820Y-97540342D01*
X128652482Y-97409865D01*
X128594133Y-97382657D01*
X128541694Y-97336484D01*
X128522542Y-97269291D01*
X128542758Y-97202410D01*
X128594129Y-97157895D01*
X128652734Y-97130568D01*
X128839139Y-97000047D01*
X129000047Y-96839139D01*
X129130568Y-96652734D01*
X129226739Y-96446496D01*
X129285635Y-96226692D01*
X129305468Y-96000000D01*
X129285635Y-95773308D01*
X129235610Y-95586611D01*
X129226741Y-95553511D01*
X129226738Y-95553502D01*
X129202858Y-95502292D01*
X129130568Y-95347266D01*
X129000047Y-95160861D01*
X129000045Y-95160858D01*
X128839141Y-94999954D01*
X128652734Y-94869432D01*
X128652728Y-94869429D01*
X128603035Y-94846257D01*
X128594724Y-94842381D01*
X128542285Y-94796210D01*
X128523133Y-94729017D01*
X128543348Y-94662135D01*
X128594725Y-94617618D01*
X128652734Y-94590568D01*
X128839139Y-94460047D01*
X129000047Y-94299139D01*
X129130568Y-94112734D01*
X129226739Y-93906496D01*
X129285635Y-93686692D01*
X129305468Y-93460000D01*
X129285635Y-93233308D01*
X129226739Y-93013504D01*
X129130568Y-92807266D01*
X129000047Y-92620861D01*
X129000045Y-92620858D01*
X128839141Y-92459954D01*
X128652734Y-92329432D01*
X128652728Y-92329429D01*
X128594725Y-92302382D01*
X128542285Y-92256210D01*
X128523133Y-92189017D01*
X128543348Y-92122135D01*
X128594725Y-92077618D01*
X128652734Y-92050568D01*
X128839139Y-91920047D01*
X129000047Y-91759139D01*
X129130568Y-91572734D01*
X129226739Y-91366496D01*
X129285635Y-91146692D01*
X129305468Y-90920000D01*
X129285635Y-90693308D01*
X129233839Y-90500000D01*
X129226741Y-90473511D01*
X129226738Y-90473502D01*
X129155508Y-90320750D01*
X129130568Y-90267266D01*
X129000047Y-90080861D01*
X129000045Y-90080858D01*
X128839141Y-89919954D01*
X128652734Y-89789432D01*
X128652728Y-89789429D01*
X128620093Y-89774211D01*
X128594724Y-89762381D01*
X128542285Y-89716210D01*
X128523133Y-89649017D01*
X128543348Y-89582135D01*
X128594725Y-89537618D01*
X128652734Y-89510568D01*
X128839139Y-89380047D01*
X129000047Y-89219139D01*
X129130568Y-89032734D01*
X129226739Y-88826496D01*
X129285635Y-88606692D01*
X129305468Y-88380000D01*
X129285635Y-88153308D01*
X129228530Y-87940187D01*
X129226741Y-87933511D01*
X129226738Y-87933502D01*
X129130568Y-87727266D01*
X129000047Y-87540861D01*
X129000045Y-87540858D01*
X128839141Y-87379954D01*
X128652734Y-87249432D01*
X128652728Y-87249429D01*
X128594725Y-87222382D01*
X128542285Y-87176210D01*
X128523133Y-87109017D01*
X128543348Y-87042135D01*
X128594725Y-86997618D01*
X128652734Y-86970568D01*
X128839139Y-86840047D01*
X129000047Y-86679139D01*
X129130568Y-86492734D01*
X129226739Y-86286496D01*
X129285635Y-86066692D01*
X129302634Y-85872384D01*
X129305468Y-85840001D01*
X129305468Y-85839998D01*
X129294924Y-85719478D01*
X129285635Y-85613308D01*
X129226739Y-85393504D01*
X129130568Y-85187266D01*
X129130562Y-85187257D01*
X129130130Y-85186508D01*
X129130038Y-85186131D01*
X129128280Y-85182360D01*
X129129037Y-85182006D01*
X129113652Y-85118609D01*
X129136499Y-85052581D01*
X129191417Y-85009386D01*
X129237512Y-85000500D01*
X134382488Y-85000500D01*
X134449527Y-85020185D01*
G37*
G04 #@! TD.AperFunction*
G04 #@! TA.AperFunction,Conductor*
G36*
X119996942Y-80370185D02*
G01*
X120017584Y-80386819D01*
X121353181Y-81722416D01*
X121386666Y-81783739D01*
X121389500Y-81810097D01*
X121389500Y-82340452D01*
X121369815Y-82407491D01*
X121363481Y-82416450D01*
X121358865Y-82422400D01*
X121277131Y-82560606D01*
X121277129Y-82560611D01*
X121232335Y-82714791D01*
X121232334Y-82714797D01*
X121229500Y-82750811D01*
X121229500Y-83249169D01*
X121229501Y-83249191D01*
X121232335Y-83285205D01*
X121277129Y-83439388D01*
X121277131Y-83439393D01*
X121358863Y-83577595D01*
X121358869Y-83577603D01*
X121472396Y-83691130D01*
X121472400Y-83691133D01*
X121472402Y-83691135D01*
X121610607Y-83772869D01*
X121651268Y-83784682D01*
X121764791Y-83817664D01*
X121764794Y-83817664D01*
X121764796Y-83817665D01*
X121800819Y-83820500D01*
X122199180Y-83820499D01*
X122235204Y-83817665D01*
X122389393Y-83772869D01*
X122447369Y-83738581D01*
X122515093Y-83721398D01*
X122573612Y-83738581D01*
X122630805Y-83772404D01*
X122770000Y-83812844D01*
X122770000Y-83260408D01*
X122770382Y-83250679D01*
X122770435Y-83250000D01*
X123270000Y-83250000D01*
X123270000Y-83812843D01*
X123409194Y-83772404D01*
X123547285Y-83690738D01*
X123547294Y-83690731D01*
X123660731Y-83577294D01*
X123660738Y-83577285D01*
X123742406Y-83439191D01*
X123742407Y-83439188D01*
X123787166Y-83285128D01*
X123787167Y-83285122D01*
X123789931Y-83250000D01*
X123270000Y-83250000D01*
X122770435Y-83250000D01*
X122770500Y-83249181D01*
X122770499Y-82750820D01*
X122770434Y-82750000D01*
X123270000Y-82750000D01*
X123789931Y-82750000D01*
X123787167Y-82714877D01*
X123787166Y-82714871D01*
X123742407Y-82560811D01*
X123742406Y-82560808D01*
X123660738Y-82422714D01*
X123660731Y-82422705D01*
X123547294Y-82309268D01*
X123547285Y-82309261D01*
X123409191Y-82227593D01*
X123409188Y-82227591D01*
X123270001Y-82187153D01*
X123270000Y-82187154D01*
X123270000Y-82750000D01*
X122770434Y-82750000D01*
X122770382Y-82749332D01*
X122770000Y-82739607D01*
X122770000Y-82187154D01*
X122769998Y-82187153D01*
X122749094Y-82193227D01*
X122679225Y-82193027D01*
X122620555Y-82155084D01*
X122591712Y-82091446D01*
X122590500Y-82074150D01*
X122590500Y-81810097D01*
X122610185Y-81743058D01*
X122626819Y-81722416D01*
X123322416Y-81026819D01*
X123383739Y-80993334D01*
X123410097Y-80990500D01*
X125115500Y-80990500D01*
X125182539Y-81010185D01*
X125228294Y-81062989D01*
X125239500Y-81114500D01*
X125239500Y-81234697D01*
X125242356Y-81270991D01*
X125242357Y-81270997D01*
X125287504Y-81426390D01*
X125287505Y-81426393D01*
X125369881Y-81565684D01*
X125369887Y-81565692D01*
X125484307Y-81680112D01*
X125484311Y-81680115D01*
X125484313Y-81680117D01*
X125484315Y-81680118D01*
X125584799Y-81739544D01*
X125609359Y-81758595D01*
X125658349Y-81807585D01*
X125658355Y-81807590D01*
X126663181Y-82812416D01*
X126696666Y-82873739D01*
X126699500Y-82900097D01*
X126699500Y-83300001D01*
X126699501Y-83675500D01*
X126679817Y-83742539D01*
X126627013Y-83788294D01*
X126575501Y-83799500D01*
X124520940Y-83799500D01*
X124480019Y-83810464D01*
X124480019Y-83810465D01*
X124453149Y-83817665D01*
X124368214Y-83840423D01*
X124368209Y-83840426D01*
X124231290Y-83919475D01*
X124231282Y-83919481D01*
X122319479Y-85831284D01*
X122314447Y-85840001D01*
X122290613Y-85881284D01*
X122240423Y-85968215D01*
X122199499Y-86120943D01*
X122199499Y-86120945D01*
X122199499Y-86289046D01*
X122199500Y-86289059D01*
X122199500Y-86597454D01*
X122179815Y-86664493D01*
X122163181Y-86685135D01*
X113719481Y-95128834D01*
X113719475Y-95128842D01*
X113677247Y-95201985D01*
X113677247Y-95201987D01*
X113640423Y-95265766D01*
X113633255Y-95292517D01*
X113599499Y-95418495D01*
X113599499Y-95418497D01*
X113599499Y-95586598D01*
X113599500Y-95586611D01*
X113599500Y-96079902D01*
X113579815Y-96146941D01*
X113563181Y-96167583D01*
X112564432Y-97166332D01*
X112503109Y-97199817D01*
X112433417Y-97194833D01*
X112377484Y-97152961D01*
X112353067Y-97087497D01*
X112353223Y-97067843D01*
X112355659Y-97040000D01*
X112355659Y-97039999D01*
X112347565Y-96947483D01*
X112335063Y-96804592D01*
X112273903Y-96576337D01*
X112174035Y-96362171D01*
X112091051Y-96243656D01*
X112038494Y-96168597D01*
X111871402Y-96001506D01*
X111871401Y-96001505D01*
X111685405Y-95871269D01*
X111641781Y-95816692D01*
X111634588Y-95747193D01*
X111666110Y-95684839D01*
X111685405Y-95668119D01*
X111871082Y-95538105D01*
X112038105Y-95371082D01*
X112173600Y-95177578D01*
X112273429Y-94963492D01*
X112273432Y-94963486D01*
X112330636Y-94750000D01*
X111433012Y-94750000D01*
X111465925Y-94692993D01*
X111500000Y-94565826D01*
X111500000Y-94434174D01*
X111465925Y-94307007D01*
X111433012Y-94250000D01*
X112330636Y-94250000D01*
X112330635Y-94249999D01*
X112273432Y-94036513D01*
X112273429Y-94036507D01*
X112173600Y-93822422D01*
X112173599Y-93822420D01*
X112038113Y-93628926D01*
X112038108Y-93628920D01*
X111916053Y-93506865D01*
X111882568Y-93445542D01*
X111887552Y-93375850D01*
X111929424Y-93319917D01*
X111960400Y-93303002D01*
X112092331Y-93253796D01*
X112207546Y-93167546D01*
X112293796Y-93052331D01*
X112344091Y-92917483D01*
X112350500Y-92857873D01*
X112350499Y-91062128D01*
X112344091Y-91002517D01*
X112313313Y-90919998D01*
X112293797Y-90867671D01*
X112293793Y-90867664D01*
X112207547Y-90752455D01*
X112207544Y-90752452D01*
X112092335Y-90666206D01*
X112092328Y-90666202D01*
X111957482Y-90615908D01*
X111957483Y-90615908D01*
X111897883Y-90609501D01*
X111897881Y-90609500D01*
X111897873Y-90609500D01*
X111897865Y-90609500D01*
X110939096Y-90609500D01*
X110872057Y-90589815D01*
X110826302Y-90537011D01*
X110816358Y-90467853D01*
X110845383Y-90404297D01*
X110851415Y-90397819D01*
X112268734Y-88980500D01*
X113976501Y-87272732D01*
X114037822Y-87239249D01*
X114107514Y-87244233D01*
X114155409Y-87276432D01*
X114230256Y-87357738D01*
X114426491Y-87510474D01*
X114645190Y-87628828D01*
X114880386Y-87709571D01*
X115125665Y-87750500D01*
X115374335Y-87750500D01*
X115619614Y-87709571D01*
X115854810Y-87628828D01*
X116073509Y-87510474D01*
X116269744Y-87357738D01*
X116438164Y-87174785D01*
X116574173Y-86966607D01*
X116674063Y-86738881D01*
X116735108Y-86497821D01*
X116736633Y-86479424D01*
X116755643Y-86250000D01*
X116755643Y-86249994D01*
X116735109Y-86002187D01*
X116735107Y-86002175D01*
X116674063Y-85761118D01*
X116574173Y-85533393D01*
X116438166Y-85325217D01*
X116415411Y-85300499D01*
X116269744Y-85142262D01*
X116073509Y-84989526D01*
X116073507Y-84989525D01*
X116073506Y-84989524D01*
X115915482Y-84904006D01*
X115865892Y-84854786D01*
X115850500Y-84794951D01*
X115850500Y-81205048D01*
X115870185Y-81138009D01*
X115915481Y-81095993D01*
X116073509Y-81010474D01*
X116269744Y-80857738D01*
X116438164Y-80674785D01*
X116574173Y-80466607D01*
X116592560Y-80424689D01*
X116637517Y-80371204D01*
X116704253Y-80350514D01*
X116706116Y-80350500D01*
X119929903Y-80350500D01*
X119996942Y-80370185D01*
G37*
G04 #@! TD.AperFunction*
G04 #@! TA.AperFunction,Conductor*
G36*
X153002855Y-65000632D02*
G01*
X153363310Y-65017296D01*
X153374700Y-65018352D01*
X153729238Y-65067808D01*
X153740482Y-65069910D01*
X154088944Y-65151867D01*
X154099934Y-65154994D01*
X154439368Y-65268761D01*
X154450022Y-65272889D01*
X154777488Y-65417479D01*
X154787735Y-65422581D01*
X155100452Y-65596765D01*
X155110190Y-65602794D01*
X155396535Y-65798944D01*
X155405512Y-65805093D01*
X155414652Y-65811996D01*
X155690035Y-66040671D01*
X155698499Y-66048387D01*
X155951612Y-66301500D01*
X155959328Y-66309964D01*
X156188003Y-66585347D01*
X156194906Y-66594487D01*
X156397205Y-66889809D01*
X156403234Y-66899547D01*
X156577418Y-67212264D01*
X156582523Y-67222517D01*
X156727105Y-67549964D01*
X156731243Y-67560644D01*
X156845001Y-67900052D01*
X156848135Y-67911068D01*
X156930087Y-68259509D01*
X156932192Y-68270768D01*
X156981646Y-68625292D01*
X156982703Y-68636696D01*
X156999368Y-68997144D01*
X156999500Y-69002871D01*
X156999500Y-130996753D01*
X156999330Y-131003243D01*
X156983407Y-131307046D01*
X156982050Y-131319953D01*
X156934971Y-131617205D01*
X156932273Y-131629902D01*
X156854374Y-131920623D01*
X156850363Y-131932966D01*
X156742510Y-132213935D01*
X156737231Y-132225793D01*
X156600591Y-132493963D01*
X156594101Y-132505203D01*
X156430187Y-132757608D01*
X156422558Y-132768109D01*
X156233149Y-133002010D01*
X156224464Y-133011655D01*
X156011655Y-133224464D01*
X156002010Y-133233149D01*
X155768109Y-133422558D01*
X155757608Y-133430187D01*
X155505203Y-133594101D01*
X155493963Y-133600591D01*
X155225793Y-133737231D01*
X155213935Y-133742510D01*
X154932966Y-133850363D01*
X154920623Y-133854374D01*
X154629902Y-133932273D01*
X154617205Y-133934971D01*
X154319953Y-133982050D01*
X154307046Y-133983407D01*
X154003244Y-133999330D01*
X153996754Y-133999500D01*
X112503051Y-133999500D01*
X112496968Y-133999351D01*
X112476900Y-133998365D01*
X112163071Y-133982947D01*
X112150962Y-133981754D01*
X111823305Y-133933151D01*
X111811369Y-133930777D01*
X111490055Y-133850292D01*
X111478411Y-133846759D01*
X111166540Y-133735170D01*
X111155301Y-133730515D01*
X110855844Y-133588883D01*
X110845121Y-133583150D01*
X110561011Y-133412862D01*
X110550893Y-133406102D01*
X110284829Y-133208775D01*
X110275423Y-133201055D01*
X110066452Y-133011655D01*
X110029986Y-132978604D01*
X110021395Y-132970013D01*
X109798944Y-132724576D01*
X109791224Y-132715170D01*
X109691034Y-132580080D01*
X109593895Y-132449103D01*
X109587137Y-132438988D01*
X109416844Y-132154871D01*
X109411120Y-132144163D01*
X109269479Y-131844688D01*
X109264829Y-131833459D01*
X109238565Y-131760057D01*
X109153240Y-131521588D01*
X109149707Y-131509944D01*
X109128375Y-131424782D01*
X109069219Y-131188617D01*
X109066848Y-131176694D01*
X109066564Y-131174782D01*
X109018245Y-130849037D01*
X109017052Y-130836927D01*
X109012670Y-130747738D01*
X109000649Y-130503032D01*
X109000500Y-130496948D01*
X109000500Y-130250005D01*
X112244859Y-130250005D01*
X112265385Y-130497729D01*
X112265387Y-130497738D01*
X112326412Y-130738717D01*
X112426266Y-130966364D01*
X112526564Y-131119882D01*
X113226212Y-130420234D01*
X113237482Y-130462292D01*
X113309890Y-130587708D01*
X113412292Y-130690110D01*
X113537708Y-130762518D01*
X113579765Y-130773787D01*
X112879942Y-131473609D01*
X112926768Y-131510055D01*
X112926770Y-131510056D01*
X113145385Y-131628364D01*
X113145396Y-131628369D01*
X113380506Y-131709083D01*
X113625707Y-131750000D01*
X113874293Y-131750000D01*
X114119493Y-131709083D01*
X114354603Y-131628369D01*
X114354614Y-131628364D01*
X114573228Y-131510057D01*
X114573231Y-131510055D01*
X114620056Y-131473609D01*
X113920234Y-130773787D01*
X113962292Y-130762518D01*
X114087708Y-130690110D01*
X114190110Y-130587708D01*
X114262518Y-130462292D01*
X114273787Y-130420235D01*
X114973434Y-131119882D01*
X115073731Y-130966369D01*
X115173587Y-130738717D01*
X115234612Y-130497738D01*
X115234614Y-130497729D01*
X115255141Y-130250005D01*
X115255141Y-130249994D01*
X115234614Y-130002270D01*
X115234612Y-130002261D01*
X115173587Y-129761282D01*
X115073731Y-129533630D01*
X114973434Y-129380116D01*
X114273787Y-130079764D01*
X114262518Y-130037708D01*
X114190110Y-129912292D01*
X114087708Y-129809890D01*
X113962292Y-129737482D01*
X113920235Y-129726212D01*
X114620057Y-129026390D01*
X114620056Y-129026389D01*
X114573229Y-128989943D01*
X114354614Y-128871635D01*
X114354603Y-128871630D01*
X114119493Y-128790916D01*
X113874293Y-128750000D01*
X113625707Y-128750000D01*
X113380506Y-128790916D01*
X113145396Y-128871630D01*
X113145390Y-128871632D01*
X112926761Y-128989949D01*
X112879942Y-129026388D01*
X112879942Y-129026390D01*
X113579765Y-129726212D01*
X113537708Y-129737482D01*
X113412292Y-129809890D01*
X113309890Y-129912292D01*
X113237482Y-130037708D01*
X113226212Y-130079764D01*
X112526564Y-129380116D01*
X112426267Y-129533632D01*
X112326412Y-129761282D01*
X112265387Y-130002261D01*
X112265385Y-130002270D01*
X112244859Y-130249994D01*
X112244859Y-130250005D01*
X109000500Y-130250005D01*
X109000500Y-123750005D01*
X112244859Y-123750005D01*
X112265385Y-123997729D01*
X112265387Y-123997738D01*
X112326412Y-124238717D01*
X112426266Y-124466364D01*
X112526564Y-124619882D01*
X113226212Y-123920234D01*
X113237482Y-123962292D01*
X113309890Y-124087708D01*
X113412292Y-124190110D01*
X113537708Y-124262518D01*
X113579765Y-124273787D01*
X112879942Y-124973609D01*
X112926768Y-125010055D01*
X112926770Y-125010056D01*
X113145385Y-125128364D01*
X113145396Y-125128369D01*
X113380506Y-125209083D01*
X113625707Y-125250000D01*
X113874293Y-125250000D01*
X114119493Y-125209083D01*
X114354603Y-125128369D01*
X114354614Y-125128364D01*
X114573228Y-125010057D01*
X114573231Y-125010055D01*
X114620056Y-124973609D01*
X113920234Y-124273787D01*
X113962292Y-124262518D01*
X114087708Y-124190110D01*
X114190110Y-124087708D01*
X114262518Y-123962292D01*
X114273787Y-123920235D01*
X114973434Y-124619882D01*
X115073731Y-124466369D01*
X115173587Y-124238717D01*
X115234612Y-123997738D01*
X115234614Y-123997729D01*
X115255141Y-123750005D01*
X115255141Y-123749994D01*
X115234614Y-123502270D01*
X115234612Y-123502261D01*
X115173587Y-123261282D01*
X115073731Y-123033630D01*
X114973434Y-122880116D01*
X114273787Y-123579764D01*
X114262518Y-123537708D01*
X114190110Y-123412292D01*
X114087708Y-123309890D01*
X113962292Y-123237482D01*
X113920235Y-123226212D01*
X114620057Y-122526390D01*
X114620056Y-122526389D01*
X114573229Y-122489943D01*
X114354614Y-122371635D01*
X114354603Y-122371630D01*
X114119493Y-122290916D01*
X113874293Y-122250000D01*
X113625707Y-122250000D01*
X113380506Y-122290916D01*
X113145396Y-122371630D01*
X113145390Y-122371632D01*
X112926761Y-122489949D01*
X112879942Y-122526388D01*
X112879942Y-122526390D01*
X113579765Y-123226212D01*
X113537708Y-123237482D01*
X113412292Y-123309890D01*
X113309890Y-123412292D01*
X113237482Y-123537708D01*
X113226212Y-123579764D01*
X112526564Y-122880116D01*
X112426267Y-123033632D01*
X112326412Y-123261282D01*
X112265387Y-123502261D01*
X112265385Y-123502270D01*
X112244859Y-123749994D01*
X112244859Y-123750005D01*
X109000500Y-123750005D01*
X109000500Y-104309054D01*
X109249498Y-104309054D01*
X109258194Y-104341506D01*
X109290423Y-104461785D01*
X109308658Y-104493368D01*
X109317452Y-104508599D01*
X109369479Y-104598715D01*
X109488349Y-104717585D01*
X109488355Y-104717590D01*
X109667233Y-104896468D01*
X109700718Y-104957791D01*
X109699327Y-105016241D01*
X109664939Y-105144583D01*
X109664936Y-105144596D01*
X109644341Y-105379999D01*
X109644341Y-105380000D01*
X109664936Y-105615403D01*
X109664938Y-105615413D01*
X109726094Y-105843655D01*
X109726096Y-105843659D01*
X109726097Y-105843663D01*
X109767902Y-105933313D01*
X109825965Y-106057830D01*
X109825967Y-106057834D01*
X109961501Y-106251395D01*
X109961506Y-106251402D01*
X110128597Y-106418493D01*
X110128603Y-106418498D01*
X110314158Y-106548425D01*
X110357783Y-106603002D01*
X110364977Y-106672500D01*
X110333454Y-106734855D01*
X110314158Y-106751575D01*
X110128597Y-106881505D01*
X109961505Y-107048597D01*
X109825965Y-107242169D01*
X109825964Y-107242171D01*
X109726098Y-107456335D01*
X109726094Y-107456344D01*
X109664938Y-107684586D01*
X109664936Y-107684596D01*
X109644341Y-107919999D01*
X109644341Y-107920000D01*
X109664936Y-108155403D01*
X109664938Y-108155413D01*
X109726094Y-108383655D01*
X109726096Y-108383659D01*
X109726097Y-108383663D01*
X109767902Y-108473313D01*
X109825965Y-108597830D01*
X109825967Y-108597834D01*
X109961501Y-108791395D01*
X109961506Y-108791402D01*
X110128597Y-108958493D01*
X110128603Y-108958498D01*
X110314158Y-109088425D01*
X110357783Y-109143002D01*
X110364977Y-109212500D01*
X110333454Y-109274855D01*
X110314158Y-109291575D01*
X110128597Y-109421505D01*
X109961505Y-109588597D01*
X109825965Y-109782169D01*
X109825964Y-109782171D01*
X109726098Y-109996335D01*
X109726094Y-109996344D01*
X109664938Y-110224586D01*
X109664936Y-110224596D01*
X109644341Y-110459999D01*
X109644341Y-110460000D01*
X109664936Y-110695403D01*
X109664938Y-110695413D01*
X109726094Y-110923655D01*
X109726096Y-110923659D01*
X109726097Y-110923663D01*
X109767902Y-111013313D01*
X109825965Y-111137830D01*
X109825967Y-111137834D01*
X109961501Y-111331395D01*
X109961506Y-111331402D01*
X110128597Y-111498493D01*
X110128603Y-111498498D01*
X110314594Y-111628730D01*
X110358219Y-111683307D01*
X110365413Y-111752805D01*
X110333890Y-111815160D01*
X110314595Y-111831880D01*
X110128922Y-111961890D01*
X110128920Y-111961891D01*
X109961891Y-112128920D01*
X109961886Y-112128926D01*
X109826400Y-112322420D01*
X109826399Y-112322422D01*
X109726570Y-112536507D01*
X109726567Y-112536513D01*
X109669364Y-112749999D01*
X109669364Y-112750000D01*
X110566988Y-112750000D01*
X110534075Y-112807007D01*
X110500000Y-112934174D01*
X110500000Y-113065826D01*
X110534075Y-113192993D01*
X110566988Y-113250000D01*
X109669364Y-113250000D01*
X109726567Y-113463486D01*
X109726570Y-113463492D01*
X109826399Y-113677578D01*
X109961894Y-113871082D01*
X110128917Y-114038105D01*
X110314595Y-114168119D01*
X110358219Y-114222696D01*
X110365412Y-114292195D01*
X110333890Y-114354549D01*
X110314595Y-114371269D01*
X110128594Y-114501508D01*
X109961505Y-114668597D01*
X109825965Y-114862169D01*
X109825964Y-114862171D01*
X109726098Y-115076335D01*
X109726094Y-115076344D01*
X109664938Y-115304586D01*
X109664936Y-115304596D01*
X109644341Y-115539999D01*
X109644341Y-115540000D01*
X109664936Y-115775403D01*
X109664938Y-115775413D01*
X109726094Y-116003655D01*
X109726096Y-116003659D01*
X109726097Y-116003663D01*
X109767902Y-116093313D01*
X109825965Y-116217830D01*
X109825967Y-116217834D01*
X109897503Y-116319997D01*
X109961501Y-116411396D01*
X109961506Y-116411402D01*
X110083430Y-116533326D01*
X110116915Y-116594649D01*
X110111931Y-116664341D01*
X110070059Y-116720274D01*
X110039083Y-116737189D01*
X109907669Y-116786203D01*
X109907664Y-116786206D01*
X109792455Y-116872452D01*
X109792452Y-116872455D01*
X109706206Y-116987664D01*
X109706202Y-116987671D01*
X109655908Y-117122517D01*
X109651971Y-117159141D01*
X109649501Y-117182123D01*
X109649500Y-117182135D01*
X109649500Y-118977870D01*
X109649501Y-118977876D01*
X109655908Y-119037483D01*
X109706202Y-119172328D01*
X109706206Y-119172335D01*
X109792452Y-119287544D01*
X109792455Y-119287547D01*
X109907664Y-119373793D01*
X109907671Y-119373797D01*
X110042517Y-119424091D01*
X110042516Y-119424091D01*
X110049444Y-119424835D01*
X110102127Y-119430500D01*
X111897872Y-119430499D01*
X111957483Y-119424091D01*
X112092331Y-119373796D01*
X112207546Y-119287546D01*
X112293796Y-119172331D01*
X112344091Y-119037483D01*
X112350500Y-118977873D01*
X112350499Y-117182128D01*
X112344091Y-117122517D01*
X112293796Y-116987669D01*
X112293795Y-116987668D01*
X112293793Y-116987664D01*
X112207547Y-116872455D01*
X112207544Y-116872452D01*
X112092335Y-116786206D01*
X112092328Y-116786202D01*
X111960917Y-116737189D01*
X111904983Y-116695318D01*
X111880566Y-116629853D01*
X111895418Y-116561580D01*
X111916563Y-116533332D01*
X112038495Y-116411401D01*
X112174035Y-116217830D01*
X112273903Y-116003663D01*
X112335063Y-115775408D01*
X112355659Y-115540000D01*
X112355248Y-115535308D01*
X112350485Y-115480858D01*
X112335063Y-115304592D01*
X112273903Y-115076337D01*
X112174035Y-114862171D01*
X112116532Y-114780047D01*
X112038494Y-114668597D01*
X111871402Y-114501506D01*
X111871401Y-114501505D01*
X111685405Y-114371269D01*
X111641781Y-114316692D01*
X111634588Y-114247193D01*
X111666110Y-114184839D01*
X111685405Y-114168119D01*
X111871082Y-114038105D01*
X112038105Y-113871082D01*
X112173600Y-113677578D01*
X112273429Y-113463492D01*
X112273432Y-113463486D01*
X112330636Y-113250000D01*
X111433012Y-113250000D01*
X111465925Y-113192993D01*
X111500000Y-113065826D01*
X111500000Y-112934174D01*
X111465925Y-112807007D01*
X111433012Y-112750000D01*
X112330636Y-112750000D01*
X112330635Y-112749999D01*
X112273432Y-112536513D01*
X112273429Y-112536507D01*
X112173600Y-112322422D01*
X112173599Y-112322420D01*
X112038113Y-112128926D01*
X112038108Y-112128920D01*
X111871078Y-111961890D01*
X111685405Y-111831879D01*
X111641780Y-111777302D01*
X111634588Y-111707804D01*
X111666110Y-111645449D01*
X111685406Y-111628730D01*
X111871401Y-111498495D01*
X112038495Y-111331401D01*
X112174035Y-111137830D01*
X112273903Y-110923663D01*
X112335063Y-110695408D01*
X112355659Y-110460000D01*
X112335063Y-110224592D01*
X112273903Y-109996337D01*
X112174035Y-109782171D01*
X112116532Y-109700047D01*
X112038494Y-109588597D01*
X111871402Y-109421506D01*
X111871396Y-109421501D01*
X111685842Y-109291575D01*
X111642217Y-109236998D01*
X111635023Y-109167500D01*
X111666546Y-109105145D01*
X111685842Y-109088425D01*
X111708026Y-109072891D01*
X111871401Y-108958495D01*
X112038495Y-108791401D01*
X112174035Y-108597830D01*
X112273903Y-108383663D01*
X112335063Y-108155408D01*
X112355659Y-107920000D01*
X112355554Y-107918805D01*
X112345865Y-107808055D01*
X112335063Y-107684592D01*
X112300671Y-107556239D01*
X112302334Y-107486393D01*
X112332763Y-107436470D01*
X114885506Y-104883728D01*
X114885511Y-104883724D01*
X114895714Y-104873520D01*
X114895716Y-104873520D01*
X115007520Y-104761716D01*
X115041899Y-104702169D01*
X115083262Y-104630527D01*
X115083265Y-104630520D01*
X115083266Y-104630519D01*
X115086577Y-104624785D01*
X115127500Y-104472058D01*
X115127500Y-104313943D01*
X115127500Y-95933097D01*
X115147185Y-95866058D01*
X115163819Y-95845416D01*
X121992416Y-89016819D01*
X122053739Y-88983334D01*
X122080097Y-88980500D01*
X126768308Y-88980500D01*
X126835347Y-89000185D01*
X126869880Y-89033374D01*
X126955480Y-89155624D01*
X126999954Y-89219141D01*
X127160858Y-89380045D01*
X127160861Y-89380047D01*
X127347266Y-89510568D01*
X127405275Y-89537618D01*
X127457714Y-89583791D01*
X127476866Y-89650984D01*
X127456650Y-89717865D01*
X127405275Y-89762382D01*
X127347267Y-89789431D01*
X127347265Y-89789432D01*
X127160858Y-89919954D01*
X126999954Y-90080858D01*
X126869432Y-90267265D01*
X126869431Y-90267267D01*
X126773261Y-90473502D01*
X126773258Y-90473511D01*
X126714366Y-90693302D01*
X126714364Y-90693313D01*
X126694532Y-90919998D01*
X126694532Y-90920001D01*
X126714364Y-91146686D01*
X126714366Y-91146697D01*
X126773258Y-91366488D01*
X126773261Y-91366497D01*
X126869431Y-91572732D01*
X126869432Y-91572734D01*
X126999954Y-91759141D01*
X127160858Y-91920045D01*
X127160861Y-91920047D01*
X127347266Y-92050568D01*
X127405275Y-92077618D01*
X127457714Y-92123791D01*
X127476866Y-92190984D01*
X127456650Y-92257865D01*
X127405275Y-92302382D01*
X127347267Y-92329431D01*
X127347265Y-92329432D01*
X127160858Y-92459954D01*
X126999954Y-92620858D01*
X126869432Y-92807265D01*
X126869431Y-92807267D01*
X126773261Y-93013502D01*
X126773258Y-93013511D01*
X126714366Y-93233302D01*
X126714364Y-93233313D01*
X126694532Y-93459998D01*
X126694532Y-93460001D01*
X126714364Y-93686686D01*
X126714366Y-93686697D01*
X126773258Y-93906488D01*
X126773261Y-93906497D01*
X126869431Y-94112732D01*
X126869432Y-94112734D01*
X126999954Y-94299141D01*
X127160858Y-94460045D01*
X127160861Y-94460047D01*
X127347266Y-94590568D01*
X127405275Y-94617618D01*
X127457714Y-94663791D01*
X127476866Y-94730984D01*
X127456650Y-94797865D01*
X127405275Y-94842381D01*
X127396965Y-94846257D01*
X127347267Y-94869431D01*
X127347265Y-94869432D01*
X127160858Y-94999954D01*
X126999954Y-95160858D01*
X126869432Y-95347265D01*
X126869431Y-95347267D01*
X126773261Y-95553502D01*
X126773258Y-95553511D01*
X126714366Y-95773302D01*
X126714364Y-95773313D01*
X126694532Y-95999998D01*
X126694532Y-96000001D01*
X126714364Y-96226686D01*
X126714366Y-96226697D01*
X126773258Y-96446488D01*
X126773261Y-96446497D01*
X126869431Y-96652732D01*
X126869432Y-96652734D01*
X126999954Y-96839141D01*
X127160858Y-97000045D01*
X127160861Y-97000047D01*
X127347266Y-97130568D01*
X127405865Y-97157893D01*
X127458305Y-97204065D01*
X127477457Y-97271258D01*
X127457242Y-97338139D01*
X127405867Y-97382657D01*
X127347515Y-97409867D01*
X127161179Y-97540342D01*
X127000342Y-97701179D01*
X126869865Y-97887517D01*
X126773734Y-98093673D01*
X126773730Y-98093682D01*
X126721127Y-98289999D01*
X126721128Y-98290000D01*
X127684314Y-98290000D01*
X127679920Y-98294394D01*
X127627259Y-98385606D01*
X127600000Y-98487339D01*
X127600000Y-98592661D01*
X127627259Y-98694394D01*
X127679920Y-98785606D01*
X127684314Y-98790000D01*
X126721128Y-98790000D01*
X126773730Y-98986317D01*
X126773734Y-98986326D01*
X126869865Y-99192482D01*
X127000342Y-99378820D01*
X127161179Y-99539657D01*
X127347518Y-99670134D01*
X127347520Y-99670135D01*
X127405865Y-99697342D01*
X127458305Y-99743514D01*
X127477457Y-99810707D01*
X127457242Y-99877589D01*
X127405867Y-99922105D01*
X127347268Y-99949431D01*
X127347264Y-99949433D01*
X127160858Y-100079954D01*
X126999954Y-100240858D01*
X126869432Y-100427265D01*
X126869431Y-100427267D01*
X126773261Y-100633503D01*
X126772600Y-100635971D01*
X126772012Y-100636935D01*
X126771411Y-100638587D01*
X126771078Y-100638466D01*
X126736229Y-100695628D01*
X126673379Y-100726151D01*
X126604004Y-100717849D01*
X126565147Y-100691547D01*
X122386818Y-96513218D01*
X122353333Y-96451895D01*
X122350499Y-96425537D01*
X122350499Y-95352129D01*
X122350498Y-95352123D01*
X122350497Y-95352116D01*
X122344091Y-95292517D01*
X122343152Y-95290000D01*
X122293797Y-95157671D01*
X122293793Y-95157664D01*
X122207547Y-95042455D01*
X122207544Y-95042452D01*
X122092335Y-94956206D01*
X122092328Y-94956202D01*
X121957482Y-94905908D01*
X121957483Y-94905908D01*
X121897883Y-94899501D01*
X121897881Y-94899500D01*
X121897873Y-94899500D01*
X121897864Y-94899500D01*
X120102129Y-94899500D01*
X120102123Y-94899501D01*
X120042516Y-94905908D01*
X119907671Y-94956202D01*
X119907664Y-94956206D01*
X119792455Y-95042452D01*
X119792452Y-95042455D01*
X119706206Y-95157664D01*
X119706202Y-95157671D01*
X119655908Y-95292517D01*
X119649501Y-95352116D01*
X119649501Y-95352123D01*
X119649500Y-95352135D01*
X119649500Y-97147870D01*
X119649501Y-97147876D01*
X119655908Y-97207483D01*
X119706202Y-97342328D01*
X119706206Y-97342335D01*
X119792452Y-97457544D01*
X119792455Y-97457547D01*
X119907664Y-97543793D01*
X119907671Y-97543797D01*
X120039081Y-97592810D01*
X120095015Y-97634681D01*
X120119432Y-97700145D01*
X120104580Y-97768418D01*
X120083430Y-97796673D01*
X119961503Y-97918600D01*
X119825965Y-98112169D01*
X119825964Y-98112171D01*
X119726098Y-98326335D01*
X119726094Y-98326344D01*
X119664938Y-98554586D01*
X119664936Y-98554596D01*
X119644341Y-98789999D01*
X119644341Y-98790000D01*
X119664936Y-99025403D01*
X119664938Y-99025413D01*
X119726094Y-99253655D01*
X119726096Y-99253659D01*
X119726097Y-99253663D01*
X119768497Y-99344590D01*
X119825965Y-99467830D01*
X119825967Y-99467834D01*
X119904507Y-99580000D01*
X119961505Y-99661401D01*
X120128599Y-99828495D01*
X120199107Y-99877865D01*
X120322165Y-99964032D01*
X120322167Y-99964033D01*
X120322170Y-99964035D01*
X120536337Y-100063903D01*
X120764592Y-100125063D01*
X120952918Y-100141539D01*
X120999999Y-100145659D01*
X121000000Y-100145659D01*
X121000001Y-100145659D01*
X121039234Y-100142226D01*
X121235408Y-100125063D01*
X121463663Y-100063903D01*
X121677830Y-99964035D01*
X121871401Y-99828495D01*
X122038495Y-99661401D01*
X122174035Y-99467830D01*
X122273903Y-99253663D01*
X122335063Y-99025408D01*
X122355659Y-98790000D01*
X122335063Y-98554592D01*
X122310382Y-98462480D01*
X122312045Y-98392633D01*
X122351207Y-98334770D01*
X122415436Y-98307266D01*
X122484338Y-98318852D01*
X122517838Y-98342708D01*
X125862949Y-101687819D01*
X125896434Y-101749142D01*
X125891450Y-101818834D01*
X125849578Y-101874767D01*
X125784114Y-101899184D01*
X125775268Y-101899500D01*
X124920943Y-101899500D01*
X124768216Y-101940423D01*
X124768209Y-101940426D01*
X124631290Y-102019475D01*
X124631286Y-102019478D01*
X124519478Y-102131285D01*
X124500317Y-102164472D01*
X124480613Y-102190150D01*
X124017584Y-102653181D01*
X123956261Y-102686666D01*
X123929903Y-102689500D01*
X123815302Y-102689500D01*
X123779008Y-102692356D01*
X123779002Y-102692357D01*
X123623609Y-102737504D01*
X123623606Y-102737505D01*
X123484315Y-102819881D01*
X123484307Y-102819887D01*
X123441016Y-102863180D01*
X123379693Y-102896666D01*
X123353334Y-102899500D01*
X120686669Y-102899500D01*
X120686653Y-102899499D01*
X120679057Y-102899499D01*
X120520943Y-102899499D01*
X120413587Y-102928265D01*
X120368210Y-102940424D01*
X120368209Y-102940425D01*
X120333066Y-102960716D01*
X120333064Y-102960717D01*
X120231290Y-103019475D01*
X120231282Y-103019481D01*
X119469481Y-103781282D01*
X119469475Y-103781290D01*
X119444258Y-103824967D01*
X119393691Y-103873182D01*
X119380208Y-103879147D01*
X119307669Y-103906203D01*
X119307663Y-103906207D01*
X119192455Y-103992452D01*
X119192452Y-103992455D01*
X119106206Y-104107664D01*
X119106202Y-104107671D01*
X119055908Y-104242517D01*
X119049501Y-104302116D01*
X119049501Y-104302123D01*
X119049500Y-104302135D01*
X119049500Y-105297870D01*
X119049501Y-105297876D01*
X119055909Y-105357484D01*
X119092901Y-105456668D01*
X119097885Y-105526360D01*
X119092901Y-105543332D01*
X119055909Y-105642514D01*
X119055908Y-105642516D01*
X119049501Y-105702116D01*
X119049501Y-105702123D01*
X119049500Y-105702135D01*
X119049500Y-106697870D01*
X119049501Y-106697876D01*
X119055908Y-106757483D01*
X119106202Y-106892328D01*
X119106206Y-106892335D01*
X119192452Y-107007544D01*
X119192455Y-107007547D01*
X119307664Y-107093793D01*
X119307673Y-107093798D01*
X119380204Y-107120850D01*
X119436138Y-107162720D01*
X119444259Y-107175032D01*
X119469480Y-107218716D01*
X119469482Y-107218718D01*
X119588349Y-107337585D01*
X119588355Y-107337590D01*
X120115139Y-107864374D01*
X120115149Y-107864385D01*
X120231285Y-107980521D01*
X120264211Y-107999530D01*
X120297139Y-108018541D01*
X120368215Y-108059577D01*
X120520943Y-108100501D01*
X120520946Y-108100501D01*
X120686653Y-108100501D01*
X120686669Y-108100500D01*
X123373334Y-108100500D01*
X123440373Y-108120185D01*
X123461016Y-108136820D01*
X123504307Y-108180112D01*
X123504311Y-108180115D01*
X123504313Y-108180117D01*
X123643605Y-108262494D01*
X123643612Y-108262496D01*
X123799002Y-108307642D01*
X123799005Y-108307642D01*
X123799007Y-108307643D01*
X123835310Y-108310500D01*
X123835318Y-108310500D01*
X124244682Y-108310500D01*
X124244690Y-108310500D01*
X124280993Y-108307643D01*
X124280995Y-108307642D01*
X124280997Y-108307642D01*
X124321975Y-108295736D01*
X124436395Y-108262494D01*
X124456879Y-108250379D01*
X124524601Y-108233196D01*
X124583119Y-108250379D01*
X124603605Y-108262494D01*
X124603607Y-108262494D01*
X124603608Y-108262495D01*
X124759002Y-108307642D01*
X124759005Y-108307642D01*
X124759007Y-108307643D01*
X124795310Y-108310500D01*
X124795318Y-108310500D01*
X125204682Y-108310500D01*
X125204690Y-108310500D01*
X125240993Y-108307643D01*
X125240995Y-108307642D01*
X125240997Y-108307642D01*
X125396389Y-108262496D01*
X125396389Y-108262495D01*
X125396395Y-108262494D01*
X125492303Y-108205773D01*
X125560023Y-108188592D01*
X125621391Y-108207512D01*
X125650478Y-108225789D01*
X125755378Y-108262495D01*
X125820745Y-108285368D01*
X125820750Y-108285369D01*
X125999996Y-108305565D01*
X126000000Y-108305565D01*
X126000004Y-108305565D01*
X126179249Y-108285369D01*
X126179252Y-108285368D01*
X126179255Y-108285368D01*
X126349522Y-108225789D01*
X126502262Y-108129816D01*
X126620853Y-108011224D01*
X126682172Y-107977742D01*
X126751864Y-107982726D01*
X126807798Y-108024597D01*
X126832215Y-108090061D01*
X126820913Y-108151312D01*
X126773263Y-108253497D01*
X126773258Y-108253511D01*
X126714366Y-108473302D01*
X126714364Y-108473313D01*
X126694532Y-108699998D01*
X126694532Y-108700001D01*
X126714364Y-108926686D01*
X126714366Y-108926697D01*
X126773258Y-109146488D01*
X126773261Y-109146497D01*
X126869431Y-109352732D01*
X126869432Y-109352734D01*
X126999954Y-109539141D01*
X127160858Y-109700045D01*
X127160861Y-109700047D01*
X127347266Y-109830568D01*
X127405275Y-109857618D01*
X127457714Y-109903791D01*
X127476866Y-109970984D01*
X127456650Y-110037865D01*
X127405275Y-110082382D01*
X127347267Y-110109431D01*
X127347265Y-110109432D01*
X127160858Y-110239954D01*
X126999954Y-110400858D01*
X126869432Y-110587265D01*
X126869431Y-110587267D01*
X126773261Y-110793502D01*
X126773258Y-110793511D01*
X126714366Y-111013302D01*
X126714364Y-111013313D01*
X126694532Y-111239998D01*
X126694532Y-111240001D01*
X126714364Y-111466686D01*
X126714366Y-111466697D01*
X126773258Y-111686488D01*
X126773261Y-111686497D01*
X126869431Y-111892732D01*
X126869432Y-111892734D01*
X126999954Y-112079141D01*
X127160858Y-112240045D01*
X127160861Y-112240047D01*
X127347266Y-112370568D01*
X127405275Y-112397618D01*
X127457714Y-112443791D01*
X127476866Y-112510984D01*
X127456650Y-112577865D01*
X127405275Y-112622382D01*
X127347267Y-112649431D01*
X127347265Y-112649432D01*
X127160858Y-112779954D01*
X126999954Y-112940858D01*
X126869432Y-113127265D01*
X126869431Y-113127267D01*
X126773261Y-113333502D01*
X126773258Y-113333511D01*
X126714366Y-113553302D01*
X126714364Y-113553313D01*
X126694532Y-113779998D01*
X126694532Y-113780001D01*
X126714364Y-114006686D01*
X126714366Y-114006697D01*
X126773258Y-114226488D01*
X126773261Y-114226497D01*
X126869431Y-114432732D01*
X126869432Y-114432734D01*
X126999954Y-114619141D01*
X127160858Y-114780045D01*
X127160861Y-114780047D01*
X127347266Y-114910568D01*
X127405275Y-114937618D01*
X127457714Y-114983791D01*
X127476866Y-115050984D01*
X127456650Y-115117865D01*
X127405275Y-115162382D01*
X127347267Y-115189431D01*
X127347265Y-115189432D01*
X127160858Y-115319954D01*
X126999954Y-115480858D01*
X126869432Y-115667265D01*
X126869431Y-115667267D01*
X126773261Y-115873502D01*
X126773258Y-115873511D01*
X126714366Y-116093302D01*
X126714364Y-116093313D01*
X126694532Y-116319998D01*
X126694532Y-116320001D01*
X126714364Y-116546686D01*
X126714366Y-116546697D01*
X126773258Y-116766488D01*
X126773261Y-116766497D01*
X126869431Y-116972732D01*
X126869432Y-116972734D01*
X126999954Y-117159141D01*
X127160858Y-117320045D01*
X127160861Y-117320047D01*
X127347266Y-117450568D01*
X127553504Y-117546739D01*
X127773308Y-117605635D01*
X127935230Y-117619801D01*
X127999998Y-117625468D01*
X128000000Y-117625468D01*
X128000002Y-117625468D01*
X128056673Y-117620509D01*
X128226692Y-117605635D01*
X128446496Y-117546739D01*
X128652734Y-117450568D01*
X128839139Y-117320047D01*
X129000047Y-117159139D01*
X129130118Y-116973375D01*
X129184693Y-116929752D01*
X129231692Y-116920500D01*
X130093331Y-116920500D01*
X130093347Y-116920501D01*
X130100943Y-116920501D01*
X130259054Y-116920501D01*
X130259057Y-116920501D01*
X130411785Y-116879577D01*
X130461904Y-116850639D01*
X130548716Y-116800520D01*
X130660520Y-116688716D01*
X130660520Y-116688714D01*
X130670728Y-116678507D01*
X130670729Y-116678504D01*
X134212416Y-113136819D01*
X134273739Y-113103334D01*
X134300097Y-113100500D01*
X134307272Y-113100500D01*
X134374311Y-113120185D01*
X134420066Y-113172989D01*
X134430010Y-113242147D01*
X134419654Y-113276905D01*
X134393261Y-113333502D01*
X134393258Y-113333511D01*
X134334366Y-113553302D01*
X134334364Y-113553313D01*
X134314532Y-113779998D01*
X134314532Y-113780001D01*
X134334364Y-114006686D01*
X134334366Y-114006697D01*
X134360152Y-114102931D01*
X134358489Y-114172781D01*
X134328058Y-114222705D01*
X129131286Y-119419478D01*
X129019481Y-119531282D01*
X129019479Y-119531285D01*
X128969361Y-119618094D01*
X128969359Y-119618096D01*
X128940425Y-119668209D01*
X128940424Y-119668210D01*
X128924544Y-119727472D01*
X128899499Y-119820943D01*
X128899499Y-119820945D01*
X128899499Y-119979054D01*
X128899498Y-119979054D01*
X128940423Y-120131785D01*
X128969358Y-120181900D01*
X128969359Y-120181904D01*
X128969360Y-120181904D01*
X129019479Y-120268714D01*
X129019481Y-120268717D01*
X129131284Y-120380520D01*
X129218095Y-120430639D01*
X129218097Y-120430641D01*
X129268213Y-120459576D01*
X129268215Y-120459577D01*
X129307594Y-120470128D01*
X129367254Y-120506493D01*
X129397783Y-120569339D01*
X129399500Y-120589903D01*
X129399500Y-120824313D01*
X129379815Y-120891352D01*
X129327011Y-120937107D01*
X129257853Y-120947051D01*
X129239753Y-120942086D01*
X129239636Y-120942527D01*
X129231786Y-120940423D01*
X129231785Y-120940423D01*
X129079057Y-120899499D01*
X128920943Y-120899499D01*
X128913347Y-120899499D01*
X128913331Y-120899500D01*
X123566670Y-120899500D01*
X123566654Y-120899499D01*
X123559058Y-120899499D01*
X123400943Y-120899499D01*
X123324579Y-120919961D01*
X123248214Y-120940423D01*
X123248209Y-120940426D01*
X123111290Y-121019475D01*
X123111282Y-121019481D01*
X122477584Y-121653181D01*
X122416261Y-121686666D01*
X122389903Y-121689500D01*
X122275302Y-121689500D01*
X122239008Y-121692356D01*
X122239002Y-121692357D01*
X122083608Y-121737504D01*
X122083602Y-121737506D01*
X122063120Y-121749620D01*
X121995396Y-121766801D01*
X121936880Y-121749620D01*
X121916397Y-121737506D01*
X121916391Y-121737504D01*
X121760997Y-121692357D01*
X121760991Y-121692356D01*
X121724697Y-121689500D01*
X121724690Y-121689500D01*
X121315310Y-121689500D01*
X121315302Y-121689500D01*
X121279008Y-121692356D01*
X121279002Y-121692357D01*
X121123609Y-121737504D01*
X121123606Y-121737505D01*
X120984315Y-121819881D01*
X120984307Y-121819887D01*
X120941016Y-121863180D01*
X120879693Y-121896666D01*
X120853334Y-121899500D01*
X119586669Y-121899500D01*
X119586653Y-121899499D01*
X119579057Y-121899499D01*
X119420943Y-121899499D01*
X119335462Y-121922404D01*
X119268210Y-121940424D01*
X119268209Y-121940425D01*
X119233066Y-121960716D01*
X119233064Y-121960717D01*
X119131290Y-122019475D01*
X119131282Y-122019481D01*
X119050264Y-122100500D01*
X119019480Y-122131284D01*
X119019478Y-122131286D01*
X118935970Y-122214794D01*
X118853548Y-122297216D01*
X118792225Y-122330700D01*
X118725604Y-122326815D01*
X118619616Y-122290429D01*
X118374335Y-122249500D01*
X118125665Y-122249500D01*
X117880383Y-122290429D01*
X117645197Y-122371169D01*
X117645188Y-122371172D01*
X117426493Y-122489524D01*
X117230257Y-122642261D01*
X117061833Y-122825217D01*
X116925826Y-123033393D01*
X116825936Y-123261118D01*
X116764892Y-123502175D01*
X116764890Y-123502187D01*
X116744357Y-123749994D01*
X116744357Y-123750005D01*
X116764890Y-123997812D01*
X116764892Y-123997824D01*
X116825936Y-124238881D01*
X116925826Y-124466606D01*
X117061833Y-124674782D01*
X117061836Y-124674785D01*
X117230256Y-124857738D01*
X117426491Y-125010474D01*
X117426494Y-125010476D01*
X117426496Y-125010477D01*
X117492609Y-125046255D01*
X117584517Y-125095993D01*
X117634108Y-125145212D01*
X117649500Y-125205048D01*
X117649500Y-128794951D01*
X117629815Y-128861990D01*
X117584518Y-128904006D01*
X117426493Y-128989524D01*
X117230257Y-129142261D01*
X117061833Y-129325217D01*
X116925826Y-129533393D01*
X116825936Y-129761118D01*
X116764892Y-130002175D01*
X116764890Y-130002187D01*
X116744357Y-130249994D01*
X116744357Y-130250005D01*
X116764890Y-130497812D01*
X116764892Y-130497824D01*
X116825936Y-130738881D01*
X116925826Y-130966606D01*
X117061833Y-131174782D01*
X117061836Y-131174785D01*
X117230256Y-131357738D01*
X117426491Y-131510474D01*
X117426493Y-131510475D01*
X117644332Y-131628364D01*
X117645190Y-131628828D01*
X117864141Y-131703994D01*
X117878964Y-131709083D01*
X117880386Y-131709571D01*
X118125665Y-131750500D01*
X118374335Y-131750500D01*
X118619614Y-131709571D01*
X118854810Y-131628828D01*
X119073509Y-131510474D01*
X119269744Y-131357738D01*
X119438164Y-131174785D01*
X119574173Y-130966607D01*
X119674063Y-130738881D01*
X119735108Y-130497821D01*
X119735116Y-130497729D01*
X119755643Y-130250005D01*
X119755643Y-130249994D01*
X119735109Y-130002187D01*
X119735107Y-130002175D01*
X119674063Y-129761118D01*
X119574173Y-129533393D01*
X119438166Y-129325217D01*
X119393217Y-129276390D01*
X119269744Y-129142262D01*
X119073509Y-128989526D01*
X119073507Y-128989525D01*
X119073506Y-128989524D01*
X118915482Y-128904006D01*
X118865892Y-128854786D01*
X118850500Y-128794951D01*
X118850500Y-125205048D01*
X118870185Y-125138009D01*
X118915481Y-125095993D01*
X119073509Y-125010474D01*
X119269744Y-124857738D01*
X119438164Y-124674785D01*
X119574173Y-124466607D01*
X119674063Y-124238881D01*
X119735108Y-123997821D01*
X119738052Y-123962292D01*
X119755643Y-123750005D01*
X119755643Y-123749994D01*
X119735109Y-123502187D01*
X119735107Y-123502175D01*
X119686568Y-123310499D01*
X119674063Y-123261119D01*
X119674062Y-123261118D01*
X119673992Y-123260839D01*
X119676617Y-123191019D01*
X119706523Y-123142711D01*
X119712424Y-123136811D01*
X119773750Y-123103332D01*
X119800098Y-123100500D01*
X120853334Y-123100500D01*
X120920373Y-123120185D01*
X120941016Y-123136820D01*
X120984307Y-123180112D01*
X120984311Y-123180115D01*
X120984313Y-123180117D01*
X121123605Y-123262494D01*
X121164587Y-123274400D01*
X121279002Y-123307642D01*
X121279005Y-123307642D01*
X121279007Y-123307643D01*
X121315310Y-123310500D01*
X121429903Y-123310500D01*
X121496942Y-123330185D01*
X121517584Y-123346819D01*
X121980614Y-123809849D01*
X122000320Y-123835530D01*
X122019480Y-123868716D01*
X122131284Y-123980520D01*
X122131285Y-123980521D01*
X122631284Y-124480520D01*
X122631286Y-124480521D01*
X122631290Y-124480524D01*
X122751628Y-124550000D01*
X122768216Y-124559577D01*
X122920943Y-124600501D01*
X122920945Y-124600501D01*
X123086654Y-124600501D01*
X123086670Y-124600500D01*
X128699903Y-124600500D01*
X128766942Y-124620185D01*
X128787584Y-124636819D01*
X130352702Y-126201937D01*
X130386187Y-126263260D01*
X130381203Y-126332952D01*
X130339331Y-126388885D01*
X130329174Y-126395733D01*
X130289814Y-126419528D01*
X130289810Y-126419531D01*
X130169530Y-126539811D01*
X130081522Y-126685393D01*
X130030913Y-126847807D01*
X130029183Y-126866847D01*
X130024690Y-126916300D01*
X130024500Y-126918386D01*
X130024500Y-127431613D01*
X130030913Y-127502192D01*
X130081522Y-127664606D01*
X130109780Y-127711350D01*
X130127616Y-127778905D01*
X130106098Y-127845379D01*
X130052058Y-127889666D01*
X130003663Y-127899500D01*
X126840097Y-127899500D01*
X126773058Y-127879815D01*
X126752416Y-127863181D01*
X125874204Y-126984969D01*
X125840719Y-126923646D01*
X125841680Y-126866847D01*
X125846503Y-126847804D01*
X125886134Y-126691305D01*
X125898687Y-126539811D01*
X125905300Y-126460006D01*
X125905300Y-126459993D01*
X125886135Y-126228702D01*
X125886133Y-126228691D01*
X125829157Y-126003699D01*
X125735924Y-125791151D01*
X125608983Y-125596852D01*
X125608980Y-125596849D01*
X125608979Y-125596847D01*
X125451784Y-125426087D01*
X125451779Y-125426083D01*
X125451777Y-125426081D01*
X125268634Y-125283535D01*
X125268628Y-125283531D01*
X125064504Y-125173064D01*
X125064495Y-125173061D01*
X124844984Y-125097702D01*
X124673282Y-125069050D01*
X124616049Y-125059500D01*
X124383951Y-125059500D01*
X124338164Y-125067140D01*
X124155015Y-125097702D01*
X123935504Y-125173061D01*
X123935495Y-125173064D01*
X123731371Y-125283531D01*
X123731365Y-125283535D01*
X123548222Y-125426081D01*
X123548219Y-125426084D01*
X123391016Y-125596852D01*
X123264075Y-125791151D01*
X123170842Y-126003699D01*
X123113866Y-126228691D01*
X123113864Y-126228702D01*
X123094700Y-126459993D01*
X123094700Y-126460006D01*
X123113864Y-126691297D01*
X123113866Y-126691308D01*
X123170842Y-126916300D01*
X123264075Y-127128848D01*
X123391016Y-127323147D01*
X123391019Y-127323151D01*
X123391021Y-127323153D01*
X123485803Y-127426114D01*
X123516724Y-127488767D01*
X123508864Y-127558193D01*
X123464716Y-127612348D01*
X123437906Y-127626277D01*
X123357669Y-127656203D01*
X123357664Y-127656206D01*
X123242455Y-127742452D01*
X123242452Y-127742455D01*
X123156206Y-127857664D01*
X123156202Y-127857671D01*
X123105908Y-127992517D01*
X123099501Y-128052116D01*
X123099500Y-128052135D01*
X123099500Y-129947870D01*
X123099501Y-129947876D01*
X123105908Y-130007483D01*
X123156202Y-130142328D01*
X123156206Y-130142335D01*
X123242452Y-130257544D01*
X123242455Y-130257547D01*
X123357664Y-130343793D01*
X123357671Y-130343797D01*
X123492517Y-130394091D01*
X123492516Y-130394091D01*
X123499444Y-130394835D01*
X123552127Y-130400500D01*
X125447872Y-130400499D01*
X125507483Y-130394091D01*
X125642331Y-130343796D01*
X125757546Y-130257546D01*
X125843796Y-130142331D01*
X125894091Y-130007483D01*
X125900500Y-129947873D01*
X125900499Y-129049096D01*
X125920183Y-128982058D01*
X125972987Y-128936303D01*
X126042146Y-128926359D01*
X126105702Y-128955384D01*
X126112180Y-128961416D01*
X126131284Y-128980520D01*
X126131286Y-128980521D01*
X126131290Y-128980524D01*
X126268209Y-129059573D01*
X126268216Y-129059577D01*
X126420943Y-129100500D01*
X126579057Y-129100500D01*
X129923564Y-129100500D01*
X129990603Y-129120185D01*
X130036358Y-129172989D01*
X130041945Y-129187599D01*
X130069614Y-129276390D01*
X130081522Y-129314606D01*
X130169530Y-129460188D01*
X130289811Y-129580469D01*
X130289813Y-129580470D01*
X130289815Y-129580472D01*
X130435394Y-129668478D01*
X130597804Y-129719086D01*
X130668384Y-129725500D01*
X130668387Y-129725500D01*
X131331613Y-129725500D01*
X131331616Y-129725500D01*
X131402196Y-129719086D01*
X131564606Y-129668478D01*
X131710185Y-129580472D01*
X131830472Y-129460185D01*
X131918478Y-129314606D01*
X131969086Y-129152196D01*
X131975500Y-129081616D01*
X131975500Y-128568384D01*
X131969086Y-128497804D01*
X131918478Y-128335394D01*
X131830472Y-128189815D01*
X131830470Y-128189813D01*
X131830469Y-128189811D01*
X131728339Y-128087681D01*
X131694854Y-128026358D01*
X131699838Y-127956666D01*
X131728339Y-127912319D01*
X131830468Y-127810189D01*
X131830469Y-127810188D01*
X131830472Y-127810185D01*
X131918478Y-127664606D01*
X131969086Y-127502196D01*
X131975500Y-127431616D01*
X131975500Y-126918384D01*
X131969086Y-126847804D01*
X131918478Y-126685394D01*
X131830472Y-126539815D01*
X131830470Y-126539813D01*
X131830469Y-126539811D01*
X131710188Y-126419530D01*
X131710181Y-126419526D01*
X131660347Y-126389399D01*
X131613162Y-126337871D01*
X131600500Y-126283284D01*
X131600500Y-125920944D01*
X131600500Y-125920943D01*
X131582587Y-125854092D01*
X131559577Y-125768215D01*
X131495758Y-125657678D01*
X131480520Y-125631284D01*
X131480518Y-125631282D01*
X131480517Y-125631280D01*
X131364397Y-125515160D01*
X131364374Y-125515139D01*
X129487590Y-123638355D01*
X129487588Y-123638352D01*
X129368717Y-123519481D01*
X129368712Y-123519477D01*
X129336554Y-123500911D01*
X129288339Y-123450344D01*
X129275115Y-123381737D01*
X129301083Y-123316873D01*
X129357997Y-123276344D01*
X129363962Y-123274447D01*
X129369386Y-123272871D01*
X129369393Y-123272869D01*
X129426882Y-123238869D01*
X129494602Y-123221688D01*
X129553117Y-123238869D01*
X129610607Y-123272869D01*
X129610610Y-123272869D01*
X129610612Y-123272871D01*
X129764791Y-123317664D01*
X129764794Y-123317664D01*
X129764796Y-123317665D01*
X129800819Y-123320500D01*
X130199180Y-123320499D01*
X130235204Y-123317665D01*
X130389393Y-123272869D01*
X130527598Y-123191135D01*
X130641135Y-123077598D01*
X130722869Y-122939393D01*
X130767665Y-122785204D01*
X130770500Y-122749181D01*
X130770499Y-122250820D01*
X130767665Y-122214796D01*
X130722869Y-122060607D01*
X130641135Y-121922402D01*
X130641133Y-121922400D01*
X130641130Y-121922396D01*
X130636819Y-121918085D01*
X130603334Y-121856762D01*
X130600500Y-121830404D01*
X130600500Y-119820945D01*
X130600500Y-119820943D01*
X130582636Y-119754273D01*
X130584299Y-119684428D01*
X130614728Y-119634505D01*
X134110573Y-116138660D01*
X134171894Y-116105177D01*
X134241586Y-116110161D01*
X134297519Y-116152033D01*
X134321936Y-116217497D01*
X134321780Y-116237150D01*
X134314532Y-116319997D01*
X134314532Y-116320001D01*
X134334364Y-116546686D01*
X134334366Y-116546697D01*
X134393258Y-116766488D01*
X134393261Y-116766497D01*
X134489431Y-116972732D01*
X134489432Y-116972734D01*
X134619954Y-117159141D01*
X134780858Y-117320045D01*
X134780861Y-117320047D01*
X134967266Y-117450568D01*
X135173504Y-117546739D01*
X135393308Y-117605635D01*
X135555230Y-117619801D01*
X135619998Y-117625468D01*
X135620000Y-117625468D01*
X135620002Y-117625468D01*
X135676673Y-117620509D01*
X135846692Y-117605635D01*
X136066496Y-117546739D01*
X136272734Y-117450568D01*
X136459139Y-117320047D01*
X136620047Y-117159139D01*
X136750568Y-116972734D01*
X136846739Y-116766496D01*
X136905635Y-116546692D01*
X136925468Y-116320000D01*
X136905635Y-116093308D01*
X136846739Y-115873504D01*
X136750568Y-115667266D01*
X136620047Y-115480861D01*
X136620045Y-115480858D01*
X136459141Y-115319954D01*
X136272734Y-115189432D01*
X136272728Y-115189429D01*
X136214725Y-115162382D01*
X136162285Y-115116210D01*
X136143133Y-115049017D01*
X136163348Y-114982135D01*
X136214725Y-114937618D01*
X136272734Y-114910568D01*
X136459139Y-114780047D01*
X136620047Y-114619139D01*
X136750568Y-114432734D01*
X136750572Y-114432725D01*
X136753276Y-114428043D01*
X136755564Y-114429364D01*
X136794197Y-114385159D01*
X136861319Y-114365758D01*
X136928275Y-114385726D01*
X136948476Y-114402076D01*
X138373181Y-115826781D01*
X138406666Y-115888104D01*
X138409500Y-115914462D01*
X138409500Y-121567820D01*
X138389815Y-121634859D01*
X138337011Y-121680614D01*
X138267853Y-121690558D01*
X138250908Y-121686897D01*
X138246726Y-121685682D01*
X138235202Y-121682334D01*
X138199181Y-121679500D01*
X137800830Y-121679500D01*
X137800808Y-121679501D01*
X137764794Y-121682335D01*
X137610611Y-121727129D01*
X137610608Y-121727130D01*
X137502587Y-121791013D01*
X137434863Y-121808194D01*
X137373497Y-121789275D01*
X137349522Y-121774211D01*
X137349521Y-121774210D01*
X137349517Y-121774208D01*
X137179262Y-121714633D01*
X137179249Y-121714630D01*
X137000004Y-121694435D01*
X136999996Y-121694435D01*
X136820750Y-121714630D01*
X136820745Y-121714631D01*
X136650476Y-121774211D01*
X136497737Y-121870184D01*
X136370184Y-121997737D01*
X136274211Y-122150476D01*
X136214631Y-122320745D01*
X136214630Y-122320750D01*
X136194435Y-122499996D01*
X136194435Y-122500000D01*
X136214630Y-122679249D01*
X136214631Y-122679254D01*
X136274211Y-122849523D01*
X136370184Y-123002262D01*
X136497738Y-123129816D01*
X136566917Y-123173284D01*
X136611626Y-123201377D01*
X136650478Y-123225789D01*
X136755375Y-123262494D01*
X136820745Y-123285368D01*
X136820750Y-123285369D01*
X136999996Y-123305565D01*
X137000000Y-123305565D01*
X137000004Y-123305565D01*
X137179249Y-123285369D01*
X137179252Y-123285368D01*
X137179255Y-123285368D01*
X137349522Y-123225789D01*
X137373493Y-123210726D01*
X137440729Y-123191725D01*
X137502588Y-123208987D01*
X137610607Y-123272869D01*
X137629345Y-123278313D01*
X137688230Y-123315918D01*
X137717437Y-123379391D01*
X137707691Y-123448577D01*
X137662088Y-123501512D01*
X137656752Y-123504775D01*
X137631287Y-123519477D01*
X137631282Y-123519481D01*
X136620125Y-124530639D01*
X135631286Y-125519478D01*
X135631284Y-125519480D01*
X135575382Y-125575381D01*
X135519481Y-125631282D01*
X135519480Y-125631284D01*
X135504242Y-125657678D01*
X135440423Y-125768215D01*
X135399499Y-125920943D01*
X135399499Y-125920944D01*
X135399499Y-125920945D01*
X135399499Y-126089046D01*
X135399500Y-126089059D01*
X135399500Y-126283284D01*
X135379815Y-126350323D01*
X135339652Y-126389400D01*
X135289811Y-126419530D01*
X135169530Y-126539811D01*
X135081522Y-126685393D01*
X135030913Y-126847807D01*
X135029183Y-126866847D01*
X135024690Y-126916300D01*
X135024500Y-126918386D01*
X135024500Y-127431613D01*
X135030913Y-127502192D01*
X135030913Y-127502194D01*
X135030914Y-127502196D01*
X135081522Y-127664606D01*
X135150618Y-127778905D01*
X135169530Y-127810188D01*
X135271661Y-127912319D01*
X135305146Y-127973642D01*
X135300162Y-128043334D01*
X135271661Y-128087681D01*
X135169531Y-128189810D01*
X135169530Y-128189811D01*
X135081522Y-128335393D01*
X135030913Y-128497807D01*
X135024500Y-128568386D01*
X135024500Y-129081613D01*
X135030913Y-129152192D01*
X135030913Y-129152194D01*
X135030914Y-129152196D01*
X135069613Y-129276388D01*
X135081522Y-129314606D01*
X135169530Y-129460188D01*
X135289811Y-129580469D01*
X135289813Y-129580470D01*
X135289815Y-129580472D01*
X135435394Y-129668478D01*
X135597804Y-129719086D01*
X135668384Y-129725500D01*
X135668387Y-129725500D01*
X136331613Y-129725500D01*
X136331616Y-129725500D01*
X136402196Y-129719086D01*
X136564606Y-129668478D01*
X136710185Y-129580472D01*
X136830472Y-129460185D01*
X136918478Y-129314606D01*
X136958051Y-129187607D01*
X136996788Y-129129462D01*
X137060813Y-129101488D01*
X137076436Y-129100500D01*
X140413331Y-129100500D01*
X140413347Y-129100501D01*
X140420943Y-129100501D01*
X140579054Y-129100501D01*
X140579057Y-129100501D01*
X140731785Y-129059577D01*
X140781904Y-129030639D01*
X140868716Y-128980520D01*
X140887817Y-128961419D01*
X140949139Y-128927932D01*
X141018831Y-128932915D01*
X141074766Y-128974786D01*
X141099184Y-129040249D01*
X141099500Y-129049098D01*
X141099500Y-129987870D01*
X141099501Y-129987876D01*
X141105908Y-130047483D01*
X141156202Y-130182328D01*
X141156206Y-130182335D01*
X141242452Y-130297544D01*
X141242455Y-130297547D01*
X141357664Y-130383793D01*
X141357671Y-130383797D01*
X141492517Y-130434091D01*
X141492516Y-130434091D01*
X141499444Y-130434835D01*
X141552127Y-130440500D01*
X143447872Y-130440499D01*
X143507483Y-130434091D01*
X143642331Y-130383796D01*
X143757546Y-130297546D01*
X143843796Y-130182331D01*
X143894091Y-130047483D01*
X143900500Y-129987873D01*
X143900499Y-128092128D01*
X143894091Y-128032517D01*
X143865800Y-127956666D01*
X143843797Y-127897671D01*
X143843793Y-127897664D01*
X143757547Y-127782455D01*
X143757544Y-127782452D01*
X143642335Y-127696206D01*
X143642328Y-127696202D01*
X143562094Y-127666277D01*
X143506160Y-127624406D01*
X143481743Y-127558941D01*
X143496595Y-127490668D01*
X143514190Y-127466121D01*
X143608979Y-127363153D01*
X143735924Y-127168849D01*
X143829157Y-126956300D01*
X143886134Y-126731305D01*
X143886135Y-126731297D01*
X143905300Y-126500006D01*
X143905300Y-126499993D01*
X143886135Y-126268702D01*
X143886133Y-126268691D01*
X143829157Y-126043699D01*
X143735924Y-125831151D01*
X143608983Y-125636852D01*
X143608980Y-125636849D01*
X143608979Y-125636847D01*
X143451784Y-125466087D01*
X143451779Y-125466083D01*
X143451777Y-125466081D01*
X143268634Y-125323535D01*
X143268628Y-125323531D01*
X143064504Y-125213064D01*
X143064495Y-125213061D01*
X142844984Y-125137702D01*
X142673282Y-125109050D01*
X142616049Y-125099500D01*
X142383951Y-125099500D01*
X142338164Y-125107140D01*
X142155015Y-125137702D01*
X141935504Y-125213061D01*
X141935495Y-125213064D01*
X141731371Y-125323531D01*
X141731365Y-125323535D01*
X141548222Y-125466081D01*
X141548219Y-125466084D01*
X141548216Y-125466086D01*
X141548216Y-125466087D01*
X141499064Y-125519481D01*
X141391016Y-125636852D01*
X141264075Y-125831151D01*
X141170842Y-126043699D01*
X141113866Y-126268691D01*
X141113864Y-126268702D01*
X141094700Y-126499993D01*
X141094700Y-126500006D01*
X141113864Y-126731297D01*
X141113866Y-126731309D01*
X141158319Y-126906848D01*
X141155694Y-126976668D01*
X141125794Y-127024969D01*
X140287584Y-127863181D01*
X140226261Y-127896666D01*
X140199903Y-127899500D01*
X136996337Y-127899500D01*
X136929298Y-127879815D01*
X136883543Y-127827011D01*
X136873599Y-127757853D01*
X136890220Y-127711350D01*
X136899377Y-127696202D01*
X136918478Y-127664606D01*
X136969086Y-127502196D01*
X136975500Y-127431616D01*
X136975500Y-126918384D01*
X136969086Y-126847804D01*
X136918478Y-126685394D01*
X136830472Y-126539815D01*
X136830470Y-126539813D01*
X136830469Y-126539811D01*
X136710189Y-126419531D01*
X136710182Y-126419526D01*
X136670826Y-126395733D01*
X136623639Y-126344205D01*
X136611802Y-126275345D01*
X136639073Y-126211017D01*
X136647287Y-126201947D01*
X138212416Y-124636819D01*
X138273739Y-124603334D01*
X138300097Y-124600500D01*
X143413331Y-124600500D01*
X143413347Y-124600501D01*
X143420943Y-124600501D01*
X143579054Y-124600501D01*
X143579057Y-124600501D01*
X143731785Y-124559577D01*
X143781904Y-124530639D01*
X143868716Y-124480520D01*
X143980520Y-124368716D01*
X143980520Y-124368714D01*
X143990728Y-124358507D01*
X143990729Y-124358504D01*
X144682322Y-123666912D01*
X144743641Y-123633430D01*
X144813333Y-123638414D01*
X144857680Y-123666915D01*
X145555139Y-124364374D01*
X145555149Y-124364385D01*
X145559479Y-124368715D01*
X145559480Y-124368716D01*
X145671284Y-124480520D01*
X145671286Y-124480521D01*
X145671290Y-124480524D01*
X145791628Y-124550000D01*
X145808216Y-124559577D01*
X145920019Y-124589534D01*
X145960942Y-124600500D01*
X145960943Y-124600500D01*
X147293884Y-124600500D01*
X147360923Y-124620185D01*
X147406678Y-124672989D01*
X147407440Y-124674689D01*
X147425827Y-124716608D01*
X147561833Y-124924782D01*
X147561836Y-124924785D01*
X147730256Y-125107738D01*
X147926491Y-125260474D01*
X147926494Y-125260476D01*
X147926496Y-125260477D01*
X147969104Y-125283535D01*
X148084517Y-125345993D01*
X148134108Y-125395212D01*
X148149500Y-125455048D01*
X148149500Y-129044951D01*
X148129815Y-129111990D01*
X148084518Y-129154006D01*
X147926493Y-129239524D01*
X147730257Y-129392261D01*
X147561833Y-129575217D01*
X147425826Y-129783393D01*
X147325936Y-130011118D01*
X147264892Y-130252175D01*
X147264890Y-130252187D01*
X147244357Y-130499994D01*
X147244357Y-130500005D01*
X147264890Y-130747812D01*
X147264892Y-130747824D01*
X147325936Y-130988881D01*
X147425826Y-131216606D01*
X147561833Y-131424782D01*
X147561836Y-131424785D01*
X147730256Y-131607738D01*
X147926491Y-131760474D01*
X147926493Y-131760475D01*
X148144332Y-131878364D01*
X148145190Y-131878828D01*
X148364141Y-131953994D01*
X148378964Y-131959083D01*
X148380386Y-131959571D01*
X148625665Y-132000500D01*
X148874335Y-132000500D01*
X149119614Y-131959571D01*
X149354810Y-131878828D01*
X149573509Y-131760474D01*
X149769744Y-131607738D01*
X149938164Y-131424785D01*
X150074173Y-131216607D01*
X150174063Y-130988881D01*
X150235108Y-130747821D01*
X150235849Y-130738881D01*
X150255643Y-130500005D01*
X151744859Y-130500005D01*
X151765385Y-130747729D01*
X151765387Y-130747738D01*
X151826412Y-130988717D01*
X151926266Y-131216364D01*
X152026564Y-131369882D01*
X152726212Y-130670234D01*
X152737482Y-130712292D01*
X152809890Y-130837708D01*
X152912292Y-130940110D01*
X153037708Y-131012518D01*
X153079765Y-131023787D01*
X152379942Y-131723609D01*
X152426768Y-131760055D01*
X152426770Y-131760056D01*
X152645385Y-131878364D01*
X152645396Y-131878369D01*
X152880506Y-131959083D01*
X153125707Y-132000000D01*
X153374293Y-132000000D01*
X153619493Y-131959083D01*
X153854603Y-131878369D01*
X153854614Y-131878364D01*
X154073228Y-131760057D01*
X154073231Y-131760055D01*
X154120056Y-131723609D01*
X153420234Y-131023787D01*
X153462292Y-131012518D01*
X153587708Y-130940110D01*
X153690110Y-130837708D01*
X153762518Y-130712292D01*
X153773787Y-130670235D01*
X154473434Y-131369882D01*
X154573731Y-131216369D01*
X154673587Y-130988717D01*
X154734612Y-130747738D01*
X154734614Y-130747729D01*
X154755141Y-130500005D01*
X154755141Y-130499994D01*
X154734614Y-130252270D01*
X154734612Y-130252261D01*
X154673587Y-130011282D01*
X154573731Y-129783630D01*
X154473434Y-129630116D01*
X153773787Y-130329764D01*
X153762518Y-130287708D01*
X153690110Y-130162292D01*
X153587708Y-130059890D01*
X153462292Y-129987482D01*
X153420235Y-129976212D01*
X154120057Y-129276390D01*
X154120056Y-129276389D01*
X154073229Y-129239943D01*
X153854614Y-129121635D01*
X153854603Y-129121630D01*
X153619493Y-129040916D01*
X153374293Y-129000000D01*
X153125707Y-129000000D01*
X152880506Y-129040916D01*
X152645396Y-129121630D01*
X152645390Y-129121632D01*
X152426761Y-129239949D01*
X152379942Y-129276388D01*
X152379942Y-129276390D01*
X153079765Y-129976212D01*
X153037708Y-129987482D01*
X152912292Y-130059890D01*
X152809890Y-130162292D01*
X152737482Y-130287708D01*
X152726212Y-130329764D01*
X152026564Y-129630116D01*
X151926267Y-129783632D01*
X151826412Y-130011282D01*
X151765387Y-130252261D01*
X151765385Y-130252270D01*
X151744859Y-130499994D01*
X151744859Y-130500005D01*
X150255643Y-130500005D01*
X150255643Y-130499994D01*
X150235109Y-130252187D01*
X150235107Y-130252175D01*
X150174063Y-130011118D01*
X150074173Y-129783393D01*
X149938166Y-129575217D01*
X149832271Y-129460185D01*
X149769744Y-129392262D01*
X149573509Y-129239526D01*
X149573507Y-129239525D01*
X149573506Y-129239524D01*
X149415482Y-129154006D01*
X149365892Y-129104786D01*
X149350500Y-129044951D01*
X149350500Y-125455048D01*
X149370185Y-125388009D01*
X149415481Y-125345993D01*
X149573509Y-125260474D01*
X149769744Y-125107738D01*
X149938164Y-124924785D01*
X150074173Y-124716607D01*
X150174063Y-124488881D01*
X150235108Y-124247821D01*
X150235849Y-124238881D01*
X150255643Y-124000005D01*
X151744859Y-124000005D01*
X151765385Y-124247729D01*
X151765387Y-124247738D01*
X151826412Y-124488717D01*
X151926266Y-124716364D01*
X152026564Y-124869882D01*
X152726212Y-124170234D01*
X152737482Y-124212292D01*
X152809890Y-124337708D01*
X152912292Y-124440110D01*
X153037708Y-124512518D01*
X153079765Y-124523787D01*
X152379942Y-125223609D01*
X152426768Y-125260055D01*
X152426770Y-125260056D01*
X152645385Y-125378364D01*
X152645396Y-125378369D01*
X152880506Y-125459083D01*
X153125707Y-125500000D01*
X153374293Y-125500000D01*
X153619493Y-125459083D01*
X153854603Y-125378369D01*
X153854614Y-125378364D01*
X154073228Y-125260057D01*
X154073231Y-125260055D01*
X154120056Y-125223609D01*
X153420234Y-124523787D01*
X153462292Y-124512518D01*
X153587708Y-124440110D01*
X153690110Y-124337708D01*
X153762518Y-124212292D01*
X153773787Y-124170235D01*
X154473434Y-124869882D01*
X154573731Y-124716369D01*
X154673587Y-124488717D01*
X154734612Y-124247738D01*
X154734614Y-124247729D01*
X154755141Y-124000005D01*
X154755141Y-123999994D01*
X154734614Y-123752270D01*
X154734612Y-123752261D01*
X154673587Y-123511282D01*
X154573731Y-123283630D01*
X154473434Y-123130116D01*
X153773787Y-123829764D01*
X153762518Y-123787708D01*
X153690110Y-123662292D01*
X153587708Y-123559890D01*
X153462292Y-123487482D01*
X153420235Y-123476212D01*
X154120057Y-122776390D01*
X154120056Y-122776389D01*
X154073229Y-122739943D01*
X153854614Y-122621635D01*
X153854603Y-122621630D01*
X153619493Y-122540916D01*
X153374293Y-122500000D01*
X153125707Y-122500000D01*
X152880506Y-122540916D01*
X152645396Y-122621630D01*
X152645390Y-122621632D01*
X152426761Y-122739949D01*
X152379942Y-122776388D01*
X152379942Y-122776390D01*
X153079765Y-123476212D01*
X153037708Y-123487482D01*
X152912292Y-123559890D01*
X152809890Y-123662292D01*
X152737482Y-123787708D01*
X152726212Y-123829764D01*
X152026564Y-123130116D01*
X151926267Y-123283632D01*
X151826412Y-123511282D01*
X151765387Y-123752261D01*
X151765385Y-123752270D01*
X151744859Y-123999994D01*
X151744859Y-124000005D01*
X150255643Y-124000005D01*
X150255643Y-123999994D01*
X150235109Y-123752187D01*
X150235107Y-123752175D01*
X150174063Y-123511118D01*
X150074173Y-123283393D01*
X149938166Y-123075217D01*
X149871006Y-123002262D01*
X149769744Y-122892262D01*
X149573509Y-122739526D01*
X149573507Y-122739525D01*
X149573506Y-122739524D01*
X149354811Y-122621172D01*
X149354802Y-122621169D01*
X149119616Y-122540429D01*
X148874335Y-122499500D01*
X148625665Y-122499500D01*
X148380383Y-122540429D01*
X148145197Y-122621169D01*
X148145188Y-122621172D01*
X147926493Y-122739524D01*
X147730257Y-122892261D01*
X147561833Y-123075217D01*
X147425827Y-123283391D01*
X147407440Y-123325311D01*
X147362483Y-123378796D01*
X147295747Y-123399486D01*
X147293884Y-123399500D01*
X146340097Y-123399500D01*
X146273058Y-123379815D01*
X146252416Y-123363181D01*
X146140200Y-123250965D01*
X146106715Y-123189642D01*
X146111699Y-123119950D01*
X146140201Y-123075602D01*
X146150117Y-123065687D01*
X146232494Y-122926395D01*
X146277643Y-122770993D01*
X146280500Y-122734690D01*
X146280500Y-122265310D01*
X146277643Y-122229007D01*
X146273514Y-122214796D01*
X146232495Y-122073609D01*
X146232494Y-122073606D01*
X146232494Y-122073605D01*
X146150117Y-121934313D01*
X146150115Y-121934311D01*
X146150112Y-121934307D01*
X146110728Y-121894924D01*
X146078634Y-121839338D01*
X146059577Y-121768216D01*
X146028640Y-121714631D01*
X145980524Y-121631290D01*
X145980518Y-121631282D01*
X145368717Y-121019481D01*
X145368716Y-121019480D01*
X145281904Y-120969360D01*
X145281904Y-120969359D01*
X145281900Y-120969358D01*
X145231785Y-120940423D01*
X145079057Y-120899499D01*
X144920943Y-120899499D01*
X144913347Y-120899499D01*
X144913331Y-120899500D01*
X140096670Y-120899500D01*
X140096654Y-120899499D01*
X140089058Y-120899499D01*
X139930943Y-120899499D01*
X139778216Y-120940423D01*
X139778214Y-120940424D01*
X139770366Y-120942527D01*
X139769739Y-120940190D01*
X139712472Y-120946342D01*
X139649996Y-120915061D01*
X139614349Y-120854969D01*
X139610500Y-120824314D01*
X139610500Y-115535311D01*
X139610500Y-115535308D01*
X139598828Y-115491749D01*
X139585354Y-115441457D01*
X139585354Y-115441456D01*
X139569578Y-115382583D01*
X139569577Y-115382580D01*
X139524550Y-115304592D01*
X139524549Y-115304590D01*
X139490521Y-115245651D01*
X139490520Y-115245649D01*
X139378716Y-115133845D01*
X139378715Y-115133844D01*
X139374385Y-115129514D01*
X139374374Y-115129504D01*
X136744877Y-112500007D01*
X146744671Y-112500007D01*
X146763964Y-112794363D01*
X146763965Y-112794373D01*
X146763966Y-112794380D01*
X146791772Y-112934174D01*
X146821518Y-113083716D01*
X146821521Y-113083730D01*
X146916349Y-113363080D01*
X147046825Y-113627660D01*
X147046829Y-113627667D01*
X147210725Y-113872955D01*
X147405241Y-114094758D01*
X147627044Y-114289274D01*
X147770546Y-114385159D01*
X147872335Y-114453172D01*
X148136923Y-114583652D01*
X148416278Y-114678481D01*
X148705620Y-114736034D01*
X148733888Y-114737886D01*
X148999993Y-114755329D01*
X149000000Y-114755329D01*
X149000007Y-114755329D01*
X149235675Y-114739881D01*
X149294380Y-114736034D01*
X149583722Y-114678481D01*
X149863077Y-114583652D01*
X150127665Y-114453172D01*
X150372957Y-114289273D01*
X150594758Y-114094758D01*
X150789273Y-113872957D01*
X150953172Y-113627665D01*
X151083652Y-113363077D01*
X151178481Y-113083722D01*
X151236034Y-112794380D01*
X151248781Y-112599901D01*
X151255329Y-112500007D01*
X151255329Y-112499992D01*
X151236035Y-112205636D01*
X151236034Y-112205620D01*
X151178481Y-111916278D01*
X151083652Y-111636923D01*
X150953172Y-111372336D01*
X150789273Y-111127043D01*
X150689530Y-111013308D01*
X150594758Y-110905241D01*
X150372955Y-110710725D01*
X150127667Y-110546829D01*
X150127660Y-110546825D01*
X149863080Y-110416349D01*
X149583730Y-110321521D01*
X149583724Y-110321519D01*
X149583722Y-110321519D01*
X149294380Y-110263966D01*
X149294373Y-110263965D01*
X149294363Y-110263964D01*
X149000007Y-110244671D01*
X148999993Y-110244671D01*
X148705636Y-110263964D01*
X148705624Y-110263965D01*
X148705620Y-110263966D01*
X148705612Y-110263967D01*
X148705609Y-110263968D01*
X148416283Y-110321518D01*
X148416269Y-110321521D01*
X148136919Y-110416349D01*
X147872334Y-110546828D01*
X147627041Y-110710728D01*
X147405241Y-110905241D01*
X147210728Y-111127041D01*
X147046828Y-111372334D01*
X146916349Y-111636919D01*
X146821521Y-111916269D01*
X146821518Y-111916283D01*
X146763968Y-112205609D01*
X146763964Y-112205636D01*
X146744671Y-112499992D01*
X146744671Y-112500007D01*
X136744877Y-112500007D01*
X136559709Y-112314839D01*
X136526224Y-112253516D01*
X136531208Y-112183824D01*
X136559707Y-112139478D01*
X136620047Y-112079139D01*
X136750568Y-111892734D01*
X136846739Y-111686496D01*
X136905635Y-111466692D01*
X136925468Y-111240000D01*
X136905635Y-111013308D01*
X136846739Y-110793504D01*
X136750568Y-110587266D01*
X136620047Y-110400861D01*
X136620045Y-110400858D01*
X136459141Y-110239954D01*
X136272734Y-110109432D01*
X136272728Y-110109429D01*
X136214725Y-110082382D01*
X136162285Y-110036210D01*
X136143133Y-109969017D01*
X136163348Y-109902135D01*
X136214725Y-109857618D01*
X136272734Y-109830568D01*
X136459139Y-109700047D01*
X136620047Y-109539139D01*
X136750568Y-109352734D01*
X136846739Y-109146496D01*
X136905635Y-108926692D01*
X136925468Y-108700000D01*
X136905635Y-108473308D01*
X136846739Y-108253504D01*
X136750568Y-108047266D01*
X136620047Y-107860861D01*
X136620045Y-107860858D01*
X136459141Y-107699954D01*
X136272734Y-107569432D01*
X136272728Y-107569429D01*
X136214725Y-107542382D01*
X136162285Y-107496210D01*
X136143133Y-107429017D01*
X136163348Y-107362135D01*
X136214725Y-107317618D01*
X136272734Y-107290568D01*
X136459139Y-107160047D01*
X136620047Y-106999139D01*
X136750568Y-106812734D01*
X136846739Y-106606496D01*
X136905635Y-106386692D01*
X136925468Y-106160000D01*
X136905635Y-105933308D01*
X136846739Y-105713504D01*
X136750568Y-105507266D01*
X136620047Y-105320861D01*
X136620045Y-105320858D01*
X136459141Y-105159954D01*
X136272734Y-105029432D01*
X136272728Y-105029429D01*
X136214725Y-105002382D01*
X136162285Y-104956210D01*
X136143133Y-104889017D01*
X136163348Y-104822135D01*
X136214725Y-104777618D01*
X136272734Y-104750568D01*
X136459139Y-104620047D01*
X136620047Y-104459139D01*
X136750568Y-104272734D01*
X136846739Y-104066496D01*
X136905635Y-103846692D01*
X136925468Y-103620000D01*
X136905635Y-103393308D01*
X136846739Y-103173504D01*
X136750568Y-102967266D01*
X136620047Y-102780861D01*
X136620045Y-102780858D01*
X136459141Y-102619954D01*
X136272734Y-102489432D01*
X136272728Y-102489429D01*
X136214725Y-102462382D01*
X136162285Y-102416210D01*
X136143133Y-102349017D01*
X136163348Y-102282135D01*
X136214725Y-102237618D01*
X136272734Y-102210568D01*
X136459139Y-102080047D01*
X136620047Y-101919139D01*
X136750568Y-101732734D01*
X136846739Y-101526496D01*
X136905635Y-101306692D01*
X136925468Y-101080000D01*
X136905635Y-100853308D01*
X136846739Y-100633504D01*
X136750568Y-100427266D01*
X136620047Y-100240861D01*
X136620045Y-100240858D01*
X136459141Y-100079954D01*
X136272734Y-99949432D01*
X136272728Y-99949429D01*
X136214725Y-99922382D01*
X136162285Y-99876210D01*
X136143133Y-99809017D01*
X136163348Y-99742135D01*
X136214725Y-99697618D01*
X136215319Y-99697341D01*
X136272734Y-99670568D01*
X136459139Y-99540047D01*
X136620047Y-99379139D01*
X136750568Y-99192734D01*
X136846739Y-98986496D01*
X136905635Y-98766692D01*
X136925468Y-98540000D01*
X136921968Y-98500000D01*
X136908207Y-98342708D01*
X136905635Y-98313308D01*
X136846739Y-98093504D01*
X136750568Y-97887266D01*
X136620047Y-97700861D01*
X136620045Y-97700858D01*
X136459141Y-97539954D01*
X136272734Y-97409432D01*
X136272728Y-97409429D01*
X136214725Y-97382382D01*
X136162285Y-97336210D01*
X136143133Y-97269017D01*
X136163348Y-97202135D01*
X136214725Y-97157618D01*
X136224712Y-97152961D01*
X136272734Y-97130568D01*
X136459139Y-97000047D01*
X136620047Y-96839139D01*
X136750568Y-96652734D01*
X136846739Y-96446496D01*
X136905635Y-96226692D01*
X136925468Y-96000000D01*
X136910158Y-95825001D01*
X139624500Y-95825001D01*
X139624501Y-95825019D01*
X139635000Y-95927796D01*
X139635001Y-95927799D01*
X139685404Y-96079902D01*
X139690186Y-96094334D01*
X139782288Y-96243656D01*
X139906344Y-96367712D01*
X140055666Y-96459814D01*
X140222203Y-96514999D01*
X140313103Y-96524285D01*
X140377794Y-96550681D01*
X140417945Y-96607861D01*
X140424500Y-96647643D01*
X140424500Y-97892060D01*
X140404815Y-97959099D01*
X140388181Y-97979741D01*
X140370184Y-97997737D01*
X140274211Y-98150476D01*
X140214631Y-98320745D01*
X140214630Y-98320750D01*
X140194435Y-98499996D01*
X140194435Y-98500003D01*
X140214630Y-98679249D01*
X140214631Y-98679254D01*
X140274211Y-98849523D01*
X140360278Y-98986497D01*
X140370184Y-99002262D01*
X140497738Y-99129816D01*
X140525231Y-99147091D01*
X140635285Y-99216243D01*
X140650478Y-99225789D01*
X140820745Y-99285368D01*
X140820750Y-99285369D01*
X140999996Y-99305565D01*
X141000000Y-99305565D01*
X141000004Y-99305565D01*
X141179249Y-99285369D01*
X141179252Y-99285368D01*
X141179255Y-99285368D01*
X141349522Y-99225789D01*
X141502262Y-99129816D01*
X141629816Y-99002262D01*
X141725789Y-98849522D01*
X141785368Y-98679255D01*
X141799414Y-98554592D01*
X141805565Y-98500003D01*
X141805565Y-98499996D01*
X141785369Y-98320750D01*
X141785368Y-98320745D01*
X141774610Y-98290000D01*
X141725789Y-98150478D01*
X141644505Y-98021116D01*
X141625500Y-97955145D01*
X141625500Y-96647642D01*
X141645185Y-96580603D01*
X141697989Y-96534848D01*
X141736897Y-96524284D01*
X141827797Y-96514999D01*
X141994334Y-96459814D01*
X142143656Y-96367712D01*
X142267712Y-96243656D01*
X142359814Y-96094334D01*
X142414999Y-95927797D01*
X142425500Y-95825009D01*
X142425499Y-95074992D01*
X142417838Y-95000000D01*
X142414999Y-94972203D01*
X142414998Y-94972200D01*
X142406615Y-94946901D01*
X142359814Y-94805666D01*
X142267712Y-94656344D01*
X142143656Y-94532288D01*
X142004436Y-94446417D01*
X141994336Y-94440187D01*
X141994331Y-94440185D01*
X141976191Y-94434174D01*
X141827797Y-94385001D01*
X141827795Y-94385000D01*
X141725010Y-94374500D01*
X140324998Y-94374500D01*
X140324981Y-94374501D01*
X140222203Y-94385000D01*
X140222200Y-94385001D01*
X140055668Y-94440185D01*
X140055663Y-94440187D01*
X139906342Y-94532289D01*
X139782289Y-94656342D01*
X139690187Y-94805663D01*
X139690185Y-94805668D01*
X139683896Y-94824648D01*
X139635001Y-94972203D01*
X139635001Y-94972204D01*
X139635000Y-94972204D01*
X139624500Y-95074983D01*
X139624500Y-95825001D01*
X136910158Y-95825001D01*
X136905635Y-95773308D01*
X136855610Y-95586611D01*
X136846741Y-95553511D01*
X136846738Y-95553502D01*
X136822858Y-95502292D01*
X136750568Y-95347266D01*
X136620047Y-95160861D01*
X136620045Y-95160858D01*
X136459141Y-94999954D01*
X136272734Y-94869432D01*
X136272728Y-94869429D01*
X136223035Y-94846257D01*
X136214724Y-94842381D01*
X136162285Y-94796210D01*
X136143133Y-94729017D01*
X136163348Y-94662135D01*
X136214725Y-94617618D01*
X136272734Y-94590568D01*
X136459139Y-94460047D01*
X136620047Y-94299139D01*
X136750568Y-94112734D01*
X136846739Y-93906496D01*
X136905635Y-93686692D01*
X136925468Y-93460000D01*
X136905635Y-93233308D01*
X136846739Y-93013504D01*
X136750568Y-92807266D01*
X136620047Y-92620861D01*
X136620045Y-92620858D01*
X136459141Y-92459954D01*
X136272734Y-92329432D01*
X136272728Y-92329429D01*
X136214725Y-92302382D01*
X136162285Y-92256210D01*
X136143133Y-92189017D01*
X136163348Y-92122135D01*
X136214725Y-92077618D01*
X136272734Y-92050568D01*
X136459139Y-91920047D01*
X136620047Y-91759139D01*
X136750568Y-91572734D01*
X136846739Y-91366496D01*
X136905635Y-91146692D01*
X136925468Y-90920000D01*
X136905635Y-90693308D01*
X136853840Y-90500003D01*
X138694435Y-90500003D01*
X138714630Y-90679249D01*
X138714631Y-90679254D01*
X138774211Y-90849523D01*
X138818494Y-90919998D01*
X138870184Y-91002262D01*
X138997738Y-91129816D01*
X139088080Y-91186582D01*
X139129064Y-91212334D01*
X139150478Y-91225789D01*
X139312409Y-91282451D01*
X139320745Y-91285368D01*
X139320750Y-91285369D01*
X139499996Y-91305565D01*
X139500000Y-91305565D01*
X139500004Y-91305565D01*
X139679249Y-91285369D01*
X139679252Y-91285368D01*
X139679255Y-91285368D01*
X139849522Y-91225789D01*
X139870936Y-91212334D01*
X139891174Y-91199616D01*
X139956515Y-91158560D01*
X140023751Y-91139560D01*
X140090586Y-91159927D01*
X140135801Y-91213195D01*
X140145039Y-91282451D01*
X140144105Y-91287742D01*
X140132410Y-91346544D01*
X140132409Y-91346548D01*
X140124500Y-91386306D01*
X140124019Y-91391192D01*
X140097857Y-91455979D01*
X140061015Y-91485102D01*
X140061813Y-91486395D01*
X140055667Y-91490185D01*
X140055666Y-91490186D01*
X139957419Y-91550784D01*
X139906342Y-91582289D01*
X139782289Y-91706342D01*
X139690187Y-91855663D01*
X139690186Y-91855666D01*
X139635001Y-92022203D01*
X139635001Y-92022204D01*
X139635000Y-92022204D01*
X139624500Y-92124983D01*
X139624500Y-92875001D01*
X139624501Y-92875019D01*
X139635000Y-92977796D01*
X139635001Y-92977799D01*
X139646832Y-93013502D01*
X139690186Y-93144334D01*
X139782288Y-93293656D01*
X139906344Y-93417712D01*
X140055666Y-93509814D01*
X140222203Y-93564999D01*
X140324991Y-93575500D01*
X141725008Y-93575499D01*
X141827797Y-93564999D01*
X141994334Y-93509814D01*
X142143656Y-93417712D01*
X142267712Y-93293656D01*
X142359814Y-93144334D01*
X142414999Y-92977797D01*
X142425500Y-92875009D01*
X142425499Y-92124992D01*
X142425376Y-92123791D01*
X142414999Y-92022203D01*
X142414998Y-92022200D01*
X142359814Y-91855666D01*
X142267712Y-91706344D01*
X142255114Y-91693746D01*
X142221629Y-91632423D01*
X142226613Y-91562731D01*
X142255110Y-91518389D01*
X148480557Y-85292941D01*
X148541878Y-85259458D01*
X148593620Y-85259720D01*
X148593640Y-85259589D01*
X148594545Y-85259725D01*
X148595826Y-85259732D01*
X148598232Y-85260281D01*
X148865063Y-85300499D01*
X148865068Y-85300499D01*
X148865071Y-85300500D01*
X148865072Y-85300500D01*
X149134928Y-85300500D01*
X149134929Y-85300500D01*
X149290851Y-85276998D01*
X149360072Y-85286471D01*
X149397011Y-85311932D01*
X150503181Y-86418101D01*
X150536666Y-86479424D01*
X150539500Y-86505782D01*
X150539500Y-86582056D01*
X150519815Y-86649095D01*
X150467011Y-86694850D01*
X150402246Y-86705345D01*
X150347873Y-86699500D01*
X150347865Y-86699500D01*
X147652129Y-86699500D01*
X147652123Y-86699501D01*
X147592516Y-86705908D01*
X147457671Y-86756202D01*
X147457664Y-86756206D01*
X147342455Y-86842452D01*
X147342452Y-86842455D01*
X147256206Y-86957664D01*
X147256202Y-86957671D01*
X147205908Y-87092517D01*
X147199501Y-87152116D01*
X147199500Y-87152135D01*
X147199500Y-89847870D01*
X147199501Y-89847876D01*
X147205908Y-89907483D01*
X147256202Y-90042328D01*
X147256206Y-90042335D01*
X147342452Y-90157544D01*
X147342455Y-90157547D01*
X147457664Y-90243793D01*
X147457671Y-90243797D01*
X147592517Y-90294091D01*
X147592516Y-90294091D01*
X147597753Y-90294654D01*
X147652127Y-90300500D01*
X150347872Y-90300499D01*
X150402245Y-90294654D01*
X150471004Y-90307059D01*
X150522142Y-90354669D01*
X150539500Y-90417943D01*
X150539500Y-94237627D01*
X150519815Y-94304666D01*
X150467011Y-94350421D01*
X150458834Y-94353809D01*
X150345169Y-94396203D01*
X150345164Y-94396206D01*
X150229955Y-94482452D01*
X150229952Y-94482455D01*
X150143706Y-94597664D01*
X150143703Y-94597670D01*
X150133308Y-94625541D01*
X150091436Y-94681474D01*
X150025972Y-94705891D01*
X149957699Y-94691039D01*
X149944250Y-94682531D01*
X149761538Y-94549783D01*
X149727202Y-94532288D01*
X149557755Y-94445950D01*
X149340248Y-94375278D01*
X149154818Y-94345909D01*
X149114354Y-94339500D01*
X148885646Y-94339500D01*
X148845182Y-94345909D01*
X148659753Y-94375278D01*
X148659750Y-94375278D01*
X148442244Y-94445950D01*
X148238461Y-94549783D01*
X148172551Y-94597670D01*
X148053434Y-94684214D01*
X148053432Y-94684216D01*
X148053431Y-94684216D01*
X147891716Y-94845931D01*
X147891709Y-94845940D01*
X147830007Y-94930864D01*
X147774677Y-94973530D01*
X147705063Y-94979508D01*
X147643269Y-94946901D01*
X147629372Y-94930863D01*
X147567907Y-94846263D01*
X147567902Y-94846257D01*
X147406242Y-94684597D01*
X147221276Y-94550211D01*
X147017568Y-94446417D01*
X146800124Y-94375765D01*
X146710000Y-94361490D01*
X146710000Y-95349252D01*
X146672292Y-95327482D01*
X146532409Y-95290000D01*
X146387591Y-95290000D01*
X146247708Y-95327482D01*
X146210000Y-95349252D01*
X146210000Y-94361490D01*
X146209999Y-94361490D01*
X146119875Y-94375765D01*
X145902431Y-94446417D01*
X145698723Y-94550211D01*
X145513757Y-94684597D01*
X145352097Y-94846257D01*
X145217711Y-95031223D01*
X145113917Y-95234929D01*
X145043265Y-95452371D01*
X145021468Y-95590000D01*
X145969252Y-95590000D01*
X145947482Y-95627708D01*
X145910000Y-95767591D01*
X145910000Y-95912409D01*
X145947482Y-96052292D01*
X145969252Y-96090000D01*
X145021468Y-96090000D01*
X145043265Y-96227628D01*
X145113917Y-96445070D01*
X145217711Y-96648776D01*
X145352097Y-96833742D01*
X145513757Y-96995402D01*
X145698723Y-97129788D01*
X145902429Y-97233582D01*
X146119871Y-97304234D01*
X146210000Y-97318509D01*
X146210000Y-96330747D01*
X146247708Y-96352518D01*
X146387591Y-96390000D01*
X146532409Y-96390000D01*
X146672292Y-96352518D01*
X146710000Y-96330747D01*
X146710000Y-97318508D01*
X146800128Y-97304234D01*
X147017570Y-97233582D01*
X147221276Y-97129788D01*
X147406242Y-96995402D01*
X147567905Y-96833739D01*
X147629371Y-96749137D01*
X147684701Y-96706470D01*
X147754314Y-96700491D01*
X147816109Y-96733096D01*
X147830007Y-96749134D01*
X147891714Y-96834066D01*
X148053434Y-96995786D01*
X148238462Y-97130217D01*
X148383397Y-97204065D01*
X148442244Y-97234049D01*
X148659751Y-97304721D01*
X148659752Y-97304721D01*
X148659755Y-97304722D01*
X148885646Y-97340500D01*
X148885647Y-97340500D01*
X149114353Y-97340500D01*
X149114354Y-97340500D01*
X149340245Y-97304722D01*
X149340248Y-97304721D01*
X149340249Y-97304721D01*
X149557755Y-97234049D01*
X149557755Y-97234048D01*
X149557758Y-97234048D01*
X149761538Y-97130217D01*
X149944245Y-96997472D01*
X150010046Y-96973994D01*
X150078100Y-96989819D01*
X150126795Y-97039924D01*
X150133308Y-97054459D01*
X150143702Y-97082328D01*
X150143706Y-97082335D01*
X150229952Y-97197544D01*
X150229955Y-97197547D01*
X150345164Y-97283793D01*
X150345171Y-97283797D01*
X150480017Y-97334091D01*
X150480016Y-97334091D01*
X150486944Y-97334835D01*
X150539627Y-97340500D01*
X152540372Y-97340499D01*
X152599983Y-97334091D01*
X152734831Y-97283796D01*
X152850046Y-97197546D01*
X152936296Y-97082331D01*
X152986591Y-96947483D01*
X152993000Y-96887873D01*
X152992999Y-94792128D01*
X152986591Y-94732517D01*
X152986019Y-94730984D01*
X152936297Y-94597671D01*
X152936293Y-94597664D01*
X152850047Y-94482455D01*
X152850044Y-94482452D01*
X152734835Y-94396206D01*
X152734830Y-94396203D01*
X152621166Y-94353809D01*
X152565233Y-94311937D01*
X152540816Y-94246473D01*
X152540500Y-94237627D01*
X152540500Y-85941456D01*
X152524439Y-85860717D01*
X152524439Y-85860716D01*
X152506291Y-85769480D01*
X152502051Y-85748164D01*
X152451047Y-85625028D01*
X152446192Y-85613307D01*
X152426635Y-85566092D01*
X152426628Y-85566079D01*
X152317140Y-85402219D01*
X152270796Y-85355875D01*
X152177782Y-85262861D01*
X152177781Y-85262860D01*
X150815005Y-83900085D01*
X150781521Y-83838763D01*
X150781796Y-83784814D01*
X150785383Y-83769103D01*
X150788958Y-83721398D01*
X150805549Y-83500004D01*
X150805549Y-83499995D01*
X150786865Y-83250679D01*
X150785383Y-83230897D01*
X150725334Y-82967805D01*
X150626743Y-82716602D01*
X150491815Y-82482898D01*
X150323561Y-82271915D01*
X150323560Y-82271914D01*
X150323557Y-82271910D01*
X150125741Y-82088365D01*
X150104891Y-82074150D01*
X149902775Y-81936349D01*
X149902769Y-81936346D01*
X149902768Y-81936345D01*
X149902767Y-81936344D01*
X149659643Y-81819263D01*
X149659645Y-81819263D01*
X149401773Y-81739720D01*
X149401767Y-81739718D01*
X149134936Y-81699500D01*
X149134929Y-81699500D01*
X148865071Y-81699500D01*
X148865063Y-81699500D01*
X148598232Y-81739718D01*
X148598226Y-81739720D01*
X148340358Y-81819262D01*
X148097230Y-81936346D01*
X147874258Y-82088365D01*
X147676442Y-82271910D01*
X147508185Y-82482898D01*
X147373258Y-82716599D01*
X147373256Y-82716603D01*
X147274666Y-82967804D01*
X147274664Y-82967811D01*
X147214616Y-83230898D01*
X147194451Y-83499995D01*
X147194451Y-83500004D01*
X147214616Y-83769101D01*
X147244482Y-83899952D01*
X147240209Y-83969691D01*
X147211272Y-84015226D01*
X142630966Y-88595532D01*
X142569643Y-88629017D01*
X142499951Y-88624033D01*
X142444018Y-88582161D01*
X142419927Y-88520453D01*
X142414999Y-88472203D01*
X142359814Y-88305666D01*
X142267712Y-88156344D01*
X142143656Y-88032288D01*
X141994334Y-87940186D01*
X141827797Y-87885001D01*
X141827795Y-87885000D01*
X141725010Y-87874500D01*
X140324998Y-87874500D01*
X140324981Y-87874501D01*
X140222203Y-87885000D01*
X140222200Y-87885001D01*
X140055668Y-87940185D01*
X140055663Y-87940187D01*
X139906342Y-88032289D01*
X139782289Y-88156342D01*
X139690187Y-88305663D01*
X139690186Y-88305666D01*
X139635001Y-88472203D01*
X139635001Y-88472204D01*
X139635000Y-88472204D01*
X139624500Y-88574983D01*
X139624500Y-89325001D01*
X139624501Y-89325019D01*
X139634849Y-89426309D01*
X139622079Y-89495001D01*
X139599174Y-89526589D01*
X139530292Y-89595471D01*
X139453290Y-89672473D01*
X139391967Y-89705957D01*
X139379494Y-89708011D01*
X139320750Y-89714630D01*
X139150478Y-89774210D01*
X138997737Y-89870184D01*
X138870184Y-89997737D01*
X138774211Y-90150476D01*
X138714631Y-90320745D01*
X138714630Y-90320750D01*
X138694435Y-90499996D01*
X138694435Y-90500003D01*
X136853840Y-90500003D01*
X136853839Y-90500000D01*
X136846741Y-90473511D01*
X136846738Y-90473502D01*
X136775508Y-90320750D01*
X136750568Y-90267266D01*
X136620047Y-90080861D01*
X136620045Y-90080858D01*
X136459141Y-89919954D01*
X136272734Y-89789432D01*
X136272728Y-89789429D01*
X136240093Y-89774211D01*
X136214724Y-89762381D01*
X136162285Y-89716210D01*
X136143133Y-89649017D01*
X136163348Y-89582135D01*
X136214725Y-89537618D01*
X136272734Y-89510568D01*
X136459139Y-89380047D01*
X136620047Y-89219139D01*
X136750568Y-89032734D01*
X136846739Y-88826496D01*
X136905635Y-88606692D01*
X136925468Y-88380000D01*
X136905635Y-88153308D01*
X136848530Y-87940187D01*
X136846741Y-87933511D01*
X136846738Y-87933502D01*
X136750568Y-87727266D01*
X136620047Y-87540861D01*
X136620045Y-87540858D01*
X136459141Y-87379954D01*
X136272734Y-87249432D01*
X136272728Y-87249429D01*
X136214725Y-87222382D01*
X136162285Y-87176210D01*
X136143133Y-87109017D01*
X136163348Y-87042135D01*
X136214725Y-86997618D01*
X136272734Y-86970568D01*
X136459139Y-86840047D01*
X136620047Y-86679139D01*
X136750118Y-86493375D01*
X136804693Y-86449752D01*
X136851692Y-86440500D01*
X137073331Y-86440500D01*
X137073347Y-86440501D01*
X137080943Y-86440501D01*
X137239054Y-86440501D01*
X137239057Y-86440501D01*
X137391785Y-86399577D01*
X137441904Y-86370639D01*
X137528716Y-86320520D01*
X137599236Y-86250000D01*
X139625001Y-86250000D01*
X139625001Y-86374986D01*
X139635494Y-86477697D01*
X139690641Y-86644119D01*
X139690643Y-86644124D01*
X139782684Y-86793345D01*
X139906654Y-86917315D01*
X140055875Y-87009356D01*
X140055880Y-87009358D01*
X140222302Y-87064505D01*
X140222309Y-87064506D01*
X140325019Y-87074999D01*
X140774999Y-87074999D01*
X140775000Y-87074998D01*
X140775000Y-86250000D01*
X141275000Y-86250000D01*
X141275000Y-87074999D01*
X141724972Y-87074999D01*
X141724986Y-87074998D01*
X141827697Y-87064505D01*
X141994119Y-87009358D01*
X141994124Y-87009356D01*
X142143345Y-86917315D01*
X142267315Y-86793345D01*
X142359356Y-86644124D01*
X142359358Y-86644119D01*
X142414505Y-86477697D01*
X142414506Y-86477690D01*
X142424999Y-86374986D01*
X142425000Y-86374973D01*
X142425000Y-86250000D01*
X141275000Y-86250000D01*
X140775000Y-86250000D01*
X139625001Y-86250000D01*
X137599236Y-86250000D01*
X137640520Y-86208716D01*
X137640520Y-86208714D01*
X137650728Y-86198507D01*
X137650730Y-86198504D01*
X138099233Y-85750000D01*
X139625000Y-85750000D01*
X140775000Y-85750000D01*
X140775000Y-84925000D01*
X141275000Y-84925000D01*
X141275000Y-85750000D01*
X142424999Y-85750000D01*
X142424999Y-85625028D01*
X142424998Y-85625013D01*
X142414505Y-85522302D01*
X142359358Y-85355880D01*
X142359356Y-85355875D01*
X142267315Y-85206654D01*
X142143345Y-85082684D01*
X141994124Y-84990643D01*
X141994119Y-84990641D01*
X141827697Y-84935494D01*
X141827690Y-84935493D01*
X141724986Y-84925000D01*
X141275000Y-84925000D01*
X140775000Y-84925000D01*
X140325028Y-84925000D01*
X140325012Y-84925001D01*
X140222302Y-84935494D01*
X140055880Y-84990641D01*
X140055875Y-84990643D01*
X139906654Y-85082684D01*
X139782684Y-85206654D01*
X139690643Y-85355875D01*
X139690641Y-85355880D01*
X139635494Y-85522302D01*
X139635493Y-85522309D01*
X139625000Y-85625013D01*
X139625000Y-85750000D01*
X138099233Y-85750000D01*
X138418535Y-85430698D01*
X138479856Y-85397215D01*
X138492311Y-85395163D01*
X138579255Y-85385368D01*
X138749522Y-85325789D01*
X138902262Y-85229816D01*
X139029816Y-85102262D01*
X139125789Y-84949522D01*
X139185368Y-84779255D01*
X139193235Y-84709432D01*
X139205565Y-84600003D01*
X139205565Y-84599996D01*
X139185369Y-84420750D01*
X139185368Y-84420745D01*
X139125788Y-84250476D01*
X139029815Y-84097737D01*
X138902262Y-83970184D01*
X138749523Y-83874211D01*
X138579254Y-83814631D01*
X138579249Y-83814630D01*
X138400004Y-83794435D01*
X138399996Y-83794435D01*
X138220750Y-83814630D01*
X138220745Y-83814631D01*
X138050476Y-83874211D01*
X137897737Y-83970184D01*
X137770184Y-84097737D01*
X137674210Y-84250478D01*
X137614630Y-84420750D01*
X137604837Y-84507668D01*
X137577770Y-84572082D01*
X137569298Y-84581465D01*
X136947584Y-85203181D01*
X136886261Y-85236666D01*
X136859903Y-85239500D01*
X136851692Y-85239500D01*
X136784653Y-85219815D01*
X136750119Y-85186625D01*
X136620047Y-85000861D01*
X136620045Y-85000858D01*
X136459141Y-84839954D01*
X136272734Y-84709432D01*
X136272728Y-84709429D01*
X136214725Y-84682382D01*
X136162285Y-84636210D01*
X136143133Y-84569017D01*
X136163348Y-84502135D01*
X136214725Y-84457618D01*
X136272734Y-84430568D01*
X136459139Y-84300047D01*
X136620047Y-84139139D01*
X136750568Y-83952734D01*
X136846739Y-83746496D01*
X136905635Y-83526692D01*
X136925468Y-83300000D01*
X136905635Y-83073308D01*
X136860916Y-82906415D01*
X136846741Y-82853511D01*
X136846738Y-82853502D01*
X136798162Y-82749332D01*
X136750568Y-82647266D01*
X136620047Y-82460861D01*
X136620045Y-82460858D01*
X136459141Y-82299954D01*
X136272734Y-82169432D01*
X136272732Y-82169431D01*
X136066497Y-82073261D01*
X136066488Y-82073258D01*
X135846697Y-82014366D01*
X135846693Y-82014365D01*
X135846692Y-82014365D01*
X135846691Y-82014364D01*
X135846686Y-82014364D01*
X135620002Y-81994532D01*
X135619998Y-81994532D01*
X135393313Y-82014364D01*
X135393302Y-82014366D01*
X135173511Y-82073258D01*
X135173502Y-82073261D01*
X134967267Y-82169431D01*
X134967265Y-82169432D01*
X134780858Y-82299954D01*
X134619954Y-82460858D01*
X134489432Y-82647265D01*
X134489431Y-82647267D01*
X134393261Y-82853502D01*
X134393258Y-82853511D01*
X134334366Y-83073302D01*
X134334364Y-83073313D01*
X134314532Y-83299998D01*
X134314532Y-83300001D01*
X134334364Y-83526686D01*
X134334366Y-83526697D01*
X134360152Y-83622931D01*
X134358489Y-83692781D01*
X134328060Y-83742703D01*
X134307585Y-83763179D01*
X134246263Y-83796666D01*
X134219902Y-83799500D01*
X129424500Y-83799500D01*
X129357461Y-83779815D01*
X129311706Y-83727011D01*
X129300500Y-83675500D01*
X129300499Y-82452129D01*
X129300498Y-82452123D01*
X129297303Y-82422402D01*
X129294091Y-82392517D01*
X129293811Y-82391767D01*
X129243797Y-82257671D01*
X129243793Y-82257664D01*
X129157547Y-82142455D01*
X129157544Y-82142452D01*
X129042335Y-82056206D01*
X129042328Y-82056202D01*
X128907482Y-82005908D01*
X128907483Y-82005908D01*
X128847883Y-81999501D01*
X128847881Y-81999500D01*
X128847873Y-81999500D01*
X128847865Y-81999500D01*
X127600097Y-81999500D01*
X127533058Y-81979815D01*
X127512416Y-81963181D01*
X127448798Y-81899563D01*
X127415313Y-81838240D01*
X127420297Y-81768548D01*
X127462169Y-81712615D01*
X127473349Y-81705155D01*
X127515687Y-81680117D01*
X127630117Y-81565687D01*
X127712494Y-81426395D01*
X127757643Y-81270993D01*
X127760500Y-81234690D01*
X127760500Y-80765310D01*
X127757643Y-80729007D01*
X127712494Y-80573605D01*
X127630117Y-80434313D01*
X127630115Y-80434311D01*
X127630112Y-80434307D01*
X127515692Y-80319887D01*
X127515684Y-80319881D01*
X127376393Y-80237505D01*
X127376390Y-80237504D01*
X127220997Y-80192357D01*
X127220991Y-80192356D01*
X127184697Y-80189500D01*
X127184690Y-80189500D01*
X127070097Y-80189500D01*
X127003058Y-80169815D01*
X126982416Y-80153181D01*
X126857590Y-80028355D01*
X126857588Y-80028352D01*
X126738717Y-79909481D01*
X126738716Y-79909480D01*
X126641694Y-79853465D01*
X126641693Y-79853464D01*
X126601783Y-79830422D01*
X126545881Y-79815443D01*
X126449057Y-79789499D01*
X126290943Y-79789499D01*
X126283347Y-79789499D01*
X126283331Y-79789500D01*
X123030942Y-79789500D01*
X122878216Y-79830422D01*
X122838304Y-79853466D01*
X122838303Y-79853465D01*
X122741287Y-79909477D01*
X122741282Y-79909481D01*
X122629478Y-80021286D01*
X122077680Y-80573083D01*
X122016357Y-80606568D01*
X121946665Y-80601584D01*
X121902318Y-80573083D01*
X120717590Y-79388355D01*
X120717588Y-79388352D01*
X120598717Y-79269481D01*
X120598716Y-79269480D01*
X120511904Y-79219360D01*
X120511904Y-79219359D01*
X120511900Y-79219358D01*
X120461785Y-79190423D01*
X120309057Y-79149499D01*
X120150943Y-79149499D01*
X120143347Y-79149499D01*
X120143331Y-79149500D01*
X116706116Y-79149500D01*
X116639077Y-79129815D01*
X116593322Y-79077011D01*
X116592560Y-79075311D01*
X116574172Y-79033391D01*
X116438166Y-78825217D01*
X116401482Y-78785368D01*
X116269744Y-78642262D01*
X116073509Y-78489526D01*
X116073507Y-78489525D01*
X116073506Y-78489524D01*
X115854811Y-78371172D01*
X115854802Y-78371169D01*
X115619616Y-78290429D01*
X115374335Y-78249500D01*
X115125665Y-78249500D01*
X114880383Y-78290429D01*
X114645197Y-78371169D01*
X114645188Y-78371172D01*
X114426493Y-78489524D01*
X114230257Y-78642261D01*
X114061833Y-78825217D01*
X113925826Y-79033393D01*
X113825936Y-79261118D01*
X113764892Y-79502175D01*
X113764890Y-79502187D01*
X113744357Y-79749994D01*
X113744357Y-79750005D01*
X113764890Y-79997812D01*
X113764892Y-79997824D01*
X113825936Y-80238881D01*
X113925826Y-80466606D01*
X114061833Y-80674782D01*
X114061836Y-80674785D01*
X114230256Y-80857738D01*
X114404470Y-80993334D01*
X114426494Y-81010476D01*
X114426496Y-81010477D01*
X114456694Y-81026819D01*
X114584517Y-81095993D01*
X114634108Y-81145212D01*
X114649500Y-81205048D01*
X114649500Y-84794951D01*
X114629815Y-84861990D01*
X114584518Y-84904006D01*
X114426493Y-84989524D01*
X114230257Y-85142261D01*
X114061833Y-85325217D01*
X113925824Y-85533396D01*
X113852502Y-85700550D01*
X113807546Y-85754036D01*
X113800952Y-85758123D01*
X113781285Y-85769478D01*
X113725383Y-85825381D01*
X113669480Y-85881284D01*
X109369481Y-90181282D01*
X109369479Y-90181284D01*
X109344347Y-90224815D01*
X109333724Y-90243216D01*
X109290423Y-90318215D01*
X109249499Y-90470943D01*
X109249499Y-90470945D01*
X109249499Y-90639046D01*
X109249500Y-90639059D01*
X109249500Y-104143330D01*
X109249499Y-104143348D01*
X109249499Y-104309054D01*
X109249498Y-104309054D01*
X109000500Y-104309054D01*
X109000500Y-86305127D01*
X109016614Y-86250247D01*
X109230659Y-86250247D01*
X109243477Y-86270192D01*
X109248076Y-86294887D01*
X109264890Y-86497812D01*
X109264892Y-86497824D01*
X109325936Y-86738881D01*
X109425826Y-86966606D01*
X109561833Y-87174782D01*
X109594245Y-87209991D01*
X109730256Y-87357738D01*
X109926491Y-87510474D01*
X110145190Y-87628828D01*
X110380386Y-87709571D01*
X110625665Y-87750500D01*
X110874335Y-87750500D01*
X111119614Y-87709571D01*
X111354810Y-87628828D01*
X111573509Y-87510474D01*
X111769744Y-87357738D01*
X111938164Y-87174785D01*
X112074173Y-86966607D01*
X112174063Y-86738881D01*
X112235108Y-86497821D01*
X112236633Y-86479424D01*
X112255643Y-86250000D01*
X112255643Y-86249994D01*
X112235109Y-86002187D01*
X112235107Y-86002175D01*
X112174063Y-85761118D01*
X112074173Y-85533393D01*
X111938166Y-85325217D01*
X111915411Y-85300499D01*
X111769744Y-85142262D01*
X111573509Y-84989526D01*
X111573507Y-84989525D01*
X111573506Y-84989524D01*
X111354811Y-84871172D01*
X111354802Y-84871169D01*
X111119616Y-84790429D01*
X110874335Y-84749500D01*
X110625665Y-84749500D01*
X110380383Y-84790429D01*
X110145197Y-84871169D01*
X110145188Y-84871172D01*
X109926493Y-84989524D01*
X109730257Y-85142261D01*
X109561833Y-85325217D01*
X109425826Y-85533393D01*
X109325936Y-85761118D01*
X109264892Y-86002175D01*
X109264890Y-86002187D01*
X109248076Y-86205112D01*
X109230659Y-86250247D01*
X109016614Y-86250247D01*
X109017532Y-86247121D01*
X109003044Y-86219862D01*
X109000500Y-86194872D01*
X109000500Y-79805127D01*
X109016614Y-79750247D01*
X109230659Y-79750247D01*
X109243477Y-79770192D01*
X109248076Y-79794887D01*
X109264890Y-79997812D01*
X109264892Y-79997824D01*
X109325936Y-80238881D01*
X109425826Y-80466606D01*
X109561833Y-80674782D01*
X109561836Y-80674785D01*
X109730256Y-80857738D01*
X109926491Y-81010474D01*
X110145190Y-81128828D01*
X110380386Y-81209571D01*
X110625665Y-81250500D01*
X110874335Y-81250500D01*
X111119614Y-81209571D01*
X111354810Y-81128828D01*
X111573509Y-81010474D01*
X111769744Y-80857738D01*
X111938164Y-80674785D01*
X112074173Y-80466607D01*
X112174063Y-80238881D01*
X112235108Y-79997821D01*
X112242428Y-79909480D01*
X112255643Y-79750005D01*
X112255643Y-79749994D01*
X112235109Y-79502187D01*
X112235107Y-79502175D01*
X112174063Y-79261118D01*
X112074173Y-79033393D01*
X111938166Y-78825217D01*
X111901482Y-78785368D01*
X111769744Y-78642262D01*
X111573509Y-78489526D01*
X111573507Y-78489525D01*
X111573506Y-78489524D01*
X111354811Y-78371172D01*
X111354802Y-78371169D01*
X111119616Y-78290429D01*
X110874335Y-78249500D01*
X110625665Y-78249500D01*
X110380383Y-78290429D01*
X110145197Y-78371169D01*
X110145188Y-78371172D01*
X109926493Y-78489524D01*
X109730257Y-78642261D01*
X109561833Y-78825217D01*
X109425826Y-79033393D01*
X109325936Y-79261118D01*
X109264892Y-79502175D01*
X109264890Y-79502187D01*
X109248076Y-79705112D01*
X109230659Y-79750247D01*
X109016614Y-79750247D01*
X109017532Y-79747121D01*
X109003044Y-79719862D01*
X109000500Y-79694872D01*
X109000500Y-74250005D01*
X112244357Y-74250005D01*
X112264890Y-74497812D01*
X112264892Y-74497824D01*
X112325936Y-74738881D01*
X112425826Y-74966606D01*
X112561833Y-75174782D01*
X112561836Y-75174785D01*
X112730256Y-75357738D01*
X112926491Y-75510474D01*
X112926493Y-75510475D01*
X113144332Y-75628364D01*
X113145190Y-75628828D01*
X113360613Y-75702783D01*
X113378964Y-75709083D01*
X113380386Y-75709571D01*
X113625665Y-75750500D01*
X113874335Y-75750500D01*
X114119608Y-75709572D01*
X114119607Y-75709572D01*
X114119614Y-75709571D01*
X114225607Y-75673182D01*
X114295402Y-75670033D01*
X114353548Y-75702783D01*
X116135139Y-77484374D01*
X116135149Y-77484385D01*
X116139479Y-77488715D01*
X116139480Y-77488716D01*
X116251284Y-77600520D01*
X116337815Y-77650478D01*
X116337817Y-77650480D01*
X116388211Y-77679575D01*
X116388215Y-77679577D01*
X116540943Y-77720501D01*
X116540946Y-77720501D01*
X116706653Y-77720501D01*
X116706669Y-77720500D01*
X119913331Y-77720500D01*
X119913347Y-77720501D01*
X119920943Y-77720501D01*
X120086653Y-77720501D01*
X120086669Y-77720500D01*
X127293331Y-77720500D01*
X127293347Y-77720501D01*
X127300943Y-77720501D01*
X127459054Y-77720501D01*
X127459057Y-77720501D01*
X127611785Y-77679577D01*
X127625439Y-77671693D01*
X127662162Y-77650492D01*
X127662173Y-77650484D01*
X127662185Y-77650478D01*
X127748716Y-77600520D01*
X127860520Y-77488716D01*
X127860520Y-77488714D01*
X127870721Y-77478514D01*
X127870724Y-77478509D01*
X128002417Y-77346817D01*
X128063740Y-77313334D01*
X128090097Y-77310500D01*
X128204682Y-77310500D01*
X128204690Y-77310500D01*
X128225767Y-77308841D01*
X128294145Y-77323202D01*
X128343903Y-77372252D01*
X128359500Y-77432458D01*
X128359500Y-77479016D01*
X128340494Y-77544988D01*
X128274212Y-77650476D01*
X128274209Y-77650481D01*
X128214633Y-77820737D01*
X128214630Y-77820750D01*
X128194435Y-77999996D01*
X128194435Y-78000003D01*
X128214630Y-78179249D01*
X128214631Y-78179254D01*
X128274211Y-78349523D01*
X128362180Y-78489524D01*
X128370184Y-78502262D01*
X128497738Y-78629816D01*
X128650478Y-78725789D01*
X128820745Y-78785368D01*
X128820750Y-78785369D01*
X128999996Y-78805565D01*
X129000000Y-78805565D01*
X129000004Y-78805565D01*
X129179249Y-78785369D01*
X129179252Y-78785368D01*
X129179255Y-78785368D01*
X129349522Y-78725789D01*
X129502262Y-78629816D01*
X129629816Y-78502262D01*
X129725789Y-78349522D01*
X129785368Y-78179255D01*
X129785369Y-78179249D01*
X129805565Y-78000003D01*
X129805565Y-77999996D01*
X129785369Y-77820750D01*
X129785368Y-77820745D01*
X129725790Y-77650481D01*
X129725789Y-77650478D01*
X129629816Y-77497738D01*
X129596819Y-77464741D01*
X129563334Y-77403418D01*
X129560500Y-77377060D01*
X129560500Y-77166666D01*
X129580185Y-77099627D01*
X129596816Y-77078987D01*
X129610117Y-77065687D01*
X129692494Y-76926395D01*
X129733467Y-76785368D01*
X129737642Y-76770997D01*
X129737643Y-76770991D01*
X129740499Y-76734697D01*
X129740500Y-76734690D01*
X129740500Y-76265310D01*
X129737643Y-76229007D01*
X129692494Y-76073605D01*
X129610117Y-75934313D01*
X129610115Y-75934311D01*
X129610112Y-75934307D01*
X129495692Y-75819887D01*
X129495684Y-75819881D01*
X129418707Y-75774357D01*
X129356395Y-75737506D01*
X129356394Y-75737505D01*
X129356393Y-75737505D01*
X129356390Y-75737504D01*
X129200997Y-75692357D01*
X129200991Y-75692356D01*
X129164697Y-75689500D01*
X129164690Y-75689500D01*
X129050097Y-75689500D01*
X128983058Y-75669815D01*
X128962416Y-75653181D01*
X128837590Y-75528355D01*
X128837588Y-75528352D01*
X128718717Y-75409481D01*
X128718709Y-75409475D01*
X128614828Y-75349500D01*
X128614825Y-75349499D01*
X128581787Y-75330424D01*
X128581786Y-75330423D01*
X128581785Y-75330423D01*
X128429057Y-75289499D01*
X128270943Y-75289499D01*
X128263347Y-75289499D01*
X128263331Y-75289500D01*
X127509097Y-75289500D01*
X127442058Y-75269815D01*
X127396303Y-75217011D01*
X127386359Y-75147853D01*
X127415384Y-75084297D01*
X127421416Y-75077819D01*
X130412416Y-72086819D01*
X130473739Y-72053334D01*
X130500097Y-72050500D01*
X130831613Y-72050500D01*
X130831616Y-72050500D01*
X130902196Y-72044086D01*
X131064606Y-71993478D01*
X131210185Y-71905472D01*
X131330472Y-71785185D01*
X131418478Y-71639606D01*
X131469086Y-71477196D01*
X131475500Y-71406616D01*
X131475500Y-71406613D01*
X135524500Y-71406613D01*
X135530913Y-71477192D01*
X135530913Y-71477194D01*
X135530914Y-71477196D01*
X135581522Y-71639606D01*
X135648261Y-71750006D01*
X135669530Y-71785188D01*
X135789811Y-71905469D01*
X135789813Y-71905470D01*
X135789815Y-71905472D01*
X135839650Y-71935598D01*
X135886838Y-71987126D01*
X135899500Y-72041715D01*
X135899500Y-73873330D01*
X135899499Y-73873348D01*
X135899499Y-74039054D01*
X135899498Y-74039054D01*
X135940423Y-74191786D01*
X135940424Y-74191787D01*
X135968504Y-74240423D01*
X136019480Y-74328716D01*
X136019482Y-74328718D01*
X136138349Y-74447585D01*
X136138355Y-74447590D01*
X137723181Y-76032416D01*
X137756666Y-76093739D01*
X137759500Y-76120097D01*
X137759500Y-76234697D01*
X137762356Y-76270991D01*
X137762357Y-76270997D01*
X137807504Y-76426390D01*
X137807505Y-76426393D01*
X137889881Y-76565684D01*
X137889887Y-76565692D01*
X138004307Y-76680112D01*
X138004311Y-76680115D01*
X138004313Y-76680117D01*
X138143605Y-76762494D01*
X138189109Y-76775714D01*
X138305091Y-76809411D01*
X138304663Y-76810883D01*
X138360192Y-76838829D01*
X138395714Y-76898995D01*
X138399500Y-76929401D01*
X138399500Y-77917587D01*
X138379815Y-77984626D01*
X138372450Y-77994896D01*
X138370186Y-77997734D01*
X138274211Y-78150476D01*
X138214631Y-78320745D01*
X138214630Y-78320750D01*
X138194435Y-78499996D01*
X138194435Y-78500003D01*
X138214630Y-78679249D01*
X138214631Y-78679254D01*
X138274211Y-78849523D01*
X138370184Y-79002262D01*
X138497738Y-79129816D01*
X138529065Y-79149500D01*
X138640244Y-79219359D01*
X138650478Y-79225789D01*
X138775337Y-79269479D01*
X138820745Y-79285368D01*
X138820750Y-79285369D01*
X138999996Y-79305565D01*
X139000000Y-79305565D01*
X139000004Y-79305565D01*
X139179249Y-79285369D01*
X139179252Y-79285368D01*
X139179255Y-79285368D01*
X139349522Y-79225789D01*
X139502262Y-79129816D01*
X139629816Y-79002262D01*
X139725789Y-78849522D01*
X139785368Y-78679255D01*
X139789536Y-78642262D01*
X139805565Y-78500003D01*
X139805565Y-78499996D01*
X139785369Y-78320750D01*
X139785368Y-78320745D01*
X139760438Y-78249500D01*
X139725789Y-78150478D01*
X139629816Y-77997738D01*
X139629814Y-77997736D01*
X139629813Y-77997734D01*
X139627550Y-77994896D01*
X139626659Y-77992715D01*
X139626111Y-77991842D01*
X139626264Y-77991745D01*
X139601144Y-77930209D01*
X139600500Y-77917587D01*
X139600500Y-76933324D01*
X139620185Y-76866285D01*
X139672989Y-76820530D01*
X139714771Y-76809706D01*
X139740993Y-76807643D01*
X139740995Y-76807642D01*
X139740997Y-76807642D01*
X139781975Y-76795736D01*
X139896395Y-76762494D01*
X140035687Y-76680117D01*
X140150117Y-76565687D01*
X140174093Y-76525144D01*
X140225160Y-76477462D01*
X140293901Y-76464956D01*
X140358491Y-76491601D01*
X140368506Y-76500584D01*
X140370184Y-76502262D01*
X140497738Y-76629816D01*
X140577784Y-76680112D01*
X140595326Y-76691135D01*
X140650478Y-76725789D01*
X140755375Y-76762494D01*
X140820745Y-76785368D01*
X140820750Y-76785369D01*
X140999996Y-76805565D01*
X141000000Y-76805565D01*
X141000004Y-76805565D01*
X141179249Y-76785369D01*
X141179252Y-76785368D01*
X141179255Y-76785368D01*
X141349522Y-76725789D01*
X141502262Y-76629816D01*
X141502267Y-76629810D01*
X141505097Y-76627555D01*
X141507275Y-76626665D01*
X141508158Y-76626111D01*
X141508255Y-76626265D01*
X141569783Y-76601145D01*
X141582412Y-76600500D01*
X141810405Y-76600500D01*
X141877444Y-76620185D01*
X141898081Y-76636814D01*
X141952402Y-76691135D01*
X142090607Y-76772869D01*
X142090614Y-76772871D01*
X142244791Y-76817664D01*
X142244794Y-76817664D01*
X142244796Y-76817665D01*
X142280819Y-76820500D01*
X142679180Y-76820499D01*
X142715204Y-76817665D01*
X142869393Y-76772869D01*
X142926882Y-76738869D01*
X142994602Y-76721688D01*
X143053117Y-76738869D01*
X143110607Y-76772869D01*
X143110610Y-76772869D01*
X143110612Y-76772871D01*
X143264791Y-76817664D01*
X143264794Y-76817664D01*
X143264796Y-76817665D01*
X143300819Y-76820500D01*
X143699180Y-76820499D01*
X143735204Y-76817665D01*
X143889393Y-76772869D01*
X144027598Y-76691135D01*
X144141135Y-76577598D01*
X144222869Y-76439393D01*
X144267665Y-76285204D01*
X144270500Y-76249181D01*
X144270499Y-75750820D01*
X144267665Y-75714796D01*
X144222869Y-75560607D01*
X144141135Y-75422402D01*
X144141133Y-75422400D01*
X144141130Y-75422396D01*
X144027603Y-75308869D01*
X144027595Y-75308863D01*
X143889393Y-75227131D01*
X143889388Y-75227129D01*
X143735208Y-75182335D01*
X143735202Y-75182334D01*
X143699188Y-75179500D01*
X143699181Y-75179500D01*
X143580097Y-75179500D01*
X143513058Y-75159815D01*
X143492416Y-75143181D01*
X143411416Y-75062181D01*
X143377931Y-75000858D01*
X143382915Y-74931166D01*
X143424787Y-74875233D01*
X143490251Y-74850816D01*
X143499097Y-74850500D01*
X147293884Y-74850500D01*
X147360923Y-74870185D01*
X147406678Y-74922989D01*
X147407440Y-74924689D01*
X147425827Y-74966608D01*
X147561833Y-75174782D01*
X147561836Y-75174785D01*
X147730256Y-75357738D01*
X147926491Y-75510474D01*
X147926493Y-75510475D01*
X148144332Y-75628364D01*
X148145190Y-75628828D01*
X148360613Y-75702783D01*
X148378964Y-75709083D01*
X148380386Y-75709571D01*
X148625665Y-75750500D01*
X148874335Y-75750500D01*
X149119614Y-75709571D01*
X149354810Y-75628828D01*
X149573509Y-75510474D01*
X149769744Y-75357738D01*
X149938164Y-75174785D01*
X150074173Y-74966607D01*
X150174063Y-74738881D01*
X150235108Y-74497821D01*
X150238052Y-74462292D01*
X150255643Y-74250005D01*
X151744859Y-74250005D01*
X151765385Y-74497729D01*
X151765387Y-74497738D01*
X151826412Y-74738717D01*
X151926266Y-74966364D01*
X152026564Y-75119882D01*
X152726212Y-74420234D01*
X152737482Y-74462292D01*
X152809890Y-74587708D01*
X152912292Y-74690110D01*
X153037708Y-74762518D01*
X153079765Y-74773787D01*
X152379942Y-75473609D01*
X152426768Y-75510055D01*
X152426770Y-75510056D01*
X152645385Y-75628364D01*
X152645396Y-75628369D01*
X152880506Y-75709083D01*
X153125707Y-75750000D01*
X153374293Y-75750000D01*
X153619493Y-75709083D01*
X153854603Y-75628369D01*
X153854614Y-75628364D01*
X154073228Y-75510057D01*
X154073231Y-75510055D01*
X154120056Y-75473609D01*
X153420234Y-74773787D01*
X153462292Y-74762518D01*
X153587708Y-74690110D01*
X153690110Y-74587708D01*
X153762518Y-74462292D01*
X153773787Y-74420235D01*
X154473434Y-75119882D01*
X154573731Y-74966369D01*
X154673587Y-74738717D01*
X154734612Y-74497738D01*
X154734614Y-74497729D01*
X154755141Y-74250005D01*
X154755141Y-74249994D01*
X154734614Y-74002270D01*
X154734612Y-74002261D01*
X154673587Y-73761282D01*
X154573731Y-73533630D01*
X154473434Y-73380116D01*
X153773787Y-74079764D01*
X153762518Y-74037708D01*
X153690110Y-73912292D01*
X153587708Y-73809890D01*
X153462292Y-73737482D01*
X153420235Y-73726212D01*
X154120057Y-73026390D01*
X154120056Y-73026389D01*
X154073229Y-72989943D01*
X153854614Y-72871635D01*
X153854603Y-72871630D01*
X153619493Y-72790916D01*
X153374293Y-72750000D01*
X153125707Y-72750000D01*
X152880506Y-72790916D01*
X152645396Y-72871630D01*
X152645390Y-72871632D01*
X152426761Y-72989949D01*
X152379942Y-73026388D01*
X152379942Y-73026390D01*
X153079765Y-73726212D01*
X153037708Y-73737482D01*
X152912292Y-73809890D01*
X152809890Y-73912292D01*
X152737482Y-74037708D01*
X152726212Y-74079764D01*
X152026564Y-73380116D01*
X151926267Y-73533632D01*
X151826412Y-73761282D01*
X151765387Y-74002261D01*
X151765385Y-74002270D01*
X151744859Y-74249994D01*
X151744859Y-74250005D01*
X150255643Y-74250005D01*
X150255643Y-74249994D01*
X150235109Y-74002187D01*
X150235107Y-74002175D01*
X150174063Y-73761118D01*
X150074173Y-73533393D01*
X149938166Y-73325217D01*
X149916557Y-73301744D01*
X149769744Y-73142262D01*
X149573509Y-72989526D01*
X149573507Y-72989525D01*
X149573506Y-72989524D01*
X149415482Y-72904006D01*
X149365892Y-72854786D01*
X149350500Y-72794951D01*
X149350500Y-69205048D01*
X149370185Y-69138009D01*
X149415481Y-69095993D01*
X149573509Y-69010474D01*
X149769744Y-68857738D01*
X149938164Y-68674785D01*
X150074173Y-68466607D01*
X150174063Y-68238881D01*
X150235108Y-67997821D01*
X150235116Y-67997729D01*
X150255643Y-67750005D01*
X151744859Y-67750005D01*
X151765385Y-67997729D01*
X151765387Y-67997738D01*
X151826412Y-68238717D01*
X151926266Y-68466364D01*
X152026564Y-68619882D01*
X152726212Y-67920234D01*
X152737482Y-67962292D01*
X152809890Y-68087708D01*
X152912292Y-68190110D01*
X153037708Y-68262518D01*
X153079765Y-68273787D01*
X152379942Y-68973609D01*
X152426768Y-69010055D01*
X152426770Y-69010056D01*
X152645385Y-69128364D01*
X152645396Y-69128369D01*
X152880506Y-69209083D01*
X153125707Y-69250000D01*
X153374293Y-69250000D01*
X153619493Y-69209083D01*
X153854603Y-69128369D01*
X153854614Y-69128364D01*
X154073228Y-69010057D01*
X154073231Y-69010055D01*
X154120056Y-68973609D01*
X153420234Y-68273787D01*
X153462292Y-68262518D01*
X153587708Y-68190110D01*
X153690110Y-68087708D01*
X153762518Y-67962292D01*
X153773787Y-67920235D01*
X154473434Y-68619882D01*
X154573731Y-68466369D01*
X154673587Y-68238717D01*
X154734612Y-67997738D01*
X154734614Y-67997729D01*
X154755141Y-67750005D01*
X154755141Y-67749994D01*
X154734614Y-67502270D01*
X154734612Y-67502261D01*
X154673587Y-67261282D01*
X154573731Y-67033630D01*
X154473434Y-66880116D01*
X153773787Y-67579764D01*
X153762518Y-67537708D01*
X153690110Y-67412292D01*
X153587708Y-67309890D01*
X153462292Y-67237482D01*
X153420235Y-67226212D01*
X154120057Y-66526390D01*
X154120056Y-66526389D01*
X154073229Y-66489943D01*
X153854614Y-66371635D01*
X153854603Y-66371630D01*
X153619493Y-66290916D01*
X153374293Y-66250000D01*
X153125707Y-66250000D01*
X152880506Y-66290916D01*
X152645396Y-66371630D01*
X152645390Y-66371632D01*
X152426761Y-66489949D01*
X152379942Y-66526388D01*
X152379942Y-66526390D01*
X153079765Y-67226212D01*
X153037708Y-67237482D01*
X152912292Y-67309890D01*
X152809890Y-67412292D01*
X152737482Y-67537708D01*
X152726212Y-67579764D01*
X152026564Y-66880116D01*
X151926267Y-67033632D01*
X151826412Y-67261282D01*
X151765387Y-67502261D01*
X151765385Y-67502270D01*
X151744859Y-67749994D01*
X151744859Y-67750005D01*
X150255643Y-67750005D01*
X150255643Y-67749994D01*
X150235109Y-67502187D01*
X150235107Y-67502175D01*
X150174063Y-67261118D01*
X150074173Y-67033393D01*
X149938166Y-66825217D01*
X149892943Y-66776092D01*
X149769744Y-66642262D01*
X149573509Y-66489526D01*
X149573507Y-66489525D01*
X149573506Y-66489524D01*
X149354811Y-66371172D01*
X149354802Y-66371169D01*
X149119616Y-66290429D01*
X148874335Y-66249500D01*
X148625665Y-66249500D01*
X148380383Y-66290429D01*
X148145197Y-66371169D01*
X148145188Y-66371172D01*
X147926493Y-66489524D01*
X147730257Y-66642261D01*
X147561833Y-66825217D01*
X147425826Y-67033393D01*
X147325936Y-67261118D01*
X147264892Y-67502175D01*
X147264890Y-67502187D01*
X147244357Y-67749994D01*
X147244357Y-67750005D01*
X147264890Y-67997812D01*
X147264892Y-67997824D01*
X147325936Y-68238881D01*
X147425826Y-68466606D01*
X147561833Y-68674782D01*
X147594245Y-68709991D01*
X147730256Y-68857738D01*
X147926491Y-69010474D01*
X147926494Y-69010476D01*
X147926496Y-69010477D01*
X147943134Y-69019481D01*
X148084517Y-69095993D01*
X148134108Y-69145212D01*
X148149500Y-69205048D01*
X148149500Y-72794951D01*
X148129815Y-72861990D01*
X148084518Y-72904006D01*
X147926493Y-72989524D01*
X147730257Y-73142261D01*
X147561833Y-73325217D01*
X147425827Y-73533391D01*
X147407440Y-73575311D01*
X147362483Y-73628796D01*
X147295747Y-73649486D01*
X147293884Y-73649500D01*
X140376670Y-73649500D01*
X140376654Y-73649499D01*
X140369058Y-73649499D01*
X140210943Y-73649499D01*
X140134579Y-73669961D01*
X140058214Y-73690423D01*
X140058209Y-73690426D01*
X139921290Y-73769475D01*
X139921282Y-73769481D01*
X138627681Y-75063083D01*
X138566358Y-75096568D01*
X138496666Y-75091584D01*
X138452319Y-75063083D01*
X137136819Y-73747583D01*
X137103334Y-73686260D01*
X137100500Y-73659902D01*
X137100500Y-72041715D01*
X137120185Y-71974676D01*
X137160349Y-71935598D01*
X137210185Y-71905472D01*
X137330472Y-71785185D01*
X137418478Y-71639606D01*
X137469086Y-71477196D01*
X137475500Y-71406616D01*
X137475500Y-70893384D01*
X137469086Y-70822804D01*
X137418478Y-70660394D01*
X137330472Y-70514815D01*
X137330470Y-70514813D01*
X137330469Y-70514811D01*
X137228339Y-70412681D01*
X137194854Y-70351358D01*
X137199838Y-70281666D01*
X137228339Y-70237319D01*
X137328839Y-70136819D01*
X137390162Y-70103334D01*
X137416520Y-70100500D01*
X138063331Y-70100500D01*
X138063347Y-70100501D01*
X138070943Y-70100501D01*
X138229054Y-70100501D01*
X138229057Y-70100501D01*
X138381785Y-70059577D01*
X138431904Y-70030639D01*
X138518716Y-69980520D01*
X138612418Y-69886817D01*
X138673739Y-69853334D01*
X138700098Y-69850500D01*
X141153199Y-69850500D01*
X141220238Y-69870185D01*
X141262253Y-69915481D01*
X141264075Y-69918848D01*
X141391016Y-70113147D01*
X141391019Y-70113151D01*
X141391021Y-70113153D01*
X141485803Y-70216114D01*
X141516724Y-70278767D01*
X141508864Y-70348193D01*
X141464716Y-70402348D01*
X141437906Y-70416277D01*
X141357669Y-70446203D01*
X141357664Y-70446206D01*
X141242455Y-70532452D01*
X141242452Y-70532455D01*
X141156206Y-70647664D01*
X141156202Y-70647671D01*
X141105908Y-70782517D01*
X141101577Y-70822807D01*
X141099501Y-70842123D01*
X141099500Y-70842135D01*
X141099500Y-72737870D01*
X141099501Y-72737876D01*
X141105908Y-72797483D01*
X141156202Y-72932328D01*
X141156206Y-72932335D01*
X141242452Y-73047544D01*
X141242455Y-73047547D01*
X141357664Y-73133793D01*
X141357671Y-73133797D01*
X141492517Y-73184091D01*
X141492516Y-73184091D01*
X141499444Y-73184835D01*
X141552127Y-73190500D01*
X143447872Y-73190499D01*
X143507483Y-73184091D01*
X143642331Y-73133796D01*
X143757546Y-73047546D01*
X143843796Y-72932331D01*
X143894091Y-72797483D01*
X143900500Y-72737873D01*
X143900499Y-70842128D01*
X143894091Y-70782517D01*
X143869314Y-70716087D01*
X143843797Y-70647671D01*
X143843793Y-70647664D01*
X143757547Y-70532455D01*
X143757544Y-70532452D01*
X143642335Y-70446206D01*
X143642328Y-70446202D01*
X143562094Y-70416277D01*
X143506160Y-70374406D01*
X143481743Y-70308941D01*
X143496595Y-70240668D01*
X143514190Y-70216121D01*
X143608979Y-70113153D01*
X143735924Y-69918849D01*
X143829157Y-69706300D01*
X143886134Y-69481305D01*
X143886135Y-69481297D01*
X143905300Y-69250006D01*
X143905300Y-69249993D01*
X143886135Y-69018702D01*
X143886133Y-69018691D01*
X143829157Y-68793699D01*
X143735924Y-68581151D01*
X143608983Y-68386852D01*
X143608980Y-68386849D01*
X143608979Y-68386847D01*
X143451784Y-68216087D01*
X143451779Y-68216083D01*
X143451777Y-68216081D01*
X143268634Y-68073535D01*
X143268628Y-68073531D01*
X143064504Y-67963064D01*
X143064495Y-67963061D01*
X142844984Y-67887702D01*
X142673282Y-67859050D01*
X142616049Y-67849500D01*
X142383951Y-67849500D01*
X142338164Y-67857140D01*
X142155015Y-67887702D01*
X141935504Y-67963061D01*
X141935495Y-67963064D01*
X141731371Y-68073531D01*
X141731365Y-68073535D01*
X141548222Y-68216081D01*
X141548219Y-68216084D01*
X141548216Y-68216086D01*
X141548216Y-68216087D01*
X141505832Y-68262129D01*
X141391016Y-68386852D01*
X141264075Y-68581151D01*
X141262253Y-68584519D01*
X141213033Y-68634109D01*
X141153199Y-68649500D01*
X138320941Y-68649500D01*
X138294735Y-68656521D01*
X138294736Y-68656522D01*
X138168214Y-68690423D01*
X138168209Y-68690426D01*
X138031290Y-68769475D01*
X138031282Y-68769481D01*
X137937583Y-68863181D01*
X137876260Y-68896666D01*
X137849902Y-68899500D01*
X137416520Y-68899500D01*
X137349481Y-68879815D01*
X137328839Y-68863181D01*
X137210188Y-68744530D01*
X137094816Y-68674785D01*
X137064606Y-68656522D01*
X136902196Y-68605914D01*
X136902194Y-68605913D01*
X136902192Y-68605913D01*
X136852778Y-68601423D01*
X136831616Y-68599500D01*
X136168384Y-68599500D01*
X136149145Y-68601248D01*
X136097807Y-68605913D01*
X135935393Y-68656522D01*
X135789811Y-68744530D01*
X135669530Y-68864811D01*
X135581522Y-69010393D01*
X135530913Y-69172807D01*
X135524500Y-69243386D01*
X135524500Y-69756613D01*
X135530913Y-69827192D01*
X135530913Y-69827194D01*
X135530914Y-69827196D01*
X135581522Y-69989606D01*
X135656205Y-70113147D01*
X135669530Y-70135188D01*
X135771661Y-70237319D01*
X135805146Y-70298642D01*
X135800162Y-70368334D01*
X135771661Y-70412681D01*
X135669531Y-70514810D01*
X135669530Y-70514811D01*
X135581522Y-70660393D01*
X135530913Y-70822807D01*
X135524500Y-70893386D01*
X135524500Y-71406613D01*
X131475500Y-71406613D01*
X131475500Y-70893384D01*
X131469086Y-70822804D01*
X131418478Y-70660394D01*
X131330472Y-70514815D01*
X131330470Y-70514813D01*
X131330469Y-70514811D01*
X131228339Y-70412681D01*
X131194854Y-70351358D01*
X131199838Y-70281666D01*
X131228339Y-70237319D01*
X131330468Y-70135189D01*
X131330469Y-70135188D01*
X131330472Y-70135185D01*
X131418478Y-69989606D01*
X131469086Y-69827196D01*
X131475500Y-69756616D01*
X131475500Y-69243384D01*
X131469086Y-69172804D01*
X131418478Y-69010394D01*
X131330472Y-68864815D01*
X131330470Y-68864813D01*
X131330469Y-68864811D01*
X131210188Y-68744530D01*
X131094816Y-68674785D01*
X131064606Y-68656522D01*
X130902196Y-68605914D01*
X130902194Y-68605913D01*
X130902192Y-68605913D01*
X130852778Y-68601423D01*
X130831616Y-68599500D01*
X130168384Y-68599500D01*
X130149145Y-68601248D01*
X130097807Y-68605913D01*
X129935393Y-68656522D01*
X129789811Y-68744530D01*
X129789810Y-68744531D01*
X129671161Y-68863181D01*
X129609838Y-68896666D01*
X129583480Y-68899500D01*
X126836670Y-68899500D01*
X126836654Y-68899499D01*
X126829058Y-68899499D01*
X126670943Y-68899499D01*
X126594579Y-68919961D01*
X126518214Y-68940423D01*
X126518209Y-68940426D01*
X126381290Y-69019475D01*
X126381282Y-69019481D01*
X126112180Y-69288583D01*
X126050857Y-69322068D01*
X125981165Y-69317084D01*
X125925232Y-69275212D01*
X125900815Y-69209748D01*
X125900499Y-69200902D01*
X125900499Y-68262129D01*
X125900498Y-68262123D01*
X125900497Y-68262116D01*
X125894091Y-68202517D01*
X125889463Y-68190110D01*
X125843797Y-68067671D01*
X125843793Y-68067664D01*
X125757547Y-67952455D01*
X125757544Y-67952452D01*
X125642335Y-67866206D01*
X125642328Y-67866202D01*
X125507482Y-67815908D01*
X125507483Y-67815908D01*
X125447883Y-67809501D01*
X125447881Y-67809500D01*
X125447873Y-67809500D01*
X125447864Y-67809500D01*
X123552129Y-67809500D01*
X123552123Y-67809501D01*
X123492516Y-67815908D01*
X123357671Y-67866202D01*
X123357664Y-67866206D01*
X123242455Y-67952452D01*
X123242452Y-67952455D01*
X123156206Y-68067664D01*
X123156202Y-68067671D01*
X123105908Y-68202517D01*
X123101999Y-68238881D01*
X123099501Y-68262123D01*
X123099500Y-68262135D01*
X123099500Y-70157870D01*
X123099501Y-70157876D01*
X123105908Y-70217483D01*
X123156202Y-70352328D01*
X123156206Y-70352335D01*
X123242452Y-70467544D01*
X123242455Y-70467547D01*
X123357664Y-70553793D01*
X123357673Y-70553798D01*
X123437904Y-70583722D01*
X123493838Y-70625593D01*
X123518256Y-70691057D01*
X123503405Y-70759330D01*
X123485802Y-70783886D01*
X123391019Y-70886849D01*
X123264075Y-71081151D01*
X123170842Y-71293699D01*
X123113866Y-71518691D01*
X123113864Y-71518702D01*
X123094700Y-71749993D01*
X123094700Y-71750006D01*
X123113864Y-71981297D01*
X123113866Y-71981308D01*
X123170842Y-72206300D01*
X123264075Y-72418848D01*
X123391016Y-72613147D01*
X123391019Y-72613151D01*
X123391021Y-72613153D01*
X123548216Y-72783913D01*
X123548219Y-72783915D01*
X123548222Y-72783918D01*
X123731365Y-72926464D01*
X123731371Y-72926468D01*
X123731374Y-72926470D01*
X123935497Y-73036936D01*
X124049487Y-73076068D01*
X124155015Y-73112297D01*
X124155017Y-73112297D01*
X124155019Y-73112298D01*
X124383951Y-73150500D01*
X124383952Y-73150500D01*
X124616048Y-73150500D01*
X124616049Y-73150500D01*
X124844981Y-73112298D01*
X125064503Y-73036936D01*
X125268626Y-72926470D01*
X125451784Y-72783913D01*
X125608979Y-72613153D01*
X125735924Y-72418849D01*
X125829157Y-72206300D01*
X125886134Y-71981305D01*
X125886135Y-71981297D01*
X125905300Y-71750006D01*
X125905300Y-71749993D01*
X125886135Y-71518702D01*
X125886131Y-71518682D01*
X125841680Y-71343151D01*
X125844304Y-71273331D01*
X125874202Y-71225031D01*
X126962417Y-70136819D01*
X127023740Y-70103334D01*
X127050098Y-70100500D01*
X129583480Y-70100500D01*
X129650519Y-70120185D01*
X129671161Y-70136819D01*
X129771661Y-70237319D01*
X129805146Y-70298642D01*
X129800162Y-70368334D01*
X129771661Y-70412681D01*
X129669531Y-70514810D01*
X129669530Y-70514811D01*
X129581522Y-70660393D01*
X129530913Y-70822807D01*
X129524500Y-70893386D01*
X129524500Y-71224903D01*
X129504815Y-71291942D01*
X129488181Y-71312584D01*
X125874584Y-74926181D01*
X125813261Y-74959666D01*
X125786903Y-74962500D01*
X121643670Y-74962500D01*
X121643654Y-74962499D01*
X121636058Y-74962499D01*
X121477943Y-74962499D01*
X121401579Y-74982961D01*
X121325214Y-75003423D01*
X121325209Y-75003426D01*
X121188290Y-75082475D01*
X121188282Y-75082481D01*
X119787584Y-76483181D01*
X119726261Y-76516666D01*
X119699903Y-76519500D01*
X116920097Y-76519500D01*
X116853058Y-76499815D01*
X116832416Y-76483181D01*
X115206516Y-74857281D01*
X115173031Y-74795958D01*
X115173992Y-74739159D01*
X115174061Y-74738884D01*
X115174063Y-74738881D01*
X115235108Y-74497821D01*
X115238052Y-74462292D01*
X115255643Y-74250005D01*
X116744859Y-74250005D01*
X116765385Y-74497729D01*
X116765387Y-74497738D01*
X116826412Y-74738717D01*
X116926266Y-74966364D01*
X117026564Y-75119882D01*
X117726212Y-74420234D01*
X117737482Y-74462292D01*
X117809890Y-74587708D01*
X117912292Y-74690110D01*
X118037708Y-74762518D01*
X118079765Y-74773787D01*
X117379942Y-75473609D01*
X117426768Y-75510055D01*
X117426770Y-75510056D01*
X117645385Y-75628364D01*
X117645396Y-75628369D01*
X117880506Y-75709083D01*
X118125707Y-75750000D01*
X118374293Y-75750000D01*
X118619493Y-75709083D01*
X118854603Y-75628369D01*
X118854614Y-75628364D01*
X119073228Y-75510057D01*
X119073231Y-75510055D01*
X119120056Y-75473609D01*
X118420234Y-74773787D01*
X118462292Y-74762518D01*
X118587708Y-74690110D01*
X118690110Y-74587708D01*
X118762518Y-74462292D01*
X118773787Y-74420235D01*
X119473434Y-75119882D01*
X119573731Y-74966369D01*
X119673587Y-74738717D01*
X119734612Y-74497738D01*
X119734614Y-74497729D01*
X119755141Y-74250005D01*
X119755141Y-74249994D01*
X119734614Y-74002270D01*
X119734612Y-74002261D01*
X119673587Y-73761282D01*
X119573731Y-73533630D01*
X119473434Y-73380116D01*
X118773787Y-74079764D01*
X118762518Y-74037708D01*
X118690110Y-73912292D01*
X118587708Y-73809890D01*
X118462292Y-73737482D01*
X118420235Y-73726212D01*
X119120057Y-73026390D01*
X119120056Y-73026389D01*
X119073229Y-72989943D01*
X118854614Y-72871635D01*
X118854603Y-72871630D01*
X118619493Y-72790916D01*
X118374293Y-72750000D01*
X118125707Y-72750000D01*
X117880506Y-72790916D01*
X117645396Y-72871630D01*
X117645390Y-72871632D01*
X117426761Y-72989949D01*
X117379942Y-73026388D01*
X117379942Y-73026390D01*
X118079765Y-73726212D01*
X118037708Y-73737482D01*
X117912292Y-73809890D01*
X117809890Y-73912292D01*
X117737482Y-74037708D01*
X117726212Y-74079764D01*
X117026564Y-73380116D01*
X116926267Y-73533632D01*
X116826412Y-73761282D01*
X116765387Y-74002261D01*
X116765385Y-74002270D01*
X116744859Y-74249994D01*
X116744859Y-74250005D01*
X115255643Y-74250005D01*
X115255643Y-74249994D01*
X115235109Y-74002187D01*
X115235107Y-74002175D01*
X115174063Y-73761118D01*
X115074173Y-73533393D01*
X114938166Y-73325217D01*
X114916557Y-73301744D01*
X114769744Y-73142262D01*
X114573509Y-72989526D01*
X114573507Y-72989525D01*
X114573506Y-72989524D01*
X114415482Y-72904006D01*
X114365892Y-72854786D01*
X114350500Y-72794951D01*
X114350500Y-69205048D01*
X114370185Y-69138009D01*
X114415481Y-69095993D01*
X114573509Y-69010474D01*
X114769744Y-68857738D01*
X114938164Y-68674785D01*
X115074173Y-68466607D01*
X115174063Y-68238881D01*
X115235108Y-67997821D01*
X115235116Y-67997729D01*
X115255643Y-67750005D01*
X116744859Y-67750005D01*
X116765385Y-67997729D01*
X116765387Y-67997738D01*
X116826412Y-68238717D01*
X116926266Y-68466364D01*
X117026564Y-68619882D01*
X117726212Y-67920234D01*
X117737482Y-67962292D01*
X117809890Y-68087708D01*
X117912292Y-68190110D01*
X118037708Y-68262518D01*
X118079765Y-68273787D01*
X117379942Y-68973609D01*
X117426768Y-69010055D01*
X117426770Y-69010056D01*
X117645385Y-69128364D01*
X117645396Y-69128369D01*
X117880506Y-69209083D01*
X118125707Y-69250000D01*
X118374293Y-69250000D01*
X118619493Y-69209083D01*
X118854603Y-69128369D01*
X118854614Y-69128364D01*
X119073228Y-69010057D01*
X119073231Y-69010055D01*
X119120056Y-68973609D01*
X118420234Y-68273787D01*
X118462292Y-68262518D01*
X118587708Y-68190110D01*
X118690110Y-68087708D01*
X118762518Y-67962292D01*
X118773787Y-67920235D01*
X119473434Y-68619882D01*
X119573731Y-68466369D01*
X119673587Y-68238717D01*
X119734612Y-67997738D01*
X119734614Y-67997729D01*
X119755141Y-67750005D01*
X119755141Y-67749994D01*
X119734614Y-67502270D01*
X119734612Y-67502261D01*
X119673587Y-67261282D01*
X119573731Y-67033630D01*
X119473434Y-66880116D01*
X118773787Y-67579764D01*
X118762518Y-67537708D01*
X118690110Y-67412292D01*
X118587708Y-67309890D01*
X118462292Y-67237482D01*
X118420235Y-67226212D01*
X119120057Y-66526390D01*
X119120056Y-66526389D01*
X119073229Y-66489943D01*
X118854614Y-66371635D01*
X118854603Y-66371630D01*
X118619493Y-66290916D01*
X118374293Y-66250000D01*
X118125707Y-66250000D01*
X117880506Y-66290916D01*
X117645396Y-66371630D01*
X117645390Y-66371632D01*
X117426761Y-66489949D01*
X117379942Y-66526388D01*
X117379942Y-66526390D01*
X118079765Y-67226212D01*
X118037708Y-67237482D01*
X117912292Y-67309890D01*
X117809890Y-67412292D01*
X117737482Y-67537708D01*
X117726212Y-67579764D01*
X117026564Y-66880116D01*
X116926267Y-67033632D01*
X116826412Y-67261282D01*
X116765387Y-67502261D01*
X116765385Y-67502270D01*
X116744859Y-67749994D01*
X116744859Y-67750005D01*
X115255643Y-67750005D01*
X115255643Y-67749994D01*
X115235109Y-67502187D01*
X115235107Y-67502175D01*
X115174063Y-67261118D01*
X115074173Y-67033393D01*
X114938166Y-66825217D01*
X114892943Y-66776092D01*
X114769744Y-66642262D01*
X114573509Y-66489526D01*
X114573507Y-66489525D01*
X114573506Y-66489524D01*
X114354811Y-66371172D01*
X114354802Y-66371169D01*
X114119616Y-66290429D01*
X113874335Y-66249500D01*
X113625665Y-66249500D01*
X113380383Y-66290429D01*
X113145197Y-66371169D01*
X113145188Y-66371172D01*
X112926493Y-66489524D01*
X112730257Y-66642261D01*
X112561833Y-66825217D01*
X112425826Y-67033393D01*
X112325936Y-67261118D01*
X112264892Y-67502175D01*
X112264890Y-67502187D01*
X112244357Y-67749994D01*
X112244357Y-67750005D01*
X112264890Y-67997812D01*
X112264892Y-67997824D01*
X112325936Y-68238881D01*
X112425826Y-68466606D01*
X112561833Y-68674782D01*
X112594245Y-68709991D01*
X112730256Y-68857738D01*
X112926491Y-69010474D01*
X112926494Y-69010476D01*
X112926496Y-69010477D01*
X112943134Y-69019481D01*
X113084517Y-69095993D01*
X113134108Y-69145212D01*
X113149500Y-69205048D01*
X113149500Y-72794951D01*
X113129815Y-72861990D01*
X113084518Y-72904006D01*
X112926493Y-72989524D01*
X112730257Y-73142261D01*
X112561833Y-73325217D01*
X112425826Y-73533393D01*
X112325936Y-73761118D01*
X112264892Y-74002175D01*
X112264890Y-74002187D01*
X112244357Y-74249994D01*
X112244357Y-74250005D01*
X109000500Y-74250005D01*
X109000500Y-68503051D01*
X109000649Y-68496967D01*
X109012167Y-68262518D01*
X109017052Y-68163068D01*
X109018245Y-68150962D01*
X109040963Y-67997812D01*
X109066849Y-67823296D01*
X109069218Y-67811385D01*
X109149710Y-67490043D01*
X109153240Y-67478411D01*
X109230930Y-67261282D01*
X109264835Y-67166525D01*
X109269476Y-67155318D01*
X109411124Y-66855828D01*
X109416840Y-66845136D01*
X109587145Y-66560998D01*
X109593888Y-66550905D01*
X109791232Y-66284818D01*
X109798935Y-66275433D01*
X110021405Y-66029975D01*
X110029975Y-66021405D01*
X110275433Y-65798935D01*
X110284818Y-65791232D01*
X110550905Y-65593888D01*
X110560998Y-65587145D01*
X110845136Y-65416840D01*
X110855828Y-65411124D01*
X111155318Y-65269476D01*
X111166525Y-65264835D01*
X111478412Y-65153239D01*
X111490043Y-65149710D01*
X111811385Y-65069218D01*
X111823296Y-65066849D01*
X112150962Y-65018244D01*
X112163068Y-65017052D01*
X112496967Y-65000648D01*
X112503051Y-65000500D01*
X112565892Y-65000500D01*
X112934108Y-65000500D01*
X152434108Y-65000500D01*
X152934108Y-65000500D01*
X152997128Y-65000500D01*
X153002855Y-65000632D01*
G37*
G04 #@! TD.AperFunction*
M02*
