G04 #@! TF.GenerationSoftware,KiCad,Pcbnew,8.0.0*
G04 #@! TF.CreationDate,2024-04-02T15:54:02-06:00*
G04 #@! TF.ProjectId,SimonSaysPCBDesign,53696d6f-6e53-4617-9973-504342446573,1.0*
G04 #@! TF.SameCoordinates,Original*
G04 #@! TF.FileFunction,Soldermask,Bot*
G04 #@! TF.FilePolarity,Negative*
%FSLAX46Y46*%
G04 Gerber Fmt 4.6, Leading zero omitted, Abs format (unit mm)*
G04 Created by KiCad (PCBNEW 8.0.0) date 2024-04-02 15:54:02*
%MOMM*%
%LPD*%
G01*
G04 APERTURE LIST*
%ADD10R,1.600000X1.600000*%
%ADD11O,1.600000X1.600000*%
%ADD12R,2.600000X2.600000*%
%ADD13C,2.600000*%
%ADD14C,2.000000*%
%ADD15R,1.800000X1.800000*%
%ADD16C,1.800000*%
%ADD17R,1.700000X1.700000*%
%ADD18O,1.700000X1.700000*%
%ADD19O,3.500000X3.500000*%
%ADD20R,1.905000X2.000000*%
%ADD21O,1.905000X2.000000*%
G04 APERTURE END LIST*
D10*
X128000000Y-83300000D03*
D11*
X128000000Y-85840000D03*
X128000000Y-88380000D03*
X128000000Y-90920000D03*
X128000000Y-93460000D03*
X128000000Y-96000000D03*
X128000000Y-98540000D03*
X128000000Y-101080000D03*
X128000000Y-103620000D03*
X128000000Y-106160000D03*
X128000000Y-108700000D03*
X128000000Y-111240000D03*
X128000000Y-113780000D03*
X128000000Y-116320000D03*
X135620000Y-116320000D03*
X135620000Y-113780000D03*
X135620000Y-111240000D03*
X135620000Y-108700000D03*
X135620000Y-106160000D03*
X135620000Y-103620000D03*
X135620000Y-101080000D03*
X135620000Y-98540000D03*
X135620000Y-96000000D03*
X135620000Y-93460000D03*
X135620000Y-90920000D03*
X135620000Y-88380000D03*
X135620000Y-85840000D03*
X135620000Y-83300000D03*
D12*
X149000000Y-88500000D03*
D13*
X149000000Y-83500000D03*
D14*
X113750000Y-74250000D03*
X113750000Y-67750000D03*
X118250000Y-74250000D03*
X118250000Y-67750000D03*
D15*
X142500000Y-129040000D03*
D16*
X142500000Y-126500000D03*
D17*
X111000000Y-118080000D03*
D18*
X111000000Y-115540000D03*
X111000000Y-113000000D03*
X111000000Y-110460000D03*
X111000000Y-107920000D03*
X111000000Y-105380000D03*
D15*
X124500000Y-69210000D03*
D16*
X124500000Y-71750000D03*
D17*
X111000000Y-91960000D03*
D18*
X111000000Y-94500000D03*
X111000000Y-97040000D03*
X111000000Y-99580000D03*
D15*
X124500000Y-129000000D03*
D16*
X124500000Y-126460000D03*
D19*
X149000000Y-112500000D03*
D20*
X151540000Y-95840000D03*
D21*
X149000000Y-95840000D03*
X146460000Y-95840000D03*
D14*
X148750000Y-74250000D03*
X148750000Y-67750000D03*
X153250000Y-74250000D03*
X153250000Y-67750000D03*
X110750000Y-86250000D03*
X110750000Y-79750000D03*
X115250000Y-86250000D03*
X115250000Y-79750000D03*
D15*
X142500000Y-71790000D03*
D16*
X142500000Y-69250000D03*
D14*
X148750000Y-130500000D03*
X148750000Y-124000000D03*
X153250000Y-130500000D03*
X153250000Y-124000000D03*
D18*
X121000000Y-98790000D03*
D17*
X121000000Y-96250000D03*
D14*
X118250000Y-123750000D03*
X118250000Y-130250000D03*
X113750000Y-123750000D03*
X113750000Y-130250000D03*
M02*
