%TF.GenerationSoftware,KiCad,Pcbnew,8.0.0*%
%TF.CreationDate,2024-04-02T15:54:07-06:00*%
%TF.ProjectId,SimonSaysPCBDesign,53696d6f-6e53-4617-9973-504342446573,1.0*%
%TF.SameCoordinates,Original*%
%TF.FileFunction,Drillmap*%
%TF.FilePolarity,Positive*%
%FSLAX45Y45*%
G04 Gerber Fmt 4.5, Leading zero omitted, Abs format (unit mm)*
G04 Created by KiCad (PCBNEW 8.0.0) date 2024-04-02 15:54:07*
%MOMM*%
%LPD*%
G01*
G04 APERTURE LIST*
%ADD10C,0.050000*%
%ADD11C,0.200000*%
%ADD12C,0.350000*%
G04 APERTURE END LIST*
D10*
X11250000Y-13450000D02*
G75*
G02*
X10850000Y-13050000I0J400000D01*
G01*
X15750000Y-13100000D02*
G75*
G02*
X15400000Y-13450000I-350000J0D01*
G01*
X15750000Y-13000000D02*
X15750000Y-13050000D01*
X10850000Y-6850000D02*
G75*
G02*
X11250000Y-6450000I400000J0D01*
G01*
X15750000Y-13000000D02*
X15750000Y-6900000D01*
X10850000Y-13000000D02*
X10850000Y-13050000D01*
X15350000Y-13450000D02*
X15400000Y-13450000D01*
X15300000Y-6450000D02*
G75*
G02*
X15750000Y-6900000I0J-450000D01*
G01*
X11300000Y-13450000D02*
X11250000Y-13450000D01*
X11300000Y-6450000D02*
X11250000Y-6450000D01*
X15250000Y-6450000D02*
X15300000Y-6450000D01*
X11300000Y-6450000D02*
X15250000Y-6450000D01*
X10850000Y-6900000D02*
X10850000Y-6850000D01*
X15750000Y-13050000D02*
X15750000Y-13100000D01*
X11300000Y-13450000D02*
X15350000Y-13450000D01*
X10850000Y-6900000D02*
X10850000Y-13000000D01*
D11*
D12*
X14725000Y-11075000D02*
X15075000Y-11425000D01*
X15075000Y-11075000D02*
X14725000Y-11425000D01*
D11*
X11108277Y-13763984D02*
X11108277Y-13563984D01*
X11108277Y-13563984D02*
X11155896Y-13563984D01*
X11155896Y-13563984D02*
X11184467Y-13573508D01*
X11184467Y-13573508D02*
X11203515Y-13592555D01*
X11203515Y-13592555D02*
X11213039Y-13611603D01*
X11213039Y-13611603D02*
X11222562Y-13649698D01*
X11222562Y-13649698D02*
X11222562Y-13678269D01*
X11222562Y-13678269D02*
X11213039Y-13716365D01*
X11213039Y-13716365D02*
X11203515Y-13735412D01*
X11203515Y-13735412D02*
X11184467Y-13754460D01*
X11184467Y-13754460D02*
X11155896Y-13763984D01*
X11155896Y-13763984D02*
X11108277Y-13763984D01*
X11308277Y-13763984D02*
X11308277Y-13630650D01*
X11308277Y-13668746D02*
X11317801Y-13649698D01*
X11317801Y-13649698D02*
X11327324Y-13640174D01*
X11327324Y-13640174D02*
X11346372Y-13630650D01*
X11346372Y-13630650D02*
X11365420Y-13630650D01*
X11432086Y-13763984D02*
X11432086Y-13630650D01*
X11432086Y-13563984D02*
X11422562Y-13573508D01*
X11422562Y-13573508D02*
X11432086Y-13583031D01*
X11432086Y-13583031D02*
X11441610Y-13573508D01*
X11441610Y-13573508D02*
X11432086Y-13563984D01*
X11432086Y-13563984D02*
X11432086Y-13583031D01*
X11555896Y-13763984D02*
X11536848Y-13754460D01*
X11536848Y-13754460D02*
X11527324Y-13735412D01*
X11527324Y-13735412D02*
X11527324Y-13563984D01*
X11660658Y-13763984D02*
X11641610Y-13754460D01*
X11641610Y-13754460D02*
X11632086Y-13735412D01*
X11632086Y-13735412D02*
X11632086Y-13563984D01*
X11889229Y-13763984D02*
X11889229Y-13563984D01*
X11889229Y-13563984D02*
X11955896Y-13706841D01*
X11955896Y-13706841D02*
X12022562Y-13563984D01*
X12022562Y-13563984D02*
X12022562Y-13763984D01*
X12203515Y-13763984D02*
X12203515Y-13659222D01*
X12203515Y-13659222D02*
X12193991Y-13640174D01*
X12193991Y-13640174D02*
X12174943Y-13630650D01*
X12174943Y-13630650D02*
X12136848Y-13630650D01*
X12136848Y-13630650D02*
X12117801Y-13640174D01*
X12203515Y-13754460D02*
X12184467Y-13763984D01*
X12184467Y-13763984D02*
X12136848Y-13763984D01*
X12136848Y-13763984D02*
X12117801Y-13754460D01*
X12117801Y-13754460D02*
X12108277Y-13735412D01*
X12108277Y-13735412D02*
X12108277Y-13716365D01*
X12108277Y-13716365D02*
X12117801Y-13697317D01*
X12117801Y-13697317D02*
X12136848Y-13687793D01*
X12136848Y-13687793D02*
X12184467Y-13687793D01*
X12184467Y-13687793D02*
X12203515Y-13678269D01*
X12298753Y-13630650D02*
X12298753Y-13830650D01*
X12298753Y-13640174D02*
X12317801Y-13630650D01*
X12317801Y-13630650D02*
X12355896Y-13630650D01*
X12355896Y-13630650D02*
X12374943Y-13640174D01*
X12374943Y-13640174D02*
X12384467Y-13649698D01*
X12384467Y-13649698D02*
X12393991Y-13668746D01*
X12393991Y-13668746D02*
X12393991Y-13725888D01*
X12393991Y-13725888D02*
X12384467Y-13744936D01*
X12384467Y-13744936D02*
X12374943Y-13754460D01*
X12374943Y-13754460D02*
X12355896Y-13763984D01*
X12355896Y-13763984D02*
X12317801Y-13763984D01*
X12317801Y-13763984D02*
X12298753Y-13754460D01*
X12479705Y-13744936D02*
X12489229Y-13754460D01*
X12489229Y-13754460D02*
X12479705Y-13763984D01*
X12479705Y-13763984D02*
X12470182Y-13754460D01*
X12470182Y-13754460D02*
X12479705Y-13744936D01*
X12479705Y-13744936D02*
X12479705Y-13763984D01*
X12479705Y-13640174D02*
X12489229Y-13649698D01*
X12489229Y-13649698D02*
X12479705Y-13659222D01*
X12479705Y-13659222D02*
X12470182Y-13649698D01*
X12470182Y-13649698D02*
X12479705Y-13640174D01*
X12479705Y-13640174D02*
X12479705Y-13659222D01*
X10647500Y-13992500D02*
X10847500Y-14192500D01*
X10847500Y-13992500D02*
X10647500Y-14192500D01*
X11089229Y-13983984D02*
X11213039Y-13983984D01*
X11213039Y-13983984D02*
X11146372Y-14060174D01*
X11146372Y-14060174D02*
X11174944Y-14060174D01*
X11174944Y-14060174D02*
X11193991Y-14069698D01*
X11193991Y-14069698D02*
X11203515Y-14079222D01*
X11203515Y-14079222D02*
X11213039Y-14098269D01*
X11213039Y-14098269D02*
X11213039Y-14145888D01*
X11213039Y-14145888D02*
X11203515Y-14164936D01*
X11203515Y-14164936D02*
X11193991Y-14174460D01*
X11193991Y-14174460D02*
X11174944Y-14183984D01*
X11174944Y-14183984D02*
X11117801Y-14183984D01*
X11117801Y-14183984D02*
X11098753Y-14174460D01*
X11098753Y-14174460D02*
X11089229Y-14164936D01*
X11298753Y-14164936D02*
X11308277Y-14174460D01*
X11308277Y-14174460D02*
X11298753Y-14183984D01*
X11298753Y-14183984D02*
X11289229Y-14174460D01*
X11289229Y-14174460D02*
X11298753Y-14164936D01*
X11298753Y-14164936D02*
X11298753Y-14183984D01*
X11489229Y-13983984D02*
X11393991Y-13983984D01*
X11393991Y-13983984D02*
X11384467Y-14079222D01*
X11384467Y-14079222D02*
X11393991Y-14069698D01*
X11393991Y-14069698D02*
X11413039Y-14060174D01*
X11413039Y-14060174D02*
X11460658Y-14060174D01*
X11460658Y-14060174D02*
X11479705Y-14069698D01*
X11479705Y-14069698D02*
X11489229Y-14079222D01*
X11489229Y-14079222D02*
X11498753Y-14098269D01*
X11498753Y-14098269D02*
X11498753Y-14145888D01*
X11498753Y-14145888D02*
X11489229Y-14164936D01*
X11489229Y-14164936D02*
X11479705Y-14174460D01*
X11479705Y-14174460D02*
X11460658Y-14183984D01*
X11460658Y-14183984D02*
X11413039Y-14183984D01*
X11413039Y-14183984D02*
X11393991Y-14174460D01*
X11393991Y-14174460D02*
X11384467Y-14164936D01*
X11622562Y-13983984D02*
X11641610Y-13983984D01*
X11641610Y-13983984D02*
X11660658Y-13993508D01*
X11660658Y-13993508D02*
X11670182Y-14003031D01*
X11670182Y-14003031D02*
X11679705Y-14022079D01*
X11679705Y-14022079D02*
X11689229Y-14060174D01*
X11689229Y-14060174D02*
X11689229Y-14107793D01*
X11689229Y-14107793D02*
X11679705Y-14145888D01*
X11679705Y-14145888D02*
X11670182Y-14164936D01*
X11670182Y-14164936D02*
X11660658Y-14174460D01*
X11660658Y-14174460D02*
X11641610Y-14183984D01*
X11641610Y-14183984D02*
X11622562Y-14183984D01*
X11622562Y-14183984D02*
X11603515Y-14174460D01*
X11603515Y-14174460D02*
X11593991Y-14164936D01*
X11593991Y-14164936D02*
X11584467Y-14145888D01*
X11584467Y-14145888D02*
X11574943Y-14107793D01*
X11574943Y-14107793D02*
X11574943Y-14060174D01*
X11574943Y-14060174D02*
X11584467Y-14022079D01*
X11584467Y-14022079D02*
X11593991Y-14003031D01*
X11593991Y-14003031D02*
X11603515Y-13993508D01*
X11603515Y-13993508D02*
X11622562Y-13983984D01*
X11813039Y-13983984D02*
X11832086Y-13983984D01*
X11832086Y-13983984D02*
X11851134Y-13993508D01*
X11851134Y-13993508D02*
X11860658Y-14003031D01*
X11860658Y-14003031D02*
X11870182Y-14022079D01*
X11870182Y-14022079D02*
X11879705Y-14060174D01*
X11879705Y-14060174D02*
X11879705Y-14107793D01*
X11879705Y-14107793D02*
X11870182Y-14145888D01*
X11870182Y-14145888D02*
X11860658Y-14164936D01*
X11860658Y-14164936D02*
X11851134Y-14174460D01*
X11851134Y-14174460D02*
X11832086Y-14183984D01*
X11832086Y-14183984D02*
X11813039Y-14183984D01*
X11813039Y-14183984D02*
X11793991Y-14174460D01*
X11793991Y-14174460D02*
X11784467Y-14164936D01*
X11784467Y-14164936D02*
X11774943Y-14145888D01*
X11774943Y-14145888D02*
X11765420Y-14107793D01*
X11765420Y-14107793D02*
X11765420Y-14060174D01*
X11765420Y-14060174D02*
X11774943Y-14022079D01*
X11774943Y-14022079D02*
X11784467Y-14003031D01*
X11784467Y-14003031D02*
X11793991Y-13993508D01*
X11793991Y-13993508D02*
X11813039Y-13983984D01*
X11965420Y-14183984D02*
X11965420Y-14050650D01*
X11965420Y-14069698D02*
X11974943Y-14060174D01*
X11974943Y-14060174D02*
X11993991Y-14050650D01*
X11993991Y-14050650D02*
X12022563Y-14050650D01*
X12022563Y-14050650D02*
X12041610Y-14060174D01*
X12041610Y-14060174D02*
X12051134Y-14079222D01*
X12051134Y-14079222D02*
X12051134Y-14183984D01*
X12051134Y-14079222D02*
X12060658Y-14060174D01*
X12060658Y-14060174D02*
X12079705Y-14050650D01*
X12079705Y-14050650D02*
X12108277Y-14050650D01*
X12108277Y-14050650D02*
X12127324Y-14060174D01*
X12127324Y-14060174D02*
X12136848Y-14079222D01*
X12136848Y-14079222D02*
X12136848Y-14183984D01*
X12232086Y-14183984D02*
X12232086Y-14050650D01*
X12232086Y-14069698D02*
X12241610Y-14060174D01*
X12241610Y-14060174D02*
X12260658Y-14050650D01*
X12260658Y-14050650D02*
X12289229Y-14050650D01*
X12289229Y-14050650D02*
X12308277Y-14060174D01*
X12308277Y-14060174D02*
X12317801Y-14079222D01*
X12317801Y-14079222D02*
X12317801Y-14183984D01*
X12317801Y-14079222D02*
X12327324Y-14060174D01*
X12327324Y-14060174D02*
X12346372Y-14050650D01*
X12346372Y-14050650D02*
X12374943Y-14050650D01*
X12374943Y-14050650D02*
X12393991Y-14060174D01*
X12393991Y-14060174D02*
X12403515Y-14079222D01*
X12403515Y-14079222D02*
X12403515Y-14183984D01*
X12793991Y-13974460D02*
X12622563Y-14231603D01*
X13051134Y-13983984D02*
X13070182Y-13983984D01*
X13070182Y-13983984D02*
X13089229Y-13993508D01*
X13089229Y-13993508D02*
X13098753Y-14003031D01*
X13098753Y-14003031D02*
X13108277Y-14022079D01*
X13108277Y-14022079D02*
X13117801Y-14060174D01*
X13117801Y-14060174D02*
X13117801Y-14107793D01*
X13117801Y-14107793D02*
X13108277Y-14145888D01*
X13108277Y-14145888D02*
X13098753Y-14164936D01*
X13098753Y-14164936D02*
X13089229Y-14174460D01*
X13089229Y-14174460D02*
X13070182Y-14183984D01*
X13070182Y-14183984D02*
X13051134Y-14183984D01*
X13051134Y-14183984D02*
X13032086Y-14174460D01*
X13032086Y-14174460D02*
X13022563Y-14164936D01*
X13022563Y-14164936D02*
X13013039Y-14145888D01*
X13013039Y-14145888D02*
X13003515Y-14107793D01*
X13003515Y-14107793D02*
X13003515Y-14060174D01*
X13003515Y-14060174D02*
X13013039Y-14022079D01*
X13013039Y-14022079D02*
X13022563Y-14003031D01*
X13022563Y-14003031D02*
X13032086Y-13993508D01*
X13032086Y-13993508D02*
X13051134Y-13983984D01*
X13203515Y-14164936D02*
X13213039Y-14174460D01*
X13213039Y-14174460D02*
X13203515Y-14183984D01*
X13203515Y-14183984D02*
X13193991Y-14174460D01*
X13193991Y-14174460D02*
X13203515Y-14164936D01*
X13203515Y-14164936D02*
X13203515Y-14183984D01*
X13403515Y-14183984D02*
X13289229Y-14183984D01*
X13346372Y-14183984D02*
X13346372Y-13983984D01*
X13346372Y-13983984D02*
X13327325Y-14012555D01*
X13327325Y-14012555D02*
X13308277Y-14031603D01*
X13308277Y-14031603D02*
X13289229Y-14041127D01*
X13470182Y-13983984D02*
X13593991Y-13983984D01*
X13593991Y-13983984D02*
X13527325Y-14060174D01*
X13527325Y-14060174D02*
X13555896Y-14060174D01*
X13555896Y-14060174D02*
X13574944Y-14069698D01*
X13574944Y-14069698D02*
X13584467Y-14079222D01*
X13584467Y-14079222D02*
X13593991Y-14098269D01*
X13593991Y-14098269D02*
X13593991Y-14145888D01*
X13593991Y-14145888D02*
X13584467Y-14164936D01*
X13584467Y-14164936D02*
X13574944Y-14174460D01*
X13574944Y-14174460D02*
X13555896Y-14183984D01*
X13555896Y-14183984D02*
X13498753Y-14183984D01*
X13498753Y-14183984D02*
X13479706Y-14174460D01*
X13479706Y-14174460D02*
X13470182Y-14164936D01*
X13660658Y-13983984D02*
X13793991Y-13983984D01*
X13793991Y-13983984D02*
X13708277Y-14183984D01*
X13898753Y-14069698D02*
X13879706Y-14060174D01*
X13879706Y-14060174D02*
X13870182Y-14050650D01*
X13870182Y-14050650D02*
X13860658Y-14031603D01*
X13860658Y-14031603D02*
X13860658Y-14022079D01*
X13860658Y-14022079D02*
X13870182Y-14003031D01*
X13870182Y-14003031D02*
X13879706Y-13993508D01*
X13879706Y-13993508D02*
X13898753Y-13983984D01*
X13898753Y-13983984D02*
X13936848Y-13983984D01*
X13936848Y-13983984D02*
X13955896Y-13993508D01*
X13955896Y-13993508D02*
X13965420Y-14003031D01*
X13965420Y-14003031D02*
X13974944Y-14022079D01*
X13974944Y-14022079D02*
X13974944Y-14031603D01*
X13974944Y-14031603D02*
X13965420Y-14050650D01*
X13965420Y-14050650D02*
X13955896Y-14060174D01*
X13955896Y-14060174D02*
X13936848Y-14069698D01*
X13936848Y-14069698D02*
X13898753Y-14069698D01*
X13898753Y-14069698D02*
X13879706Y-14079222D01*
X13879706Y-14079222D02*
X13870182Y-14088746D01*
X13870182Y-14088746D02*
X13860658Y-14107793D01*
X13860658Y-14107793D02*
X13860658Y-14145888D01*
X13860658Y-14145888D02*
X13870182Y-14164936D01*
X13870182Y-14164936D02*
X13879706Y-14174460D01*
X13879706Y-14174460D02*
X13898753Y-14183984D01*
X13898753Y-14183984D02*
X13936848Y-14183984D01*
X13936848Y-14183984D02*
X13955896Y-14174460D01*
X13955896Y-14174460D02*
X13965420Y-14164936D01*
X13965420Y-14164936D02*
X13974944Y-14145888D01*
X13974944Y-14145888D02*
X13974944Y-14107793D01*
X13974944Y-14107793D02*
X13965420Y-14088746D01*
X13965420Y-14088746D02*
X13955896Y-14079222D01*
X13955896Y-14079222D02*
X13936848Y-14069698D01*
X14051134Y-13983984D02*
X14051134Y-14022079D01*
X14127325Y-13983984D02*
X14127325Y-14022079D01*
X14422563Y-14260174D02*
X14413039Y-14250650D01*
X14413039Y-14250650D02*
X14393991Y-14222079D01*
X14393991Y-14222079D02*
X14384468Y-14203031D01*
X14384468Y-14203031D02*
X14374944Y-14174460D01*
X14374944Y-14174460D02*
X14365420Y-14126841D01*
X14365420Y-14126841D02*
X14365420Y-14088746D01*
X14365420Y-14088746D02*
X14374944Y-14041127D01*
X14374944Y-14041127D02*
X14384468Y-14012555D01*
X14384468Y-14012555D02*
X14393991Y-13993508D01*
X14393991Y-13993508D02*
X14413039Y-13964936D01*
X14413039Y-13964936D02*
X14422563Y-13955412D01*
X14603515Y-14183984D02*
X14489229Y-14183984D01*
X14546372Y-14183984D02*
X14546372Y-13983984D01*
X14546372Y-13983984D02*
X14527325Y-14012555D01*
X14527325Y-14012555D02*
X14508277Y-14031603D01*
X14508277Y-14031603D02*
X14489229Y-14041127D01*
X14841610Y-14183984D02*
X14841610Y-13983984D01*
X14927325Y-14183984D02*
X14927325Y-14079222D01*
X14927325Y-14079222D02*
X14917801Y-14060174D01*
X14917801Y-14060174D02*
X14898753Y-14050650D01*
X14898753Y-14050650D02*
X14870182Y-14050650D01*
X14870182Y-14050650D02*
X14851134Y-14060174D01*
X14851134Y-14060174D02*
X14841610Y-14069698D01*
X15051134Y-14183984D02*
X15032087Y-14174460D01*
X15032087Y-14174460D02*
X15022563Y-14164936D01*
X15022563Y-14164936D02*
X15013039Y-14145888D01*
X15013039Y-14145888D02*
X15013039Y-14088746D01*
X15013039Y-14088746D02*
X15022563Y-14069698D01*
X15022563Y-14069698D02*
X15032087Y-14060174D01*
X15032087Y-14060174D02*
X15051134Y-14050650D01*
X15051134Y-14050650D02*
X15079706Y-14050650D01*
X15079706Y-14050650D02*
X15098753Y-14060174D01*
X15098753Y-14060174D02*
X15108277Y-14069698D01*
X15108277Y-14069698D02*
X15117801Y-14088746D01*
X15117801Y-14088746D02*
X15117801Y-14145888D01*
X15117801Y-14145888D02*
X15108277Y-14164936D01*
X15108277Y-14164936D02*
X15098753Y-14174460D01*
X15098753Y-14174460D02*
X15079706Y-14183984D01*
X15079706Y-14183984D02*
X15051134Y-14183984D01*
X15232087Y-14183984D02*
X15213039Y-14174460D01*
X15213039Y-14174460D02*
X15203515Y-14155412D01*
X15203515Y-14155412D02*
X15203515Y-13983984D01*
X15384468Y-14174460D02*
X15365420Y-14183984D01*
X15365420Y-14183984D02*
X15327325Y-14183984D01*
X15327325Y-14183984D02*
X15308277Y-14174460D01*
X15308277Y-14174460D02*
X15298753Y-14155412D01*
X15298753Y-14155412D02*
X15298753Y-14079222D01*
X15298753Y-14079222D02*
X15308277Y-14060174D01*
X15308277Y-14060174D02*
X15327325Y-14050650D01*
X15327325Y-14050650D02*
X15365420Y-14050650D01*
X15365420Y-14050650D02*
X15384468Y-14060174D01*
X15384468Y-14060174D02*
X15393991Y-14079222D01*
X15393991Y-14079222D02*
X15393991Y-14098269D01*
X15393991Y-14098269D02*
X15298753Y-14117317D01*
X15460658Y-14260174D02*
X15470182Y-14250650D01*
X15470182Y-14250650D02*
X15489230Y-14222079D01*
X15489230Y-14222079D02*
X15498753Y-14203031D01*
X15498753Y-14203031D02*
X15508277Y-14174460D01*
X15508277Y-14174460D02*
X15517801Y-14126841D01*
X15517801Y-14126841D02*
X15517801Y-14088746D01*
X15517801Y-14088746D02*
X15508277Y-14041127D01*
X15508277Y-14041127D02*
X15498753Y-14012555D01*
X15498753Y-14012555D02*
X15489230Y-13993508D01*
X15489230Y-13993508D02*
X15470182Y-13964936D01*
X15470182Y-13964936D02*
X15460658Y-13955412D01*
X15822563Y-14260174D02*
X15813039Y-14250650D01*
X15813039Y-14250650D02*
X15793991Y-14222079D01*
X15793991Y-14222079D02*
X15784468Y-14203031D01*
X15784468Y-14203031D02*
X15774944Y-14174460D01*
X15774944Y-14174460D02*
X15765420Y-14126841D01*
X15765420Y-14126841D02*
X15765420Y-14088746D01*
X15765420Y-14088746D02*
X15774944Y-14041127D01*
X15774944Y-14041127D02*
X15784468Y-14012555D01*
X15784468Y-14012555D02*
X15793991Y-13993508D01*
X15793991Y-13993508D02*
X15813039Y-13964936D01*
X15813039Y-13964936D02*
X15822563Y-13955412D01*
X15898753Y-14050650D02*
X15898753Y-14183984D01*
X15898753Y-14069698D02*
X15908277Y-14060174D01*
X15908277Y-14060174D02*
X15927325Y-14050650D01*
X15927325Y-14050650D02*
X15955896Y-14050650D01*
X15955896Y-14050650D02*
X15974944Y-14060174D01*
X15974944Y-14060174D02*
X15984468Y-14079222D01*
X15984468Y-14079222D02*
X15984468Y-14183984D01*
X16108277Y-14183984D02*
X16089230Y-14174460D01*
X16089230Y-14174460D02*
X16079706Y-14164936D01*
X16079706Y-14164936D02*
X16070182Y-14145888D01*
X16070182Y-14145888D02*
X16070182Y-14088746D01*
X16070182Y-14088746D02*
X16079706Y-14069698D01*
X16079706Y-14069698D02*
X16089230Y-14060174D01*
X16089230Y-14060174D02*
X16108277Y-14050650D01*
X16108277Y-14050650D02*
X16136849Y-14050650D01*
X16136849Y-14050650D02*
X16155896Y-14060174D01*
X16155896Y-14060174D02*
X16165420Y-14069698D01*
X16165420Y-14069698D02*
X16174944Y-14088746D01*
X16174944Y-14088746D02*
X16174944Y-14145888D01*
X16174944Y-14145888D02*
X16165420Y-14164936D01*
X16165420Y-14164936D02*
X16155896Y-14174460D01*
X16155896Y-14174460D02*
X16136849Y-14183984D01*
X16136849Y-14183984D02*
X16108277Y-14183984D01*
X16232087Y-14050650D02*
X16308277Y-14050650D01*
X16260658Y-13983984D02*
X16260658Y-14155412D01*
X16260658Y-14155412D02*
X16270182Y-14174460D01*
X16270182Y-14174460D02*
X16289230Y-14183984D01*
X16289230Y-14183984D02*
X16308277Y-14183984D01*
X16527325Y-14050650D02*
X16527325Y-14250650D01*
X16527325Y-14060174D02*
X16546372Y-14050650D01*
X16546372Y-14050650D02*
X16584468Y-14050650D01*
X16584468Y-14050650D02*
X16603515Y-14060174D01*
X16603515Y-14060174D02*
X16613039Y-14069698D01*
X16613039Y-14069698D02*
X16622563Y-14088746D01*
X16622563Y-14088746D02*
X16622563Y-14145888D01*
X16622563Y-14145888D02*
X16613039Y-14164936D01*
X16613039Y-14164936D02*
X16603515Y-14174460D01*
X16603515Y-14174460D02*
X16584468Y-14183984D01*
X16584468Y-14183984D02*
X16546372Y-14183984D01*
X16546372Y-14183984D02*
X16527325Y-14174460D01*
X16736849Y-14183984D02*
X16717801Y-14174460D01*
X16717801Y-14174460D02*
X16708277Y-14155412D01*
X16708277Y-14155412D02*
X16708277Y-13983984D01*
X16898754Y-14183984D02*
X16898754Y-14079222D01*
X16898754Y-14079222D02*
X16889230Y-14060174D01*
X16889230Y-14060174D02*
X16870182Y-14050650D01*
X16870182Y-14050650D02*
X16832087Y-14050650D01*
X16832087Y-14050650D02*
X16813039Y-14060174D01*
X16898754Y-14174460D02*
X16879706Y-14183984D01*
X16879706Y-14183984D02*
X16832087Y-14183984D01*
X16832087Y-14183984D02*
X16813039Y-14174460D01*
X16813039Y-14174460D02*
X16803515Y-14155412D01*
X16803515Y-14155412D02*
X16803515Y-14136365D01*
X16803515Y-14136365D02*
X16813039Y-14117317D01*
X16813039Y-14117317D02*
X16832087Y-14107793D01*
X16832087Y-14107793D02*
X16879706Y-14107793D01*
X16879706Y-14107793D02*
X16898754Y-14098269D01*
X16965420Y-14050650D02*
X17041611Y-14050650D01*
X16993992Y-13983984D02*
X16993992Y-14155412D01*
X16993992Y-14155412D02*
X17003515Y-14174460D01*
X17003515Y-14174460D02*
X17022563Y-14183984D01*
X17022563Y-14183984D02*
X17041611Y-14183984D01*
X17184468Y-14174460D02*
X17165420Y-14183984D01*
X17165420Y-14183984D02*
X17127325Y-14183984D01*
X17127325Y-14183984D02*
X17108277Y-14174460D01*
X17108277Y-14174460D02*
X17098754Y-14155412D01*
X17098754Y-14155412D02*
X17098754Y-14079222D01*
X17098754Y-14079222D02*
X17108277Y-14060174D01*
X17108277Y-14060174D02*
X17127325Y-14050650D01*
X17127325Y-14050650D02*
X17165420Y-14050650D01*
X17165420Y-14050650D02*
X17184468Y-14060174D01*
X17184468Y-14060174D02*
X17193992Y-14079222D01*
X17193992Y-14079222D02*
X17193992Y-14098269D01*
X17193992Y-14098269D02*
X17098754Y-14117317D01*
X17365420Y-14183984D02*
X17365420Y-13983984D01*
X17365420Y-14174460D02*
X17346373Y-14183984D01*
X17346373Y-14183984D02*
X17308277Y-14183984D01*
X17308277Y-14183984D02*
X17289230Y-14174460D01*
X17289230Y-14174460D02*
X17279706Y-14164936D01*
X17279706Y-14164936D02*
X17270182Y-14145888D01*
X17270182Y-14145888D02*
X17270182Y-14088746D01*
X17270182Y-14088746D02*
X17279706Y-14069698D01*
X17279706Y-14069698D02*
X17289230Y-14060174D01*
X17289230Y-14060174D02*
X17308277Y-14050650D01*
X17308277Y-14050650D02*
X17346373Y-14050650D01*
X17346373Y-14050650D02*
X17365420Y-14060174D01*
X17441611Y-14260174D02*
X17451135Y-14250650D01*
X17451135Y-14250650D02*
X17470182Y-14222079D01*
X17470182Y-14222079D02*
X17479706Y-14203031D01*
X17479706Y-14203031D02*
X17489230Y-14174460D01*
X17489230Y-14174460D02*
X17498754Y-14126841D01*
X17498754Y-14126841D02*
X17498754Y-14088746D01*
X17498754Y-14088746D02*
X17489230Y-14041127D01*
X17489230Y-14041127D02*
X17479706Y-14012555D01*
X17479706Y-14012555D02*
X17470182Y-13993508D01*
X17470182Y-13993508D02*
X17451135Y-13964936D01*
X17451135Y-13964936D02*
X17441611Y-13955412D01*
M02*
