%TF.GenerationSoftware,KiCad,Pcbnew,8.0.0*%
%TF.CreationDate,2024-04-02T15:54:07-06:00*%
%TF.ProjectId,SimonSaysPCBDesign,53696d6f-6e53-4617-9973-504342446573,1.0*%
%TF.SameCoordinates,Original*%
%TF.FileFunction,Drillmap*%
%TF.FilePolarity,Positive*%
%FSLAX45Y45*%
G04 Gerber Fmt 4.5, Leading zero omitted, Abs format (unit mm)*
G04 Created by KiCad (PCBNEW 8.0.0) date 2024-04-02 15:54:07*
%MOMM*%
%LPD*%
G01*
G04 APERTURE LIST*
%ADD10C,0.050000*%
%ADD11C,0.200000*%
%ADD12C,0.100000*%
%ADD13C,0.110000*%
%ADD14C,0.130000*%
G04 APERTURE END LIST*
D10*
X11250000Y-13450000D02*
G75*
G02*
X10850000Y-13050000I0J400000D01*
G01*
X15750000Y-13100000D02*
G75*
G02*
X15400000Y-13450000I-350000J0D01*
G01*
X15750000Y-13000000D02*
X15750000Y-13050000D01*
X10850000Y-6850000D02*
G75*
G02*
X11250000Y-6450000I400000J0D01*
G01*
X15750000Y-13000000D02*
X15750000Y-6900000D01*
X10850000Y-13000000D02*
X10850000Y-13050000D01*
X15350000Y-13450000D02*
X15400000Y-13450000D01*
X15300000Y-6450000D02*
G75*
G02*
X15750000Y-6900000I0J-450000D01*
G01*
X11300000Y-13450000D02*
X11250000Y-13450000D01*
X11300000Y-6450000D02*
X11250000Y-6450000D01*
X15250000Y-6450000D02*
X15300000Y-6450000D01*
X11300000Y-6450000D02*
X15250000Y-6450000D01*
X10850000Y-6900000D02*
X10850000Y-6850000D01*
X15750000Y-13050000D02*
X15750000Y-13100000D01*
X11300000Y-13450000D02*
X15350000Y-13450000D01*
X10850000Y-6900000D02*
X10850000Y-13000000D01*
D11*
D12*
X12185000Y-7635000D02*
X12215000Y-7665000D01*
X12215000Y-7635000D02*
X12185000Y-7665000D01*
X12365000Y-8145000D02*
X12395000Y-8175000D01*
X12395000Y-8145000D02*
X12365000Y-8175000D01*
X12425000Y-8625000D02*
X12455000Y-8655000D01*
X12455000Y-8625000D02*
X12425000Y-8655000D01*
X12585000Y-10335000D02*
X12615000Y-10365000D01*
X12615000Y-10335000D02*
X12585000Y-10365000D01*
X12585000Y-10735000D02*
X12615000Y-10765000D01*
X12615000Y-10735000D02*
X12585000Y-10765000D01*
X12785000Y-12235000D02*
X12815000Y-12265000D01*
X12815000Y-12235000D02*
X12785000Y-12265000D01*
X12885000Y-7785000D02*
X12915000Y-7815000D01*
X12915000Y-7785000D02*
X12885000Y-7815000D01*
X13685000Y-12235000D02*
X13715000Y-12265000D01*
X13715000Y-12235000D02*
X13685000Y-12265000D01*
X13825000Y-8445000D02*
X13855000Y-8475000D01*
X13855000Y-8445000D02*
X13825000Y-8475000D01*
X13885000Y-7835000D02*
X13915000Y-7865000D01*
X13915000Y-7835000D02*
X13885000Y-7865000D01*
X13935000Y-9035000D02*
X13965000Y-9065000D01*
X13965000Y-9035000D02*
X13935000Y-9065000D01*
X14085000Y-7585000D02*
X14115000Y-7615000D01*
X14115000Y-7585000D02*
X14085000Y-7615000D01*
X14085000Y-9835000D02*
X14115000Y-9865000D01*
X14115000Y-9835000D02*
X14085000Y-9865000D01*
X12840000Y-8330000D02*
G75*
G02*
X12760000Y-8330000I-40000J0D01*
G01*
X12760000Y-8330000D02*
G75*
G02*
X12840000Y-8330000I40000J0D01*
G01*
X12840000Y-8584000D02*
G75*
G02*
X12760000Y-8584000I-40000J0D01*
G01*
X12760000Y-8584000D02*
G75*
G02*
X12840000Y-8584000I40000J0D01*
G01*
X12840000Y-8838000D02*
G75*
G02*
X12760000Y-8838000I-40000J0D01*
G01*
X12760000Y-8838000D02*
G75*
G02*
X12840000Y-8838000I40000J0D01*
G01*
X12840000Y-9092000D02*
G75*
G02*
X12760000Y-9092000I-40000J0D01*
G01*
X12760000Y-9092000D02*
G75*
G02*
X12840000Y-9092000I40000J0D01*
G01*
X12840000Y-9346000D02*
G75*
G02*
X12760000Y-9346000I-40000J0D01*
G01*
X12760000Y-9346000D02*
G75*
G02*
X12840000Y-9346000I40000J0D01*
G01*
X12840000Y-9600000D02*
G75*
G02*
X12760000Y-9600000I-40000J0D01*
G01*
X12760000Y-9600000D02*
G75*
G02*
X12840000Y-9600000I40000J0D01*
G01*
X12840000Y-9854000D02*
G75*
G02*
X12760000Y-9854000I-40000J0D01*
G01*
X12760000Y-9854000D02*
G75*
G02*
X12840000Y-9854000I40000J0D01*
G01*
X12840000Y-10108000D02*
G75*
G02*
X12760000Y-10108000I-40000J0D01*
G01*
X12760000Y-10108000D02*
G75*
G02*
X12840000Y-10108000I40000J0D01*
G01*
X12840000Y-10362000D02*
G75*
G02*
X12760000Y-10362000I-40000J0D01*
G01*
X12760000Y-10362000D02*
G75*
G02*
X12840000Y-10362000I40000J0D01*
G01*
X12840000Y-10616000D02*
G75*
G02*
X12760000Y-10616000I-40000J0D01*
G01*
X12760000Y-10616000D02*
G75*
G02*
X12840000Y-10616000I40000J0D01*
G01*
X12840000Y-10870000D02*
G75*
G02*
X12760000Y-10870000I-40000J0D01*
G01*
X12760000Y-10870000D02*
G75*
G02*
X12840000Y-10870000I40000J0D01*
G01*
X12840000Y-11124000D02*
G75*
G02*
X12760000Y-11124000I-40000J0D01*
G01*
X12760000Y-11124000D02*
G75*
G02*
X12840000Y-11124000I40000J0D01*
G01*
X12840000Y-11378000D02*
G75*
G02*
X12760000Y-11378000I-40000J0D01*
G01*
X12760000Y-11378000D02*
G75*
G02*
X12840000Y-11378000I40000J0D01*
G01*
X12840000Y-11632000D02*
G75*
G02*
X12760000Y-11632000I-40000J0D01*
G01*
X12760000Y-11632000D02*
G75*
G02*
X12840000Y-11632000I40000J0D01*
G01*
X13602000Y-8330000D02*
G75*
G02*
X13522000Y-8330000I-40000J0D01*
G01*
X13522000Y-8330000D02*
G75*
G02*
X13602000Y-8330000I40000J0D01*
G01*
X13602000Y-8584000D02*
G75*
G02*
X13522000Y-8584000I-40000J0D01*
G01*
X13522000Y-8584000D02*
G75*
G02*
X13602000Y-8584000I40000J0D01*
G01*
X13602000Y-8838000D02*
G75*
G02*
X13522000Y-8838000I-40000J0D01*
G01*
X13522000Y-8838000D02*
G75*
G02*
X13602000Y-8838000I40000J0D01*
G01*
X13602000Y-9092000D02*
G75*
G02*
X13522000Y-9092000I-40000J0D01*
G01*
X13522000Y-9092000D02*
G75*
G02*
X13602000Y-9092000I40000J0D01*
G01*
X13602000Y-9346000D02*
G75*
G02*
X13522000Y-9346000I-40000J0D01*
G01*
X13522000Y-9346000D02*
G75*
G02*
X13602000Y-9346000I40000J0D01*
G01*
X13602000Y-9600000D02*
G75*
G02*
X13522000Y-9600000I-40000J0D01*
G01*
X13522000Y-9600000D02*
G75*
G02*
X13602000Y-9600000I40000J0D01*
G01*
X13602000Y-9854000D02*
G75*
G02*
X13522000Y-9854000I-40000J0D01*
G01*
X13522000Y-9854000D02*
G75*
G02*
X13602000Y-9854000I40000J0D01*
G01*
X13602000Y-10108000D02*
G75*
G02*
X13522000Y-10108000I-40000J0D01*
G01*
X13522000Y-10108000D02*
G75*
G02*
X13602000Y-10108000I40000J0D01*
G01*
X13602000Y-10362000D02*
G75*
G02*
X13522000Y-10362000I-40000J0D01*
G01*
X13522000Y-10362000D02*
G75*
G02*
X13602000Y-10362000I40000J0D01*
G01*
X13602000Y-10616000D02*
G75*
G02*
X13522000Y-10616000I-40000J0D01*
G01*
X13522000Y-10616000D02*
G75*
G02*
X13602000Y-10616000I40000J0D01*
G01*
X13602000Y-10870000D02*
G75*
G02*
X13522000Y-10870000I-40000J0D01*
G01*
X13522000Y-10870000D02*
G75*
G02*
X13602000Y-10870000I40000J0D01*
G01*
X13602000Y-11124000D02*
G75*
G02*
X13522000Y-11124000I-40000J0D01*
G01*
X13522000Y-11124000D02*
G75*
G02*
X13602000Y-11124000I40000J0D01*
G01*
X13602000Y-11378000D02*
G75*
G02*
X13522000Y-11378000I-40000J0D01*
G01*
X13522000Y-11378000D02*
G75*
G02*
X13602000Y-11378000I40000J0D01*
G01*
X13602000Y-11632000D02*
G75*
G02*
X13522000Y-11632000I-40000J0D01*
G01*
X13522000Y-11632000D02*
G75*
G02*
X13602000Y-11632000I40000J0D01*
G01*
X12450000Y-6876000D02*
X12450000Y-6966000D01*
X12405000Y-6921000D02*
X12495000Y-6921000D01*
X12450000Y-7130000D02*
X12450000Y-7220000D01*
X12405000Y-7175000D02*
X12495000Y-7175000D01*
X12450000Y-12601000D02*
X12450000Y-12691000D01*
X12405000Y-12646000D02*
X12495000Y-12646000D01*
X12450000Y-12855000D02*
X12450000Y-12945000D01*
X12405000Y-12900000D02*
X12495000Y-12900000D01*
X14250000Y-6880000D02*
X14250000Y-6970000D01*
X14205000Y-6925000D02*
X14295000Y-6925000D01*
X14250000Y-7134000D02*
X14250000Y-7224000D01*
X14205000Y-7179000D02*
X14295000Y-7179000D01*
X14250000Y-12605000D02*
X14250000Y-12695000D01*
X14205000Y-12650000D02*
X14295000Y-12650000D01*
X14250000Y-12859000D02*
X14250000Y-12949000D01*
X14205000Y-12904000D02*
X14295000Y-12904000D01*
X11135356Y-9231356D02*
X11135356Y-9160644D01*
X11064644Y-9160644D01*
X11064644Y-9231356D01*
X11135356Y-9231356D01*
X11135356Y-9485356D02*
X11135356Y-9414644D01*
X11064644Y-9414644D01*
X11064644Y-9485356D01*
X11135356Y-9485356D01*
X11135356Y-9739356D02*
X11135356Y-9668644D01*
X11064644Y-9668644D01*
X11064644Y-9739356D01*
X11135356Y-9739356D01*
X11135356Y-9993356D02*
X11135356Y-9922644D01*
X11064644Y-9922644D01*
X11064644Y-9993356D01*
X11135356Y-9993356D01*
X11135356Y-10573356D02*
X11135356Y-10502644D01*
X11064644Y-10502644D01*
X11064644Y-10573356D01*
X11135356Y-10573356D01*
X11135356Y-10827356D02*
X11135356Y-10756644D01*
X11064644Y-10756644D01*
X11064644Y-10827356D01*
X11135356Y-10827356D01*
X11135356Y-11081356D02*
X11135356Y-11010644D01*
X11064644Y-11010644D01*
X11064644Y-11081356D01*
X11135356Y-11081356D01*
X11135356Y-11335356D02*
X11135356Y-11264644D01*
X11064644Y-11264644D01*
X11064644Y-11335356D01*
X11135356Y-11335356D01*
X11135356Y-11589356D02*
X11135356Y-11518644D01*
X11064644Y-11518644D01*
X11064644Y-11589356D01*
X11135356Y-11589356D01*
X11135356Y-11843356D02*
X11135356Y-11772644D01*
X11064644Y-11772644D01*
X11064644Y-11843356D01*
X11135356Y-11843356D01*
X12135356Y-9660356D02*
X12135356Y-9589644D01*
X12064644Y-9589644D01*
X12064644Y-9660356D01*
X12135356Y-9660356D01*
X12135356Y-9914356D02*
X12135356Y-9843644D01*
X12064644Y-9843644D01*
X12064644Y-9914356D01*
X12135356Y-9914356D01*
D13*
X11075000Y-8030000D02*
X11130000Y-7975000D01*
X11075000Y-7920000D01*
X11020000Y-7975000D01*
X11075000Y-8030000D01*
X11075000Y-8680000D02*
X11130000Y-8625000D01*
X11075000Y-8570000D01*
X11020000Y-8625000D01*
X11075000Y-8680000D01*
X11375000Y-6830000D02*
X11430000Y-6775000D01*
X11375000Y-6720000D01*
X11320000Y-6775000D01*
X11375000Y-6830000D01*
X11375000Y-7480000D02*
X11430000Y-7425000D01*
X11375000Y-7370000D01*
X11320000Y-7425000D01*
X11375000Y-7480000D01*
X11375000Y-12430000D02*
X11430000Y-12375000D01*
X11375000Y-12320000D01*
X11320000Y-12375000D01*
X11375000Y-12430000D01*
X11375000Y-13080000D02*
X11430000Y-13025000D01*
X11375000Y-12970000D01*
X11320000Y-13025000D01*
X11375000Y-13080000D01*
X11525000Y-8030000D02*
X11580000Y-7975000D01*
X11525000Y-7920000D01*
X11470000Y-7975000D01*
X11525000Y-8030000D01*
X11525000Y-8680000D02*
X11580000Y-8625000D01*
X11525000Y-8570000D01*
X11470000Y-8625000D01*
X11525000Y-8680000D01*
X11825000Y-6830000D02*
X11880000Y-6775000D01*
X11825000Y-6720000D01*
X11770000Y-6775000D01*
X11825000Y-6830000D01*
X11825000Y-7480000D02*
X11880000Y-7425000D01*
X11825000Y-7370000D01*
X11770000Y-7425000D01*
X11825000Y-7480000D01*
X11825000Y-12430000D02*
X11880000Y-12375000D01*
X11825000Y-12320000D01*
X11770000Y-12375000D01*
X11825000Y-12430000D01*
X11825000Y-13080000D02*
X11880000Y-13025000D01*
X11825000Y-12970000D01*
X11770000Y-13025000D01*
X11825000Y-13080000D01*
X14646000Y-9639000D02*
X14701000Y-9584000D01*
X14646000Y-9529000D01*
X14591000Y-9584000D01*
X14646000Y-9639000D01*
X14875000Y-6830000D02*
X14930000Y-6775000D01*
X14875000Y-6720000D01*
X14820000Y-6775000D01*
X14875000Y-6830000D01*
X14875000Y-7480000D02*
X14930000Y-7425000D01*
X14875000Y-7370000D01*
X14820000Y-7425000D01*
X14875000Y-7480000D01*
X14875000Y-12455000D02*
X14930000Y-12400000D01*
X14875000Y-12345000D01*
X14820000Y-12400000D01*
X14875000Y-12455000D01*
X14875000Y-13105000D02*
X14930000Y-13050000D01*
X14875000Y-12995000D01*
X14820000Y-13050000D01*
X14875000Y-13105000D01*
X14900000Y-9639000D02*
X14955000Y-9584000D01*
X14900000Y-9529000D01*
X14845000Y-9584000D01*
X14900000Y-9639000D01*
X15154000Y-9639000D02*
X15209000Y-9584000D01*
X15154000Y-9529000D01*
X15099000Y-9584000D01*
X15154000Y-9639000D01*
X15325000Y-6830000D02*
X15380000Y-6775000D01*
X15325000Y-6720000D01*
X15270000Y-6775000D01*
X15325000Y-6830000D01*
X15325000Y-7480000D02*
X15380000Y-7425000D01*
X15325000Y-7370000D01*
X15270000Y-7425000D01*
X15325000Y-7480000D01*
X15325000Y-12455000D02*
X15380000Y-12400000D01*
X15325000Y-12345000D01*
X15270000Y-12400000D01*
X15325000Y-12455000D01*
X15325000Y-13105000D02*
X15380000Y-13050000D01*
X15325000Y-12995000D01*
X15270000Y-13050000D01*
X15325000Y-13105000D01*
D14*
X14835000Y-8285000D02*
X14965000Y-8415000D01*
X14965000Y-8285000D02*
X14835000Y-8415000D01*
X14965000Y-8350000D02*
G75*
G02*
X14835000Y-8350000I-65000J0D01*
G01*
X14835000Y-8350000D02*
G75*
G02*
X14965000Y-8350000I65000J0D01*
G01*
X14835000Y-8785000D02*
X14965000Y-8915000D01*
X14965000Y-8785000D02*
X14835000Y-8915000D01*
X14965000Y-8850000D02*
G75*
G02*
X14835000Y-8850000I-65000J0D01*
G01*
X14835000Y-8850000D02*
G75*
G02*
X14965000Y-8850000I65000J0D01*
G01*
D11*
X11108277Y-13763984D02*
X11108277Y-13563984D01*
X11108277Y-13563984D02*
X11155896Y-13563984D01*
X11155896Y-13563984D02*
X11184467Y-13573508D01*
X11184467Y-13573508D02*
X11203515Y-13592555D01*
X11203515Y-13592555D02*
X11213039Y-13611603D01*
X11213039Y-13611603D02*
X11222562Y-13649698D01*
X11222562Y-13649698D02*
X11222562Y-13678269D01*
X11222562Y-13678269D02*
X11213039Y-13716365D01*
X11213039Y-13716365D02*
X11203515Y-13735412D01*
X11203515Y-13735412D02*
X11184467Y-13754460D01*
X11184467Y-13754460D02*
X11155896Y-13763984D01*
X11155896Y-13763984D02*
X11108277Y-13763984D01*
X11308277Y-13763984D02*
X11308277Y-13630650D01*
X11308277Y-13668746D02*
X11317801Y-13649698D01*
X11317801Y-13649698D02*
X11327324Y-13640174D01*
X11327324Y-13640174D02*
X11346372Y-13630650D01*
X11346372Y-13630650D02*
X11365420Y-13630650D01*
X11432086Y-13763984D02*
X11432086Y-13630650D01*
X11432086Y-13563984D02*
X11422562Y-13573508D01*
X11422562Y-13573508D02*
X11432086Y-13583031D01*
X11432086Y-13583031D02*
X11441610Y-13573508D01*
X11441610Y-13573508D02*
X11432086Y-13563984D01*
X11432086Y-13563984D02*
X11432086Y-13583031D01*
X11555896Y-13763984D02*
X11536848Y-13754460D01*
X11536848Y-13754460D02*
X11527324Y-13735412D01*
X11527324Y-13735412D02*
X11527324Y-13563984D01*
X11660658Y-13763984D02*
X11641610Y-13754460D01*
X11641610Y-13754460D02*
X11632086Y-13735412D01*
X11632086Y-13735412D02*
X11632086Y-13563984D01*
X11889229Y-13763984D02*
X11889229Y-13563984D01*
X11889229Y-13563984D02*
X11955896Y-13706841D01*
X11955896Y-13706841D02*
X12022562Y-13563984D01*
X12022562Y-13563984D02*
X12022562Y-13763984D01*
X12203515Y-13763984D02*
X12203515Y-13659222D01*
X12203515Y-13659222D02*
X12193991Y-13640174D01*
X12193991Y-13640174D02*
X12174943Y-13630650D01*
X12174943Y-13630650D02*
X12136848Y-13630650D01*
X12136848Y-13630650D02*
X12117801Y-13640174D01*
X12203515Y-13754460D02*
X12184467Y-13763984D01*
X12184467Y-13763984D02*
X12136848Y-13763984D01*
X12136848Y-13763984D02*
X12117801Y-13754460D01*
X12117801Y-13754460D02*
X12108277Y-13735412D01*
X12108277Y-13735412D02*
X12108277Y-13716365D01*
X12108277Y-13716365D02*
X12117801Y-13697317D01*
X12117801Y-13697317D02*
X12136848Y-13687793D01*
X12136848Y-13687793D02*
X12184467Y-13687793D01*
X12184467Y-13687793D02*
X12203515Y-13678269D01*
X12298753Y-13630650D02*
X12298753Y-13830650D01*
X12298753Y-13640174D02*
X12317801Y-13630650D01*
X12317801Y-13630650D02*
X12355896Y-13630650D01*
X12355896Y-13630650D02*
X12374943Y-13640174D01*
X12374943Y-13640174D02*
X12384467Y-13649698D01*
X12384467Y-13649698D02*
X12393991Y-13668746D01*
X12393991Y-13668746D02*
X12393991Y-13725888D01*
X12393991Y-13725888D02*
X12384467Y-13744936D01*
X12384467Y-13744936D02*
X12374943Y-13754460D01*
X12374943Y-13754460D02*
X12355896Y-13763984D01*
X12355896Y-13763984D02*
X12317801Y-13763984D01*
X12317801Y-13763984D02*
X12298753Y-13754460D01*
X12479705Y-13744936D02*
X12489229Y-13754460D01*
X12489229Y-13754460D02*
X12479705Y-13763984D01*
X12479705Y-13763984D02*
X12470182Y-13754460D01*
X12470182Y-13754460D02*
X12479705Y-13744936D01*
X12479705Y-13744936D02*
X12479705Y-13763984D01*
X12479705Y-13640174D02*
X12489229Y-13649698D01*
X12489229Y-13649698D02*
X12479705Y-13659222D01*
X12479705Y-13659222D02*
X12470182Y-13649698D01*
X12470182Y-13649698D02*
X12479705Y-13640174D01*
X12479705Y-13640174D02*
X12479705Y-13659222D01*
D12*
X10817500Y-14077500D02*
X10847500Y-14107500D01*
X10847500Y-14077500D02*
X10817500Y-14107500D01*
D11*
X11146372Y-13983984D02*
X11165420Y-13983984D01*
X11165420Y-13983984D02*
X11184467Y-13993508D01*
X11184467Y-13993508D02*
X11193991Y-14003031D01*
X11193991Y-14003031D02*
X11203515Y-14022079D01*
X11203515Y-14022079D02*
X11213039Y-14060174D01*
X11213039Y-14060174D02*
X11213039Y-14107793D01*
X11213039Y-14107793D02*
X11203515Y-14145888D01*
X11203515Y-14145888D02*
X11193991Y-14164936D01*
X11193991Y-14164936D02*
X11184467Y-14174460D01*
X11184467Y-14174460D02*
X11165420Y-14183984D01*
X11165420Y-14183984D02*
X11146372Y-14183984D01*
X11146372Y-14183984D02*
X11127324Y-14174460D01*
X11127324Y-14174460D02*
X11117801Y-14164936D01*
X11117801Y-14164936D02*
X11108277Y-14145888D01*
X11108277Y-14145888D02*
X11098753Y-14107793D01*
X11098753Y-14107793D02*
X11098753Y-14060174D01*
X11098753Y-14060174D02*
X11108277Y-14022079D01*
X11108277Y-14022079D02*
X11117801Y-14003031D01*
X11117801Y-14003031D02*
X11127324Y-13993508D01*
X11127324Y-13993508D02*
X11146372Y-13983984D01*
X11298753Y-14164936D02*
X11308277Y-14174460D01*
X11308277Y-14174460D02*
X11298753Y-14183984D01*
X11298753Y-14183984D02*
X11289229Y-14174460D01*
X11289229Y-14174460D02*
X11298753Y-14164936D01*
X11298753Y-14164936D02*
X11298753Y-14183984D01*
X11374943Y-13983984D02*
X11498753Y-13983984D01*
X11498753Y-13983984D02*
X11432086Y-14060174D01*
X11432086Y-14060174D02*
X11460658Y-14060174D01*
X11460658Y-14060174D02*
X11479705Y-14069698D01*
X11479705Y-14069698D02*
X11489229Y-14079222D01*
X11489229Y-14079222D02*
X11498753Y-14098269D01*
X11498753Y-14098269D02*
X11498753Y-14145888D01*
X11498753Y-14145888D02*
X11489229Y-14164936D01*
X11489229Y-14164936D02*
X11479705Y-14174460D01*
X11479705Y-14174460D02*
X11460658Y-14183984D01*
X11460658Y-14183984D02*
X11403515Y-14183984D01*
X11403515Y-14183984D02*
X11384467Y-14174460D01*
X11384467Y-14174460D02*
X11374943Y-14164936D01*
X11622562Y-13983984D02*
X11641610Y-13983984D01*
X11641610Y-13983984D02*
X11660658Y-13993508D01*
X11660658Y-13993508D02*
X11670182Y-14003031D01*
X11670182Y-14003031D02*
X11679705Y-14022079D01*
X11679705Y-14022079D02*
X11689229Y-14060174D01*
X11689229Y-14060174D02*
X11689229Y-14107793D01*
X11689229Y-14107793D02*
X11679705Y-14145888D01*
X11679705Y-14145888D02*
X11670182Y-14164936D01*
X11670182Y-14164936D02*
X11660658Y-14174460D01*
X11660658Y-14174460D02*
X11641610Y-14183984D01*
X11641610Y-14183984D02*
X11622562Y-14183984D01*
X11622562Y-14183984D02*
X11603515Y-14174460D01*
X11603515Y-14174460D02*
X11593991Y-14164936D01*
X11593991Y-14164936D02*
X11584467Y-14145888D01*
X11584467Y-14145888D02*
X11574943Y-14107793D01*
X11574943Y-14107793D02*
X11574943Y-14060174D01*
X11574943Y-14060174D02*
X11584467Y-14022079D01*
X11584467Y-14022079D02*
X11593991Y-14003031D01*
X11593991Y-14003031D02*
X11603515Y-13993508D01*
X11603515Y-13993508D02*
X11622562Y-13983984D01*
X11813039Y-13983984D02*
X11832086Y-13983984D01*
X11832086Y-13983984D02*
X11851134Y-13993508D01*
X11851134Y-13993508D02*
X11860658Y-14003031D01*
X11860658Y-14003031D02*
X11870182Y-14022079D01*
X11870182Y-14022079D02*
X11879705Y-14060174D01*
X11879705Y-14060174D02*
X11879705Y-14107793D01*
X11879705Y-14107793D02*
X11870182Y-14145888D01*
X11870182Y-14145888D02*
X11860658Y-14164936D01*
X11860658Y-14164936D02*
X11851134Y-14174460D01*
X11851134Y-14174460D02*
X11832086Y-14183984D01*
X11832086Y-14183984D02*
X11813039Y-14183984D01*
X11813039Y-14183984D02*
X11793991Y-14174460D01*
X11793991Y-14174460D02*
X11784467Y-14164936D01*
X11784467Y-14164936D02*
X11774943Y-14145888D01*
X11774943Y-14145888D02*
X11765420Y-14107793D01*
X11765420Y-14107793D02*
X11765420Y-14060174D01*
X11765420Y-14060174D02*
X11774943Y-14022079D01*
X11774943Y-14022079D02*
X11784467Y-14003031D01*
X11784467Y-14003031D02*
X11793991Y-13993508D01*
X11793991Y-13993508D02*
X11813039Y-13983984D01*
X11965420Y-14183984D02*
X11965420Y-14050650D01*
X11965420Y-14069698D02*
X11974943Y-14060174D01*
X11974943Y-14060174D02*
X11993991Y-14050650D01*
X11993991Y-14050650D02*
X12022563Y-14050650D01*
X12022563Y-14050650D02*
X12041610Y-14060174D01*
X12041610Y-14060174D02*
X12051134Y-14079222D01*
X12051134Y-14079222D02*
X12051134Y-14183984D01*
X12051134Y-14079222D02*
X12060658Y-14060174D01*
X12060658Y-14060174D02*
X12079705Y-14050650D01*
X12079705Y-14050650D02*
X12108277Y-14050650D01*
X12108277Y-14050650D02*
X12127324Y-14060174D01*
X12127324Y-14060174D02*
X12136848Y-14079222D01*
X12136848Y-14079222D02*
X12136848Y-14183984D01*
X12232086Y-14183984D02*
X12232086Y-14050650D01*
X12232086Y-14069698D02*
X12241610Y-14060174D01*
X12241610Y-14060174D02*
X12260658Y-14050650D01*
X12260658Y-14050650D02*
X12289229Y-14050650D01*
X12289229Y-14050650D02*
X12308277Y-14060174D01*
X12308277Y-14060174D02*
X12317801Y-14079222D01*
X12317801Y-14079222D02*
X12317801Y-14183984D01*
X12317801Y-14079222D02*
X12327324Y-14060174D01*
X12327324Y-14060174D02*
X12346372Y-14050650D01*
X12346372Y-14050650D02*
X12374943Y-14050650D01*
X12374943Y-14050650D02*
X12393991Y-14060174D01*
X12393991Y-14060174D02*
X12403515Y-14079222D01*
X12403515Y-14079222D02*
X12403515Y-14183984D01*
X12793991Y-13974460D02*
X12622563Y-14231603D01*
X13051134Y-13983984D02*
X13070182Y-13983984D01*
X13070182Y-13983984D02*
X13089229Y-13993508D01*
X13089229Y-13993508D02*
X13098753Y-14003031D01*
X13098753Y-14003031D02*
X13108277Y-14022079D01*
X13108277Y-14022079D02*
X13117801Y-14060174D01*
X13117801Y-14060174D02*
X13117801Y-14107793D01*
X13117801Y-14107793D02*
X13108277Y-14145888D01*
X13108277Y-14145888D02*
X13098753Y-14164936D01*
X13098753Y-14164936D02*
X13089229Y-14174460D01*
X13089229Y-14174460D02*
X13070182Y-14183984D01*
X13070182Y-14183984D02*
X13051134Y-14183984D01*
X13051134Y-14183984D02*
X13032086Y-14174460D01*
X13032086Y-14174460D02*
X13022563Y-14164936D01*
X13022563Y-14164936D02*
X13013039Y-14145888D01*
X13013039Y-14145888D02*
X13003515Y-14107793D01*
X13003515Y-14107793D02*
X13003515Y-14060174D01*
X13003515Y-14060174D02*
X13013039Y-14022079D01*
X13013039Y-14022079D02*
X13022563Y-14003031D01*
X13022563Y-14003031D02*
X13032086Y-13993508D01*
X13032086Y-13993508D02*
X13051134Y-13983984D01*
X13203515Y-14164936D02*
X13213039Y-14174460D01*
X13213039Y-14174460D02*
X13203515Y-14183984D01*
X13203515Y-14183984D02*
X13193991Y-14174460D01*
X13193991Y-14174460D02*
X13203515Y-14164936D01*
X13203515Y-14164936D02*
X13203515Y-14183984D01*
X13336848Y-13983984D02*
X13355896Y-13983984D01*
X13355896Y-13983984D02*
X13374944Y-13993508D01*
X13374944Y-13993508D02*
X13384467Y-14003031D01*
X13384467Y-14003031D02*
X13393991Y-14022079D01*
X13393991Y-14022079D02*
X13403515Y-14060174D01*
X13403515Y-14060174D02*
X13403515Y-14107793D01*
X13403515Y-14107793D02*
X13393991Y-14145888D01*
X13393991Y-14145888D02*
X13384467Y-14164936D01*
X13384467Y-14164936D02*
X13374944Y-14174460D01*
X13374944Y-14174460D02*
X13355896Y-14183984D01*
X13355896Y-14183984D02*
X13336848Y-14183984D01*
X13336848Y-14183984D02*
X13317801Y-14174460D01*
X13317801Y-14174460D02*
X13308277Y-14164936D01*
X13308277Y-14164936D02*
X13298753Y-14145888D01*
X13298753Y-14145888D02*
X13289229Y-14107793D01*
X13289229Y-14107793D02*
X13289229Y-14060174D01*
X13289229Y-14060174D02*
X13298753Y-14022079D01*
X13298753Y-14022079D02*
X13308277Y-14003031D01*
X13308277Y-14003031D02*
X13317801Y-13993508D01*
X13317801Y-13993508D02*
X13336848Y-13983984D01*
X13593991Y-14183984D02*
X13479706Y-14183984D01*
X13536848Y-14183984D02*
X13536848Y-13983984D01*
X13536848Y-13983984D02*
X13517801Y-14012555D01*
X13517801Y-14012555D02*
X13498753Y-14031603D01*
X13498753Y-14031603D02*
X13479706Y-14041127D01*
X13784467Y-14183984D02*
X13670182Y-14183984D01*
X13727325Y-14183984D02*
X13727325Y-13983984D01*
X13727325Y-13983984D02*
X13708277Y-14012555D01*
X13708277Y-14012555D02*
X13689229Y-14031603D01*
X13689229Y-14031603D02*
X13670182Y-14041127D01*
X13898753Y-14069698D02*
X13879706Y-14060174D01*
X13879706Y-14060174D02*
X13870182Y-14050650D01*
X13870182Y-14050650D02*
X13860658Y-14031603D01*
X13860658Y-14031603D02*
X13860658Y-14022079D01*
X13860658Y-14022079D02*
X13870182Y-14003031D01*
X13870182Y-14003031D02*
X13879706Y-13993508D01*
X13879706Y-13993508D02*
X13898753Y-13983984D01*
X13898753Y-13983984D02*
X13936848Y-13983984D01*
X13936848Y-13983984D02*
X13955896Y-13993508D01*
X13955896Y-13993508D02*
X13965420Y-14003031D01*
X13965420Y-14003031D02*
X13974944Y-14022079D01*
X13974944Y-14022079D02*
X13974944Y-14031603D01*
X13974944Y-14031603D02*
X13965420Y-14050650D01*
X13965420Y-14050650D02*
X13955896Y-14060174D01*
X13955896Y-14060174D02*
X13936848Y-14069698D01*
X13936848Y-14069698D02*
X13898753Y-14069698D01*
X13898753Y-14069698D02*
X13879706Y-14079222D01*
X13879706Y-14079222D02*
X13870182Y-14088746D01*
X13870182Y-14088746D02*
X13860658Y-14107793D01*
X13860658Y-14107793D02*
X13860658Y-14145888D01*
X13860658Y-14145888D02*
X13870182Y-14164936D01*
X13870182Y-14164936D02*
X13879706Y-14174460D01*
X13879706Y-14174460D02*
X13898753Y-14183984D01*
X13898753Y-14183984D02*
X13936848Y-14183984D01*
X13936848Y-14183984D02*
X13955896Y-14174460D01*
X13955896Y-14174460D02*
X13965420Y-14164936D01*
X13965420Y-14164936D02*
X13974944Y-14145888D01*
X13974944Y-14145888D02*
X13974944Y-14107793D01*
X13974944Y-14107793D02*
X13965420Y-14088746D01*
X13965420Y-14088746D02*
X13955896Y-14079222D01*
X13955896Y-14079222D02*
X13936848Y-14069698D01*
X14051134Y-13983984D02*
X14051134Y-14022079D01*
X14127325Y-13983984D02*
X14127325Y-14022079D01*
X14422563Y-14260174D02*
X14413039Y-14250650D01*
X14413039Y-14250650D02*
X14393991Y-14222079D01*
X14393991Y-14222079D02*
X14384468Y-14203031D01*
X14384468Y-14203031D02*
X14374944Y-14174460D01*
X14374944Y-14174460D02*
X14365420Y-14126841D01*
X14365420Y-14126841D02*
X14365420Y-14088746D01*
X14365420Y-14088746D02*
X14374944Y-14041127D01*
X14374944Y-14041127D02*
X14384468Y-14012555D01*
X14384468Y-14012555D02*
X14393991Y-13993508D01*
X14393991Y-13993508D02*
X14413039Y-13964936D01*
X14413039Y-13964936D02*
X14422563Y-13955412D01*
X14603515Y-14183984D02*
X14489229Y-14183984D01*
X14546372Y-14183984D02*
X14546372Y-13983984D01*
X14546372Y-13983984D02*
X14527325Y-14012555D01*
X14527325Y-14012555D02*
X14508277Y-14031603D01*
X14508277Y-14031603D02*
X14489229Y-14041127D01*
X14670182Y-13983984D02*
X14793991Y-13983984D01*
X14793991Y-13983984D02*
X14727325Y-14060174D01*
X14727325Y-14060174D02*
X14755896Y-14060174D01*
X14755896Y-14060174D02*
X14774944Y-14069698D01*
X14774944Y-14069698D02*
X14784468Y-14079222D01*
X14784468Y-14079222D02*
X14793991Y-14098269D01*
X14793991Y-14098269D02*
X14793991Y-14145888D01*
X14793991Y-14145888D02*
X14784468Y-14164936D01*
X14784468Y-14164936D02*
X14774944Y-14174460D01*
X14774944Y-14174460D02*
X14755896Y-14183984D01*
X14755896Y-14183984D02*
X14698753Y-14183984D01*
X14698753Y-14183984D02*
X14679706Y-14174460D01*
X14679706Y-14174460D02*
X14670182Y-14164936D01*
X15032087Y-14183984D02*
X15032087Y-13983984D01*
X15117801Y-14183984D02*
X15117801Y-14079222D01*
X15117801Y-14079222D02*
X15108277Y-14060174D01*
X15108277Y-14060174D02*
X15089230Y-14050650D01*
X15089230Y-14050650D02*
X15060658Y-14050650D01*
X15060658Y-14050650D02*
X15041610Y-14060174D01*
X15041610Y-14060174D02*
X15032087Y-14069698D01*
X15241610Y-14183984D02*
X15222563Y-14174460D01*
X15222563Y-14174460D02*
X15213039Y-14164936D01*
X15213039Y-14164936D02*
X15203515Y-14145888D01*
X15203515Y-14145888D02*
X15203515Y-14088746D01*
X15203515Y-14088746D02*
X15213039Y-14069698D01*
X15213039Y-14069698D02*
X15222563Y-14060174D01*
X15222563Y-14060174D02*
X15241610Y-14050650D01*
X15241610Y-14050650D02*
X15270182Y-14050650D01*
X15270182Y-14050650D02*
X15289230Y-14060174D01*
X15289230Y-14060174D02*
X15298753Y-14069698D01*
X15298753Y-14069698D02*
X15308277Y-14088746D01*
X15308277Y-14088746D02*
X15308277Y-14145888D01*
X15308277Y-14145888D02*
X15298753Y-14164936D01*
X15298753Y-14164936D02*
X15289230Y-14174460D01*
X15289230Y-14174460D02*
X15270182Y-14183984D01*
X15270182Y-14183984D02*
X15241610Y-14183984D01*
X15422563Y-14183984D02*
X15403515Y-14174460D01*
X15403515Y-14174460D02*
X15393991Y-14155412D01*
X15393991Y-14155412D02*
X15393991Y-13983984D01*
X15574944Y-14174460D02*
X15555896Y-14183984D01*
X15555896Y-14183984D02*
X15517801Y-14183984D01*
X15517801Y-14183984D02*
X15498753Y-14174460D01*
X15498753Y-14174460D02*
X15489230Y-14155412D01*
X15489230Y-14155412D02*
X15489230Y-14079222D01*
X15489230Y-14079222D02*
X15498753Y-14060174D01*
X15498753Y-14060174D02*
X15517801Y-14050650D01*
X15517801Y-14050650D02*
X15555896Y-14050650D01*
X15555896Y-14050650D02*
X15574944Y-14060174D01*
X15574944Y-14060174D02*
X15584468Y-14079222D01*
X15584468Y-14079222D02*
X15584468Y-14098269D01*
X15584468Y-14098269D02*
X15489230Y-14117317D01*
X15660658Y-14174460D02*
X15679706Y-14183984D01*
X15679706Y-14183984D02*
X15717801Y-14183984D01*
X15717801Y-14183984D02*
X15736849Y-14174460D01*
X15736849Y-14174460D02*
X15746372Y-14155412D01*
X15746372Y-14155412D02*
X15746372Y-14145888D01*
X15746372Y-14145888D02*
X15736849Y-14126841D01*
X15736849Y-14126841D02*
X15717801Y-14117317D01*
X15717801Y-14117317D02*
X15689230Y-14117317D01*
X15689230Y-14117317D02*
X15670182Y-14107793D01*
X15670182Y-14107793D02*
X15660658Y-14088746D01*
X15660658Y-14088746D02*
X15660658Y-14079222D01*
X15660658Y-14079222D02*
X15670182Y-14060174D01*
X15670182Y-14060174D02*
X15689230Y-14050650D01*
X15689230Y-14050650D02*
X15717801Y-14050650D01*
X15717801Y-14050650D02*
X15736849Y-14060174D01*
X15813039Y-14260174D02*
X15822563Y-14250650D01*
X15822563Y-14250650D02*
X15841611Y-14222079D01*
X15841611Y-14222079D02*
X15851134Y-14203031D01*
X15851134Y-14203031D02*
X15860658Y-14174460D01*
X15860658Y-14174460D02*
X15870182Y-14126841D01*
X15870182Y-14126841D02*
X15870182Y-14088746D01*
X15870182Y-14088746D02*
X15860658Y-14041127D01*
X15860658Y-14041127D02*
X15851134Y-14012555D01*
X15851134Y-14012555D02*
X15841611Y-13993508D01*
X15841611Y-13993508D02*
X15822563Y-13964936D01*
X15822563Y-13964936D02*
X15813039Y-13955412D01*
D12*
X10847500Y-14356500D02*
G75*
G02*
X10767500Y-14356500I-40000J0D01*
G01*
X10767500Y-14356500D02*
G75*
G02*
X10847500Y-14356500I40000J0D01*
G01*
D11*
X11146372Y-14247984D02*
X11165420Y-14247984D01*
X11165420Y-14247984D02*
X11184467Y-14257508D01*
X11184467Y-14257508D02*
X11193991Y-14267031D01*
X11193991Y-14267031D02*
X11203515Y-14286079D01*
X11203515Y-14286079D02*
X11213039Y-14324174D01*
X11213039Y-14324174D02*
X11213039Y-14371793D01*
X11213039Y-14371793D02*
X11203515Y-14409888D01*
X11203515Y-14409888D02*
X11193991Y-14428936D01*
X11193991Y-14428936D02*
X11184467Y-14438460D01*
X11184467Y-14438460D02*
X11165420Y-14447984D01*
X11165420Y-14447984D02*
X11146372Y-14447984D01*
X11146372Y-14447984D02*
X11127324Y-14438460D01*
X11127324Y-14438460D02*
X11117801Y-14428936D01*
X11117801Y-14428936D02*
X11108277Y-14409888D01*
X11108277Y-14409888D02*
X11098753Y-14371793D01*
X11098753Y-14371793D02*
X11098753Y-14324174D01*
X11098753Y-14324174D02*
X11108277Y-14286079D01*
X11108277Y-14286079D02*
X11117801Y-14267031D01*
X11117801Y-14267031D02*
X11127324Y-14257508D01*
X11127324Y-14257508D02*
X11146372Y-14247984D01*
X11298753Y-14428936D02*
X11308277Y-14438460D01*
X11308277Y-14438460D02*
X11298753Y-14447984D01*
X11298753Y-14447984D02*
X11289229Y-14438460D01*
X11289229Y-14438460D02*
X11298753Y-14428936D01*
X11298753Y-14428936D02*
X11298753Y-14447984D01*
X11422562Y-14333698D02*
X11403515Y-14324174D01*
X11403515Y-14324174D02*
X11393991Y-14314650D01*
X11393991Y-14314650D02*
X11384467Y-14295603D01*
X11384467Y-14295603D02*
X11384467Y-14286079D01*
X11384467Y-14286079D02*
X11393991Y-14267031D01*
X11393991Y-14267031D02*
X11403515Y-14257508D01*
X11403515Y-14257508D02*
X11422562Y-14247984D01*
X11422562Y-14247984D02*
X11460658Y-14247984D01*
X11460658Y-14247984D02*
X11479705Y-14257508D01*
X11479705Y-14257508D02*
X11489229Y-14267031D01*
X11489229Y-14267031D02*
X11498753Y-14286079D01*
X11498753Y-14286079D02*
X11498753Y-14295603D01*
X11498753Y-14295603D02*
X11489229Y-14314650D01*
X11489229Y-14314650D02*
X11479705Y-14324174D01*
X11479705Y-14324174D02*
X11460658Y-14333698D01*
X11460658Y-14333698D02*
X11422562Y-14333698D01*
X11422562Y-14333698D02*
X11403515Y-14343222D01*
X11403515Y-14343222D02*
X11393991Y-14352746D01*
X11393991Y-14352746D02*
X11384467Y-14371793D01*
X11384467Y-14371793D02*
X11384467Y-14409888D01*
X11384467Y-14409888D02*
X11393991Y-14428936D01*
X11393991Y-14428936D02*
X11403515Y-14438460D01*
X11403515Y-14438460D02*
X11422562Y-14447984D01*
X11422562Y-14447984D02*
X11460658Y-14447984D01*
X11460658Y-14447984D02*
X11479705Y-14438460D01*
X11479705Y-14438460D02*
X11489229Y-14428936D01*
X11489229Y-14428936D02*
X11498753Y-14409888D01*
X11498753Y-14409888D02*
X11498753Y-14371793D01*
X11498753Y-14371793D02*
X11489229Y-14352746D01*
X11489229Y-14352746D02*
X11479705Y-14343222D01*
X11479705Y-14343222D02*
X11460658Y-14333698D01*
X11622562Y-14247984D02*
X11641610Y-14247984D01*
X11641610Y-14247984D02*
X11660658Y-14257508D01*
X11660658Y-14257508D02*
X11670182Y-14267031D01*
X11670182Y-14267031D02*
X11679705Y-14286079D01*
X11679705Y-14286079D02*
X11689229Y-14324174D01*
X11689229Y-14324174D02*
X11689229Y-14371793D01*
X11689229Y-14371793D02*
X11679705Y-14409888D01*
X11679705Y-14409888D02*
X11670182Y-14428936D01*
X11670182Y-14428936D02*
X11660658Y-14438460D01*
X11660658Y-14438460D02*
X11641610Y-14447984D01*
X11641610Y-14447984D02*
X11622562Y-14447984D01*
X11622562Y-14447984D02*
X11603515Y-14438460D01*
X11603515Y-14438460D02*
X11593991Y-14428936D01*
X11593991Y-14428936D02*
X11584467Y-14409888D01*
X11584467Y-14409888D02*
X11574943Y-14371793D01*
X11574943Y-14371793D02*
X11574943Y-14324174D01*
X11574943Y-14324174D02*
X11584467Y-14286079D01*
X11584467Y-14286079D02*
X11593991Y-14267031D01*
X11593991Y-14267031D02*
X11603515Y-14257508D01*
X11603515Y-14257508D02*
X11622562Y-14247984D01*
X11813039Y-14247984D02*
X11832086Y-14247984D01*
X11832086Y-14247984D02*
X11851134Y-14257508D01*
X11851134Y-14257508D02*
X11860658Y-14267031D01*
X11860658Y-14267031D02*
X11870182Y-14286079D01*
X11870182Y-14286079D02*
X11879705Y-14324174D01*
X11879705Y-14324174D02*
X11879705Y-14371793D01*
X11879705Y-14371793D02*
X11870182Y-14409888D01*
X11870182Y-14409888D02*
X11860658Y-14428936D01*
X11860658Y-14428936D02*
X11851134Y-14438460D01*
X11851134Y-14438460D02*
X11832086Y-14447984D01*
X11832086Y-14447984D02*
X11813039Y-14447984D01*
X11813039Y-14447984D02*
X11793991Y-14438460D01*
X11793991Y-14438460D02*
X11784467Y-14428936D01*
X11784467Y-14428936D02*
X11774943Y-14409888D01*
X11774943Y-14409888D02*
X11765420Y-14371793D01*
X11765420Y-14371793D02*
X11765420Y-14324174D01*
X11765420Y-14324174D02*
X11774943Y-14286079D01*
X11774943Y-14286079D02*
X11784467Y-14267031D01*
X11784467Y-14267031D02*
X11793991Y-14257508D01*
X11793991Y-14257508D02*
X11813039Y-14247984D01*
X11965420Y-14447984D02*
X11965420Y-14314650D01*
X11965420Y-14333698D02*
X11974943Y-14324174D01*
X11974943Y-14324174D02*
X11993991Y-14314650D01*
X11993991Y-14314650D02*
X12022563Y-14314650D01*
X12022563Y-14314650D02*
X12041610Y-14324174D01*
X12041610Y-14324174D02*
X12051134Y-14343222D01*
X12051134Y-14343222D02*
X12051134Y-14447984D01*
X12051134Y-14343222D02*
X12060658Y-14324174D01*
X12060658Y-14324174D02*
X12079705Y-14314650D01*
X12079705Y-14314650D02*
X12108277Y-14314650D01*
X12108277Y-14314650D02*
X12127324Y-14324174D01*
X12127324Y-14324174D02*
X12136848Y-14343222D01*
X12136848Y-14343222D02*
X12136848Y-14447984D01*
X12232086Y-14447984D02*
X12232086Y-14314650D01*
X12232086Y-14333698D02*
X12241610Y-14324174D01*
X12241610Y-14324174D02*
X12260658Y-14314650D01*
X12260658Y-14314650D02*
X12289229Y-14314650D01*
X12289229Y-14314650D02*
X12308277Y-14324174D01*
X12308277Y-14324174D02*
X12317801Y-14343222D01*
X12317801Y-14343222D02*
X12317801Y-14447984D01*
X12317801Y-14343222D02*
X12327324Y-14324174D01*
X12327324Y-14324174D02*
X12346372Y-14314650D01*
X12346372Y-14314650D02*
X12374943Y-14314650D01*
X12374943Y-14314650D02*
X12393991Y-14324174D01*
X12393991Y-14324174D02*
X12403515Y-14343222D01*
X12403515Y-14343222D02*
X12403515Y-14447984D01*
X12793991Y-14238460D02*
X12622563Y-14495603D01*
X13051134Y-14247984D02*
X13070182Y-14247984D01*
X13070182Y-14247984D02*
X13089229Y-14257508D01*
X13089229Y-14257508D02*
X13098753Y-14267031D01*
X13098753Y-14267031D02*
X13108277Y-14286079D01*
X13108277Y-14286079D02*
X13117801Y-14324174D01*
X13117801Y-14324174D02*
X13117801Y-14371793D01*
X13117801Y-14371793D02*
X13108277Y-14409888D01*
X13108277Y-14409888D02*
X13098753Y-14428936D01*
X13098753Y-14428936D02*
X13089229Y-14438460D01*
X13089229Y-14438460D02*
X13070182Y-14447984D01*
X13070182Y-14447984D02*
X13051134Y-14447984D01*
X13051134Y-14447984D02*
X13032086Y-14438460D01*
X13032086Y-14438460D02*
X13022563Y-14428936D01*
X13022563Y-14428936D02*
X13013039Y-14409888D01*
X13013039Y-14409888D02*
X13003515Y-14371793D01*
X13003515Y-14371793D02*
X13003515Y-14324174D01*
X13003515Y-14324174D02*
X13013039Y-14286079D01*
X13013039Y-14286079D02*
X13022563Y-14267031D01*
X13022563Y-14267031D02*
X13032086Y-14257508D01*
X13032086Y-14257508D02*
X13051134Y-14247984D01*
X13203515Y-14428936D02*
X13213039Y-14438460D01*
X13213039Y-14438460D02*
X13203515Y-14447984D01*
X13203515Y-14447984D02*
X13193991Y-14438460D01*
X13193991Y-14438460D02*
X13203515Y-14428936D01*
X13203515Y-14428936D02*
X13203515Y-14447984D01*
X13336848Y-14247984D02*
X13355896Y-14247984D01*
X13355896Y-14247984D02*
X13374944Y-14257508D01*
X13374944Y-14257508D02*
X13384467Y-14267031D01*
X13384467Y-14267031D02*
X13393991Y-14286079D01*
X13393991Y-14286079D02*
X13403515Y-14324174D01*
X13403515Y-14324174D02*
X13403515Y-14371793D01*
X13403515Y-14371793D02*
X13393991Y-14409888D01*
X13393991Y-14409888D02*
X13384467Y-14428936D01*
X13384467Y-14428936D02*
X13374944Y-14438460D01*
X13374944Y-14438460D02*
X13355896Y-14447984D01*
X13355896Y-14447984D02*
X13336848Y-14447984D01*
X13336848Y-14447984D02*
X13317801Y-14438460D01*
X13317801Y-14438460D02*
X13308277Y-14428936D01*
X13308277Y-14428936D02*
X13298753Y-14409888D01*
X13298753Y-14409888D02*
X13289229Y-14371793D01*
X13289229Y-14371793D02*
X13289229Y-14324174D01*
X13289229Y-14324174D02*
X13298753Y-14286079D01*
X13298753Y-14286079D02*
X13308277Y-14267031D01*
X13308277Y-14267031D02*
X13317801Y-14257508D01*
X13317801Y-14257508D02*
X13336848Y-14247984D01*
X13470182Y-14247984D02*
X13593991Y-14247984D01*
X13593991Y-14247984D02*
X13527325Y-14324174D01*
X13527325Y-14324174D02*
X13555896Y-14324174D01*
X13555896Y-14324174D02*
X13574944Y-14333698D01*
X13574944Y-14333698D02*
X13584467Y-14343222D01*
X13584467Y-14343222D02*
X13593991Y-14362269D01*
X13593991Y-14362269D02*
X13593991Y-14409888D01*
X13593991Y-14409888D02*
X13584467Y-14428936D01*
X13584467Y-14428936D02*
X13574944Y-14438460D01*
X13574944Y-14438460D02*
X13555896Y-14447984D01*
X13555896Y-14447984D02*
X13498753Y-14447984D01*
X13498753Y-14447984D02*
X13479706Y-14438460D01*
X13479706Y-14438460D02*
X13470182Y-14428936D01*
X13784467Y-14447984D02*
X13670182Y-14447984D01*
X13727325Y-14447984D02*
X13727325Y-14247984D01*
X13727325Y-14247984D02*
X13708277Y-14276555D01*
X13708277Y-14276555D02*
X13689229Y-14295603D01*
X13689229Y-14295603D02*
X13670182Y-14305127D01*
X13965420Y-14247984D02*
X13870182Y-14247984D01*
X13870182Y-14247984D02*
X13860658Y-14343222D01*
X13860658Y-14343222D02*
X13870182Y-14333698D01*
X13870182Y-14333698D02*
X13889229Y-14324174D01*
X13889229Y-14324174D02*
X13936848Y-14324174D01*
X13936848Y-14324174D02*
X13955896Y-14333698D01*
X13955896Y-14333698D02*
X13965420Y-14343222D01*
X13965420Y-14343222D02*
X13974944Y-14362269D01*
X13974944Y-14362269D02*
X13974944Y-14409888D01*
X13974944Y-14409888D02*
X13965420Y-14428936D01*
X13965420Y-14428936D02*
X13955896Y-14438460D01*
X13955896Y-14438460D02*
X13936848Y-14447984D01*
X13936848Y-14447984D02*
X13889229Y-14447984D01*
X13889229Y-14447984D02*
X13870182Y-14438460D01*
X13870182Y-14438460D02*
X13860658Y-14428936D01*
X14051134Y-14247984D02*
X14051134Y-14286079D01*
X14127325Y-14247984D02*
X14127325Y-14286079D01*
X14422563Y-14524174D02*
X14413039Y-14514650D01*
X14413039Y-14514650D02*
X14393991Y-14486079D01*
X14393991Y-14486079D02*
X14384468Y-14467031D01*
X14384468Y-14467031D02*
X14374944Y-14438460D01*
X14374944Y-14438460D02*
X14365420Y-14390841D01*
X14365420Y-14390841D02*
X14365420Y-14352746D01*
X14365420Y-14352746D02*
X14374944Y-14305127D01*
X14374944Y-14305127D02*
X14384468Y-14276555D01*
X14384468Y-14276555D02*
X14393991Y-14257508D01*
X14393991Y-14257508D02*
X14413039Y-14228936D01*
X14413039Y-14228936D02*
X14422563Y-14219412D01*
X14489229Y-14267031D02*
X14498753Y-14257508D01*
X14498753Y-14257508D02*
X14517801Y-14247984D01*
X14517801Y-14247984D02*
X14565420Y-14247984D01*
X14565420Y-14247984D02*
X14584468Y-14257508D01*
X14584468Y-14257508D02*
X14593991Y-14267031D01*
X14593991Y-14267031D02*
X14603515Y-14286079D01*
X14603515Y-14286079D02*
X14603515Y-14305127D01*
X14603515Y-14305127D02*
X14593991Y-14333698D01*
X14593991Y-14333698D02*
X14479706Y-14447984D01*
X14479706Y-14447984D02*
X14603515Y-14447984D01*
X14717801Y-14333698D02*
X14698753Y-14324174D01*
X14698753Y-14324174D02*
X14689229Y-14314650D01*
X14689229Y-14314650D02*
X14679706Y-14295603D01*
X14679706Y-14295603D02*
X14679706Y-14286079D01*
X14679706Y-14286079D02*
X14689229Y-14267031D01*
X14689229Y-14267031D02*
X14698753Y-14257508D01*
X14698753Y-14257508D02*
X14717801Y-14247984D01*
X14717801Y-14247984D02*
X14755896Y-14247984D01*
X14755896Y-14247984D02*
X14774944Y-14257508D01*
X14774944Y-14257508D02*
X14784468Y-14267031D01*
X14784468Y-14267031D02*
X14793991Y-14286079D01*
X14793991Y-14286079D02*
X14793991Y-14295603D01*
X14793991Y-14295603D02*
X14784468Y-14314650D01*
X14784468Y-14314650D02*
X14774944Y-14324174D01*
X14774944Y-14324174D02*
X14755896Y-14333698D01*
X14755896Y-14333698D02*
X14717801Y-14333698D01*
X14717801Y-14333698D02*
X14698753Y-14343222D01*
X14698753Y-14343222D02*
X14689229Y-14352746D01*
X14689229Y-14352746D02*
X14679706Y-14371793D01*
X14679706Y-14371793D02*
X14679706Y-14409888D01*
X14679706Y-14409888D02*
X14689229Y-14428936D01*
X14689229Y-14428936D02*
X14698753Y-14438460D01*
X14698753Y-14438460D02*
X14717801Y-14447984D01*
X14717801Y-14447984D02*
X14755896Y-14447984D01*
X14755896Y-14447984D02*
X14774944Y-14438460D01*
X14774944Y-14438460D02*
X14784468Y-14428936D01*
X14784468Y-14428936D02*
X14793991Y-14409888D01*
X14793991Y-14409888D02*
X14793991Y-14371793D01*
X14793991Y-14371793D02*
X14784468Y-14352746D01*
X14784468Y-14352746D02*
X14774944Y-14343222D01*
X14774944Y-14343222D02*
X14755896Y-14333698D01*
X15032087Y-14447984D02*
X15032087Y-14247984D01*
X15117801Y-14447984D02*
X15117801Y-14343222D01*
X15117801Y-14343222D02*
X15108277Y-14324174D01*
X15108277Y-14324174D02*
X15089230Y-14314650D01*
X15089230Y-14314650D02*
X15060658Y-14314650D01*
X15060658Y-14314650D02*
X15041610Y-14324174D01*
X15041610Y-14324174D02*
X15032087Y-14333698D01*
X15241610Y-14447984D02*
X15222563Y-14438460D01*
X15222563Y-14438460D02*
X15213039Y-14428936D01*
X15213039Y-14428936D02*
X15203515Y-14409888D01*
X15203515Y-14409888D02*
X15203515Y-14352746D01*
X15203515Y-14352746D02*
X15213039Y-14333698D01*
X15213039Y-14333698D02*
X15222563Y-14324174D01*
X15222563Y-14324174D02*
X15241610Y-14314650D01*
X15241610Y-14314650D02*
X15270182Y-14314650D01*
X15270182Y-14314650D02*
X15289230Y-14324174D01*
X15289230Y-14324174D02*
X15298753Y-14333698D01*
X15298753Y-14333698D02*
X15308277Y-14352746D01*
X15308277Y-14352746D02*
X15308277Y-14409888D01*
X15308277Y-14409888D02*
X15298753Y-14428936D01*
X15298753Y-14428936D02*
X15289230Y-14438460D01*
X15289230Y-14438460D02*
X15270182Y-14447984D01*
X15270182Y-14447984D02*
X15241610Y-14447984D01*
X15422563Y-14447984D02*
X15403515Y-14438460D01*
X15403515Y-14438460D02*
X15393991Y-14419412D01*
X15393991Y-14419412D02*
X15393991Y-14247984D01*
X15574944Y-14438460D02*
X15555896Y-14447984D01*
X15555896Y-14447984D02*
X15517801Y-14447984D01*
X15517801Y-14447984D02*
X15498753Y-14438460D01*
X15498753Y-14438460D02*
X15489230Y-14419412D01*
X15489230Y-14419412D02*
X15489230Y-14343222D01*
X15489230Y-14343222D02*
X15498753Y-14324174D01*
X15498753Y-14324174D02*
X15517801Y-14314650D01*
X15517801Y-14314650D02*
X15555896Y-14314650D01*
X15555896Y-14314650D02*
X15574944Y-14324174D01*
X15574944Y-14324174D02*
X15584468Y-14343222D01*
X15584468Y-14343222D02*
X15584468Y-14362269D01*
X15584468Y-14362269D02*
X15489230Y-14381317D01*
X15660658Y-14438460D02*
X15679706Y-14447984D01*
X15679706Y-14447984D02*
X15717801Y-14447984D01*
X15717801Y-14447984D02*
X15736849Y-14438460D01*
X15736849Y-14438460D02*
X15746372Y-14419412D01*
X15746372Y-14419412D02*
X15746372Y-14409888D01*
X15746372Y-14409888D02*
X15736849Y-14390841D01*
X15736849Y-14390841D02*
X15717801Y-14381317D01*
X15717801Y-14381317D02*
X15689230Y-14381317D01*
X15689230Y-14381317D02*
X15670182Y-14371793D01*
X15670182Y-14371793D02*
X15660658Y-14352746D01*
X15660658Y-14352746D02*
X15660658Y-14343222D01*
X15660658Y-14343222D02*
X15670182Y-14324174D01*
X15670182Y-14324174D02*
X15689230Y-14314650D01*
X15689230Y-14314650D02*
X15717801Y-14314650D01*
X15717801Y-14314650D02*
X15736849Y-14324174D01*
X15813039Y-14524174D02*
X15822563Y-14514650D01*
X15822563Y-14514650D02*
X15841611Y-14486079D01*
X15841611Y-14486079D02*
X15851134Y-14467031D01*
X15851134Y-14467031D02*
X15860658Y-14438460D01*
X15860658Y-14438460D02*
X15870182Y-14390841D01*
X15870182Y-14390841D02*
X15870182Y-14352746D01*
X15870182Y-14352746D02*
X15860658Y-14305127D01*
X15860658Y-14305127D02*
X15851134Y-14276555D01*
X15851134Y-14276555D02*
X15841611Y-14257508D01*
X15841611Y-14257508D02*
X15822563Y-14228936D01*
X15822563Y-14228936D02*
X15813039Y-14219412D01*
D12*
X10802500Y-14575500D02*
X10802500Y-14665500D01*
X10757500Y-14620500D02*
X10847500Y-14620500D01*
D11*
X11146372Y-14511984D02*
X11165420Y-14511984D01*
X11165420Y-14511984D02*
X11184467Y-14521508D01*
X11184467Y-14521508D02*
X11193991Y-14531031D01*
X11193991Y-14531031D02*
X11203515Y-14550079D01*
X11203515Y-14550079D02*
X11213039Y-14588174D01*
X11213039Y-14588174D02*
X11213039Y-14635793D01*
X11213039Y-14635793D02*
X11203515Y-14673888D01*
X11203515Y-14673888D02*
X11193991Y-14692936D01*
X11193991Y-14692936D02*
X11184467Y-14702460D01*
X11184467Y-14702460D02*
X11165420Y-14711984D01*
X11165420Y-14711984D02*
X11146372Y-14711984D01*
X11146372Y-14711984D02*
X11127324Y-14702460D01*
X11127324Y-14702460D02*
X11117801Y-14692936D01*
X11117801Y-14692936D02*
X11108277Y-14673888D01*
X11108277Y-14673888D02*
X11098753Y-14635793D01*
X11098753Y-14635793D02*
X11098753Y-14588174D01*
X11098753Y-14588174D02*
X11108277Y-14550079D01*
X11108277Y-14550079D02*
X11117801Y-14531031D01*
X11117801Y-14531031D02*
X11127324Y-14521508D01*
X11127324Y-14521508D02*
X11146372Y-14511984D01*
X11298753Y-14692936D02*
X11308277Y-14702460D01*
X11308277Y-14702460D02*
X11298753Y-14711984D01*
X11298753Y-14711984D02*
X11289229Y-14702460D01*
X11289229Y-14702460D02*
X11298753Y-14692936D01*
X11298753Y-14692936D02*
X11298753Y-14711984D01*
X11403515Y-14711984D02*
X11441610Y-14711984D01*
X11441610Y-14711984D02*
X11460658Y-14702460D01*
X11460658Y-14702460D02*
X11470182Y-14692936D01*
X11470182Y-14692936D02*
X11489229Y-14664365D01*
X11489229Y-14664365D02*
X11498753Y-14626269D01*
X11498753Y-14626269D02*
X11498753Y-14550079D01*
X11498753Y-14550079D02*
X11489229Y-14531031D01*
X11489229Y-14531031D02*
X11479705Y-14521508D01*
X11479705Y-14521508D02*
X11460658Y-14511984D01*
X11460658Y-14511984D02*
X11422562Y-14511984D01*
X11422562Y-14511984D02*
X11403515Y-14521508D01*
X11403515Y-14521508D02*
X11393991Y-14531031D01*
X11393991Y-14531031D02*
X11384467Y-14550079D01*
X11384467Y-14550079D02*
X11384467Y-14597698D01*
X11384467Y-14597698D02*
X11393991Y-14616746D01*
X11393991Y-14616746D02*
X11403515Y-14626269D01*
X11403515Y-14626269D02*
X11422562Y-14635793D01*
X11422562Y-14635793D02*
X11460658Y-14635793D01*
X11460658Y-14635793D02*
X11479705Y-14626269D01*
X11479705Y-14626269D02*
X11489229Y-14616746D01*
X11489229Y-14616746D02*
X11498753Y-14597698D01*
X11622562Y-14511984D02*
X11641610Y-14511984D01*
X11641610Y-14511984D02*
X11660658Y-14521508D01*
X11660658Y-14521508D02*
X11670182Y-14531031D01*
X11670182Y-14531031D02*
X11679705Y-14550079D01*
X11679705Y-14550079D02*
X11689229Y-14588174D01*
X11689229Y-14588174D02*
X11689229Y-14635793D01*
X11689229Y-14635793D02*
X11679705Y-14673888D01*
X11679705Y-14673888D02*
X11670182Y-14692936D01*
X11670182Y-14692936D02*
X11660658Y-14702460D01*
X11660658Y-14702460D02*
X11641610Y-14711984D01*
X11641610Y-14711984D02*
X11622562Y-14711984D01*
X11622562Y-14711984D02*
X11603515Y-14702460D01*
X11603515Y-14702460D02*
X11593991Y-14692936D01*
X11593991Y-14692936D02*
X11584467Y-14673888D01*
X11584467Y-14673888D02*
X11574943Y-14635793D01*
X11574943Y-14635793D02*
X11574943Y-14588174D01*
X11574943Y-14588174D02*
X11584467Y-14550079D01*
X11584467Y-14550079D02*
X11593991Y-14531031D01*
X11593991Y-14531031D02*
X11603515Y-14521508D01*
X11603515Y-14521508D02*
X11622562Y-14511984D01*
X11813039Y-14511984D02*
X11832086Y-14511984D01*
X11832086Y-14511984D02*
X11851134Y-14521508D01*
X11851134Y-14521508D02*
X11860658Y-14531031D01*
X11860658Y-14531031D02*
X11870182Y-14550079D01*
X11870182Y-14550079D02*
X11879705Y-14588174D01*
X11879705Y-14588174D02*
X11879705Y-14635793D01*
X11879705Y-14635793D02*
X11870182Y-14673888D01*
X11870182Y-14673888D02*
X11860658Y-14692936D01*
X11860658Y-14692936D02*
X11851134Y-14702460D01*
X11851134Y-14702460D02*
X11832086Y-14711984D01*
X11832086Y-14711984D02*
X11813039Y-14711984D01*
X11813039Y-14711984D02*
X11793991Y-14702460D01*
X11793991Y-14702460D02*
X11784467Y-14692936D01*
X11784467Y-14692936D02*
X11774943Y-14673888D01*
X11774943Y-14673888D02*
X11765420Y-14635793D01*
X11765420Y-14635793D02*
X11765420Y-14588174D01*
X11765420Y-14588174D02*
X11774943Y-14550079D01*
X11774943Y-14550079D02*
X11784467Y-14531031D01*
X11784467Y-14531031D02*
X11793991Y-14521508D01*
X11793991Y-14521508D02*
X11813039Y-14511984D01*
X11965420Y-14711984D02*
X11965420Y-14578650D01*
X11965420Y-14597698D02*
X11974943Y-14588174D01*
X11974943Y-14588174D02*
X11993991Y-14578650D01*
X11993991Y-14578650D02*
X12022563Y-14578650D01*
X12022563Y-14578650D02*
X12041610Y-14588174D01*
X12041610Y-14588174D02*
X12051134Y-14607222D01*
X12051134Y-14607222D02*
X12051134Y-14711984D01*
X12051134Y-14607222D02*
X12060658Y-14588174D01*
X12060658Y-14588174D02*
X12079705Y-14578650D01*
X12079705Y-14578650D02*
X12108277Y-14578650D01*
X12108277Y-14578650D02*
X12127324Y-14588174D01*
X12127324Y-14588174D02*
X12136848Y-14607222D01*
X12136848Y-14607222D02*
X12136848Y-14711984D01*
X12232086Y-14711984D02*
X12232086Y-14578650D01*
X12232086Y-14597698D02*
X12241610Y-14588174D01*
X12241610Y-14588174D02*
X12260658Y-14578650D01*
X12260658Y-14578650D02*
X12289229Y-14578650D01*
X12289229Y-14578650D02*
X12308277Y-14588174D01*
X12308277Y-14588174D02*
X12317801Y-14607222D01*
X12317801Y-14607222D02*
X12317801Y-14711984D01*
X12317801Y-14607222D02*
X12327324Y-14588174D01*
X12327324Y-14588174D02*
X12346372Y-14578650D01*
X12346372Y-14578650D02*
X12374943Y-14578650D01*
X12374943Y-14578650D02*
X12393991Y-14588174D01*
X12393991Y-14588174D02*
X12403515Y-14607222D01*
X12403515Y-14607222D02*
X12403515Y-14711984D01*
X12793991Y-14502460D02*
X12622563Y-14759603D01*
X13051134Y-14511984D02*
X13070182Y-14511984D01*
X13070182Y-14511984D02*
X13089229Y-14521508D01*
X13089229Y-14521508D02*
X13098753Y-14531031D01*
X13098753Y-14531031D02*
X13108277Y-14550079D01*
X13108277Y-14550079D02*
X13117801Y-14588174D01*
X13117801Y-14588174D02*
X13117801Y-14635793D01*
X13117801Y-14635793D02*
X13108277Y-14673888D01*
X13108277Y-14673888D02*
X13098753Y-14692936D01*
X13098753Y-14692936D02*
X13089229Y-14702460D01*
X13089229Y-14702460D02*
X13070182Y-14711984D01*
X13070182Y-14711984D02*
X13051134Y-14711984D01*
X13051134Y-14711984D02*
X13032086Y-14702460D01*
X13032086Y-14702460D02*
X13022563Y-14692936D01*
X13022563Y-14692936D02*
X13013039Y-14673888D01*
X13013039Y-14673888D02*
X13003515Y-14635793D01*
X13003515Y-14635793D02*
X13003515Y-14588174D01*
X13003515Y-14588174D02*
X13013039Y-14550079D01*
X13013039Y-14550079D02*
X13022563Y-14531031D01*
X13022563Y-14531031D02*
X13032086Y-14521508D01*
X13032086Y-14521508D02*
X13051134Y-14511984D01*
X13203515Y-14692936D02*
X13213039Y-14702460D01*
X13213039Y-14702460D02*
X13203515Y-14711984D01*
X13203515Y-14711984D02*
X13193991Y-14702460D01*
X13193991Y-14702460D02*
X13203515Y-14692936D01*
X13203515Y-14692936D02*
X13203515Y-14711984D01*
X13336848Y-14511984D02*
X13355896Y-14511984D01*
X13355896Y-14511984D02*
X13374944Y-14521508D01*
X13374944Y-14521508D02*
X13384467Y-14531031D01*
X13384467Y-14531031D02*
X13393991Y-14550079D01*
X13393991Y-14550079D02*
X13403515Y-14588174D01*
X13403515Y-14588174D02*
X13403515Y-14635793D01*
X13403515Y-14635793D02*
X13393991Y-14673888D01*
X13393991Y-14673888D02*
X13384467Y-14692936D01*
X13384467Y-14692936D02*
X13374944Y-14702460D01*
X13374944Y-14702460D02*
X13355896Y-14711984D01*
X13355896Y-14711984D02*
X13336848Y-14711984D01*
X13336848Y-14711984D02*
X13317801Y-14702460D01*
X13317801Y-14702460D02*
X13308277Y-14692936D01*
X13308277Y-14692936D02*
X13298753Y-14673888D01*
X13298753Y-14673888D02*
X13289229Y-14635793D01*
X13289229Y-14635793D02*
X13289229Y-14588174D01*
X13289229Y-14588174D02*
X13298753Y-14550079D01*
X13298753Y-14550079D02*
X13308277Y-14531031D01*
X13308277Y-14531031D02*
X13317801Y-14521508D01*
X13317801Y-14521508D02*
X13336848Y-14511984D01*
X13470182Y-14511984D02*
X13593991Y-14511984D01*
X13593991Y-14511984D02*
X13527325Y-14588174D01*
X13527325Y-14588174D02*
X13555896Y-14588174D01*
X13555896Y-14588174D02*
X13574944Y-14597698D01*
X13574944Y-14597698D02*
X13584467Y-14607222D01*
X13584467Y-14607222D02*
X13593991Y-14626269D01*
X13593991Y-14626269D02*
X13593991Y-14673888D01*
X13593991Y-14673888D02*
X13584467Y-14692936D01*
X13584467Y-14692936D02*
X13574944Y-14702460D01*
X13574944Y-14702460D02*
X13555896Y-14711984D01*
X13555896Y-14711984D02*
X13498753Y-14711984D01*
X13498753Y-14711984D02*
X13479706Y-14702460D01*
X13479706Y-14702460D02*
X13470182Y-14692936D01*
X13774944Y-14511984D02*
X13679706Y-14511984D01*
X13679706Y-14511984D02*
X13670182Y-14607222D01*
X13670182Y-14607222D02*
X13679706Y-14597698D01*
X13679706Y-14597698D02*
X13698753Y-14588174D01*
X13698753Y-14588174D02*
X13746372Y-14588174D01*
X13746372Y-14588174D02*
X13765420Y-14597698D01*
X13765420Y-14597698D02*
X13774944Y-14607222D01*
X13774944Y-14607222D02*
X13784467Y-14626269D01*
X13784467Y-14626269D02*
X13784467Y-14673888D01*
X13784467Y-14673888D02*
X13774944Y-14692936D01*
X13774944Y-14692936D02*
X13765420Y-14702460D01*
X13765420Y-14702460D02*
X13746372Y-14711984D01*
X13746372Y-14711984D02*
X13698753Y-14711984D01*
X13698753Y-14711984D02*
X13679706Y-14702460D01*
X13679706Y-14702460D02*
X13670182Y-14692936D01*
X13955896Y-14578650D02*
X13955896Y-14711984D01*
X13908277Y-14502460D02*
X13860658Y-14645317D01*
X13860658Y-14645317D02*
X13984467Y-14645317D01*
X14051134Y-14511984D02*
X14051134Y-14550079D01*
X14127325Y-14511984D02*
X14127325Y-14550079D01*
X14422563Y-14788174D02*
X14413039Y-14778650D01*
X14413039Y-14778650D02*
X14393991Y-14750079D01*
X14393991Y-14750079D02*
X14384468Y-14731031D01*
X14384468Y-14731031D02*
X14374944Y-14702460D01*
X14374944Y-14702460D02*
X14365420Y-14654841D01*
X14365420Y-14654841D02*
X14365420Y-14616746D01*
X14365420Y-14616746D02*
X14374944Y-14569127D01*
X14374944Y-14569127D02*
X14384468Y-14540555D01*
X14384468Y-14540555D02*
X14393991Y-14521508D01*
X14393991Y-14521508D02*
X14413039Y-14492936D01*
X14413039Y-14492936D02*
X14422563Y-14483412D01*
X14527325Y-14597698D02*
X14508277Y-14588174D01*
X14508277Y-14588174D02*
X14498753Y-14578650D01*
X14498753Y-14578650D02*
X14489229Y-14559603D01*
X14489229Y-14559603D02*
X14489229Y-14550079D01*
X14489229Y-14550079D02*
X14498753Y-14531031D01*
X14498753Y-14531031D02*
X14508277Y-14521508D01*
X14508277Y-14521508D02*
X14527325Y-14511984D01*
X14527325Y-14511984D02*
X14565420Y-14511984D01*
X14565420Y-14511984D02*
X14584468Y-14521508D01*
X14584468Y-14521508D02*
X14593991Y-14531031D01*
X14593991Y-14531031D02*
X14603515Y-14550079D01*
X14603515Y-14550079D02*
X14603515Y-14559603D01*
X14603515Y-14559603D02*
X14593991Y-14578650D01*
X14593991Y-14578650D02*
X14584468Y-14588174D01*
X14584468Y-14588174D02*
X14565420Y-14597698D01*
X14565420Y-14597698D02*
X14527325Y-14597698D01*
X14527325Y-14597698D02*
X14508277Y-14607222D01*
X14508277Y-14607222D02*
X14498753Y-14616746D01*
X14498753Y-14616746D02*
X14489229Y-14635793D01*
X14489229Y-14635793D02*
X14489229Y-14673888D01*
X14489229Y-14673888D02*
X14498753Y-14692936D01*
X14498753Y-14692936D02*
X14508277Y-14702460D01*
X14508277Y-14702460D02*
X14527325Y-14711984D01*
X14527325Y-14711984D02*
X14565420Y-14711984D01*
X14565420Y-14711984D02*
X14584468Y-14702460D01*
X14584468Y-14702460D02*
X14593991Y-14692936D01*
X14593991Y-14692936D02*
X14603515Y-14673888D01*
X14603515Y-14673888D02*
X14603515Y-14635793D01*
X14603515Y-14635793D02*
X14593991Y-14616746D01*
X14593991Y-14616746D02*
X14584468Y-14607222D01*
X14584468Y-14607222D02*
X14565420Y-14597698D01*
X14841610Y-14711984D02*
X14841610Y-14511984D01*
X14927325Y-14711984D02*
X14927325Y-14607222D01*
X14927325Y-14607222D02*
X14917801Y-14588174D01*
X14917801Y-14588174D02*
X14898753Y-14578650D01*
X14898753Y-14578650D02*
X14870182Y-14578650D01*
X14870182Y-14578650D02*
X14851134Y-14588174D01*
X14851134Y-14588174D02*
X14841610Y-14597698D01*
X15051134Y-14711984D02*
X15032087Y-14702460D01*
X15032087Y-14702460D02*
X15022563Y-14692936D01*
X15022563Y-14692936D02*
X15013039Y-14673888D01*
X15013039Y-14673888D02*
X15013039Y-14616746D01*
X15013039Y-14616746D02*
X15022563Y-14597698D01*
X15022563Y-14597698D02*
X15032087Y-14588174D01*
X15032087Y-14588174D02*
X15051134Y-14578650D01*
X15051134Y-14578650D02*
X15079706Y-14578650D01*
X15079706Y-14578650D02*
X15098753Y-14588174D01*
X15098753Y-14588174D02*
X15108277Y-14597698D01*
X15108277Y-14597698D02*
X15117801Y-14616746D01*
X15117801Y-14616746D02*
X15117801Y-14673888D01*
X15117801Y-14673888D02*
X15108277Y-14692936D01*
X15108277Y-14692936D02*
X15098753Y-14702460D01*
X15098753Y-14702460D02*
X15079706Y-14711984D01*
X15079706Y-14711984D02*
X15051134Y-14711984D01*
X15232087Y-14711984D02*
X15213039Y-14702460D01*
X15213039Y-14702460D02*
X15203515Y-14683412D01*
X15203515Y-14683412D02*
X15203515Y-14511984D01*
X15384468Y-14702460D02*
X15365420Y-14711984D01*
X15365420Y-14711984D02*
X15327325Y-14711984D01*
X15327325Y-14711984D02*
X15308277Y-14702460D01*
X15308277Y-14702460D02*
X15298753Y-14683412D01*
X15298753Y-14683412D02*
X15298753Y-14607222D01*
X15298753Y-14607222D02*
X15308277Y-14588174D01*
X15308277Y-14588174D02*
X15327325Y-14578650D01*
X15327325Y-14578650D02*
X15365420Y-14578650D01*
X15365420Y-14578650D02*
X15384468Y-14588174D01*
X15384468Y-14588174D02*
X15393991Y-14607222D01*
X15393991Y-14607222D02*
X15393991Y-14626269D01*
X15393991Y-14626269D02*
X15298753Y-14645317D01*
X15470182Y-14702460D02*
X15489230Y-14711984D01*
X15489230Y-14711984D02*
X15527325Y-14711984D01*
X15527325Y-14711984D02*
X15546372Y-14702460D01*
X15546372Y-14702460D02*
X15555896Y-14683412D01*
X15555896Y-14683412D02*
X15555896Y-14673888D01*
X15555896Y-14673888D02*
X15546372Y-14654841D01*
X15546372Y-14654841D02*
X15527325Y-14645317D01*
X15527325Y-14645317D02*
X15498753Y-14645317D01*
X15498753Y-14645317D02*
X15479706Y-14635793D01*
X15479706Y-14635793D02*
X15470182Y-14616746D01*
X15470182Y-14616746D02*
X15470182Y-14607222D01*
X15470182Y-14607222D02*
X15479706Y-14588174D01*
X15479706Y-14588174D02*
X15498753Y-14578650D01*
X15498753Y-14578650D02*
X15527325Y-14578650D01*
X15527325Y-14578650D02*
X15546372Y-14588174D01*
X15622563Y-14788174D02*
X15632087Y-14778650D01*
X15632087Y-14778650D02*
X15651134Y-14750079D01*
X15651134Y-14750079D02*
X15660658Y-14731031D01*
X15660658Y-14731031D02*
X15670182Y-14702460D01*
X15670182Y-14702460D02*
X15679706Y-14654841D01*
X15679706Y-14654841D02*
X15679706Y-14616746D01*
X15679706Y-14616746D02*
X15670182Y-14569127D01*
X15670182Y-14569127D02*
X15660658Y-14540555D01*
X15660658Y-14540555D02*
X15651134Y-14521508D01*
X15651134Y-14521508D02*
X15632087Y-14492936D01*
X15632087Y-14492936D02*
X15622563Y-14483412D01*
D12*
X10832856Y-14919856D02*
X10832856Y-14849144D01*
X10762144Y-14849144D01*
X10762144Y-14919856D01*
X10832856Y-14919856D01*
D11*
X11213039Y-14975984D02*
X11098753Y-14975984D01*
X11155896Y-14975984D02*
X11155896Y-14775984D01*
X11155896Y-14775984D02*
X11136848Y-14804555D01*
X11136848Y-14804555D02*
X11117801Y-14823603D01*
X11117801Y-14823603D02*
X11098753Y-14833127D01*
X11298753Y-14956936D02*
X11308277Y-14966460D01*
X11308277Y-14966460D02*
X11298753Y-14975984D01*
X11298753Y-14975984D02*
X11289229Y-14966460D01*
X11289229Y-14966460D02*
X11298753Y-14956936D01*
X11298753Y-14956936D02*
X11298753Y-14975984D01*
X11432086Y-14775984D02*
X11451134Y-14775984D01*
X11451134Y-14775984D02*
X11470182Y-14785508D01*
X11470182Y-14785508D02*
X11479705Y-14795031D01*
X11479705Y-14795031D02*
X11489229Y-14814079D01*
X11489229Y-14814079D02*
X11498753Y-14852174D01*
X11498753Y-14852174D02*
X11498753Y-14899793D01*
X11498753Y-14899793D02*
X11489229Y-14937888D01*
X11489229Y-14937888D02*
X11479705Y-14956936D01*
X11479705Y-14956936D02*
X11470182Y-14966460D01*
X11470182Y-14966460D02*
X11451134Y-14975984D01*
X11451134Y-14975984D02*
X11432086Y-14975984D01*
X11432086Y-14975984D02*
X11413039Y-14966460D01*
X11413039Y-14966460D02*
X11403515Y-14956936D01*
X11403515Y-14956936D02*
X11393991Y-14937888D01*
X11393991Y-14937888D02*
X11384467Y-14899793D01*
X11384467Y-14899793D02*
X11384467Y-14852174D01*
X11384467Y-14852174D02*
X11393991Y-14814079D01*
X11393991Y-14814079D02*
X11403515Y-14795031D01*
X11403515Y-14795031D02*
X11413039Y-14785508D01*
X11413039Y-14785508D02*
X11432086Y-14775984D01*
X11622562Y-14775984D02*
X11641610Y-14775984D01*
X11641610Y-14775984D02*
X11660658Y-14785508D01*
X11660658Y-14785508D02*
X11670182Y-14795031D01*
X11670182Y-14795031D02*
X11679705Y-14814079D01*
X11679705Y-14814079D02*
X11689229Y-14852174D01*
X11689229Y-14852174D02*
X11689229Y-14899793D01*
X11689229Y-14899793D02*
X11679705Y-14937888D01*
X11679705Y-14937888D02*
X11670182Y-14956936D01*
X11670182Y-14956936D02*
X11660658Y-14966460D01*
X11660658Y-14966460D02*
X11641610Y-14975984D01*
X11641610Y-14975984D02*
X11622562Y-14975984D01*
X11622562Y-14975984D02*
X11603515Y-14966460D01*
X11603515Y-14966460D02*
X11593991Y-14956936D01*
X11593991Y-14956936D02*
X11584467Y-14937888D01*
X11584467Y-14937888D02*
X11574943Y-14899793D01*
X11574943Y-14899793D02*
X11574943Y-14852174D01*
X11574943Y-14852174D02*
X11584467Y-14814079D01*
X11584467Y-14814079D02*
X11593991Y-14795031D01*
X11593991Y-14795031D02*
X11603515Y-14785508D01*
X11603515Y-14785508D02*
X11622562Y-14775984D01*
X11813039Y-14775984D02*
X11832086Y-14775984D01*
X11832086Y-14775984D02*
X11851134Y-14785508D01*
X11851134Y-14785508D02*
X11860658Y-14795031D01*
X11860658Y-14795031D02*
X11870182Y-14814079D01*
X11870182Y-14814079D02*
X11879705Y-14852174D01*
X11879705Y-14852174D02*
X11879705Y-14899793D01*
X11879705Y-14899793D02*
X11870182Y-14937888D01*
X11870182Y-14937888D02*
X11860658Y-14956936D01*
X11860658Y-14956936D02*
X11851134Y-14966460D01*
X11851134Y-14966460D02*
X11832086Y-14975984D01*
X11832086Y-14975984D02*
X11813039Y-14975984D01*
X11813039Y-14975984D02*
X11793991Y-14966460D01*
X11793991Y-14966460D02*
X11784467Y-14956936D01*
X11784467Y-14956936D02*
X11774943Y-14937888D01*
X11774943Y-14937888D02*
X11765420Y-14899793D01*
X11765420Y-14899793D02*
X11765420Y-14852174D01*
X11765420Y-14852174D02*
X11774943Y-14814079D01*
X11774943Y-14814079D02*
X11784467Y-14795031D01*
X11784467Y-14795031D02*
X11793991Y-14785508D01*
X11793991Y-14785508D02*
X11813039Y-14775984D01*
X11965420Y-14975984D02*
X11965420Y-14842650D01*
X11965420Y-14861698D02*
X11974943Y-14852174D01*
X11974943Y-14852174D02*
X11993991Y-14842650D01*
X11993991Y-14842650D02*
X12022563Y-14842650D01*
X12022563Y-14842650D02*
X12041610Y-14852174D01*
X12041610Y-14852174D02*
X12051134Y-14871222D01*
X12051134Y-14871222D02*
X12051134Y-14975984D01*
X12051134Y-14871222D02*
X12060658Y-14852174D01*
X12060658Y-14852174D02*
X12079705Y-14842650D01*
X12079705Y-14842650D02*
X12108277Y-14842650D01*
X12108277Y-14842650D02*
X12127324Y-14852174D01*
X12127324Y-14852174D02*
X12136848Y-14871222D01*
X12136848Y-14871222D02*
X12136848Y-14975984D01*
X12232086Y-14975984D02*
X12232086Y-14842650D01*
X12232086Y-14861698D02*
X12241610Y-14852174D01*
X12241610Y-14852174D02*
X12260658Y-14842650D01*
X12260658Y-14842650D02*
X12289229Y-14842650D01*
X12289229Y-14842650D02*
X12308277Y-14852174D01*
X12308277Y-14852174D02*
X12317801Y-14871222D01*
X12317801Y-14871222D02*
X12317801Y-14975984D01*
X12317801Y-14871222D02*
X12327324Y-14852174D01*
X12327324Y-14852174D02*
X12346372Y-14842650D01*
X12346372Y-14842650D02*
X12374943Y-14842650D01*
X12374943Y-14842650D02*
X12393991Y-14852174D01*
X12393991Y-14852174D02*
X12403515Y-14871222D01*
X12403515Y-14871222D02*
X12403515Y-14975984D01*
X12793991Y-14766460D02*
X12622563Y-15023603D01*
X13051134Y-14775984D02*
X13070182Y-14775984D01*
X13070182Y-14775984D02*
X13089229Y-14785508D01*
X13089229Y-14785508D02*
X13098753Y-14795031D01*
X13098753Y-14795031D02*
X13108277Y-14814079D01*
X13108277Y-14814079D02*
X13117801Y-14852174D01*
X13117801Y-14852174D02*
X13117801Y-14899793D01*
X13117801Y-14899793D02*
X13108277Y-14937888D01*
X13108277Y-14937888D02*
X13098753Y-14956936D01*
X13098753Y-14956936D02*
X13089229Y-14966460D01*
X13089229Y-14966460D02*
X13070182Y-14975984D01*
X13070182Y-14975984D02*
X13051134Y-14975984D01*
X13051134Y-14975984D02*
X13032086Y-14966460D01*
X13032086Y-14966460D02*
X13022563Y-14956936D01*
X13022563Y-14956936D02*
X13013039Y-14937888D01*
X13013039Y-14937888D02*
X13003515Y-14899793D01*
X13003515Y-14899793D02*
X13003515Y-14852174D01*
X13003515Y-14852174D02*
X13013039Y-14814079D01*
X13013039Y-14814079D02*
X13022563Y-14795031D01*
X13022563Y-14795031D02*
X13032086Y-14785508D01*
X13032086Y-14785508D02*
X13051134Y-14775984D01*
X13203515Y-14956936D02*
X13213039Y-14966460D01*
X13213039Y-14966460D02*
X13203515Y-14975984D01*
X13203515Y-14975984D02*
X13193991Y-14966460D01*
X13193991Y-14966460D02*
X13203515Y-14956936D01*
X13203515Y-14956936D02*
X13203515Y-14975984D01*
X13336848Y-14775984D02*
X13355896Y-14775984D01*
X13355896Y-14775984D02*
X13374944Y-14785508D01*
X13374944Y-14785508D02*
X13384467Y-14795031D01*
X13384467Y-14795031D02*
X13393991Y-14814079D01*
X13393991Y-14814079D02*
X13403515Y-14852174D01*
X13403515Y-14852174D02*
X13403515Y-14899793D01*
X13403515Y-14899793D02*
X13393991Y-14937888D01*
X13393991Y-14937888D02*
X13384467Y-14956936D01*
X13384467Y-14956936D02*
X13374944Y-14966460D01*
X13374944Y-14966460D02*
X13355896Y-14975984D01*
X13355896Y-14975984D02*
X13336848Y-14975984D01*
X13336848Y-14975984D02*
X13317801Y-14966460D01*
X13317801Y-14966460D02*
X13308277Y-14956936D01*
X13308277Y-14956936D02*
X13298753Y-14937888D01*
X13298753Y-14937888D02*
X13289229Y-14899793D01*
X13289229Y-14899793D02*
X13289229Y-14852174D01*
X13289229Y-14852174D02*
X13298753Y-14814079D01*
X13298753Y-14814079D02*
X13308277Y-14795031D01*
X13308277Y-14795031D02*
X13317801Y-14785508D01*
X13317801Y-14785508D02*
X13336848Y-14775984D01*
X13470182Y-14775984D02*
X13593991Y-14775984D01*
X13593991Y-14775984D02*
X13527325Y-14852174D01*
X13527325Y-14852174D02*
X13555896Y-14852174D01*
X13555896Y-14852174D02*
X13574944Y-14861698D01*
X13574944Y-14861698D02*
X13584467Y-14871222D01*
X13584467Y-14871222D02*
X13593991Y-14890269D01*
X13593991Y-14890269D02*
X13593991Y-14937888D01*
X13593991Y-14937888D02*
X13584467Y-14956936D01*
X13584467Y-14956936D02*
X13574944Y-14966460D01*
X13574944Y-14966460D02*
X13555896Y-14975984D01*
X13555896Y-14975984D02*
X13498753Y-14975984D01*
X13498753Y-14975984D02*
X13479706Y-14966460D01*
X13479706Y-14966460D02*
X13470182Y-14956936D01*
X13689229Y-14975984D02*
X13727325Y-14975984D01*
X13727325Y-14975984D02*
X13746372Y-14966460D01*
X13746372Y-14966460D02*
X13755896Y-14956936D01*
X13755896Y-14956936D02*
X13774944Y-14928365D01*
X13774944Y-14928365D02*
X13784467Y-14890269D01*
X13784467Y-14890269D02*
X13784467Y-14814079D01*
X13784467Y-14814079D02*
X13774944Y-14795031D01*
X13774944Y-14795031D02*
X13765420Y-14785508D01*
X13765420Y-14785508D02*
X13746372Y-14775984D01*
X13746372Y-14775984D02*
X13708277Y-14775984D01*
X13708277Y-14775984D02*
X13689229Y-14785508D01*
X13689229Y-14785508D02*
X13679706Y-14795031D01*
X13679706Y-14795031D02*
X13670182Y-14814079D01*
X13670182Y-14814079D02*
X13670182Y-14861698D01*
X13670182Y-14861698D02*
X13679706Y-14880746D01*
X13679706Y-14880746D02*
X13689229Y-14890269D01*
X13689229Y-14890269D02*
X13708277Y-14899793D01*
X13708277Y-14899793D02*
X13746372Y-14899793D01*
X13746372Y-14899793D02*
X13765420Y-14890269D01*
X13765420Y-14890269D02*
X13774944Y-14880746D01*
X13774944Y-14880746D02*
X13784467Y-14861698D01*
X13955896Y-14842650D02*
X13955896Y-14975984D01*
X13908277Y-14766460D02*
X13860658Y-14909317D01*
X13860658Y-14909317D02*
X13984467Y-14909317D01*
X14051134Y-14775984D02*
X14051134Y-14814079D01*
X14127325Y-14775984D02*
X14127325Y-14814079D01*
X14422563Y-15052174D02*
X14413039Y-15042650D01*
X14413039Y-15042650D02*
X14393991Y-15014079D01*
X14393991Y-15014079D02*
X14384468Y-14995031D01*
X14384468Y-14995031D02*
X14374944Y-14966460D01*
X14374944Y-14966460D02*
X14365420Y-14918841D01*
X14365420Y-14918841D02*
X14365420Y-14880746D01*
X14365420Y-14880746D02*
X14374944Y-14833127D01*
X14374944Y-14833127D02*
X14384468Y-14804555D01*
X14384468Y-14804555D02*
X14393991Y-14785508D01*
X14393991Y-14785508D02*
X14413039Y-14756936D01*
X14413039Y-14756936D02*
X14422563Y-14747412D01*
X14603515Y-14975984D02*
X14489229Y-14975984D01*
X14546372Y-14975984D02*
X14546372Y-14775984D01*
X14546372Y-14775984D02*
X14527325Y-14804555D01*
X14527325Y-14804555D02*
X14508277Y-14823603D01*
X14508277Y-14823603D02*
X14489229Y-14833127D01*
X14679706Y-14795031D02*
X14689229Y-14785508D01*
X14689229Y-14785508D02*
X14708277Y-14775984D01*
X14708277Y-14775984D02*
X14755896Y-14775984D01*
X14755896Y-14775984D02*
X14774944Y-14785508D01*
X14774944Y-14785508D02*
X14784468Y-14795031D01*
X14784468Y-14795031D02*
X14793991Y-14814079D01*
X14793991Y-14814079D02*
X14793991Y-14833127D01*
X14793991Y-14833127D02*
X14784468Y-14861698D01*
X14784468Y-14861698D02*
X14670182Y-14975984D01*
X14670182Y-14975984D02*
X14793991Y-14975984D01*
X15032087Y-14975984D02*
X15032087Y-14775984D01*
X15117801Y-14975984D02*
X15117801Y-14871222D01*
X15117801Y-14871222D02*
X15108277Y-14852174D01*
X15108277Y-14852174D02*
X15089230Y-14842650D01*
X15089230Y-14842650D02*
X15060658Y-14842650D01*
X15060658Y-14842650D02*
X15041610Y-14852174D01*
X15041610Y-14852174D02*
X15032087Y-14861698D01*
X15241610Y-14975984D02*
X15222563Y-14966460D01*
X15222563Y-14966460D02*
X15213039Y-14956936D01*
X15213039Y-14956936D02*
X15203515Y-14937888D01*
X15203515Y-14937888D02*
X15203515Y-14880746D01*
X15203515Y-14880746D02*
X15213039Y-14861698D01*
X15213039Y-14861698D02*
X15222563Y-14852174D01*
X15222563Y-14852174D02*
X15241610Y-14842650D01*
X15241610Y-14842650D02*
X15270182Y-14842650D01*
X15270182Y-14842650D02*
X15289230Y-14852174D01*
X15289230Y-14852174D02*
X15298753Y-14861698D01*
X15298753Y-14861698D02*
X15308277Y-14880746D01*
X15308277Y-14880746D02*
X15308277Y-14937888D01*
X15308277Y-14937888D02*
X15298753Y-14956936D01*
X15298753Y-14956936D02*
X15289230Y-14966460D01*
X15289230Y-14966460D02*
X15270182Y-14975984D01*
X15270182Y-14975984D02*
X15241610Y-14975984D01*
X15422563Y-14975984D02*
X15403515Y-14966460D01*
X15403515Y-14966460D02*
X15393991Y-14947412D01*
X15393991Y-14947412D02*
X15393991Y-14775984D01*
X15574944Y-14966460D02*
X15555896Y-14975984D01*
X15555896Y-14975984D02*
X15517801Y-14975984D01*
X15517801Y-14975984D02*
X15498753Y-14966460D01*
X15498753Y-14966460D02*
X15489230Y-14947412D01*
X15489230Y-14947412D02*
X15489230Y-14871222D01*
X15489230Y-14871222D02*
X15498753Y-14852174D01*
X15498753Y-14852174D02*
X15517801Y-14842650D01*
X15517801Y-14842650D02*
X15555896Y-14842650D01*
X15555896Y-14842650D02*
X15574944Y-14852174D01*
X15574944Y-14852174D02*
X15584468Y-14871222D01*
X15584468Y-14871222D02*
X15584468Y-14890269D01*
X15584468Y-14890269D02*
X15489230Y-14909317D01*
X15660658Y-14966460D02*
X15679706Y-14975984D01*
X15679706Y-14975984D02*
X15717801Y-14975984D01*
X15717801Y-14975984D02*
X15736849Y-14966460D01*
X15736849Y-14966460D02*
X15746372Y-14947412D01*
X15746372Y-14947412D02*
X15746372Y-14937888D01*
X15746372Y-14937888D02*
X15736849Y-14918841D01*
X15736849Y-14918841D02*
X15717801Y-14909317D01*
X15717801Y-14909317D02*
X15689230Y-14909317D01*
X15689230Y-14909317D02*
X15670182Y-14899793D01*
X15670182Y-14899793D02*
X15660658Y-14880746D01*
X15660658Y-14880746D02*
X15660658Y-14871222D01*
X15660658Y-14871222D02*
X15670182Y-14852174D01*
X15670182Y-14852174D02*
X15689230Y-14842650D01*
X15689230Y-14842650D02*
X15717801Y-14842650D01*
X15717801Y-14842650D02*
X15736849Y-14852174D01*
X15813039Y-15052174D02*
X15822563Y-15042650D01*
X15822563Y-15042650D02*
X15841611Y-15014079D01*
X15841611Y-15014079D02*
X15851134Y-14995031D01*
X15851134Y-14995031D02*
X15860658Y-14966460D01*
X15860658Y-14966460D02*
X15870182Y-14918841D01*
X15870182Y-14918841D02*
X15870182Y-14880746D01*
X15870182Y-14880746D02*
X15860658Y-14833127D01*
X15860658Y-14833127D02*
X15851134Y-14804555D01*
X15851134Y-14804555D02*
X15841611Y-14785508D01*
X15841611Y-14785508D02*
X15822563Y-14756936D01*
X15822563Y-14756936D02*
X15813039Y-14747412D01*
D13*
X10792500Y-15203500D02*
X10847500Y-15148500D01*
X10792500Y-15093500D01*
X10737500Y-15148500D01*
X10792500Y-15203500D01*
D11*
X11213039Y-15239984D02*
X11098753Y-15239984D01*
X11155896Y-15239984D02*
X11155896Y-15039984D01*
X11155896Y-15039984D02*
X11136848Y-15068555D01*
X11136848Y-15068555D02*
X11117801Y-15087603D01*
X11117801Y-15087603D02*
X11098753Y-15097127D01*
X11298753Y-15220936D02*
X11308277Y-15230460D01*
X11308277Y-15230460D02*
X11298753Y-15239984D01*
X11298753Y-15239984D02*
X11289229Y-15230460D01*
X11289229Y-15230460D02*
X11298753Y-15220936D01*
X11298753Y-15220936D02*
X11298753Y-15239984D01*
X11498753Y-15239984D02*
X11384467Y-15239984D01*
X11441610Y-15239984D02*
X11441610Y-15039984D01*
X11441610Y-15039984D02*
X11422562Y-15068555D01*
X11422562Y-15068555D02*
X11403515Y-15087603D01*
X11403515Y-15087603D02*
X11384467Y-15097127D01*
X11622562Y-15039984D02*
X11641610Y-15039984D01*
X11641610Y-15039984D02*
X11660658Y-15049508D01*
X11660658Y-15049508D02*
X11670182Y-15059031D01*
X11670182Y-15059031D02*
X11679705Y-15078079D01*
X11679705Y-15078079D02*
X11689229Y-15116174D01*
X11689229Y-15116174D02*
X11689229Y-15163793D01*
X11689229Y-15163793D02*
X11679705Y-15201888D01*
X11679705Y-15201888D02*
X11670182Y-15220936D01*
X11670182Y-15220936D02*
X11660658Y-15230460D01*
X11660658Y-15230460D02*
X11641610Y-15239984D01*
X11641610Y-15239984D02*
X11622562Y-15239984D01*
X11622562Y-15239984D02*
X11603515Y-15230460D01*
X11603515Y-15230460D02*
X11593991Y-15220936D01*
X11593991Y-15220936D02*
X11584467Y-15201888D01*
X11584467Y-15201888D02*
X11574943Y-15163793D01*
X11574943Y-15163793D02*
X11574943Y-15116174D01*
X11574943Y-15116174D02*
X11584467Y-15078079D01*
X11584467Y-15078079D02*
X11593991Y-15059031D01*
X11593991Y-15059031D02*
X11603515Y-15049508D01*
X11603515Y-15049508D02*
X11622562Y-15039984D01*
X11813039Y-15039984D02*
X11832086Y-15039984D01*
X11832086Y-15039984D02*
X11851134Y-15049508D01*
X11851134Y-15049508D02*
X11860658Y-15059031D01*
X11860658Y-15059031D02*
X11870182Y-15078079D01*
X11870182Y-15078079D02*
X11879705Y-15116174D01*
X11879705Y-15116174D02*
X11879705Y-15163793D01*
X11879705Y-15163793D02*
X11870182Y-15201888D01*
X11870182Y-15201888D02*
X11860658Y-15220936D01*
X11860658Y-15220936D02*
X11851134Y-15230460D01*
X11851134Y-15230460D02*
X11832086Y-15239984D01*
X11832086Y-15239984D02*
X11813039Y-15239984D01*
X11813039Y-15239984D02*
X11793991Y-15230460D01*
X11793991Y-15230460D02*
X11784467Y-15220936D01*
X11784467Y-15220936D02*
X11774943Y-15201888D01*
X11774943Y-15201888D02*
X11765420Y-15163793D01*
X11765420Y-15163793D02*
X11765420Y-15116174D01*
X11765420Y-15116174D02*
X11774943Y-15078079D01*
X11774943Y-15078079D02*
X11784467Y-15059031D01*
X11784467Y-15059031D02*
X11793991Y-15049508D01*
X11793991Y-15049508D02*
X11813039Y-15039984D01*
X11965420Y-15239984D02*
X11965420Y-15106650D01*
X11965420Y-15125698D02*
X11974943Y-15116174D01*
X11974943Y-15116174D02*
X11993991Y-15106650D01*
X11993991Y-15106650D02*
X12022563Y-15106650D01*
X12022563Y-15106650D02*
X12041610Y-15116174D01*
X12041610Y-15116174D02*
X12051134Y-15135222D01*
X12051134Y-15135222D02*
X12051134Y-15239984D01*
X12051134Y-15135222D02*
X12060658Y-15116174D01*
X12060658Y-15116174D02*
X12079705Y-15106650D01*
X12079705Y-15106650D02*
X12108277Y-15106650D01*
X12108277Y-15106650D02*
X12127324Y-15116174D01*
X12127324Y-15116174D02*
X12136848Y-15135222D01*
X12136848Y-15135222D02*
X12136848Y-15239984D01*
X12232086Y-15239984D02*
X12232086Y-15106650D01*
X12232086Y-15125698D02*
X12241610Y-15116174D01*
X12241610Y-15116174D02*
X12260658Y-15106650D01*
X12260658Y-15106650D02*
X12289229Y-15106650D01*
X12289229Y-15106650D02*
X12308277Y-15116174D01*
X12308277Y-15116174D02*
X12317801Y-15135222D01*
X12317801Y-15135222D02*
X12317801Y-15239984D01*
X12317801Y-15135222D02*
X12327324Y-15116174D01*
X12327324Y-15116174D02*
X12346372Y-15106650D01*
X12346372Y-15106650D02*
X12374943Y-15106650D01*
X12374943Y-15106650D02*
X12393991Y-15116174D01*
X12393991Y-15116174D02*
X12403515Y-15135222D01*
X12403515Y-15135222D02*
X12403515Y-15239984D01*
X12793991Y-15030460D02*
X12622563Y-15287603D01*
X13051134Y-15039984D02*
X13070182Y-15039984D01*
X13070182Y-15039984D02*
X13089229Y-15049508D01*
X13089229Y-15049508D02*
X13098753Y-15059031D01*
X13098753Y-15059031D02*
X13108277Y-15078079D01*
X13108277Y-15078079D02*
X13117801Y-15116174D01*
X13117801Y-15116174D02*
X13117801Y-15163793D01*
X13117801Y-15163793D02*
X13108277Y-15201888D01*
X13108277Y-15201888D02*
X13098753Y-15220936D01*
X13098753Y-15220936D02*
X13089229Y-15230460D01*
X13089229Y-15230460D02*
X13070182Y-15239984D01*
X13070182Y-15239984D02*
X13051134Y-15239984D01*
X13051134Y-15239984D02*
X13032086Y-15230460D01*
X13032086Y-15230460D02*
X13022563Y-15220936D01*
X13022563Y-15220936D02*
X13013039Y-15201888D01*
X13013039Y-15201888D02*
X13003515Y-15163793D01*
X13003515Y-15163793D02*
X13003515Y-15116174D01*
X13003515Y-15116174D02*
X13013039Y-15078079D01*
X13013039Y-15078079D02*
X13022563Y-15059031D01*
X13022563Y-15059031D02*
X13032086Y-15049508D01*
X13032086Y-15049508D02*
X13051134Y-15039984D01*
X13203515Y-15220936D02*
X13213039Y-15230460D01*
X13213039Y-15230460D02*
X13203515Y-15239984D01*
X13203515Y-15239984D02*
X13193991Y-15230460D01*
X13193991Y-15230460D02*
X13203515Y-15220936D01*
X13203515Y-15220936D02*
X13203515Y-15239984D01*
X13336848Y-15039984D02*
X13355896Y-15039984D01*
X13355896Y-15039984D02*
X13374944Y-15049508D01*
X13374944Y-15049508D02*
X13384467Y-15059031D01*
X13384467Y-15059031D02*
X13393991Y-15078079D01*
X13393991Y-15078079D02*
X13403515Y-15116174D01*
X13403515Y-15116174D02*
X13403515Y-15163793D01*
X13403515Y-15163793D02*
X13393991Y-15201888D01*
X13393991Y-15201888D02*
X13384467Y-15220936D01*
X13384467Y-15220936D02*
X13374944Y-15230460D01*
X13374944Y-15230460D02*
X13355896Y-15239984D01*
X13355896Y-15239984D02*
X13336848Y-15239984D01*
X13336848Y-15239984D02*
X13317801Y-15230460D01*
X13317801Y-15230460D02*
X13308277Y-15220936D01*
X13308277Y-15220936D02*
X13298753Y-15201888D01*
X13298753Y-15201888D02*
X13289229Y-15163793D01*
X13289229Y-15163793D02*
X13289229Y-15116174D01*
X13289229Y-15116174D02*
X13298753Y-15078079D01*
X13298753Y-15078079D02*
X13308277Y-15059031D01*
X13308277Y-15059031D02*
X13317801Y-15049508D01*
X13317801Y-15049508D02*
X13336848Y-15039984D01*
X13574944Y-15106650D02*
X13574944Y-15239984D01*
X13527325Y-15030460D02*
X13479706Y-15173317D01*
X13479706Y-15173317D02*
X13603515Y-15173317D01*
X13660658Y-15039984D02*
X13784467Y-15039984D01*
X13784467Y-15039984D02*
X13717801Y-15116174D01*
X13717801Y-15116174D02*
X13746372Y-15116174D01*
X13746372Y-15116174D02*
X13765420Y-15125698D01*
X13765420Y-15125698D02*
X13774944Y-15135222D01*
X13774944Y-15135222D02*
X13784467Y-15154269D01*
X13784467Y-15154269D02*
X13784467Y-15201888D01*
X13784467Y-15201888D02*
X13774944Y-15220936D01*
X13774944Y-15220936D02*
X13765420Y-15230460D01*
X13765420Y-15230460D02*
X13746372Y-15239984D01*
X13746372Y-15239984D02*
X13689229Y-15239984D01*
X13689229Y-15239984D02*
X13670182Y-15230460D01*
X13670182Y-15230460D02*
X13660658Y-15220936D01*
X13851134Y-15039984D02*
X13974944Y-15039984D01*
X13974944Y-15039984D02*
X13908277Y-15116174D01*
X13908277Y-15116174D02*
X13936848Y-15116174D01*
X13936848Y-15116174D02*
X13955896Y-15125698D01*
X13955896Y-15125698D02*
X13965420Y-15135222D01*
X13965420Y-15135222D02*
X13974944Y-15154269D01*
X13974944Y-15154269D02*
X13974944Y-15201888D01*
X13974944Y-15201888D02*
X13965420Y-15220936D01*
X13965420Y-15220936D02*
X13955896Y-15230460D01*
X13955896Y-15230460D02*
X13936848Y-15239984D01*
X13936848Y-15239984D02*
X13879706Y-15239984D01*
X13879706Y-15239984D02*
X13860658Y-15230460D01*
X13860658Y-15230460D02*
X13851134Y-15220936D01*
X14051134Y-15039984D02*
X14051134Y-15078079D01*
X14127325Y-15039984D02*
X14127325Y-15078079D01*
X14422563Y-15316174D02*
X14413039Y-15306650D01*
X14413039Y-15306650D02*
X14393991Y-15278079D01*
X14393991Y-15278079D02*
X14384468Y-15259031D01*
X14384468Y-15259031D02*
X14374944Y-15230460D01*
X14374944Y-15230460D02*
X14365420Y-15182841D01*
X14365420Y-15182841D02*
X14365420Y-15144746D01*
X14365420Y-15144746D02*
X14374944Y-15097127D01*
X14374944Y-15097127D02*
X14384468Y-15068555D01*
X14384468Y-15068555D02*
X14393991Y-15049508D01*
X14393991Y-15049508D02*
X14413039Y-15020936D01*
X14413039Y-15020936D02*
X14422563Y-15011412D01*
X14489229Y-15059031D02*
X14498753Y-15049508D01*
X14498753Y-15049508D02*
X14517801Y-15039984D01*
X14517801Y-15039984D02*
X14565420Y-15039984D01*
X14565420Y-15039984D02*
X14584468Y-15049508D01*
X14584468Y-15049508D02*
X14593991Y-15059031D01*
X14593991Y-15059031D02*
X14603515Y-15078079D01*
X14603515Y-15078079D02*
X14603515Y-15097127D01*
X14603515Y-15097127D02*
X14593991Y-15125698D01*
X14593991Y-15125698D02*
X14479706Y-15239984D01*
X14479706Y-15239984D02*
X14603515Y-15239984D01*
X14670182Y-15039984D02*
X14793991Y-15039984D01*
X14793991Y-15039984D02*
X14727325Y-15116174D01*
X14727325Y-15116174D02*
X14755896Y-15116174D01*
X14755896Y-15116174D02*
X14774944Y-15125698D01*
X14774944Y-15125698D02*
X14784468Y-15135222D01*
X14784468Y-15135222D02*
X14793991Y-15154269D01*
X14793991Y-15154269D02*
X14793991Y-15201888D01*
X14793991Y-15201888D02*
X14784468Y-15220936D01*
X14784468Y-15220936D02*
X14774944Y-15230460D01*
X14774944Y-15230460D02*
X14755896Y-15239984D01*
X14755896Y-15239984D02*
X14698753Y-15239984D01*
X14698753Y-15239984D02*
X14679706Y-15230460D01*
X14679706Y-15230460D02*
X14670182Y-15220936D01*
X15032087Y-15239984D02*
X15032087Y-15039984D01*
X15117801Y-15239984D02*
X15117801Y-15135222D01*
X15117801Y-15135222D02*
X15108277Y-15116174D01*
X15108277Y-15116174D02*
X15089230Y-15106650D01*
X15089230Y-15106650D02*
X15060658Y-15106650D01*
X15060658Y-15106650D02*
X15041610Y-15116174D01*
X15041610Y-15116174D02*
X15032087Y-15125698D01*
X15241610Y-15239984D02*
X15222563Y-15230460D01*
X15222563Y-15230460D02*
X15213039Y-15220936D01*
X15213039Y-15220936D02*
X15203515Y-15201888D01*
X15203515Y-15201888D02*
X15203515Y-15144746D01*
X15203515Y-15144746D02*
X15213039Y-15125698D01*
X15213039Y-15125698D02*
X15222563Y-15116174D01*
X15222563Y-15116174D02*
X15241610Y-15106650D01*
X15241610Y-15106650D02*
X15270182Y-15106650D01*
X15270182Y-15106650D02*
X15289230Y-15116174D01*
X15289230Y-15116174D02*
X15298753Y-15125698D01*
X15298753Y-15125698D02*
X15308277Y-15144746D01*
X15308277Y-15144746D02*
X15308277Y-15201888D01*
X15308277Y-15201888D02*
X15298753Y-15220936D01*
X15298753Y-15220936D02*
X15289230Y-15230460D01*
X15289230Y-15230460D02*
X15270182Y-15239984D01*
X15270182Y-15239984D02*
X15241610Y-15239984D01*
X15422563Y-15239984D02*
X15403515Y-15230460D01*
X15403515Y-15230460D02*
X15393991Y-15211412D01*
X15393991Y-15211412D02*
X15393991Y-15039984D01*
X15574944Y-15230460D02*
X15555896Y-15239984D01*
X15555896Y-15239984D02*
X15517801Y-15239984D01*
X15517801Y-15239984D02*
X15498753Y-15230460D01*
X15498753Y-15230460D02*
X15489230Y-15211412D01*
X15489230Y-15211412D02*
X15489230Y-15135222D01*
X15489230Y-15135222D02*
X15498753Y-15116174D01*
X15498753Y-15116174D02*
X15517801Y-15106650D01*
X15517801Y-15106650D02*
X15555896Y-15106650D01*
X15555896Y-15106650D02*
X15574944Y-15116174D01*
X15574944Y-15116174D02*
X15584468Y-15135222D01*
X15584468Y-15135222D02*
X15584468Y-15154269D01*
X15584468Y-15154269D02*
X15489230Y-15173317D01*
X15660658Y-15230460D02*
X15679706Y-15239984D01*
X15679706Y-15239984D02*
X15717801Y-15239984D01*
X15717801Y-15239984D02*
X15736849Y-15230460D01*
X15736849Y-15230460D02*
X15746372Y-15211412D01*
X15746372Y-15211412D02*
X15746372Y-15201888D01*
X15746372Y-15201888D02*
X15736849Y-15182841D01*
X15736849Y-15182841D02*
X15717801Y-15173317D01*
X15717801Y-15173317D02*
X15689230Y-15173317D01*
X15689230Y-15173317D02*
X15670182Y-15163793D01*
X15670182Y-15163793D02*
X15660658Y-15144746D01*
X15660658Y-15144746D02*
X15660658Y-15135222D01*
X15660658Y-15135222D02*
X15670182Y-15116174D01*
X15670182Y-15116174D02*
X15689230Y-15106650D01*
X15689230Y-15106650D02*
X15717801Y-15106650D01*
X15717801Y-15106650D02*
X15736849Y-15116174D01*
X15813039Y-15316174D02*
X15822563Y-15306650D01*
X15822563Y-15306650D02*
X15841611Y-15278079D01*
X15841611Y-15278079D02*
X15851134Y-15259031D01*
X15851134Y-15259031D02*
X15860658Y-15230460D01*
X15860658Y-15230460D02*
X15870182Y-15182841D01*
X15870182Y-15182841D02*
X15870182Y-15144746D01*
X15870182Y-15144746D02*
X15860658Y-15097127D01*
X15860658Y-15097127D02*
X15851134Y-15068555D01*
X15851134Y-15068555D02*
X15841611Y-15049508D01*
X15841611Y-15049508D02*
X15822563Y-15020936D01*
X15822563Y-15020936D02*
X15813039Y-15011412D01*
D14*
X10717500Y-15347500D02*
X10847500Y-15477500D01*
X10847500Y-15347500D02*
X10717500Y-15477500D01*
X10847500Y-15412500D02*
G75*
G02*
X10717500Y-15412500I-65000J0D01*
G01*
X10717500Y-15412500D02*
G75*
G02*
X10847500Y-15412500I65000J0D01*
G01*
D11*
X11213039Y-15503984D02*
X11098753Y-15503984D01*
X11155896Y-15503984D02*
X11155896Y-15303984D01*
X11155896Y-15303984D02*
X11136848Y-15332555D01*
X11136848Y-15332555D02*
X11117801Y-15351603D01*
X11117801Y-15351603D02*
X11098753Y-15361127D01*
X11298753Y-15484936D02*
X11308277Y-15494460D01*
X11308277Y-15494460D02*
X11298753Y-15503984D01*
X11298753Y-15503984D02*
X11289229Y-15494460D01*
X11289229Y-15494460D02*
X11298753Y-15484936D01*
X11298753Y-15484936D02*
X11298753Y-15503984D01*
X11374943Y-15303984D02*
X11498753Y-15303984D01*
X11498753Y-15303984D02*
X11432086Y-15380174D01*
X11432086Y-15380174D02*
X11460658Y-15380174D01*
X11460658Y-15380174D02*
X11479705Y-15389698D01*
X11479705Y-15389698D02*
X11489229Y-15399222D01*
X11489229Y-15399222D02*
X11498753Y-15418269D01*
X11498753Y-15418269D02*
X11498753Y-15465888D01*
X11498753Y-15465888D02*
X11489229Y-15484936D01*
X11489229Y-15484936D02*
X11479705Y-15494460D01*
X11479705Y-15494460D02*
X11460658Y-15503984D01*
X11460658Y-15503984D02*
X11403515Y-15503984D01*
X11403515Y-15503984D02*
X11384467Y-15494460D01*
X11384467Y-15494460D02*
X11374943Y-15484936D01*
X11622562Y-15303984D02*
X11641610Y-15303984D01*
X11641610Y-15303984D02*
X11660658Y-15313508D01*
X11660658Y-15313508D02*
X11670182Y-15323031D01*
X11670182Y-15323031D02*
X11679705Y-15342079D01*
X11679705Y-15342079D02*
X11689229Y-15380174D01*
X11689229Y-15380174D02*
X11689229Y-15427793D01*
X11689229Y-15427793D02*
X11679705Y-15465888D01*
X11679705Y-15465888D02*
X11670182Y-15484936D01*
X11670182Y-15484936D02*
X11660658Y-15494460D01*
X11660658Y-15494460D02*
X11641610Y-15503984D01*
X11641610Y-15503984D02*
X11622562Y-15503984D01*
X11622562Y-15503984D02*
X11603515Y-15494460D01*
X11603515Y-15494460D02*
X11593991Y-15484936D01*
X11593991Y-15484936D02*
X11584467Y-15465888D01*
X11584467Y-15465888D02*
X11574943Y-15427793D01*
X11574943Y-15427793D02*
X11574943Y-15380174D01*
X11574943Y-15380174D02*
X11584467Y-15342079D01*
X11584467Y-15342079D02*
X11593991Y-15323031D01*
X11593991Y-15323031D02*
X11603515Y-15313508D01*
X11603515Y-15313508D02*
X11622562Y-15303984D01*
X11813039Y-15303984D02*
X11832086Y-15303984D01*
X11832086Y-15303984D02*
X11851134Y-15313508D01*
X11851134Y-15313508D02*
X11860658Y-15323031D01*
X11860658Y-15323031D02*
X11870182Y-15342079D01*
X11870182Y-15342079D02*
X11879705Y-15380174D01*
X11879705Y-15380174D02*
X11879705Y-15427793D01*
X11879705Y-15427793D02*
X11870182Y-15465888D01*
X11870182Y-15465888D02*
X11860658Y-15484936D01*
X11860658Y-15484936D02*
X11851134Y-15494460D01*
X11851134Y-15494460D02*
X11832086Y-15503984D01*
X11832086Y-15503984D02*
X11813039Y-15503984D01*
X11813039Y-15503984D02*
X11793991Y-15494460D01*
X11793991Y-15494460D02*
X11784467Y-15484936D01*
X11784467Y-15484936D02*
X11774943Y-15465888D01*
X11774943Y-15465888D02*
X11765420Y-15427793D01*
X11765420Y-15427793D02*
X11765420Y-15380174D01*
X11765420Y-15380174D02*
X11774943Y-15342079D01*
X11774943Y-15342079D02*
X11784467Y-15323031D01*
X11784467Y-15323031D02*
X11793991Y-15313508D01*
X11793991Y-15313508D02*
X11813039Y-15303984D01*
X11965420Y-15503984D02*
X11965420Y-15370650D01*
X11965420Y-15389698D02*
X11974943Y-15380174D01*
X11974943Y-15380174D02*
X11993991Y-15370650D01*
X11993991Y-15370650D02*
X12022563Y-15370650D01*
X12022563Y-15370650D02*
X12041610Y-15380174D01*
X12041610Y-15380174D02*
X12051134Y-15399222D01*
X12051134Y-15399222D02*
X12051134Y-15503984D01*
X12051134Y-15399222D02*
X12060658Y-15380174D01*
X12060658Y-15380174D02*
X12079705Y-15370650D01*
X12079705Y-15370650D02*
X12108277Y-15370650D01*
X12108277Y-15370650D02*
X12127324Y-15380174D01*
X12127324Y-15380174D02*
X12136848Y-15399222D01*
X12136848Y-15399222D02*
X12136848Y-15503984D01*
X12232086Y-15503984D02*
X12232086Y-15370650D01*
X12232086Y-15389698D02*
X12241610Y-15380174D01*
X12241610Y-15380174D02*
X12260658Y-15370650D01*
X12260658Y-15370650D02*
X12289229Y-15370650D01*
X12289229Y-15370650D02*
X12308277Y-15380174D01*
X12308277Y-15380174D02*
X12317801Y-15399222D01*
X12317801Y-15399222D02*
X12317801Y-15503984D01*
X12317801Y-15399222D02*
X12327324Y-15380174D01*
X12327324Y-15380174D02*
X12346372Y-15370650D01*
X12346372Y-15370650D02*
X12374943Y-15370650D01*
X12374943Y-15370650D02*
X12393991Y-15380174D01*
X12393991Y-15380174D02*
X12403515Y-15399222D01*
X12403515Y-15399222D02*
X12403515Y-15503984D01*
X12793991Y-15294460D02*
X12622563Y-15551603D01*
X13051134Y-15303984D02*
X13070182Y-15303984D01*
X13070182Y-15303984D02*
X13089229Y-15313508D01*
X13089229Y-15313508D02*
X13098753Y-15323031D01*
X13098753Y-15323031D02*
X13108277Y-15342079D01*
X13108277Y-15342079D02*
X13117801Y-15380174D01*
X13117801Y-15380174D02*
X13117801Y-15427793D01*
X13117801Y-15427793D02*
X13108277Y-15465888D01*
X13108277Y-15465888D02*
X13098753Y-15484936D01*
X13098753Y-15484936D02*
X13089229Y-15494460D01*
X13089229Y-15494460D02*
X13070182Y-15503984D01*
X13070182Y-15503984D02*
X13051134Y-15503984D01*
X13051134Y-15503984D02*
X13032086Y-15494460D01*
X13032086Y-15494460D02*
X13022563Y-15484936D01*
X13022563Y-15484936D02*
X13013039Y-15465888D01*
X13013039Y-15465888D02*
X13003515Y-15427793D01*
X13003515Y-15427793D02*
X13003515Y-15380174D01*
X13003515Y-15380174D02*
X13013039Y-15342079D01*
X13013039Y-15342079D02*
X13022563Y-15323031D01*
X13022563Y-15323031D02*
X13032086Y-15313508D01*
X13032086Y-15313508D02*
X13051134Y-15303984D01*
X13203515Y-15484936D02*
X13213039Y-15494460D01*
X13213039Y-15494460D02*
X13203515Y-15503984D01*
X13203515Y-15503984D02*
X13193991Y-15494460D01*
X13193991Y-15494460D02*
X13203515Y-15484936D01*
X13203515Y-15484936D02*
X13203515Y-15503984D01*
X13336848Y-15303984D02*
X13355896Y-15303984D01*
X13355896Y-15303984D02*
X13374944Y-15313508D01*
X13374944Y-15313508D02*
X13384467Y-15323031D01*
X13384467Y-15323031D02*
X13393991Y-15342079D01*
X13393991Y-15342079D02*
X13403515Y-15380174D01*
X13403515Y-15380174D02*
X13403515Y-15427793D01*
X13403515Y-15427793D02*
X13393991Y-15465888D01*
X13393991Y-15465888D02*
X13384467Y-15484936D01*
X13384467Y-15484936D02*
X13374944Y-15494460D01*
X13374944Y-15494460D02*
X13355896Y-15503984D01*
X13355896Y-15503984D02*
X13336848Y-15503984D01*
X13336848Y-15503984D02*
X13317801Y-15494460D01*
X13317801Y-15494460D02*
X13308277Y-15484936D01*
X13308277Y-15484936D02*
X13298753Y-15465888D01*
X13298753Y-15465888D02*
X13289229Y-15427793D01*
X13289229Y-15427793D02*
X13289229Y-15380174D01*
X13289229Y-15380174D02*
X13298753Y-15342079D01*
X13298753Y-15342079D02*
X13308277Y-15323031D01*
X13308277Y-15323031D02*
X13317801Y-15313508D01*
X13317801Y-15313508D02*
X13336848Y-15303984D01*
X13584467Y-15303984D02*
X13489229Y-15303984D01*
X13489229Y-15303984D02*
X13479706Y-15399222D01*
X13479706Y-15399222D02*
X13489229Y-15389698D01*
X13489229Y-15389698D02*
X13508277Y-15380174D01*
X13508277Y-15380174D02*
X13555896Y-15380174D01*
X13555896Y-15380174D02*
X13574944Y-15389698D01*
X13574944Y-15389698D02*
X13584467Y-15399222D01*
X13584467Y-15399222D02*
X13593991Y-15418269D01*
X13593991Y-15418269D02*
X13593991Y-15465888D01*
X13593991Y-15465888D02*
X13584467Y-15484936D01*
X13584467Y-15484936D02*
X13574944Y-15494460D01*
X13574944Y-15494460D02*
X13555896Y-15503984D01*
X13555896Y-15503984D02*
X13508277Y-15503984D01*
X13508277Y-15503984D02*
X13489229Y-15494460D01*
X13489229Y-15494460D02*
X13479706Y-15484936D01*
X13784467Y-15503984D02*
X13670182Y-15503984D01*
X13727325Y-15503984D02*
X13727325Y-15303984D01*
X13727325Y-15303984D02*
X13708277Y-15332555D01*
X13708277Y-15332555D02*
X13689229Y-15351603D01*
X13689229Y-15351603D02*
X13670182Y-15361127D01*
X13860658Y-15323031D02*
X13870182Y-15313508D01*
X13870182Y-15313508D02*
X13889229Y-15303984D01*
X13889229Y-15303984D02*
X13936848Y-15303984D01*
X13936848Y-15303984D02*
X13955896Y-15313508D01*
X13955896Y-15313508D02*
X13965420Y-15323031D01*
X13965420Y-15323031D02*
X13974944Y-15342079D01*
X13974944Y-15342079D02*
X13974944Y-15361127D01*
X13974944Y-15361127D02*
X13965420Y-15389698D01*
X13965420Y-15389698D02*
X13851134Y-15503984D01*
X13851134Y-15503984D02*
X13974944Y-15503984D01*
X14051134Y-15303984D02*
X14051134Y-15342079D01*
X14127325Y-15303984D02*
X14127325Y-15342079D01*
X14422563Y-15580174D02*
X14413039Y-15570650D01*
X14413039Y-15570650D02*
X14393991Y-15542079D01*
X14393991Y-15542079D02*
X14384468Y-15523031D01*
X14384468Y-15523031D02*
X14374944Y-15494460D01*
X14374944Y-15494460D02*
X14365420Y-15446841D01*
X14365420Y-15446841D02*
X14365420Y-15408746D01*
X14365420Y-15408746D02*
X14374944Y-15361127D01*
X14374944Y-15361127D02*
X14384468Y-15332555D01*
X14384468Y-15332555D02*
X14393991Y-15313508D01*
X14393991Y-15313508D02*
X14413039Y-15284936D01*
X14413039Y-15284936D02*
X14422563Y-15275412D01*
X14489229Y-15323031D02*
X14498753Y-15313508D01*
X14498753Y-15313508D02*
X14517801Y-15303984D01*
X14517801Y-15303984D02*
X14565420Y-15303984D01*
X14565420Y-15303984D02*
X14584468Y-15313508D01*
X14584468Y-15313508D02*
X14593991Y-15323031D01*
X14593991Y-15323031D02*
X14603515Y-15342079D01*
X14603515Y-15342079D02*
X14603515Y-15361127D01*
X14603515Y-15361127D02*
X14593991Y-15389698D01*
X14593991Y-15389698D02*
X14479706Y-15503984D01*
X14479706Y-15503984D02*
X14603515Y-15503984D01*
X14841610Y-15503984D02*
X14841610Y-15303984D01*
X14927325Y-15503984D02*
X14927325Y-15399222D01*
X14927325Y-15399222D02*
X14917801Y-15380174D01*
X14917801Y-15380174D02*
X14898753Y-15370650D01*
X14898753Y-15370650D02*
X14870182Y-15370650D01*
X14870182Y-15370650D02*
X14851134Y-15380174D01*
X14851134Y-15380174D02*
X14841610Y-15389698D01*
X15051134Y-15503984D02*
X15032087Y-15494460D01*
X15032087Y-15494460D02*
X15022563Y-15484936D01*
X15022563Y-15484936D02*
X15013039Y-15465888D01*
X15013039Y-15465888D02*
X15013039Y-15408746D01*
X15013039Y-15408746D02*
X15022563Y-15389698D01*
X15022563Y-15389698D02*
X15032087Y-15380174D01*
X15032087Y-15380174D02*
X15051134Y-15370650D01*
X15051134Y-15370650D02*
X15079706Y-15370650D01*
X15079706Y-15370650D02*
X15098753Y-15380174D01*
X15098753Y-15380174D02*
X15108277Y-15389698D01*
X15108277Y-15389698D02*
X15117801Y-15408746D01*
X15117801Y-15408746D02*
X15117801Y-15465888D01*
X15117801Y-15465888D02*
X15108277Y-15484936D01*
X15108277Y-15484936D02*
X15098753Y-15494460D01*
X15098753Y-15494460D02*
X15079706Y-15503984D01*
X15079706Y-15503984D02*
X15051134Y-15503984D01*
X15232087Y-15503984D02*
X15213039Y-15494460D01*
X15213039Y-15494460D02*
X15203515Y-15475412D01*
X15203515Y-15475412D02*
X15203515Y-15303984D01*
X15384468Y-15494460D02*
X15365420Y-15503984D01*
X15365420Y-15503984D02*
X15327325Y-15503984D01*
X15327325Y-15503984D02*
X15308277Y-15494460D01*
X15308277Y-15494460D02*
X15298753Y-15475412D01*
X15298753Y-15475412D02*
X15298753Y-15399222D01*
X15298753Y-15399222D02*
X15308277Y-15380174D01*
X15308277Y-15380174D02*
X15327325Y-15370650D01*
X15327325Y-15370650D02*
X15365420Y-15370650D01*
X15365420Y-15370650D02*
X15384468Y-15380174D01*
X15384468Y-15380174D02*
X15393991Y-15399222D01*
X15393991Y-15399222D02*
X15393991Y-15418269D01*
X15393991Y-15418269D02*
X15298753Y-15437317D01*
X15470182Y-15494460D02*
X15489230Y-15503984D01*
X15489230Y-15503984D02*
X15527325Y-15503984D01*
X15527325Y-15503984D02*
X15546372Y-15494460D01*
X15546372Y-15494460D02*
X15555896Y-15475412D01*
X15555896Y-15475412D02*
X15555896Y-15465888D01*
X15555896Y-15465888D02*
X15546372Y-15446841D01*
X15546372Y-15446841D02*
X15527325Y-15437317D01*
X15527325Y-15437317D02*
X15498753Y-15437317D01*
X15498753Y-15437317D02*
X15479706Y-15427793D01*
X15479706Y-15427793D02*
X15470182Y-15408746D01*
X15470182Y-15408746D02*
X15470182Y-15399222D01*
X15470182Y-15399222D02*
X15479706Y-15380174D01*
X15479706Y-15380174D02*
X15498753Y-15370650D01*
X15498753Y-15370650D02*
X15527325Y-15370650D01*
X15527325Y-15370650D02*
X15546372Y-15380174D01*
X15622563Y-15580174D02*
X15632087Y-15570650D01*
X15632087Y-15570650D02*
X15651134Y-15542079D01*
X15651134Y-15542079D02*
X15660658Y-15523031D01*
X15660658Y-15523031D02*
X15670182Y-15494460D01*
X15670182Y-15494460D02*
X15679706Y-15446841D01*
X15679706Y-15446841D02*
X15679706Y-15408746D01*
X15679706Y-15408746D02*
X15670182Y-15361127D01*
X15670182Y-15361127D02*
X15660658Y-15332555D01*
X15660658Y-15332555D02*
X15651134Y-15313508D01*
X15651134Y-15313508D02*
X15632087Y-15284936D01*
X15632087Y-15284936D02*
X15622563Y-15275412D01*
M02*
